<?xml version="1.0" encoding="utf-8" standalone="no"?>
<!DOCTYPE svg PUBLIC "-//W3C//DTD SVG 1.1//EN"
  "http://www.w3.org/Graphics/SVG/1.1/DTD/svg11.dtd">
<svg xmlns:xlink="http://www.w3.org/1999/xlink" width="360pt" height="360pt" viewBox="0 0 360 360" xmlns="http://www.w3.org/2000/svg" version="1.1">
 <metadata>
  <rdf:RDF xmlns:dc="http://purl.org/dc/elements/1.1/" xmlns:cc="http://creativecommons.org/ns#" xmlns:rdf="http://www.w3.org/1999/02/22-rdf-syntax-ns#">
   <cc:Work>
    <dc:type rdf:resource="http://purl.org/dc/dcmitype/StillImage"/>
    <dc:date>2023-03-18T15:18:06.550234</dc:date>
    <dc:format>image/svg+xml</dc:format>
    <dc:creator>
     <cc:Agent>
      <dc:title>Matplotlib v3.6.3, https://matplotlib.org/</dc:title>
     </cc:Agent>
    </dc:creator>
   </cc:Work>
  </rdf:RDF>
 </metadata>
 <defs>
  <style type="text/css">*{stroke-linejoin: round; stroke-linecap: butt}</style>
 </defs>
 <g id="figure_1">
  <g id="patch_1">
   <path d="M 0 360 
L 360 360 
L 360 0 
L 0 0 
z
" style="fill: #ffffff"/>
  </g>
  <g id="axes_1">
   <g id="patch_2">
    <path d="M 56.79 326.74 
L 347.04 326.74 
L 347.04 12.96 
L 56.79 12.96 
z
" style="fill: #eaeaf2"/>
   </g>
   <g id="matplotlib.axis_1">
    <g id="xtick_1">
     <g id="line2d_1">
      <path d="M 56.79 326.74 
L 56.79 12.96 
" clip-path="url(#p50c9cfd83f)" style="fill: none; stroke: #ffffff; stroke-linecap: round"/>
     </g>
     <g id="text_1">
      <!-- 0.0 -->
      <g style="fill: #262626" transform="translate(48.043281 344.598281) scale(0.11 -0.11)">
       <defs>
        <path id="DejaVuSans-30" d="M 2034 4250 
Q 1547 4250 1301 3770 
Q 1056 3291 1056 2328 
Q 1056 1369 1301 889 
Q 1547 409 2034 409 
Q 2525 409 2770 889 
Q 3016 1369 3016 2328 
Q 3016 3291 2770 3770 
Q 2525 4250 2034 4250 
z
M 2034 4750 
Q 2819 4750 3233 4129 
Q 3647 3509 3647 2328 
Q 3647 1150 3233 529 
Q 2819 -91 2034 -91 
Q 1250 -91 836 529 
Q 422 1150 422 2328 
Q 422 3509 836 4129 
Q 1250 4750 2034 4750 
z
" transform="scale(0.015625)"/>
        <path id="DejaVuSans-2e" d="M 684 794 
L 1344 794 
L 1344 0 
L 684 0 
L 684 794 
z
" transform="scale(0.015625)"/>
       </defs>
       <use xlink:href="#DejaVuSans-30"/>
       <use xlink:href="#DejaVuSans-2e" x="63.623047"/>
       <use xlink:href="#DejaVuSans-30" x="95.410156"/>
      </g>
     </g>
    </g>
    <g id="xtick_2">
     <g id="line2d_2">
      <path d="M 114.84 326.74 
L 114.84 12.96 
" clip-path="url(#p50c9cfd83f)" style="fill: none; stroke: #ffffff; stroke-linecap: round"/>
     </g>
     <g id="text_2">
      <!-- 0.2 -->
      <g style="fill: #262626" transform="translate(106.093281 344.598281) scale(0.11 -0.11)">
       <defs>
        <path id="DejaVuSans-32" d="M 1228 531 
L 3431 531 
L 3431 0 
L 469 0 
L 469 531 
Q 828 903 1448 1529 
Q 2069 2156 2228 2338 
Q 2531 2678 2651 2914 
Q 2772 3150 2772 3378 
Q 2772 3750 2511 3984 
Q 2250 4219 1831 4219 
Q 1534 4219 1204 4116 
Q 875 4013 500 3803 
L 500 4441 
Q 881 4594 1212 4672 
Q 1544 4750 1819 4750 
Q 2544 4750 2975 4387 
Q 3406 4025 3406 3419 
Q 3406 3131 3298 2873 
Q 3191 2616 2906 2266 
Q 2828 2175 2409 1742 
Q 1991 1309 1228 531 
z
" transform="scale(0.015625)"/>
       </defs>
       <use xlink:href="#DejaVuSans-30"/>
       <use xlink:href="#DejaVuSans-2e" x="63.623047"/>
       <use xlink:href="#DejaVuSans-32" x="95.410156"/>
      </g>
     </g>
    </g>
    <g id="xtick_3">
     <g id="line2d_3">
      <path d="M 172.89 326.74 
L 172.89 12.96 
" clip-path="url(#p50c9cfd83f)" style="fill: none; stroke: #ffffff; stroke-linecap: round"/>
     </g>
     <g id="text_3">
      <!-- 0.4 -->
      <g style="fill: #262626" transform="translate(164.143281 344.598281) scale(0.11 -0.11)">
       <defs>
        <path id="DejaVuSans-34" d="M 2419 4116 
L 825 1625 
L 2419 1625 
L 2419 4116 
z
M 2253 4666 
L 3047 4666 
L 3047 1625 
L 3713 1625 
L 3713 1100 
L 3047 1100 
L 3047 0 
L 2419 0 
L 2419 1100 
L 313 1100 
L 313 1709 
L 2253 4666 
z
" transform="scale(0.015625)"/>
       </defs>
       <use xlink:href="#DejaVuSans-30"/>
       <use xlink:href="#DejaVuSans-2e" x="63.623047"/>
       <use xlink:href="#DejaVuSans-34" x="95.410156"/>
      </g>
     </g>
    </g>
    <g id="xtick_4">
     <g id="line2d_4">
      <path d="M 230.94 326.74 
L 230.94 12.96 
" clip-path="url(#p50c9cfd83f)" style="fill: none; stroke: #ffffff; stroke-linecap: round"/>
     </g>
     <g id="text_4">
      <!-- 0.6 -->
      <g style="fill: #262626" transform="translate(222.193281 344.598281) scale(0.11 -0.11)">
       <defs>
        <path id="DejaVuSans-36" d="M 2113 2584 
Q 1688 2584 1439 2293 
Q 1191 2003 1191 1497 
Q 1191 994 1439 701 
Q 1688 409 2113 409 
Q 2538 409 2786 701 
Q 3034 994 3034 1497 
Q 3034 2003 2786 2293 
Q 2538 2584 2113 2584 
z
M 3366 4563 
L 3366 3988 
Q 3128 4100 2886 4159 
Q 2644 4219 2406 4219 
Q 1781 4219 1451 3797 
Q 1122 3375 1075 2522 
Q 1259 2794 1537 2939 
Q 1816 3084 2150 3084 
Q 2853 3084 3261 2657 
Q 3669 2231 3669 1497 
Q 3669 778 3244 343 
Q 2819 -91 2113 -91 
Q 1303 -91 875 529 
Q 447 1150 447 2328 
Q 447 3434 972 4092 
Q 1497 4750 2381 4750 
Q 2619 4750 2861 4703 
Q 3103 4656 3366 4563 
z
" transform="scale(0.015625)"/>
       </defs>
       <use xlink:href="#DejaVuSans-30"/>
       <use xlink:href="#DejaVuSans-2e" x="63.623047"/>
       <use xlink:href="#DejaVuSans-36" x="95.410156"/>
      </g>
     </g>
    </g>
    <g id="xtick_5">
     <g id="line2d_5">
      <path d="M 288.99 326.74 
L 288.99 12.96 
" clip-path="url(#p50c9cfd83f)" style="fill: none; stroke: #ffffff; stroke-linecap: round"/>
     </g>
     <g id="text_5">
      <!-- 0.8 -->
      <g style="fill: #262626" transform="translate(280.243281 344.598281) scale(0.11 -0.11)">
       <defs>
        <path id="DejaVuSans-38" d="M 2034 2216 
Q 1584 2216 1326 1975 
Q 1069 1734 1069 1313 
Q 1069 891 1326 650 
Q 1584 409 2034 409 
Q 2484 409 2743 651 
Q 3003 894 3003 1313 
Q 3003 1734 2745 1975 
Q 2488 2216 2034 2216 
z
M 1403 2484 
Q 997 2584 770 2862 
Q 544 3141 544 3541 
Q 544 4100 942 4425 
Q 1341 4750 2034 4750 
Q 2731 4750 3128 4425 
Q 3525 4100 3525 3541 
Q 3525 3141 3298 2862 
Q 3072 2584 2669 2484 
Q 3125 2378 3379 2068 
Q 3634 1759 3634 1313 
Q 3634 634 3220 271 
Q 2806 -91 2034 -91 
Q 1263 -91 848 271 
Q 434 634 434 1313 
Q 434 1759 690 2068 
Q 947 2378 1403 2484 
z
M 1172 3481 
Q 1172 3119 1398 2916 
Q 1625 2713 2034 2713 
Q 2441 2713 2670 2916 
Q 2900 3119 2900 3481 
Q 2900 3844 2670 4047 
Q 2441 4250 2034 4250 
Q 1625 4250 1398 4047 
Q 1172 3844 1172 3481 
z
" transform="scale(0.015625)"/>
       </defs>
       <use xlink:href="#DejaVuSans-30"/>
       <use xlink:href="#DejaVuSans-2e" x="63.623047"/>
       <use xlink:href="#DejaVuSans-38" x="95.410156"/>
      </g>
     </g>
    </g>
    <g id="xtick_6">
     <g id="line2d_6">
      <path d="M 347.04 326.74 
L 347.04 12.96 
" clip-path="url(#p50c9cfd83f)" style="fill: none; stroke: #ffffff; stroke-linecap: round"/>
     </g>
     <g id="text_6">
      <!-- 1.0 -->
      <g style="fill: #262626" transform="translate(338.293281 344.598281) scale(0.11 -0.11)">
       <defs>
        <path id="DejaVuSans-31" d="M 794 531 
L 1825 531 
L 1825 4091 
L 703 3866 
L 703 4441 
L 1819 4666 
L 2450 4666 
L 2450 531 
L 3481 531 
L 3481 0 
L 794 0 
L 794 531 
z
" transform="scale(0.015625)"/>
       </defs>
       <use xlink:href="#DejaVuSans-31"/>
       <use xlink:href="#DejaVuSans-2e" x="63.623047"/>
       <use xlink:href="#DejaVuSans-30" x="95.410156"/>
      </g>
     </g>
    </g>
    <g id="text_7">
     <!-- Probabilités [-] -->
     <g style="fill: #262626" transform="translate(158.180625 360.004063) scale(0.12 -0.12)">
      <defs>
       <path id="DejaVuSans-50" d="M 1259 4147 
L 1259 2394 
L 2053 2394 
Q 2494 2394 2734 2622 
Q 2975 2850 2975 3272 
Q 2975 3691 2734 3919 
Q 2494 4147 2053 4147 
L 1259 4147 
z
M 628 4666 
L 2053 4666 
Q 2838 4666 3239 4311 
Q 3641 3956 3641 3272 
Q 3641 2581 3239 2228 
Q 2838 1875 2053 1875 
L 1259 1875 
L 1259 0 
L 628 0 
L 628 4666 
z
" transform="scale(0.015625)"/>
       <path id="DejaVuSans-72" d="M 2631 2963 
Q 2534 3019 2420 3045 
Q 2306 3072 2169 3072 
Q 1681 3072 1420 2755 
Q 1159 2438 1159 1844 
L 1159 0 
L 581 0 
L 581 3500 
L 1159 3500 
L 1159 2956 
Q 1341 3275 1631 3429 
Q 1922 3584 2338 3584 
Q 2397 3584 2469 3576 
Q 2541 3569 2628 3553 
L 2631 2963 
z
" transform="scale(0.015625)"/>
       <path id="DejaVuSans-6f" d="M 1959 3097 
Q 1497 3097 1228 2736 
Q 959 2375 959 1747 
Q 959 1119 1226 758 
Q 1494 397 1959 397 
Q 2419 397 2687 759 
Q 2956 1122 2956 1747 
Q 2956 2369 2687 2733 
Q 2419 3097 1959 3097 
z
M 1959 3584 
Q 2709 3584 3137 3096 
Q 3566 2609 3566 1747 
Q 3566 888 3137 398 
Q 2709 -91 1959 -91 
Q 1206 -91 779 398 
Q 353 888 353 1747 
Q 353 2609 779 3096 
Q 1206 3584 1959 3584 
z
" transform="scale(0.015625)"/>
       <path id="DejaVuSans-62" d="M 3116 1747 
Q 3116 2381 2855 2742 
Q 2594 3103 2138 3103 
Q 1681 3103 1420 2742 
Q 1159 2381 1159 1747 
Q 1159 1113 1420 752 
Q 1681 391 2138 391 
Q 2594 391 2855 752 
Q 3116 1113 3116 1747 
z
M 1159 2969 
Q 1341 3281 1617 3432 
Q 1894 3584 2278 3584 
Q 2916 3584 3314 3078 
Q 3713 2572 3713 1747 
Q 3713 922 3314 415 
Q 2916 -91 2278 -91 
Q 1894 -91 1617 61 
Q 1341 213 1159 525 
L 1159 0 
L 581 0 
L 581 4863 
L 1159 4863 
L 1159 2969 
z
" transform="scale(0.015625)"/>
       <path id="DejaVuSans-61" d="M 2194 1759 
Q 1497 1759 1228 1600 
Q 959 1441 959 1056 
Q 959 750 1161 570 
Q 1363 391 1709 391 
Q 2188 391 2477 730 
Q 2766 1069 2766 1631 
L 2766 1759 
L 2194 1759 
z
M 3341 1997 
L 3341 0 
L 2766 0 
L 2766 531 
Q 2569 213 2275 61 
Q 1981 -91 1556 -91 
Q 1019 -91 701 211 
Q 384 513 384 1019 
Q 384 1609 779 1909 
Q 1175 2209 1959 2209 
L 2766 2209 
L 2766 2266 
Q 2766 2663 2505 2880 
Q 2244 3097 1772 3097 
Q 1472 3097 1187 3025 
Q 903 2953 641 2809 
L 641 3341 
Q 956 3463 1253 3523 
Q 1550 3584 1831 3584 
Q 2591 3584 2966 3190 
Q 3341 2797 3341 1997 
z
" transform="scale(0.015625)"/>
       <path id="DejaVuSans-69" d="M 603 3500 
L 1178 3500 
L 1178 0 
L 603 0 
L 603 3500 
z
M 603 4863 
L 1178 4863 
L 1178 4134 
L 603 4134 
L 603 4863 
z
" transform="scale(0.015625)"/>
       <path id="DejaVuSans-6c" d="M 603 4863 
L 1178 4863 
L 1178 0 
L 603 0 
L 603 4863 
z
" transform="scale(0.015625)"/>
       <path id="DejaVuSans-74" d="M 1172 4494 
L 1172 3500 
L 2356 3500 
L 2356 3053 
L 1172 3053 
L 1172 1153 
Q 1172 725 1289 603 
Q 1406 481 1766 481 
L 2356 481 
L 2356 0 
L 1766 0 
Q 1100 0 847 248 
Q 594 497 594 1153 
L 594 3053 
L 172 3053 
L 172 3500 
L 594 3500 
L 594 4494 
L 1172 4494 
z
" transform="scale(0.015625)"/>
       <path id="DejaVuSans-e9" d="M 3597 1894 
L 3597 1613 
L 953 1613 
Q 991 1019 1311 708 
Q 1631 397 2203 397 
Q 2534 397 2845 478 
Q 3156 559 3463 722 
L 3463 178 
Q 3153 47 2828 -22 
Q 2503 -91 2169 -91 
Q 1331 -91 842 396 
Q 353 884 353 1716 
Q 353 2575 817 3079 
Q 1281 3584 2069 3584 
Q 2775 3584 3186 3129 
Q 3597 2675 3597 1894 
z
M 3022 2063 
Q 3016 2534 2758 2815 
Q 2500 3097 2075 3097 
Q 1594 3097 1305 2825 
Q 1016 2553 972 2059 
L 3022 2063 
z
M 2466 5119 
L 3088 5119 
L 2070 3944 
L 1591 3944 
L 2466 5119 
z
" transform="scale(0.015625)"/>
       <path id="DejaVuSans-73" d="M 2834 3397 
L 2834 2853 
Q 2591 2978 2328 3040 
Q 2066 3103 1784 3103 
Q 1356 3103 1142 2972 
Q 928 2841 928 2578 
Q 928 2378 1081 2264 
Q 1234 2150 1697 2047 
L 1894 2003 
Q 2506 1872 2764 1633 
Q 3022 1394 3022 966 
Q 3022 478 2636 193 
Q 2250 -91 1575 -91 
Q 1294 -91 989 -36 
Q 684 19 347 128 
L 347 722 
Q 666 556 975 473 
Q 1284 391 1588 391 
Q 1994 391 2212 530 
Q 2431 669 2431 922 
Q 2431 1156 2273 1281 
Q 2116 1406 1581 1522 
L 1381 1569 
Q 847 1681 609 1914 
Q 372 2147 372 2553 
Q 372 3047 722 3315 
Q 1072 3584 1716 3584 
Q 2034 3584 2315 3537 
Q 2597 3491 2834 3397 
z
" transform="scale(0.015625)"/>
       <path id="DejaVuSans-20" transform="scale(0.015625)"/>
       <path id="DejaVuSans-5b" d="M 550 4863 
L 1875 4863 
L 1875 4416 
L 1125 4416 
L 1125 -397 
L 1875 -397 
L 1875 -844 
L 550 -844 
L 550 4863 
z
" transform="scale(0.015625)"/>
       <path id="DejaVuSans-2d" d="M 313 2009 
L 1997 2009 
L 1997 1497 
L 313 1497 
L 313 2009 
z
" transform="scale(0.015625)"/>
       <path id="DejaVuSans-5d" d="M 1947 4863 
L 1947 -844 
L 622 -844 
L 622 -397 
L 1369 -397 
L 1369 4416 
L 622 4416 
L 622 4863 
L 1947 4863 
z
" transform="scale(0.015625)"/>
      </defs>
      <use xlink:href="#DejaVuSans-50"/>
      <use xlink:href="#DejaVuSans-72" x="58.552734"/>
      <use xlink:href="#DejaVuSans-6f" x="97.416016"/>
      <use xlink:href="#DejaVuSans-62" x="158.597656"/>
      <use xlink:href="#DejaVuSans-61" x="222.074219"/>
      <use xlink:href="#DejaVuSans-62" x="283.353516"/>
      <use xlink:href="#DejaVuSans-69" x="346.830078"/>
      <use xlink:href="#DejaVuSans-6c" x="374.613281"/>
      <use xlink:href="#DejaVuSans-69" x="402.396484"/>
      <use xlink:href="#DejaVuSans-74" x="430.179688"/>
      <use xlink:href="#DejaVuSans-e9" x="469.388672"/>
      <use xlink:href="#DejaVuSans-73" x="530.912109"/>
      <use xlink:href="#DejaVuSans-20" x="583.011719"/>
      <use xlink:href="#DejaVuSans-5b" x="614.798828"/>
      <use xlink:href="#DejaVuSans-2d" x="653.8125"/>
      <use xlink:href="#DejaVuSans-5d" x="689.896484"/>
     </g>
    </g>
   </g>
   <g id="matplotlib.axis_2">
    <g id="ytick_1">
     <g id="line2d_7">
      <path d="M 56.79 326.74 
L 347.04 326.74 
" clip-path="url(#p50c9cfd83f)" style="fill: none; stroke: #ffffff; stroke-linecap: round"/>
     </g>
     <g id="text_8">
      <!-- 0.0 -->
      <g style="fill: #262626" transform="translate(29.796563 330.919141) scale(0.11 -0.11)">
       <use xlink:href="#DejaVuSans-30"/>
       <use xlink:href="#DejaVuSans-2e" x="63.623047"/>
       <use xlink:href="#DejaVuSans-30" x="95.410156"/>
      </g>
     </g>
    </g>
    <g id="ytick_2">
     <g id="line2d_8">
      <path d="M 56.79 267.211435 
L 347.04 267.211435 
" clip-path="url(#p50c9cfd83f)" style="fill: none; stroke: #ffffff; stroke-linecap: round"/>
     </g>
     <g id="text_9">
      <!-- 0.5 -->
      <g style="fill: #262626" transform="translate(29.796563 271.390576) scale(0.11 -0.11)">
       <defs>
        <path id="DejaVuSans-35" d="M 691 4666 
L 3169 4666 
L 3169 4134 
L 1269 4134 
L 1269 2991 
Q 1406 3038 1543 3061 
Q 1681 3084 1819 3084 
Q 2600 3084 3056 2656 
Q 3513 2228 3513 1497 
Q 3513 744 3044 326 
Q 2575 -91 1722 -91 
Q 1428 -91 1123 -41 
Q 819 9 494 109 
L 494 744 
Q 775 591 1075 516 
Q 1375 441 1709 441 
Q 2250 441 2565 725 
Q 2881 1009 2881 1497 
Q 2881 1984 2565 2268 
Q 2250 2553 1709 2553 
Q 1456 2553 1204 2497 
Q 953 2441 691 2322 
L 691 4666 
z
" transform="scale(0.015625)"/>
       </defs>
       <use xlink:href="#DejaVuSans-30"/>
       <use xlink:href="#DejaVuSans-2e" x="63.623047"/>
       <use xlink:href="#DejaVuSans-35" x="95.410156"/>
      </g>
     </g>
    </g>
    <g id="ytick_3">
     <g id="line2d_9">
      <path d="M 56.79 207.68287 
L 347.04 207.68287 
" clip-path="url(#p50c9cfd83f)" style="fill: none; stroke: #ffffff; stroke-linecap: round"/>
     </g>
     <g id="text_10">
      <!-- 1.0 -->
      <g style="fill: #262626" transform="translate(29.796563 211.862011) scale(0.11 -0.11)">
       <use xlink:href="#DejaVuSans-31"/>
       <use xlink:href="#DejaVuSans-2e" x="63.623047"/>
       <use xlink:href="#DejaVuSans-30" x="95.410156"/>
      </g>
     </g>
    </g>
    <g id="ytick_4">
     <g id="line2d_10">
      <path d="M 56.79 148.154306 
L 347.04 148.154306 
" clip-path="url(#p50c9cfd83f)" style="fill: none; stroke: #ffffff; stroke-linecap: round"/>
     </g>
     <g id="text_11">
      <!-- 1.5 -->
      <g style="fill: #262626" transform="translate(29.796563 152.333446) scale(0.11 -0.11)">
       <use xlink:href="#DejaVuSans-31"/>
       <use xlink:href="#DejaVuSans-2e" x="63.623047"/>
       <use xlink:href="#DejaVuSans-35" x="95.410156"/>
      </g>
     </g>
    </g>
    <g id="ytick_5">
     <g id="line2d_11">
      <path d="M 56.79 88.625741 
L 347.04 88.625741 
" clip-path="url(#p50c9cfd83f)" style="fill: none; stroke: #ffffff; stroke-linecap: round"/>
     </g>
     <g id="text_12">
      <!-- 2.0 -->
      <g style="fill: #262626" transform="translate(29.796563 92.804881) scale(0.11 -0.11)">
       <use xlink:href="#DejaVuSans-32"/>
       <use xlink:href="#DejaVuSans-2e" x="63.623047"/>
       <use xlink:href="#DejaVuSans-30" x="95.410156"/>
      </g>
     </g>
    </g>
    <g id="ytick_6">
     <g id="line2d_12">
      <path d="M 56.79 29.097176 
L 347.04 29.097176 
" clip-path="url(#p50c9cfd83f)" style="fill: none; stroke: #ffffff; stroke-linecap: round"/>
     </g>
     <g id="text_13">
      <!-- 2.5 -->
      <g style="fill: #262626" transform="translate(29.796563 33.276317) scale(0.11 -0.11)">
       <use xlink:href="#DejaVuSans-32"/>
       <use xlink:href="#DejaVuSans-2e" x="63.623047"/>
       <use xlink:href="#DejaVuSans-35" x="95.410156"/>
      </g>
     </g>
    </g>
    <g id="text_14">
     <!-- Densité [-] -->
     <g style="fill: #262626" transform="translate(23.300937 201.554375) rotate(-90) scale(0.12 -0.12)">
      <defs>
       <path id="DejaVuSans-44" d="M 1259 4147 
L 1259 519 
L 2022 519 
Q 2988 519 3436 956 
Q 3884 1394 3884 2338 
Q 3884 3275 3436 3711 
Q 2988 4147 2022 4147 
L 1259 4147 
z
M 628 4666 
L 1925 4666 
Q 3281 4666 3915 4102 
Q 4550 3538 4550 2338 
Q 4550 1131 3912 565 
Q 3275 0 1925 0 
L 628 0 
L 628 4666 
z
" transform="scale(0.015625)"/>
       <path id="DejaVuSans-65" d="M 3597 1894 
L 3597 1613 
L 953 1613 
Q 991 1019 1311 708 
Q 1631 397 2203 397 
Q 2534 397 2845 478 
Q 3156 559 3463 722 
L 3463 178 
Q 3153 47 2828 -22 
Q 2503 -91 2169 -91 
Q 1331 -91 842 396 
Q 353 884 353 1716 
Q 353 2575 817 3079 
Q 1281 3584 2069 3584 
Q 2775 3584 3186 3129 
Q 3597 2675 3597 1894 
z
M 3022 2063 
Q 3016 2534 2758 2815 
Q 2500 3097 2075 3097 
Q 1594 3097 1305 2825 
Q 1016 2553 972 2059 
L 3022 2063 
z
" transform="scale(0.015625)"/>
       <path id="DejaVuSans-6e" d="M 3513 2113 
L 3513 0 
L 2938 0 
L 2938 2094 
Q 2938 2591 2744 2837 
Q 2550 3084 2163 3084 
Q 1697 3084 1428 2787 
Q 1159 2491 1159 1978 
L 1159 0 
L 581 0 
L 581 3500 
L 1159 3500 
L 1159 2956 
Q 1366 3272 1645 3428 
Q 1925 3584 2291 3584 
Q 2894 3584 3203 3211 
Q 3513 2838 3513 2113 
z
" transform="scale(0.015625)"/>
      </defs>
      <use xlink:href="#DejaVuSans-44"/>
      <use xlink:href="#DejaVuSans-65" x="77.001953"/>
      <use xlink:href="#DejaVuSans-6e" x="138.525391"/>
      <use xlink:href="#DejaVuSans-73" x="201.904297"/>
      <use xlink:href="#DejaVuSans-69" x="254.003906"/>
      <use xlink:href="#DejaVuSans-74" x="281.787109"/>
      <use xlink:href="#DejaVuSans-e9" x="320.996094"/>
      <use xlink:href="#DejaVuSans-20" x="382.519531"/>
      <use xlink:href="#DejaVuSans-5b" x="414.306641"/>
      <use xlink:href="#DejaVuSans-2d" x="453.320312"/>
      <use xlink:href="#DejaVuSans-5d" x="489.404297"/>
     </g>
    </g>
   </g>
   <g id="PolyCollection_1">
    <defs>
     <path id="md961f70128" d="M 99.158609 -33.512684 
L 99.158609 -33.26 
L 100.404244 -33.26 
L 101.649879 -33.26 
L 102.895514 -33.26 
L 104.14115 -33.26 
L 105.386785 -33.26 
L 106.63242 -33.26 
L 107.878055 -33.26 
L 109.12369 -33.26 
L 110.369325 -33.26 
L 111.61496 -33.26 
L 112.860596 -33.26 
L 114.106231 -33.26 
L 115.351866 -33.26 
L 116.597501 -33.26 
L 117.843136 -33.26 
L 119.088771 -33.26 
L 120.334406 -33.26 
L 121.580041 -33.26 
L 122.825677 -33.26 
L 124.071312 -33.26 
L 125.316947 -33.26 
L 126.562582 -33.26 
L 127.808217 -33.26 
L 129.053852 -33.26 
L 130.299487 -33.26 
L 131.545122 -33.26 
L 132.790758 -33.26 
L 134.036393 -33.26 
L 135.282028 -33.26 
L 136.527663 -33.26 
L 137.773298 -33.26 
L 139.018933 -33.26 
L 140.264568 -33.26 
L 141.510204 -33.26 
L 142.755839 -33.26 
L 144.001474 -33.26 
L 145.247109 -33.26 
L 146.492744 -33.26 
L 147.738379 -33.26 
L 148.984014 -33.26 
L 150.229649 -33.26 
L 151.475285 -33.26 
L 152.72092 -33.26 
L 153.966555 -33.26 
L 155.21219 -33.26 
L 156.457825 -33.26 
L 157.70346 -33.26 
L 158.949095 -33.26 
L 160.19473 -33.26 
L 161.440366 -33.26 
L 162.686001 -33.26 
L 163.931636 -33.26 
L 165.177271 -33.26 
L 166.422906 -33.26 
L 167.668541 -33.26 
L 168.914176 -33.26 
L 170.159812 -33.26 
L 171.405447 -33.26 
L 172.651082 -33.26 
L 173.896717 -33.26 
L 175.142352 -33.26 
L 176.387987 -33.26 
L 177.633622 -33.26 
L 178.879257 -33.26 
L 180.124893 -33.26 
L 181.370528 -33.26 
L 182.616163 -33.26 
L 183.861798 -33.26 
L 185.107433 -33.26 
L 186.353068 -33.26 
L 187.598703 -33.26 
L 188.844338 -33.26 
L 190.089974 -33.26 
L 191.335609 -33.26 
L 192.581244 -33.26 
L 193.826879 -33.26 
L 195.072514 -33.26 
L 196.318149 -33.26 
L 197.563784 -33.26 
L 198.80942 -33.26 
L 200.055055 -33.26 
L 201.30069 -33.26 
L 202.546325 -33.26 
L 203.79196 -33.26 
L 205.037595 -33.26 
L 206.28323 -33.26 
L 207.528865 -33.26 
L 208.774501 -33.26 
L 210.020136 -33.26 
L 211.265771 -33.26 
L 212.511406 -33.26 
L 213.757041 -33.26 
L 215.002676 -33.26 
L 216.248311 -33.26 
L 217.493946 -33.26 
L 218.739582 -33.26 
L 219.985217 -33.26 
L 221.230852 -33.26 
L 222.476487 -33.26 
L 223.722122 -33.26 
L 224.967757 -33.26 
L 226.213392 -33.26 
L 227.459028 -33.26 
L 228.704663 -33.26 
L 229.950298 -33.26 
L 231.195933 -33.26 
L 232.441568 -33.26 
L 233.687203 -33.26 
L 234.932838 -33.26 
L 236.178473 -33.26 
L 237.424109 -33.26 
L 238.669744 -33.26 
L 239.915379 -33.26 
L 241.161014 -33.26 
L 242.406649 -33.26 
L 243.652284 -33.26 
L 244.897919 -33.26 
L 246.143554 -33.26 
L 247.38919 -33.26 
L 248.634825 -33.26 
L 249.88046 -33.26 
L 251.126095 -33.26 
L 252.37173 -33.26 
L 253.617365 -33.26 
L 254.863 -33.26 
L 256.108635 -33.26 
L 257.354271 -33.26 
L 258.599906 -33.26 
L 259.845541 -33.26 
L 261.091176 -33.26 
L 262.336811 -33.26 
L 263.582446 -33.26 
L 264.828081 -33.26 
L 266.073717 -33.26 
L 267.319352 -33.26 
L 268.564987 -33.26 
L 269.810622 -33.26 
L 271.056257 -33.26 
L 272.301892 -33.26 
L 273.547527 -33.26 
L 274.793162 -33.26 
L 276.038798 -33.26 
L 277.284433 -33.26 
L 278.530068 -33.26 
L 279.775703 -33.26 
L 281.021338 -33.26 
L 282.266973 -33.26 
L 283.512608 -33.26 
L 284.758243 -33.26 
L 286.003879 -33.26 
L 287.249514 -33.26 
L 288.495149 -33.26 
L 289.740784 -33.26 
L 290.986419 -33.26 
L 292.232054 -33.26 
L 293.477689 -33.26 
L 294.723325 -33.26 
L 295.96896 -33.26 
L 297.214595 -33.26 
L 298.46023 -33.26 
L 299.705865 -33.26 
L 300.9515 -33.26 
L 302.197135 -33.26 
L 303.44277 -33.26 
L 304.688406 -33.26 
L 305.934041 -33.26 
L 307.179676 -33.26 
L 308.425311 -33.26 
L 309.670946 -33.26 
L 310.916581 -33.26 
L 312.162216 -33.26 
L 313.407851 -33.26 
L 314.653487 -33.26 
L 315.899122 -33.26 
L 317.144757 -33.26 
L 318.390392 -33.26 
L 319.636027 -33.26 
L 320.881662 -33.26 
L 322.127297 -33.26 
L 323.372933 -33.26 
L 324.618568 -33.26 
L 325.864203 -33.26 
L 327.109838 -33.26 
L 328.355473 -33.26 
L 329.601108 -33.26 
L 330.846743 -33.26 
L 332.092378 -33.26 
L 333.338014 -33.26 
L 334.583649 -33.26 
L 335.829284 -33.26 
L 337.074919 -33.26 
L 338.320554 -33.26 
L 339.566189 -33.26 
L 340.811824 -33.26 
L 342.057459 -33.26 
L 343.303095 -33.26 
L 344.54873 -33.26 
L 345.794365 -33.26 
L 347.04 -33.26 
L 347.04 -161.854893 
L 347.04 -161.854893 
L 345.794365 -168.905496 
L 344.54873 -176.043133 
L 343.303095 -183.245848 
L 342.057459 -190.490909 
L 340.811824 -197.755002 
L 339.566189 -205.014426 
L 338.320554 -212.245301 
L 337.074919 -219.423767 
L 335.829284 -226.526192 
L 334.583649 -233.529369 
L 333.338014 -240.410704 
L 332.092378 -247.148394 
L 330.846743 -253.721593 
L 329.601108 -260.11056 
L 328.355473 -266.296788 
L 327.109838 -272.263116 
L 325.864203 -277.993817 
L 324.618568 -283.474669 
L 323.372933 -288.692997 
L 322.127297 -293.637705 
L 320.881662 -298.299279 
L 319.636027 -302.669772 
L 318.390392 -306.742777 
L 317.144757 -310.513379 
L 315.899122 -313.978093 
L 314.653487 -317.134799 
L 313.407851 -319.982658 
L 312.162216 -322.522027 
L 310.916581 -324.75437 
L 309.670946 -326.682169 
L 308.425311 -328.308828 
L 307.179676 -329.638588 
L 305.934041 -330.676441 
L 304.688406 -331.428049 
L 303.44277 -331.899671 
L 302.197135 -332.098095 
L 300.9515 -332.030577 
L 299.705865 -331.704788 
L 298.46023 -331.128765 
L 297.214595 -330.310871 
L 295.96896 -329.259759 
L 294.723325 -327.984339 
L 293.477689 -326.493751 
L 292.232054 -324.797338 
L 290.986419 -322.904621 
L 289.740784 -320.825276 
L 288.495149 -318.569106 
L 287.249514 -316.146015 
L 286.003879 -313.565982 
L 284.758243 -310.839026 
L 283.512608 -307.975172 
L 282.266973 -304.984417 
L 281.021338 -301.876687 
L 279.775703 -298.661796 
L 278.530068 -295.349407 
L 277.284433 -291.948978 
L 276.038798 -288.469728 
L 274.793162 -284.920586 
L 273.547527 -281.310153 
L 272.301892 -277.646661 
L 271.056257 -273.93794 
L 269.810622 -270.191388 
L 268.564987 -266.413943 
L 267.319352 -262.612071 
L 266.073717 -258.791752 
L 264.828081 -254.958477 
L 263.582446 -251.117256 
L 262.336811 -247.272627 
L 261.091176 -243.42868 
L 259.845541 -239.589083 
L 258.599906 -235.75712 
L 257.354271 -231.935729 
L 256.108635 -228.127551 
L 254.863 -224.334983 
L 253.617365 -220.560228 
L 252.37173 -216.805354 
L 251.126095 -213.072349 
L 249.88046 -209.36318 
L 248.634825 -205.67984 
L 247.38919 -202.024406 
L 246.143554 -198.399079 
L 244.897919 -194.80622 
L 243.652284 -191.24839 
L 242.406649 -187.728367 
L 241.161014 -184.249159 
L 239.915379 -180.814016 
L 238.669744 -177.426419 
L 237.424109 -174.090068 
L 236.178473 -170.808857 
L 234.932838 -167.586839 
L 233.687203 -164.428184 
L 232.441568 -161.337127 
L 231.195933 -158.317911 
L 229.950298 -155.374722 
L 228.704663 -152.51162 
L 227.459028 -149.732469 
L 226.213392 -147.040862 
L 224.967757 -144.440049 
L 223.722122 -141.932866 
L 222.476487 -139.521667 
L 221.230852 -137.208263 
L 219.985217 -134.993865 
L 218.739582 -132.879038 
L 217.493946 -130.863662 
L 216.248311 -128.946905 
L 215.002676 -127.127205 
L 213.757041 -125.402265 
L 212.511406 -123.769065 
L 211.265771 -122.223873 
L 210.020136 -120.762283 
L 208.774501 -119.379254 
L 207.528865 -118.069162 
L 206.28323 -116.825866 
L 205.037595 -115.642775 
L 203.79196 -114.512928 
L 202.546325 -113.429078 
L 201.30069 -112.383779 
L 200.055055 -111.369476 
L 198.80942 -110.378596 
L 197.563784 -109.403639 
L 196.318149 -108.437266 
L 195.072514 -107.472382 
L 193.826879 -106.502216 
L 192.581244 -105.520393 
L 191.335609 -104.521 
L 190.089974 -103.498644 
L 188.844338 -102.448497 
L 187.598703 -101.366339 
L 186.353068 -100.248586 
L 185.107433 -99.09231 
L 183.861798 -97.895252 
L 182.616163 -96.655823 
L 181.370528 -95.373095 
L 180.124893 -94.046791 
L 178.879257 -92.677259 
L 177.633622 -91.265447 
L 176.387987 -89.812868 
L 175.142352 -88.321559 
L 173.896717 -86.79404 
L 172.651082 -85.233268 
L 171.405447 -83.642587 
L 170.159812 -82.02568 
L 168.914176 -80.386514 
L 167.668541 -78.729291 
L 166.422906 -77.058398 
L 165.177271 -75.378355 
L 163.931636 -73.693765 
L 162.686001 -72.009271 
L 161.440366 -70.329506 
L 160.19473 -68.659054 
L 158.949095 -67.002408 
L 157.70346 -65.363935 
L 156.457825 -63.747841 
L 155.21219 -62.158138 
L 153.966555 -60.598619 
L 152.72092 -59.072835 
L 151.475285 -57.584069 
L 150.229649 -56.135324 
L 148.984014 -54.729304 
L 147.738379 -53.368408 
L 146.492744 -52.054718 
L 145.247109 -50.789996 
L 144.001474 -49.575687 
L 142.755839 -48.412914 
L 141.510204 -47.302489 
L 140.264568 -46.244915 
L 139.018933 -45.240403 
L 137.773298 -44.288876 
L 136.527663 -43.389993 
L 135.282028 -42.543156 
L 134.036393 -41.747537 
L 132.790758 -41.00209 
L 131.545122 -40.305576 
L 130.299487 -39.656581 
L 129.053852 -39.053542 
L 127.808217 -38.494764 
L 126.562582 -37.978444 
L 125.316947 -37.502692 
L 124.071312 -37.065555 
L 122.825677 -36.665029 
L 121.580041 -36.299087 
L 120.334406 -35.965691 
L 119.088771 -35.662811 
L 117.843136 -35.388437 
L 116.597501 -35.140598 
L 115.351866 -34.917368 
L 114.106231 -34.716883 
L 112.860596 -34.537343 
L 111.61496 -34.377023 
L 110.369325 -34.234281 
L 109.12369 -34.107555 
L 107.878055 -33.995377 
L 106.63242 -33.896363 
L 105.386785 -33.809224 
L 104.14115 -33.732758 
L 102.895514 -33.665855 
L 101.649879 -33.607488 
L 100.404244 -33.556717 
L 99.158609 -33.512684 
z
" style="stroke: #55a868"/>
    </defs>
    <g clip-path="url(#p50c9cfd83f)">
     <use xlink:href="#md961f70128" x="0" y="360" style="fill: #55a868; fill-opacity: 0.25; stroke: #55a868"/>
    </g>
   </g>
   <g id="patch_3">
    <path d="M 56.79 326.74 
L 56.79 12.96 
" style="fill: none; stroke: #ffffff; stroke-width: 1.25; stroke-linejoin: miter; stroke-linecap: square"/>
   </g>
   <g id="patch_4">
    <path d="M 56.79 326.74 
L 347.04 326.74 
" style="fill: none; stroke: #ffffff; stroke-width: 1.25; stroke-linejoin: miter; stroke-linecap: square"/>
   </g>
  </g>
 </g>
 <defs>
  <clipPath id="p50c9cfd83f">
   <rect x="56.79" y="12.96" width="290.25" height="313.78"/>
  </clipPath>
 </defs>
</svg>
