<?xml version="1.0" encoding="utf-8" standalone="no"?>
<!DOCTYPE svg PUBLIC "-//W3C//DTD SVG 1.1//EN"
  "http://www.w3.org/Graphics/SVG/1.1/DTD/svg11.dtd">
<svg xmlns:xlink="http://www.w3.org/1999/xlink" width="360pt" height="360pt" viewBox="0 0 360 360" xmlns="http://www.w3.org/2000/svg" version="1.1">
 <metadata>
  <rdf:RDF xmlns:dc="http://purl.org/dc/elements/1.1/" xmlns:cc="http://creativecommons.org/ns#" xmlns:rdf="http://www.w3.org/1999/02/22-rdf-syntax-ns#">
   <cc:Work>
    <dc:type rdf:resource="http://purl.org/dc/dcmitype/StillImage"/>
    <dc:date>2023-03-19T02:50:34.209939</dc:date>
    <dc:format>image/svg+xml</dc:format>
    <dc:creator>
     <cc:Agent>
      <dc:title>Matplotlib v3.6.3, https://matplotlib.org/</dc:title>
     </cc:Agent>
    </dc:creator>
   </cc:Work>
  </rdf:RDF>
 </metadata>
 <defs>
  <style type="text/css">*{stroke-linejoin: round; stroke-linecap: butt}</style>
 </defs>
 <g id="figure_1">
  <g id="patch_1">
   <path d="M 0 360 
L 360 360 
L 360 0 
L 0 0 
z
" style="fill: #ffffff"/>
  </g>
  <g id="axes_1">
   <g id="patch_2">
    <path d="M 63.72 326.74 
L 347.04 326.74 
L 347.04 12.96 
L 63.72 12.96 
z
" style="fill: #eaeaf2"/>
   </g>
   <g id="matplotlib.axis_1">
    <g id="xtick_1">
     <g id="line2d_1">
      <path d="M 63.72 326.74 
L 63.72 12.96 
" clip-path="url(#pc0797c5e14)" style="fill: none; stroke: #ffffff; stroke-linecap: round"/>
     </g>
     <g id="text_1">
      <!-- 0.0 -->
      <g style="fill: #262626" transform="translate(54.973281 344.598281) scale(0.11 -0.11)">
       <defs>
        <path id="DejaVuSans-30" d="M 2034 4250 
Q 1547 4250 1301 3770 
Q 1056 3291 1056 2328 
Q 1056 1369 1301 889 
Q 1547 409 2034 409 
Q 2525 409 2770 889 
Q 3016 1369 3016 2328 
Q 3016 3291 2770 3770 
Q 2525 4250 2034 4250 
z
M 2034 4750 
Q 2819 4750 3233 4129 
Q 3647 3509 3647 2328 
Q 3647 1150 3233 529 
Q 2819 -91 2034 -91 
Q 1250 -91 836 529 
Q 422 1150 422 2328 
Q 422 3509 836 4129 
Q 1250 4750 2034 4750 
z
" transform="scale(0.015625)"/>
        <path id="DejaVuSans-2e" d="M 684 794 
L 1344 794 
L 1344 0 
L 684 0 
L 684 794 
z
" transform="scale(0.015625)"/>
       </defs>
       <use xlink:href="#DejaVuSans-30"/>
       <use xlink:href="#DejaVuSans-2e" x="63.623047"/>
       <use xlink:href="#DejaVuSans-30" x="95.410156"/>
      </g>
     </g>
    </g>
    <g id="xtick_2">
     <g id="line2d_2">
      <path d="M 120.384 326.74 
L 120.384 12.96 
" clip-path="url(#pc0797c5e14)" style="fill: none; stroke: #ffffff; stroke-linecap: round"/>
     </g>
     <g id="text_2">
      <!-- 0.2 -->
      <g style="fill: #262626" transform="translate(111.637281 344.598281) scale(0.11 -0.11)">
       <defs>
        <path id="DejaVuSans-32" d="M 1228 531 
L 3431 531 
L 3431 0 
L 469 0 
L 469 531 
Q 828 903 1448 1529 
Q 2069 2156 2228 2338 
Q 2531 2678 2651 2914 
Q 2772 3150 2772 3378 
Q 2772 3750 2511 3984 
Q 2250 4219 1831 4219 
Q 1534 4219 1204 4116 
Q 875 4013 500 3803 
L 500 4441 
Q 881 4594 1212 4672 
Q 1544 4750 1819 4750 
Q 2544 4750 2975 4387 
Q 3406 4025 3406 3419 
Q 3406 3131 3298 2873 
Q 3191 2616 2906 2266 
Q 2828 2175 2409 1742 
Q 1991 1309 1228 531 
z
" transform="scale(0.015625)"/>
       </defs>
       <use xlink:href="#DejaVuSans-30"/>
       <use xlink:href="#DejaVuSans-2e" x="63.623047"/>
       <use xlink:href="#DejaVuSans-32" x="95.410156"/>
      </g>
     </g>
    </g>
    <g id="xtick_3">
     <g id="line2d_3">
      <path d="M 177.048 326.74 
L 177.048 12.96 
" clip-path="url(#pc0797c5e14)" style="fill: none; stroke: #ffffff; stroke-linecap: round"/>
     </g>
     <g id="text_3">
      <!-- 0.4 -->
      <g style="fill: #262626" transform="translate(168.301281 344.598281) scale(0.11 -0.11)">
       <defs>
        <path id="DejaVuSans-34" d="M 2419 4116 
L 825 1625 
L 2419 1625 
L 2419 4116 
z
M 2253 4666 
L 3047 4666 
L 3047 1625 
L 3713 1625 
L 3713 1100 
L 3047 1100 
L 3047 0 
L 2419 0 
L 2419 1100 
L 313 1100 
L 313 1709 
L 2253 4666 
z
" transform="scale(0.015625)"/>
       </defs>
       <use xlink:href="#DejaVuSans-30"/>
       <use xlink:href="#DejaVuSans-2e" x="63.623047"/>
       <use xlink:href="#DejaVuSans-34" x="95.410156"/>
      </g>
     </g>
    </g>
    <g id="xtick_4">
     <g id="line2d_4">
      <path d="M 233.712 326.74 
L 233.712 12.96 
" clip-path="url(#pc0797c5e14)" style="fill: none; stroke: #ffffff; stroke-linecap: round"/>
     </g>
     <g id="text_4">
      <!-- 0.6 -->
      <g style="fill: #262626" transform="translate(224.965281 344.598281) scale(0.11 -0.11)">
       <defs>
        <path id="DejaVuSans-36" d="M 2113 2584 
Q 1688 2584 1439 2293 
Q 1191 2003 1191 1497 
Q 1191 994 1439 701 
Q 1688 409 2113 409 
Q 2538 409 2786 701 
Q 3034 994 3034 1497 
Q 3034 2003 2786 2293 
Q 2538 2584 2113 2584 
z
M 3366 4563 
L 3366 3988 
Q 3128 4100 2886 4159 
Q 2644 4219 2406 4219 
Q 1781 4219 1451 3797 
Q 1122 3375 1075 2522 
Q 1259 2794 1537 2939 
Q 1816 3084 2150 3084 
Q 2853 3084 3261 2657 
Q 3669 2231 3669 1497 
Q 3669 778 3244 343 
Q 2819 -91 2113 -91 
Q 1303 -91 875 529 
Q 447 1150 447 2328 
Q 447 3434 972 4092 
Q 1497 4750 2381 4750 
Q 2619 4750 2861 4703 
Q 3103 4656 3366 4563 
z
" transform="scale(0.015625)"/>
       </defs>
       <use xlink:href="#DejaVuSans-30"/>
       <use xlink:href="#DejaVuSans-2e" x="63.623047"/>
       <use xlink:href="#DejaVuSans-36" x="95.410156"/>
      </g>
     </g>
    </g>
    <g id="xtick_5">
     <g id="line2d_5">
      <path d="M 290.376 326.74 
L 290.376 12.96 
" clip-path="url(#pc0797c5e14)" style="fill: none; stroke: #ffffff; stroke-linecap: round"/>
     </g>
     <g id="text_5">
      <!-- 0.8 -->
      <g style="fill: #262626" transform="translate(281.629281 344.598281) scale(0.11 -0.11)">
       <defs>
        <path id="DejaVuSans-38" d="M 2034 2216 
Q 1584 2216 1326 1975 
Q 1069 1734 1069 1313 
Q 1069 891 1326 650 
Q 1584 409 2034 409 
Q 2484 409 2743 651 
Q 3003 894 3003 1313 
Q 3003 1734 2745 1975 
Q 2488 2216 2034 2216 
z
M 1403 2484 
Q 997 2584 770 2862 
Q 544 3141 544 3541 
Q 544 4100 942 4425 
Q 1341 4750 2034 4750 
Q 2731 4750 3128 4425 
Q 3525 4100 3525 3541 
Q 3525 3141 3298 2862 
Q 3072 2584 2669 2484 
Q 3125 2378 3379 2068 
Q 3634 1759 3634 1313 
Q 3634 634 3220 271 
Q 2806 -91 2034 -91 
Q 1263 -91 848 271 
Q 434 634 434 1313 
Q 434 1759 690 2068 
Q 947 2378 1403 2484 
z
M 1172 3481 
Q 1172 3119 1398 2916 
Q 1625 2713 2034 2713 
Q 2441 2713 2670 2916 
Q 2900 3119 2900 3481 
Q 2900 3844 2670 4047 
Q 2441 4250 2034 4250 
Q 1625 4250 1398 4047 
Q 1172 3844 1172 3481 
z
" transform="scale(0.015625)"/>
       </defs>
       <use xlink:href="#DejaVuSans-30"/>
       <use xlink:href="#DejaVuSans-2e" x="63.623047"/>
       <use xlink:href="#DejaVuSans-38" x="95.410156"/>
      </g>
     </g>
    </g>
    <g id="xtick_6">
     <g id="line2d_6">
      <path d="M 347.04 326.74 
L 347.04 12.96 
" clip-path="url(#pc0797c5e14)" style="fill: none; stroke: #ffffff; stroke-linecap: round"/>
     </g>
     <g id="text_6">
      <!-- 1.0 -->
      <g style="fill: #262626" transform="translate(338.293281 344.598281) scale(0.11 -0.11)">
       <defs>
        <path id="DejaVuSans-31" d="M 794 531 
L 1825 531 
L 1825 4091 
L 703 3866 
L 703 4441 
L 1819 4666 
L 2450 4666 
L 2450 531 
L 3481 531 
L 3481 0 
L 794 0 
L 794 531 
z
" transform="scale(0.015625)"/>
       </defs>
       <use xlink:href="#DejaVuSans-31"/>
       <use xlink:href="#DejaVuSans-2e" x="63.623047"/>
       <use xlink:href="#DejaVuSans-30" x="95.410156"/>
      </g>
     </g>
    </g>
    <g id="text_7">
     <!-- Probabilités [-] -->
     <g style="fill: #262626" transform="translate(161.645625 360.004063) scale(0.12 -0.12)">
      <defs>
       <path id="DejaVuSans-50" d="M 1259 4147 
L 1259 2394 
L 2053 2394 
Q 2494 2394 2734 2622 
Q 2975 2850 2975 3272 
Q 2975 3691 2734 3919 
Q 2494 4147 2053 4147 
L 1259 4147 
z
M 628 4666 
L 2053 4666 
Q 2838 4666 3239 4311 
Q 3641 3956 3641 3272 
Q 3641 2581 3239 2228 
Q 2838 1875 2053 1875 
L 1259 1875 
L 1259 0 
L 628 0 
L 628 4666 
z
" transform="scale(0.015625)"/>
       <path id="DejaVuSans-72" d="M 2631 2963 
Q 2534 3019 2420 3045 
Q 2306 3072 2169 3072 
Q 1681 3072 1420 2755 
Q 1159 2438 1159 1844 
L 1159 0 
L 581 0 
L 581 3500 
L 1159 3500 
L 1159 2956 
Q 1341 3275 1631 3429 
Q 1922 3584 2338 3584 
Q 2397 3584 2469 3576 
Q 2541 3569 2628 3553 
L 2631 2963 
z
" transform="scale(0.015625)"/>
       <path id="DejaVuSans-6f" d="M 1959 3097 
Q 1497 3097 1228 2736 
Q 959 2375 959 1747 
Q 959 1119 1226 758 
Q 1494 397 1959 397 
Q 2419 397 2687 759 
Q 2956 1122 2956 1747 
Q 2956 2369 2687 2733 
Q 2419 3097 1959 3097 
z
M 1959 3584 
Q 2709 3584 3137 3096 
Q 3566 2609 3566 1747 
Q 3566 888 3137 398 
Q 2709 -91 1959 -91 
Q 1206 -91 779 398 
Q 353 888 353 1747 
Q 353 2609 779 3096 
Q 1206 3584 1959 3584 
z
" transform="scale(0.015625)"/>
       <path id="DejaVuSans-62" d="M 3116 1747 
Q 3116 2381 2855 2742 
Q 2594 3103 2138 3103 
Q 1681 3103 1420 2742 
Q 1159 2381 1159 1747 
Q 1159 1113 1420 752 
Q 1681 391 2138 391 
Q 2594 391 2855 752 
Q 3116 1113 3116 1747 
z
M 1159 2969 
Q 1341 3281 1617 3432 
Q 1894 3584 2278 3584 
Q 2916 3584 3314 3078 
Q 3713 2572 3713 1747 
Q 3713 922 3314 415 
Q 2916 -91 2278 -91 
Q 1894 -91 1617 61 
Q 1341 213 1159 525 
L 1159 0 
L 581 0 
L 581 4863 
L 1159 4863 
L 1159 2969 
z
" transform="scale(0.015625)"/>
       <path id="DejaVuSans-61" d="M 2194 1759 
Q 1497 1759 1228 1600 
Q 959 1441 959 1056 
Q 959 750 1161 570 
Q 1363 391 1709 391 
Q 2188 391 2477 730 
Q 2766 1069 2766 1631 
L 2766 1759 
L 2194 1759 
z
M 3341 1997 
L 3341 0 
L 2766 0 
L 2766 531 
Q 2569 213 2275 61 
Q 1981 -91 1556 -91 
Q 1019 -91 701 211 
Q 384 513 384 1019 
Q 384 1609 779 1909 
Q 1175 2209 1959 2209 
L 2766 2209 
L 2766 2266 
Q 2766 2663 2505 2880 
Q 2244 3097 1772 3097 
Q 1472 3097 1187 3025 
Q 903 2953 641 2809 
L 641 3341 
Q 956 3463 1253 3523 
Q 1550 3584 1831 3584 
Q 2591 3584 2966 3190 
Q 3341 2797 3341 1997 
z
" transform="scale(0.015625)"/>
       <path id="DejaVuSans-69" d="M 603 3500 
L 1178 3500 
L 1178 0 
L 603 0 
L 603 3500 
z
M 603 4863 
L 1178 4863 
L 1178 4134 
L 603 4134 
L 603 4863 
z
" transform="scale(0.015625)"/>
       <path id="DejaVuSans-6c" d="M 603 4863 
L 1178 4863 
L 1178 0 
L 603 0 
L 603 4863 
z
" transform="scale(0.015625)"/>
       <path id="DejaVuSans-74" d="M 1172 4494 
L 1172 3500 
L 2356 3500 
L 2356 3053 
L 1172 3053 
L 1172 1153 
Q 1172 725 1289 603 
Q 1406 481 1766 481 
L 2356 481 
L 2356 0 
L 1766 0 
Q 1100 0 847 248 
Q 594 497 594 1153 
L 594 3053 
L 172 3053 
L 172 3500 
L 594 3500 
L 594 4494 
L 1172 4494 
z
" transform="scale(0.015625)"/>
       <path id="DejaVuSans-e9" d="M 3597 1894 
L 3597 1613 
L 953 1613 
Q 991 1019 1311 708 
Q 1631 397 2203 397 
Q 2534 397 2845 478 
Q 3156 559 3463 722 
L 3463 178 
Q 3153 47 2828 -22 
Q 2503 -91 2169 -91 
Q 1331 -91 842 396 
Q 353 884 353 1716 
Q 353 2575 817 3079 
Q 1281 3584 2069 3584 
Q 2775 3584 3186 3129 
Q 3597 2675 3597 1894 
z
M 3022 2063 
Q 3016 2534 2758 2815 
Q 2500 3097 2075 3097 
Q 1594 3097 1305 2825 
Q 1016 2553 972 2059 
L 3022 2063 
z
M 2466 5119 
L 3088 5119 
L 2070 3944 
L 1591 3944 
L 2466 5119 
z
" transform="scale(0.015625)"/>
       <path id="DejaVuSans-73" d="M 2834 3397 
L 2834 2853 
Q 2591 2978 2328 3040 
Q 2066 3103 1784 3103 
Q 1356 3103 1142 2972 
Q 928 2841 928 2578 
Q 928 2378 1081 2264 
Q 1234 2150 1697 2047 
L 1894 2003 
Q 2506 1872 2764 1633 
Q 3022 1394 3022 966 
Q 3022 478 2636 193 
Q 2250 -91 1575 -91 
Q 1294 -91 989 -36 
Q 684 19 347 128 
L 347 722 
Q 666 556 975 473 
Q 1284 391 1588 391 
Q 1994 391 2212 530 
Q 2431 669 2431 922 
Q 2431 1156 2273 1281 
Q 2116 1406 1581 1522 
L 1381 1569 
Q 847 1681 609 1914 
Q 372 2147 372 2553 
Q 372 3047 722 3315 
Q 1072 3584 1716 3584 
Q 2034 3584 2315 3537 
Q 2597 3491 2834 3397 
z
" transform="scale(0.015625)"/>
       <path id="DejaVuSans-20" transform="scale(0.015625)"/>
       <path id="DejaVuSans-5b" d="M 550 4863 
L 1875 4863 
L 1875 4416 
L 1125 4416 
L 1125 -397 
L 1875 -397 
L 1875 -844 
L 550 -844 
L 550 4863 
z
" transform="scale(0.015625)"/>
       <path id="DejaVuSans-2d" d="M 313 2009 
L 1997 2009 
L 1997 1497 
L 313 1497 
L 313 2009 
z
" transform="scale(0.015625)"/>
       <path id="DejaVuSans-5d" d="M 1947 4863 
L 1947 -844 
L 622 -844 
L 622 -397 
L 1369 -397 
L 1369 4416 
L 622 4416 
L 622 4863 
L 1947 4863 
z
" transform="scale(0.015625)"/>
      </defs>
      <use xlink:href="#DejaVuSans-50"/>
      <use xlink:href="#DejaVuSans-72" x="58.552734"/>
      <use xlink:href="#DejaVuSans-6f" x="97.416016"/>
      <use xlink:href="#DejaVuSans-62" x="158.597656"/>
      <use xlink:href="#DejaVuSans-61" x="222.074219"/>
      <use xlink:href="#DejaVuSans-62" x="283.353516"/>
      <use xlink:href="#DejaVuSans-69" x="346.830078"/>
      <use xlink:href="#DejaVuSans-6c" x="374.613281"/>
      <use xlink:href="#DejaVuSans-69" x="402.396484"/>
      <use xlink:href="#DejaVuSans-74" x="430.179688"/>
      <use xlink:href="#DejaVuSans-e9" x="469.388672"/>
      <use xlink:href="#DejaVuSans-73" x="530.912109"/>
      <use xlink:href="#DejaVuSans-20" x="583.011719"/>
      <use xlink:href="#DejaVuSans-5b" x="614.798828"/>
      <use xlink:href="#DejaVuSans-2d" x="653.8125"/>
      <use xlink:href="#DejaVuSans-5d" x="689.896484"/>
     </g>
    </g>
   </g>
   <g id="matplotlib.axis_2">
    <g id="ytick_1">
     <g id="line2d_7">
      <path d="M 63.72 326.74 
L 347.04 326.74 
" clip-path="url(#pc0797c5e14)" style="fill: none; stroke: #ffffff; stroke-linecap: round"/>
     </g>
     <g id="text_8">
      <!-- 0.00 -->
      <g style="fill: #262626" transform="translate(29.727813 330.919141) scale(0.11 -0.11)">
       <use xlink:href="#DejaVuSans-30"/>
       <use xlink:href="#DejaVuSans-2e" x="63.623047"/>
       <use xlink:href="#DejaVuSans-30" x="95.410156"/>
       <use xlink:href="#DejaVuSans-30" x="159.033203"/>
      </g>
     </g>
    </g>
    <g id="ytick_2">
     <g id="line2d_8">
      <path d="M 63.72 285.175557 
L 347.04 285.175557 
" clip-path="url(#pc0797c5e14)" style="fill: none; stroke: #ffffff; stroke-linecap: round"/>
     </g>
     <g id="text_9">
      <!-- 0.25 -->
      <g style="fill: #262626" transform="translate(29.727813 289.354698) scale(0.11 -0.11)">
       <defs>
        <path id="DejaVuSans-35" d="M 691 4666 
L 3169 4666 
L 3169 4134 
L 1269 4134 
L 1269 2991 
Q 1406 3038 1543 3061 
Q 1681 3084 1819 3084 
Q 2600 3084 3056 2656 
Q 3513 2228 3513 1497 
Q 3513 744 3044 326 
Q 2575 -91 1722 -91 
Q 1428 -91 1123 -41 
Q 819 9 494 109 
L 494 744 
Q 775 591 1075 516 
Q 1375 441 1709 441 
Q 2250 441 2565 725 
Q 2881 1009 2881 1497 
Q 2881 1984 2565 2268 
Q 2250 2553 1709 2553 
Q 1456 2553 1204 2497 
Q 953 2441 691 2322 
L 691 4666 
z
" transform="scale(0.015625)"/>
       </defs>
       <use xlink:href="#DejaVuSans-30"/>
       <use xlink:href="#DejaVuSans-2e" x="63.623047"/>
       <use xlink:href="#DejaVuSans-32" x="95.410156"/>
       <use xlink:href="#DejaVuSans-35" x="159.033203"/>
      </g>
     </g>
    </g>
    <g id="ytick_3">
     <g id="line2d_9">
      <path d="M 63.72 243.611115 
L 347.04 243.611115 
" clip-path="url(#pc0797c5e14)" style="fill: none; stroke: #ffffff; stroke-linecap: round"/>
     </g>
     <g id="text_10">
      <!-- 0.50 -->
      <g style="fill: #262626" transform="translate(29.727813 247.790255) scale(0.11 -0.11)">
       <use xlink:href="#DejaVuSans-30"/>
       <use xlink:href="#DejaVuSans-2e" x="63.623047"/>
       <use xlink:href="#DejaVuSans-35" x="95.410156"/>
       <use xlink:href="#DejaVuSans-30" x="159.033203"/>
      </g>
     </g>
    </g>
    <g id="ytick_4">
     <g id="line2d_10">
      <path d="M 63.72 202.046672 
L 347.04 202.046672 
" clip-path="url(#pc0797c5e14)" style="fill: none; stroke: #ffffff; stroke-linecap: round"/>
     </g>
     <g id="text_11">
      <!-- 0.75 -->
      <g style="fill: #262626" transform="translate(29.727813 206.225813) scale(0.11 -0.11)">
       <defs>
        <path id="DejaVuSans-37" d="M 525 4666 
L 3525 4666 
L 3525 4397 
L 1831 0 
L 1172 0 
L 2766 4134 
L 525 4134 
L 525 4666 
z
" transform="scale(0.015625)"/>
       </defs>
       <use xlink:href="#DejaVuSans-30"/>
       <use xlink:href="#DejaVuSans-2e" x="63.623047"/>
       <use xlink:href="#DejaVuSans-37" x="95.410156"/>
       <use xlink:href="#DejaVuSans-35" x="159.033203"/>
      </g>
     </g>
    </g>
    <g id="ytick_5">
     <g id="line2d_11">
      <path d="M 63.72 160.482229 
L 347.04 160.482229 
" clip-path="url(#pc0797c5e14)" style="fill: none; stroke: #ffffff; stroke-linecap: round"/>
     </g>
     <g id="text_12">
      <!-- 1.00 -->
      <g style="fill: #262626" transform="translate(29.727813 164.66137) scale(0.11 -0.11)">
       <use xlink:href="#DejaVuSans-31"/>
       <use xlink:href="#DejaVuSans-2e" x="63.623047"/>
       <use xlink:href="#DejaVuSans-30" x="95.410156"/>
       <use xlink:href="#DejaVuSans-30" x="159.033203"/>
      </g>
     </g>
    </g>
    <g id="ytick_6">
     <g id="line2d_12">
      <path d="M 63.72 118.917787 
L 347.04 118.917787 
" clip-path="url(#pc0797c5e14)" style="fill: none; stroke: #ffffff; stroke-linecap: round"/>
     </g>
     <g id="text_13">
      <!-- 1.25 -->
      <g style="fill: #262626" transform="translate(29.727813 123.096927) scale(0.11 -0.11)">
       <use xlink:href="#DejaVuSans-31"/>
       <use xlink:href="#DejaVuSans-2e" x="63.623047"/>
       <use xlink:href="#DejaVuSans-32" x="95.410156"/>
       <use xlink:href="#DejaVuSans-35" x="159.033203"/>
      </g>
     </g>
    </g>
    <g id="ytick_7">
     <g id="line2d_13">
      <path d="M 63.72 77.353344 
L 347.04 77.353344 
" clip-path="url(#pc0797c5e14)" style="fill: none; stroke: #ffffff; stroke-linecap: round"/>
     </g>
     <g id="text_14">
      <!-- 1.50 -->
      <g style="fill: #262626" transform="translate(29.727813 81.532485) scale(0.11 -0.11)">
       <use xlink:href="#DejaVuSans-31"/>
       <use xlink:href="#DejaVuSans-2e" x="63.623047"/>
       <use xlink:href="#DejaVuSans-35" x="95.410156"/>
       <use xlink:href="#DejaVuSans-30" x="159.033203"/>
      </g>
     </g>
    </g>
    <g id="ytick_8">
     <g id="line2d_14">
      <path d="M 63.72 35.788902 
L 347.04 35.788902 
" clip-path="url(#pc0797c5e14)" style="fill: none; stroke: #ffffff; stroke-linecap: round"/>
     </g>
     <g id="text_15">
      <!-- 1.75 -->
      <g style="fill: #262626" transform="translate(29.727813 39.968042) scale(0.11 -0.11)">
       <use xlink:href="#DejaVuSans-31"/>
       <use xlink:href="#DejaVuSans-2e" x="63.623047"/>
       <use xlink:href="#DejaVuSans-37" x="95.410156"/>
       <use xlink:href="#DejaVuSans-35" x="159.033203"/>
      </g>
     </g>
    </g>
    <g id="text_16">
     <!-- Densité [-] -->
     <g style="fill: #262626" transform="translate(23.232188 201.554375) rotate(-90) scale(0.12 -0.12)">
      <defs>
       <path id="DejaVuSans-44" d="M 1259 4147 
L 1259 519 
L 2022 519 
Q 2988 519 3436 956 
Q 3884 1394 3884 2338 
Q 3884 3275 3436 3711 
Q 2988 4147 2022 4147 
L 1259 4147 
z
M 628 4666 
L 1925 4666 
Q 3281 4666 3915 4102 
Q 4550 3538 4550 2338 
Q 4550 1131 3912 565 
Q 3275 0 1925 0 
L 628 0 
L 628 4666 
z
" transform="scale(0.015625)"/>
       <path id="DejaVuSans-65" d="M 3597 1894 
L 3597 1613 
L 953 1613 
Q 991 1019 1311 708 
Q 1631 397 2203 397 
Q 2534 397 2845 478 
Q 3156 559 3463 722 
L 3463 178 
Q 3153 47 2828 -22 
Q 2503 -91 2169 -91 
Q 1331 -91 842 396 
Q 353 884 353 1716 
Q 353 2575 817 3079 
Q 1281 3584 2069 3584 
Q 2775 3584 3186 3129 
Q 3597 2675 3597 1894 
z
M 3022 2063 
Q 3016 2534 2758 2815 
Q 2500 3097 2075 3097 
Q 1594 3097 1305 2825 
Q 1016 2553 972 2059 
L 3022 2063 
z
" transform="scale(0.015625)"/>
       <path id="DejaVuSans-6e" d="M 3513 2113 
L 3513 0 
L 2938 0 
L 2938 2094 
Q 2938 2591 2744 2837 
Q 2550 3084 2163 3084 
Q 1697 3084 1428 2787 
Q 1159 2491 1159 1978 
L 1159 0 
L 581 0 
L 581 3500 
L 1159 3500 
L 1159 2956 
Q 1366 3272 1645 3428 
Q 1925 3584 2291 3584 
Q 2894 3584 3203 3211 
Q 3513 2838 3513 2113 
z
" transform="scale(0.015625)"/>
      </defs>
      <use xlink:href="#DejaVuSans-44"/>
      <use xlink:href="#DejaVuSans-65" x="77.001953"/>
      <use xlink:href="#DejaVuSans-6e" x="138.525391"/>
      <use xlink:href="#DejaVuSans-73" x="201.904297"/>
      <use xlink:href="#DejaVuSans-69" x="254.003906"/>
      <use xlink:href="#DejaVuSans-74" x="281.787109"/>
      <use xlink:href="#DejaVuSans-e9" x="320.996094"/>
      <use xlink:href="#DejaVuSans-20" x="382.519531"/>
      <use xlink:href="#DejaVuSans-5b" x="414.306641"/>
      <use xlink:href="#DejaVuSans-2d" x="453.320312"/>
      <use xlink:href="#DejaVuSans-5d" x="489.404297"/>
     </g>
    </g>
   </g>
   <g id="PolyCollection_1">
    <defs>
     <path id="m6ee90d3774" d="M 63.72 -51.475346 
L 63.72 -33.26 
L 65.143719 -33.26 
L 66.567437 -33.26 
L 67.991156 -33.26 
L 69.414874 -33.26 
L 70.838593 -33.26 
L 72.262312 -33.26 
L 73.68603 -33.26 
L 75.109749 -33.26 
L 76.533467 -33.26 
L 77.957186 -33.26 
L 79.380905 -33.26 
L 80.804623 -33.26 
L 82.228342 -33.26 
L 83.65206 -33.26 
L 85.075779 -33.26 
L 86.499497 -33.26 
L 87.923216 -33.26 
L 89.346935 -33.26 
L 90.770653 -33.26 
L 92.194372 -33.26 
L 93.61809 -33.26 
L 95.041809 -33.26 
L 96.465528 -33.26 
L 97.889246 -33.26 
L 99.312965 -33.26 
L 100.736683 -33.26 
L 102.160402 -33.26 
L 103.584121 -33.26 
L 105.007839 -33.26 
L 106.431558 -33.26 
L 107.855276 -33.26 
L 109.278995 -33.26 
L 110.702714 -33.26 
L 112.126432 -33.26 
L 113.550151 -33.26 
L 114.973869 -33.26 
L 116.397588 -33.26 
L 117.821307 -33.26 
L 119.245025 -33.26 
L 120.668744 -33.26 
L 122.092462 -33.26 
L 123.516181 -33.26 
L 124.939899 -33.26 
L 126.363618 -33.26 
L 127.787337 -33.26 
L 129.211055 -33.26 
L 130.634774 -33.26 
L 132.058492 -33.26 
L 133.482211 -33.26 
L 134.90593 -33.26 
L 136.329648 -33.26 
L 137.753367 -33.26 
L 139.177085 -33.26 
L 140.600804 -33.26 
L 142.024523 -33.26 
L 143.448241 -33.26 
L 144.87196 -33.26 
L 146.295678 -33.26 
L 147.719397 -33.26 
L 149.143116 -33.26 
L 150.566834 -33.26 
L 151.990553 -33.26 
L 153.414271 -33.26 
L 154.83799 -33.26 
L 156.261709 -33.26 
L 157.685427 -33.26 
L 159.109146 -33.26 
L 160.532864 -33.26 
L 161.956583 -33.26 
L 163.380302 -33.26 
L 164.80402 -33.26 
L 166.227739 -33.26 
L 167.651457 -33.26 
L 169.075176 -33.26 
L 170.498894 -33.26 
L 171.922613 -33.26 
L 173.346332 -33.26 
L 174.77005 -33.26 
L 176.193769 -33.26 
L 177.617487 -33.26 
L 179.041206 -33.26 
L 180.464925 -33.26 
L 181.888643 -33.26 
L 183.312362 -33.26 
L 184.73608 -33.26 
L 186.159799 -33.26 
L 187.583518 -33.26 
L 189.007236 -33.26 
L 190.430955 -33.26 
L 191.854673 -33.26 
L 193.278392 -33.26 
L 194.702111 -33.26 
L 196.125829 -33.26 
L 197.549548 -33.26 
L 198.973266 -33.26 
L 200.396985 -33.26 
L 201.820704 -33.26 
L 203.244422 -33.26 
L 204.668141 -33.26 
L 206.091859 -33.26 
L 207.515578 -33.26 
L 208.939296 -33.26 
L 210.363015 -33.26 
L 211.786734 -33.26 
L 213.210452 -33.26 
L 214.634171 -33.26 
L 216.057889 -33.26 
L 217.481608 -33.26 
L 218.905327 -33.26 
L 220.329045 -33.26 
L 221.752764 -33.26 
L 223.176482 -33.26 
L 224.600201 -33.26 
L 226.02392 -33.26 
L 227.447638 -33.26 
L 228.871357 -33.26 
L 230.295075 -33.26 
L 231.718794 -33.26 
L 233.142513 -33.26 
L 234.566231 -33.26 
L 235.98995 -33.26 
L 237.413668 -33.26 
L 238.837387 -33.26 
L 240.261106 -33.26 
L 241.684824 -33.26 
L 243.108543 -33.26 
L 244.532261 -33.26 
L 245.95598 -33.26 
L 247.379698 -33.26 
L 248.803417 -33.26 
L 250.227136 -33.26 
L 251.650854 -33.26 
L 253.074573 -33.26 
L 254.498291 -33.26 
L 255.92201 -33.26 
L 257.345729 -33.26 
L 258.769447 -33.26 
L 260.193166 -33.26 
L 261.616884 -33.26 
L 263.040603 -33.26 
L 264.464322 -33.26 
L 265.88804 -33.26 
L 267.311759 -33.26 
L 268.735477 -33.26 
L 270.159196 -33.26 
L 271.582915 -33.26 
L 273.006633 -33.26 
L 274.430352 -33.26 
L 275.85407 -33.26 
L 277.277789 -33.26 
L 278.701508 -33.26 
L 280.125226 -33.26 
L 281.548945 -33.26 
L 282.972663 -33.26 
L 284.396382 -33.26 
L 285.820101 -33.26 
L 287.243819 -33.26 
L 288.667538 -33.26 
L 290.091256 -33.26 
L 291.514975 -33.26 
L 292.938693 -33.26 
L 294.362412 -33.26 
L 295.786131 -33.26 
L 297.209849 -33.26 
L 298.633568 -33.26 
L 300.057286 -33.26 
L 301.481005 -33.26 
L 302.904724 -33.26 
L 304.328442 -33.26 
L 305.752161 -33.26 
L 307.175879 -33.26 
L 308.599598 -33.26 
L 310.023317 -33.26 
L 311.447035 -33.26 
L 312.870754 -33.26 
L 314.294472 -33.26 
L 315.718191 -33.26 
L 317.14191 -33.26 
L 318.565628 -33.26 
L 319.989347 -33.26 
L 321.413065 -33.26 
L 322.836784 -33.26 
L 324.260503 -33.26 
L 325.684221 -33.26 
L 327.10794 -33.26 
L 328.531658 -33.26 
L 329.955377 -33.26 
L 331.379095 -33.26 
L 332.802814 -33.26 
L 334.226533 -33.26 
L 335.650251 -33.26 
L 337.07397 -33.26 
L 338.497688 -33.26 
L 339.921407 -33.26 
L 341.345126 -33.26 
L 342.768844 -33.26 
L 344.192563 -33.26 
L 345.616281 -33.26 
L 347.04 -33.26 
L 347.04 -57.176076 
L 347.04 -57.176076 
L 345.616281 -58.922551 
L 344.192563 -60.748062 
L 342.768844 -62.652214 
L 341.345126 -64.634306 
L 339.921407 -66.693328 
L 338.497688 -68.827965 
L 337.07397 -71.036601 
L 335.650251 -73.317326 
L 334.226533 -75.667943 
L 332.802814 -78.085984 
L 331.379095 -80.568717 
L 329.955377 -83.11317 
L 328.531658 -85.716138 
L 327.10794 -88.374208 
L 325.684221 -91.083776 
L 324.260503 -93.841065 
L 322.836784 -96.642145 
L 321.413065 -99.482954 
L 319.989347 -102.359316 
L 318.565628 -105.26696 
L 317.14191 -108.201539 
L 315.718191 -111.158644 
L 314.294472 -114.133827 
L 312.870754 -117.122607 
L 311.447035 -120.120492 
L 310.023317 -123.122988 
L 308.599598 -126.125615 
L 307.175879 -129.123912 
L 305.752161 -132.113456 
L 304.328442 -135.089868 
L 302.904724 -138.048827 
L 301.481005 -140.986078 
L 300.057286 -143.897448 
L 298.633568 -146.778856 
L 297.209849 -149.626327 
L 295.786131 -152.43601 
L 294.362412 -155.204194 
L 292.938693 -157.927326 
L 291.514975 -160.602031 
L 290.091256 -163.225137 
L 288.667538 -165.793699 
L 287.243819 -168.305023 
L 285.820101 -170.756696 
L 284.396382 -173.146612 
L 282.972663 -175.473004 
L 281.548945 -177.734472 
L 280.125226 -179.93001 
L 278.701508 -182.059041 
L 277.277789 -184.121438 
L 275.85407 -186.117551 
L 274.430352 -188.048231 
L 273.006633 -189.914846 
L 271.582915 -191.719298 
L 270.159196 -193.464033 
L 268.735477 -195.152047 
L 267.311759 -196.786884 
L 265.88804 -198.372629 
L 264.464322 -199.913898 
L 263.040603 -201.415817 
L 261.616884 -202.883995 
L 260.193166 -204.324493 
L 258.769447 -205.743784 
L 257.345729 -207.148705 
L 255.92201 -208.546408 
L 254.498291 -209.944303 
L 253.074573 -211.349989 
L 251.650854 -212.771195 
L 250.227136 -214.215702 
L 248.803417 -215.691272 
L 247.379698 -217.205572 
L 245.95598 -218.766089 
L 244.532261 -220.380062 
L 243.108543 -222.054391 
L 241.684824 -223.795568 
L 240.261106 -225.609598 
L 238.837387 -227.501923 
L 237.413668 -229.477358 
L 235.98995 -231.540019 
L 234.566231 -233.693269 
L 233.142513 -235.939658 
L 231.718794 -238.280876 
L 230.295075 -240.717715 
L 228.871357 -243.250027 
L 227.447638 -245.876705 
L 226.02392 -248.595658 
L 224.600201 -251.403805 
L 223.176482 -254.29707 
L 221.752764 -257.270389 
L 220.329045 -260.317726 
L 218.905327 -263.432095 
L 217.481608 -266.605593 
L 216.057889 -269.829441 
L 214.634171 -273.094029 
L 213.210452 -276.388977 
L 211.786734 -279.703193 
L 210.363015 -283.024949 
L 208.939296 -286.341951 
L 207.515578 -289.641427 
L 206.091859 -292.910208 
L 204.668141 -296.134827 
L 203.244422 -299.301606 
L 201.820704 -302.396758 
L 200.396985 -305.406485 
L 198.973266 -308.317078 
L 197.549548 -311.115015 
L 196.125829 -313.78706 
L 194.702111 -316.32036 
L 193.278392 -318.702533 
L 191.854673 -320.921763 
L 190.430955 -322.966874 
L 189.007236 -324.827415 
L 187.583518 -326.493724 
L 186.159799 -327.956989 
L 184.73608 -329.209307 
L 183.312362 -330.243722 
L 181.888643 -331.05426 
L 180.464925 -331.635957 
L 179.041206 -331.984874 
L 177.617487 -332.098095 
L 176.193769 -331.973732 
L 174.77005 -331.610901 
L 173.346332 -331.009705 
L 171.922613 -330.171198 
L 170.498894 -329.097347 
L 169.075176 -327.790983 
L 167.651457 -326.255748 
L 166.227739 -324.496036 
L 164.80402 -322.516931 
L 163.380302 -320.324139 
L 161.956583 -317.923922 
L 160.532864 -315.323028 
L 159.109146 -312.528621 
L 157.685427 -309.548214 
L 156.261709 -306.389607 
L 154.83799 -303.060815 
L 153.414271 -299.57002 
L 151.990553 -295.925508 
L 150.566834 -292.135627 
L 149.143116 -288.208734 
L 147.719397 -284.153164 
L 146.295678 -279.977195 
L 144.87196 -275.689019 
L 143.448241 -271.296724 
L 142.024523 -266.808275 
L 140.600804 -262.231504 
L 139.177085 -257.574107 
L 137.753367 -252.843637 
L 136.329648 -248.047509 
L 134.90593 -243.193001 
L 133.482211 -238.287266 
L 132.058492 -233.337333 
L 130.634774 -228.350122 
L 129.211055 -223.332452 
L 127.787337 -218.291048 
L 126.363618 -213.232552 
L 124.939899 -208.163529 
L 123.516181 -203.090472 
L 122.092462 -198.019807 
L 120.668744 -192.957894 
L 119.245025 -187.911026 
L 117.821307 -182.885424 
L 116.397588 -177.887234 
L 114.973869 -172.922518 
L 113.550151 -167.99724 
L 112.126432 -163.117262 
L 110.702714 -158.288319 
L 109.278995 -153.516013 
L 107.855276 -148.80579 
L 106.431558 -144.162926 
L 105.007839 -139.592508 
L 103.584121 -135.099412 
L 102.160402 -130.688293 
L 100.736683 -126.363559 
L 99.312965 -122.12936 
L 97.889246 -117.98957 
L 96.465528 -113.947771 
L 95.041809 -110.007247 
L 93.61809 -106.170964 
L 92.194372 -102.441568 
L 90.770653 -98.821373 
L 89.346935 -95.312359 
L 87.923216 -91.916167 
L 86.499497 -88.634101 
L 85.075779 -85.467124 
L 83.65206 -82.415865 
L 82.228342 -79.480622 
L 80.804623 -76.661371 
L 79.380905 -73.957771 
L 77.957186 -71.369177 
L 76.533467 -68.894651 
L 75.109749 -66.532973 
L 73.68603 -64.28266 
L 72.262312 -62.141973 
L 70.838593 -60.108942 
L 69.414874 -58.181378 
L 67.991156 -56.356889 
L 66.567437 -54.632904 
L 65.143719 -53.006684 
L 63.72 -51.475346 
z
" style="stroke: #55a868"/>
    </defs>
    <g clip-path="url(#pc0797c5e14)">
     <use xlink:href="#m6ee90d3774" x="0" y="360" style="fill: #55a868; fill-opacity: 0.25; stroke: #55a868"/>
    </g>
   </g>
   <g id="patch_3">
    <path d="M 63.72 326.74 
L 63.72 12.96 
" style="fill: none; stroke: #ffffff; stroke-width: 1.25; stroke-linejoin: miter; stroke-linecap: square"/>
   </g>
   <g id="patch_4">
    <path d="M 63.72 326.74 
L 347.04 326.74 
" style="fill: none; stroke: #ffffff; stroke-width: 1.25; stroke-linejoin: miter; stroke-linecap: square"/>
   </g>
  </g>
 </g>
 <defs>
  <clipPath id="pc0797c5e14">
   <rect x="63.72" y="12.96" width="283.32" height="313.78"/>
  </clipPath>
 </defs>
</svg>
