<?xml version="1.0" encoding="utf-8" standalone="no"?>
<!DOCTYPE svg PUBLIC "-//W3C//DTD SVG 1.1//EN"
  "http://www.w3.org/Graphics/SVG/1.1/DTD/svg11.dtd">
<svg xmlns:xlink="http://www.w3.org/1999/xlink" width="360pt" height="360pt" viewBox="0 0 360 360" xmlns="http://www.w3.org/2000/svg" version="1.1">
 <metadata>
  <rdf:RDF xmlns:dc="http://purl.org/dc/elements/1.1/" xmlns:cc="http://creativecommons.org/ns#" xmlns:rdf="http://www.w3.org/1999/02/22-rdf-syntax-ns#">
   <cc:Work>
    <dc:type rdf:resource="http://purl.org/dc/dcmitype/StillImage"/>
    <dc:date>2023-03-18T15:18:06.860930</dc:date>
    <dc:format>image/svg+xml</dc:format>
    <dc:creator>
     <cc:Agent>
      <dc:title>Matplotlib v3.6.3, https://matplotlib.org/</dc:title>
     </cc:Agent>
    </dc:creator>
   </cc:Work>
  </rdf:RDF>
 </metadata>
 <defs>
  <style type="text/css">*{stroke-linejoin: round; stroke-linecap: butt}</style>
 </defs>
 <g id="figure_1">
  <g id="patch_1">
   <path d="M 0 360 
L 360 360 
L 360 0 
L 0 0 
z
" style="fill: #ffffff"/>
  </g>
  <g id="axes_1">
   <g id="patch_2">
    <path d="M 53.37 326.74 
L 347.04 326.74 
L 347.04 12.96 
L 53.37 12.96 
z
" style="fill: #eaeaf2"/>
   </g>
   <g id="matplotlib.axis_1">
    <g id="xtick_1">
     <g id="line2d_1">
      <path d="M 53.37 326.74 
L 53.37 12.96 
" clip-path="url(#pb79e0ddfa8)" style="fill: none; stroke: #ffffff; stroke-linecap: round"/>
     </g>
     <g id="text_1">
      <!-- 0.0 -->
      <g style="fill: #262626" transform="translate(44.623281 344.598281) scale(0.11 -0.11)">
       <defs>
        <path id="DejaVuSans-30" d="M 2034 4250 
Q 1547 4250 1301 3770 
Q 1056 3291 1056 2328 
Q 1056 1369 1301 889 
Q 1547 409 2034 409 
Q 2525 409 2770 889 
Q 3016 1369 3016 2328 
Q 3016 3291 2770 3770 
Q 2525 4250 2034 4250 
z
M 2034 4750 
Q 2819 4750 3233 4129 
Q 3647 3509 3647 2328 
Q 3647 1150 3233 529 
Q 2819 -91 2034 -91 
Q 1250 -91 836 529 
Q 422 1150 422 2328 
Q 422 3509 836 4129 
Q 1250 4750 2034 4750 
z
" transform="scale(0.015625)"/>
        <path id="DejaVuSans-2e" d="M 684 794 
L 1344 794 
L 1344 0 
L 684 0 
L 684 794 
z
" transform="scale(0.015625)"/>
       </defs>
       <use xlink:href="#DejaVuSans-30"/>
       <use xlink:href="#DejaVuSans-2e" x="63.623047"/>
       <use xlink:href="#DejaVuSans-30" x="95.410156"/>
      </g>
     </g>
    </g>
    <g id="xtick_2">
     <g id="line2d_2">
      <path d="M 112.104 326.74 
L 112.104 12.96 
" clip-path="url(#pb79e0ddfa8)" style="fill: none; stroke: #ffffff; stroke-linecap: round"/>
     </g>
     <g id="text_2">
      <!-- 0.2 -->
      <g style="fill: #262626" transform="translate(103.357281 344.598281) scale(0.11 -0.11)">
       <defs>
        <path id="DejaVuSans-32" d="M 1228 531 
L 3431 531 
L 3431 0 
L 469 0 
L 469 531 
Q 828 903 1448 1529 
Q 2069 2156 2228 2338 
Q 2531 2678 2651 2914 
Q 2772 3150 2772 3378 
Q 2772 3750 2511 3984 
Q 2250 4219 1831 4219 
Q 1534 4219 1204 4116 
Q 875 4013 500 3803 
L 500 4441 
Q 881 4594 1212 4672 
Q 1544 4750 1819 4750 
Q 2544 4750 2975 4387 
Q 3406 4025 3406 3419 
Q 3406 3131 3298 2873 
Q 3191 2616 2906 2266 
Q 2828 2175 2409 1742 
Q 1991 1309 1228 531 
z
" transform="scale(0.015625)"/>
       </defs>
       <use xlink:href="#DejaVuSans-30"/>
       <use xlink:href="#DejaVuSans-2e" x="63.623047"/>
       <use xlink:href="#DejaVuSans-32" x="95.410156"/>
      </g>
     </g>
    </g>
    <g id="xtick_3">
     <g id="line2d_3">
      <path d="M 170.838 326.74 
L 170.838 12.96 
" clip-path="url(#pb79e0ddfa8)" style="fill: none; stroke: #ffffff; stroke-linecap: round"/>
     </g>
     <g id="text_3">
      <!-- 0.4 -->
      <g style="fill: #262626" transform="translate(162.091281 344.598281) scale(0.11 -0.11)">
       <defs>
        <path id="DejaVuSans-34" d="M 2419 4116 
L 825 1625 
L 2419 1625 
L 2419 4116 
z
M 2253 4666 
L 3047 4666 
L 3047 1625 
L 3713 1625 
L 3713 1100 
L 3047 1100 
L 3047 0 
L 2419 0 
L 2419 1100 
L 313 1100 
L 313 1709 
L 2253 4666 
z
" transform="scale(0.015625)"/>
       </defs>
       <use xlink:href="#DejaVuSans-30"/>
       <use xlink:href="#DejaVuSans-2e" x="63.623047"/>
       <use xlink:href="#DejaVuSans-34" x="95.410156"/>
      </g>
     </g>
    </g>
    <g id="xtick_4">
     <g id="line2d_4">
      <path d="M 229.572 326.74 
L 229.572 12.96 
" clip-path="url(#pb79e0ddfa8)" style="fill: none; stroke: #ffffff; stroke-linecap: round"/>
     </g>
     <g id="text_4">
      <!-- 0.6 -->
      <g style="fill: #262626" transform="translate(220.825281 344.598281) scale(0.11 -0.11)">
       <defs>
        <path id="DejaVuSans-36" d="M 2113 2584 
Q 1688 2584 1439 2293 
Q 1191 2003 1191 1497 
Q 1191 994 1439 701 
Q 1688 409 2113 409 
Q 2538 409 2786 701 
Q 3034 994 3034 1497 
Q 3034 2003 2786 2293 
Q 2538 2584 2113 2584 
z
M 3366 4563 
L 3366 3988 
Q 3128 4100 2886 4159 
Q 2644 4219 2406 4219 
Q 1781 4219 1451 3797 
Q 1122 3375 1075 2522 
Q 1259 2794 1537 2939 
Q 1816 3084 2150 3084 
Q 2853 3084 3261 2657 
Q 3669 2231 3669 1497 
Q 3669 778 3244 343 
Q 2819 -91 2113 -91 
Q 1303 -91 875 529 
Q 447 1150 447 2328 
Q 447 3434 972 4092 
Q 1497 4750 2381 4750 
Q 2619 4750 2861 4703 
Q 3103 4656 3366 4563 
z
" transform="scale(0.015625)"/>
       </defs>
       <use xlink:href="#DejaVuSans-30"/>
       <use xlink:href="#DejaVuSans-2e" x="63.623047"/>
       <use xlink:href="#DejaVuSans-36" x="95.410156"/>
      </g>
     </g>
    </g>
    <g id="xtick_5">
     <g id="line2d_5">
      <path d="M 288.306 326.74 
L 288.306 12.96 
" clip-path="url(#pb79e0ddfa8)" style="fill: none; stroke: #ffffff; stroke-linecap: round"/>
     </g>
     <g id="text_5">
      <!-- 0.8 -->
      <g style="fill: #262626" transform="translate(279.559281 344.598281) scale(0.11 -0.11)">
       <defs>
        <path id="DejaVuSans-38" d="M 2034 2216 
Q 1584 2216 1326 1975 
Q 1069 1734 1069 1313 
Q 1069 891 1326 650 
Q 1584 409 2034 409 
Q 2484 409 2743 651 
Q 3003 894 3003 1313 
Q 3003 1734 2745 1975 
Q 2488 2216 2034 2216 
z
M 1403 2484 
Q 997 2584 770 2862 
Q 544 3141 544 3541 
Q 544 4100 942 4425 
Q 1341 4750 2034 4750 
Q 2731 4750 3128 4425 
Q 3525 4100 3525 3541 
Q 3525 3141 3298 2862 
Q 3072 2584 2669 2484 
Q 3125 2378 3379 2068 
Q 3634 1759 3634 1313 
Q 3634 634 3220 271 
Q 2806 -91 2034 -91 
Q 1263 -91 848 271 
Q 434 634 434 1313 
Q 434 1759 690 2068 
Q 947 2378 1403 2484 
z
M 1172 3481 
Q 1172 3119 1398 2916 
Q 1625 2713 2034 2713 
Q 2441 2713 2670 2916 
Q 2900 3119 2900 3481 
Q 2900 3844 2670 4047 
Q 2441 4250 2034 4250 
Q 1625 4250 1398 4047 
Q 1172 3844 1172 3481 
z
" transform="scale(0.015625)"/>
       </defs>
       <use xlink:href="#DejaVuSans-30"/>
       <use xlink:href="#DejaVuSans-2e" x="63.623047"/>
       <use xlink:href="#DejaVuSans-38" x="95.410156"/>
      </g>
     </g>
    </g>
    <g id="xtick_6">
     <g id="line2d_6">
      <path d="M 347.04 326.74 
L 347.04 12.96 
" clip-path="url(#pb79e0ddfa8)" style="fill: none; stroke: #ffffff; stroke-linecap: round"/>
     </g>
     <g id="text_6">
      <!-- 1.0 -->
      <g style="fill: #262626" transform="translate(338.293281 344.598281) scale(0.11 -0.11)">
       <defs>
        <path id="DejaVuSans-31" d="M 794 531 
L 1825 531 
L 1825 4091 
L 703 3866 
L 703 4441 
L 1819 4666 
L 2450 4666 
L 2450 531 
L 3481 531 
L 3481 0 
L 794 0 
L 794 531 
z
" transform="scale(0.015625)"/>
       </defs>
       <use xlink:href="#DejaVuSans-31"/>
       <use xlink:href="#DejaVuSans-2e" x="63.623047"/>
       <use xlink:href="#DejaVuSans-30" x="95.410156"/>
      </g>
     </g>
    </g>
    <g id="text_7">
     <!-- Probabilités [-] -->
     <g style="fill: #262626" transform="translate(156.470625 360.004063) scale(0.12 -0.12)">
      <defs>
       <path id="DejaVuSans-50" d="M 1259 4147 
L 1259 2394 
L 2053 2394 
Q 2494 2394 2734 2622 
Q 2975 2850 2975 3272 
Q 2975 3691 2734 3919 
Q 2494 4147 2053 4147 
L 1259 4147 
z
M 628 4666 
L 2053 4666 
Q 2838 4666 3239 4311 
Q 3641 3956 3641 3272 
Q 3641 2581 3239 2228 
Q 2838 1875 2053 1875 
L 1259 1875 
L 1259 0 
L 628 0 
L 628 4666 
z
" transform="scale(0.015625)"/>
       <path id="DejaVuSans-72" d="M 2631 2963 
Q 2534 3019 2420 3045 
Q 2306 3072 2169 3072 
Q 1681 3072 1420 2755 
Q 1159 2438 1159 1844 
L 1159 0 
L 581 0 
L 581 3500 
L 1159 3500 
L 1159 2956 
Q 1341 3275 1631 3429 
Q 1922 3584 2338 3584 
Q 2397 3584 2469 3576 
Q 2541 3569 2628 3553 
L 2631 2963 
z
" transform="scale(0.015625)"/>
       <path id="DejaVuSans-6f" d="M 1959 3097 
Q 1497 3097 1228 2736 
Q 959 2375 959 1747 
Q 959 1119 1226 758 
Q 1494 397 1959 397 
Q 2419 397 2687 759 
Q 2956 1122 2956 1747 
Q 2956 2369 2687 2733 
Q 2419 3097 1959 3097 
z
M 1959 3584 
Q 2709 3584 3137 3096 
Q 3566 2609 3566 1747 
Q 3566 888 3137 398 
Q 2709 -91 1959 -91 
Q 1206 -91 779 398 
Q 353 888 353 1747 
Q 353 2609 779 3096 
Q 1206 3584 1959 3584 
z
" transform="scale(0.015625)"/>
       <path id="DejaVuSans-62" d="M 3116 1747 
Q 3116 2381 2855 2742 
Q 2594 3103 2138 3103 
Q 1681 3103 1420 2742 
Q 1159 2381 1159 1747 
Q 1159 1113 1420 752 
Q 1681 391 2138 391 
Q 2594 391 2855 752 
Q 3116 1113 3116 1747 
z
M 1159 2969 
Q 1341 3281 1617 3432 
Q 1894 3584 2278 3584 
Q 2916 3584 3314 3078 
Q 3713 2572 3713 1747 
Q 3713 922 3314 415 
Q 2916 -91 2278 -91 
Q 1894 -91 1617 61 
Q 1341 213 1159 525 
L 1159 0 
L 581 0 
L 581 4863 
L 1159 4863 
L 1159 2969 
z
" transform="scale(0.015625)"/>
       <path id="DejaVuSans-61" d="M 2194 1759 
Q 1497 1759 1228 1600 
Q 959 1441 959 1056 
Q 959 750 1161 570 
Q 1363 391 1709 391 
Q 2188 391 2477 730 
Q 2766 1069 2766 1631 
L 2766 1759 
L 2194 1759 
z
M 3341 1997 
L 3341 0 
L 2766 0 
L 2766 531 
Q 2569 213 2275 61 
Q 1981 -91 1556 -91 
Q 1019 -91 701 211 
Q 384 513 384 1019 
Q 384 1609 779 1909 
Q 1175 2209 1959 2209 
L 2766 2209 
L 2766 2266 
Q 2766 2663 2505 2880 
Q 2244 3097 1772 3097 
Q 1472 3097 1187 3025 
Q 903 2953 641 2809 
L 641 3341 
Q 956 3463 1253 3523 
Q 1550 3584 1831 3584 
Q 2591 3584 2966 3190 
Q 3341 2797 3341 1997 
z
" transform="scale(0.015625)"/>
       <path id="DejaVuSans-69" d="M 603 3500 
L 1178 3500 
L 1178 0 
L 603 0 
L 603 3500 
z
M 603 4863 
L 1178 4863 
L 1178 4134 
L 603 4134 
L 603 4863 
z
" transform="scale(0.015625)"/>
       <path id="DejaVuSans-6c" d="M 603 4863 
L 1178 4863 
L 1178 0 
L 603 0 
L 603 4863 
z
" transform="scale(0.015625)"/>
       <path id="DejaVuSans-74" d="M 1172 4494 
L 1172 3500 
L 2356 3500 
L 2356 3053 
L 1172 3053 
L 1172 1153 
Q 1172 725 1289 603 
Q 1406 481 1766 481 
L 2356 481 
L 2356 0 
L 1766 0 
Q 1100 0 847 248 
Q 594 497 594 1153 
L 594 3053 
L 172 3053 
L 172 3500 
L 594 3500 
L 594 4494 
L 1172 4494 
z
" transform="scale(0.015625)"/>
       <path id="DejaVuSans-e9" d="M 3597 1894 
L 3597 1613 
L 953 1613 
Q 991 1019 1311 708 
Q 1631 397 2203 397 
Q 2534 397 2845 478 
Q 3156 559 3463 722 
L 3463 178 
Q 3153 47 2828 -22 
Q 2503 -91 2169 -91 
Q 1331 -91 842 396 
Q 353 884 353 1716 
Q 353 2575 817 3079 
Q 1281 3584 2069 3584 
Q 2775 3584 3186 3129 
Q 3597 2675 3597 1894 
z
M 3022 2063 
Q 3016 2534 2758 2815 
Q 2500 3097 2075 3097 
Q 1594 3097 1305 2825 
Q 1016 2553 972 2059 
L 3022 2063 
z
M 2466 5119 
L 3088 5119 
L 2070 3944 
L 1591 3944 
L 2466 5119 
z
" transform="scale(0.015625)"/>
       <path id="DejaVuSans-73" d="M 2834 3397 
L 2834 2853 
Q 2591 2978 2328 3040 
Q 2066 3103 1784 3103 
Q 1356 3103 1142 2972 
Q 928 2841 928 2578 
Q 928 2378 1081 2264 
Q 1234 2150 1697 2047 
L 1894 2003 
Q 2506 1872 2764 1633 
Q 3022 1394 3022 966 
Q 3022 478 2636 193 
Q 2250 -91 1575 -91 
Q 1294 -91 989 -36 
Q 684 19 347 128 
L 347 722 
Q 666 556 975 473 
Q 1284 391 1588 391 
Q 1994 391 2212 530 
Q 2431 669 2431 922 
Q 2431 1156 2273 1281 
Q 2116 1406 1581 1522 
L 1381 1569 
Q 847 1681 609 1914 
Q 372 2147 372 2553 
Q 372 3047 722 3315 
Q 1072 3584 1716 3584 
Q 2034 3584 2315 3537 
Q 2597 3491 2834 3397 
z
" transform="scale(0.015625)"/>
       <path id="DejaVuSans-20" transform="scale(0.015625)"/>
       <path id="DejaVuSans-5b" d="M 550 4863 
L 1875 4863 
L 1875 4416 
L 1125 4416 
L 1125 -397 
L 1875 -397 
L 1875 -844 
L 550 -844 
L 550 4863 
z
" transform="scale(0.015625)"/>
       <path id="DejaVuSans-2d" d="M 313 2009 
L 1997 2009 
L 1997 1497 
L 313 1497 
L 313 2009 
z
" transform="scale(0.015625)"/>
       <path id="DejaVuSans-5d" d="M 1947 4863 
L 1947 -844 
L 622 -844 
L 622 -397 
L 1369 -397 
L 1369 4416 
L 622 4416 
L 622 4863 
L 1947 4863 
z
" transform="scale(0.015625)"/>
      </defs>
      <use xlink:href="#DejaVuSans-50"/>
      <use xlink:href="#DejaVuSans-72" x="58.552734"/>
      <use xlink:href="#DejaVuSans-6f" x="97.416016"/>
      <use xlink:href="#DejaVuSans-62" x="158.597656"/>
      <use xlink:href="#DejaVuSans-61" x="222.074219"/>
      <use xlink:href="#DejaVuSans-62" x="283.353516"/>
      <use xlink:href="#DejaVuSans-69" x="346.830078"/>
      <use xlink:href="#DejaVuSans-6c" x="374.613281"/>
      <use xlink:href="#DejaVuSans-69" x="402.396484"/>
      <use xlink:href="#DejaVuSans-74" x="430.179688"/>
      <use xlink:href="#DejaVuSans-e9" x="469.388672"/>
      <use xlink:href="#DejaVuSans-73" x="530.912109"/>
      <use xlink:href="#DejaVuSans-20" x="583.011719"/>
      <use xlink:href="#DejaVuSans-5b" x="614.798828"/>
      <use xlink:href="#DejaVuSans-2d" x="653.8125"/>
      <use xlink:href="#DejaVuSans-5d" x="689.896484"/>
     </g>
    </g>
   </g>
   <g id="matplotlib.axis_2">
    <g id="ytick_1">
     <g id="line2d_7">
      <path d="M 53.37 326.74 
L 347.04 326.74 
" clip-path="url(#pb79e0ddfa8)" style="fill: none; stroke: #ffffff; stroke-linecap: round"/>
     </g>
     <g id="text_8">
      <!-- 0 -->
      <g style="fill: #262626" transform="translate(36.87125 330.919141) scale(0.11 -0.11)">
       <use xlink:href="#DejaVuSans-30"/>
      </g>
     </g>
    </g>
    <g id="ytick_2">
     <g id="line2d_8">
      <path d="M 53.37 291.165655 
L 347.04 291.165655 
" clip-path="url(#pb79e0ddfa8)" style="fill: none; stroke: #ffffff; stroke-linecap: round"/>
     </g>
     <g id="text_9">
      <!-- 5 -->
      <g style="fill: #262626" transform="translate(36.87125 295.344796) scale(0.11 -0.11)">
       <defs>
        <path id="DejaVuSans-35" d="M 691 4666 
L 3169 4666 
L 3169 4134 
L 1269 4134 
L 1269 2991 
Q 1406 3038 1543 3061 
Q 1681 3084 1819 3084 
Q 2600 3084 3056 2656 
Q 3513 2228 3513 1497 
Q 3513 744 3044 326 
Q 2575 -91 1722 -91 
Q 1428 -91 1123 -41 
Q 819 9 494 109 
L 494 744 
Q 775 591 1075 516 
Q 1375 441 1709 441 
Q 2250 441 2565 725 
Q 2881 1009 2881 1497 
Q 2881 1984 2565 2268 
Q 2250 2553 1709 2553 
Q 1456 2553 1204 2497 
Q 953 2441 691 2322 
L 691 4666 
z
" transform="scale(0.015625)"/>
       </defs>
       <use xlink:href="#DejaVuSans-35"/>
      </g>
     </g>
    </g>
    <g id="ytick_3">
     <g id="line2d_9">
      <path d="M 53.37 255.591311 
L 347.04 255.591311 
" clip-path="url(#pb79e0ddfa8)" style="fill: none; stroke: #ffffff; stroke-linecap: round"/>
     </g>
     <g id="text_10">
      <!-- 10 -->
      <g style="fill: #262626" transform="translate(29.8725 259.770451) scale(0.11 -0.11)">
       <use xlink:href="#DejaVuSans-31"/>
       <use xlink:href="#DejaVuSans-30" x="63.623047"/>
      </g>
     </g>
    </g>
    <g id="ytick_4">
     <g id="line2d_10">
      <path d="M 53.37 220.016966 
L 347.04 220.016966 
" clip-path="url(#pb79e0ddfa8)" style="fill: none; stroke: #ffffff; stroke-linecap: round"/>
     </g>
     <g id="text_11">
      <!-- 15 -->
      <g style="fill: #262626" transform="translate(29.8725 224.196106) scale(0.11 -0.11)">
       <use xlink:href="#DejaVuSans-31"/>
       <use xlink:href="#DejaVuSans-35" x="63.623047"/>
      </g>
     </g>
    </g>
    <g id="ytick_5">
     <g id="line2d_11">
      <path d="M 53.37 184.442621 
L 347.04 184.442621 
" clip-path="url(#pb79e0ddfa8)" style="fill: none; stroke: #ffffff; stroke-linecap: round"/>
     </g>
     <g id="text_12">
      <!-- 20 -->
      <g style="fill: #262626" transform="translate(29.8725 188.621762) scale(0.11 -0.11)">
       <use xlink:href="#DejaVuSans-32"/>
       <use xlink:href="#DejaVuSans-30" x="63.623047"/>
      </g>
     </g>
    </g>
    <g id="ytick_6">
     <g id="line2d_12">
      <path d="M 53.37 148.868276 
L 347.04 148.868276 
" clip-path="url(#pb79e0ddfa8)" style="fill: none; stroke: #ffffff; stroke-linecap: round"/>
     </g>
     <g id="text_13">
      <!-- 25 -->
      <g style="fill: #262626" transform="translate(29.8725 153.047417) scale(0.11 -0.11)">
       <use xlink:href="#DejaVuSans-32"/>
       <use xlink:href="#DejaVuSans-35" x="63.623047"/>
      </g>
     </g>
    </g>
    <g id="ytick_7">
     <g id="line2d_13">
      <path d="M 53.37 113.293932 
L 347.04 113.293932 
" clip-path="url(#pb79e0ddfa8)" style="fill: none; stroke: #ffffff; stroke-linecap: round"/>
     </g>
     <g id="text_14">
      <!-- 30 -->
      <g style="fill: #262626" transform="translate(29.8725 117.473072) scale(0.11 -0.11)">
       <defs>
        <path id="DejaVuSans-33" d="M 2597 2516 
Q 3050 2419 3304 2112 
Q 3559 1806 3559 1356 
Q 3559 666 3084 287 
Q 2609 -91 1734 -91 
Q 1441 -91 1130 -33 
Q 819 25 488 141 
L 488 750 
Q 750 597 1062 519 
Q 1375 441 1716 441 
Q 2309 441 2620 675 
Q 2931 909 2931 1356 
Q 2931 1769 2642 2001 
Q 2353 2234 1838 2234 
L 1294 2234 
L 1294 2753 
L 1863 2753 
Q 2328 2753 2575 2939 
Q 2822 3125 2822 3475 
Q 2822 3834 2567 4026 
Q 2313 4219 1838 4219 
Q 1578 4219 1281 4162 
Q 984 4106 628 3988 
L 628 4550 
Q 988 4650 1302 4700 
Q 1616 4750 1894 4750 
Q 2613 4750 3031 4423 
Q 3450 4097 3450 3541 
Q 3450 3153 3228 2886 
Q 3006 2619 2597 2516 
z
" transform="scale(0.015625)"/>
       </defs>
       <use xlink:href="#DejaVuSans-33"/>
       <use xlink:href="#DejaVuSans-30" x="63.623047"/>
      </g>
     </g>
    </g>
    <g id="ytick_8">
     <g id="line2d_14">
      <path d="M 53.37 77.719587 
L 347.04 77.719587 
" clip-path="url(#pb79e0ddfa8)" style="fill: none; stroke: #ffffff; stroke-linecap: round"/>
     </g>
     <g id="text_15">
      <!-- 35 -->
      <g style="fill: #262626" transform="translate(29.8725 81.898728) scale(0.11 -0.11)">
       <use xlink:href="#DejaVuSans-33"/>
       <use xlink:href="#DejaVuSans-35" x="63.623047"/>
      </g>
     </g>
    </g>
    <g id="ytick_9">
     <g id="line2d_15">
      <path d="M 53.37 42.145242 
L 347.04 42.145242 
" clip-path="url(#pb79e0ddfa8)" style="fill: none; stroke: #ffffff; stroke-linecap: round"/>
     </g>
     <g id="text_16">
      <!-- 40 -->
      <g style="fill: #262626" transform="translate(29.8725 46.324383) scale(0.11 -0.11)">
       <use xlink:href="#DejaVuSans-34"/>
       <use xlink:href="#DejaVuSans-30" x="63.623047"/>
      </g>
     </g>
    </g>
    <g id="text_17">
     <!-- Densité [-] -->
     <g style="fill: #262626" transform="translate(23.376875 201.554375) rotate(-90) scale(0.12 -0.12)">
      <defs>
       <path id="DejaVuSans-44" d="M 1259 4147 
L 1259 519 
L 2022 519 
Q 2988 519 3436 956 
Q 3884 1394 3884 2338 
Q 3884 3275 3436 3711 
Q 2988 4147 2022 4147 
L 1259 4147 
z
M 628 4666 
L 1925 4666 
Q 3281 4666 3915 4102 
Q 4550 3538 4550 2338 
Q 4550 1131 3912 565 
Q 3275 0 1925 0 
L 628 0 
L 628 4666 
z
" transform="scale(0.015625)"/>
       <path id="DejaVuSans-65" d="M 3597 1894 
L 3597 1613 
L 953 1613 
Q 991 1019 1311 708 
Q 1631 397 2203 397 
Q 2534 397 2845 478 
Q 3156 559 3463 722 
L 3463 178 
Q 3153 47 2828 -22 
Q 2503 -91 2169 -91 
Q 1331 -91 842 396 
Q 353 884 353 1716 
Q 353 2575 817 3079 
Q 1281 3584 2069 3584 
Q 2775 3584 3186 3129 
Q 3597 2675 3597 1894 
z
M 3022 2063 
Q 3016 2534 2758 2815 
Q 2500 3097 2075 3097 
Q 1594 3097 1305 2825 
Q 1016 2553 972 2059 
L 3022 2063 
z
" transform="scale(0.015625)"/>
       <path id="DejaVuSans-6e" d="M 3513 2113 
L 3513 0 
L 2938 0 
L 2938 2094 
Q 2938 2591 2744 2837 
Q 2550 3084 2163 3084 
Q 1697 3084 1428 2787 
Q 1159 2491 1159 1978 
L 1159 0 
L 581 0 
L 581 3500 
L 1159 3500 
L 1159 2956 
Q 1366 3272 1645 3428 
Q 1925 3584 2291 3584 
Q 2894 3584 3203 3211 
Q 3513 2838 3513 2113 
z
" transform="scale(0.015625)"/>
      </defs>
      <use xlink:href="#DejaVuSans-44"/>
      <use xlink:href="#DejaVuSans-65" x="77.001953"/>
      <use xlink:href="#DejaVuSans-6e" x="138.525391"/>
      <use xlink:href="#DejaVuSans-73" x="201.904297"/>
      <use xlink:href="#DejaVuSans-69" x="254.003906"/>
      <use xlink:href="#DejaVuSans-74" x="281.787109"/>
      <use xlink:href="#DejaVuSans-e9" x="320.996094"/>
      <use xlink:href="#DejaVuSans-20" x="382.519531"/>
      <use xlink:href="#DejaVuSans-5b" x="414.306641"/>
      <use xlink:href="#DejaVuSans-2d" x="453.320312"/>
      <use xlink:href="#DejaVuSans-5d" x="489.404297"/>
     </g>
    </g>
   </g>
   <g id="PolyCollection_1">
    <defs>
     <path id="m8719c5d969" d="M 53.37 -327.765847 
L 53.37 -33.26 
L 54.055464 -33.26 
L 54.740927 -33.26 
L 55.426391 -33.26 
L 56.111855 -33.26 
L 56.797319 -33.26 
L 57.482782 -33.26 
L 58.168246 -33.26 
L 58.85371 -33.26 
L 59.539173 -33.26 
L 60.224637 -33.26 
L 60.910101 -33.26 
L 61.595564 -33.26 
L 62.281028 -33.26 
L 62.966492 -33.26 
L 63.651956 -33.26 
L 64.337419 -33.26 
L 65.022883 -33.26 
L 65.708347 -33.26 
L 66.39381 -33.26 
L 67.079274 -33.26 
L 67.764738 -33.26 
L 68.450202 -33.26 
L 69.135665 -33.26 
L 69.821129 -33.26 
L 70.506593 -33.26 
L 71.192056 -33.26 
L 71.87752 -33.26 
L 72.562984 -33.26 
L 73.248448 -33.26 
L 73.933911 -33.26 
L 74.619375 -33.26 
L 75.304839 -33.26 
L 75.990302 -33.26 
L 76.675766 -33.26 
L 77.36123 -33.26 
L 78.046693 -33.26 
L 78.732157 -33.26 
L 79.417621 -33.26 
L 80.103085 -33.26 
L 80.788548 -33.26 
L 81.474012 -33.26 
L 82.159476 -33.26 
L 82.844939 -33.26 
L 83.530403 -33.26 
L 84.215867 -33.26 
L 84.901331 -33.26 
L 85.586794 -33.26 
L 86.272258 -33.26 
L 86.957722 -33.26 
L 87.643185 -33.26 
L 88.328649 -33.26 
L 89.014113 -33.26 
L 89.699577 -33.26 
L 90.38504 -33.26 
L 91.070504 -33.26 
L 91.755968 -33.26 
L 92.441431 -33.26 
L 93.126895 -33.26 
L 93.812359 -33.26 
L 94.497822 -33.26 
L 95.183286 -33.26 
L 95.86875 -33.26 
L 96.554214 -33.26 
L 97.239677 -33.26 
L 97.925141 -33.26 
L 98.610605 -33.26 
L 99.296068 -33.26 
L 99.981532 -33.26 
L 100.666996 -33.26 
L 101.35246 -33.26 
L 102.037923 -33.26 
L 102.723387 -33.26 
L 103.408851 -33.26 
L 104.094314 -33.26 
L 104.779778 -33.26 
L 105.465242 -33.26 
L 106.150706 -33.26 
L 106.836169 -33.26 
L 107.521633 -33.26 
L 108.207097 -33.26 
L 108.89256 -33.26 
L 109.578024 -33.26 
L 110.263488 -33.26 
L 110.948951 -33.26 
L 111.634415 -33.26 
L 112.319879 -33.26 
L 113.005343 -33.26 
L 113.690806 -33.26 
L 114.37627 -33.26 
L 115.061734 -33.26 
L 115.747197 -33.26 
L 116.432661 -33.26 
L 117.118125 -33.26 
L 117.803589 -33.26 
L 118.489052 -33.26 
L 119.174516 -33.26 
L 119.85998 -33.26 
L 120.545443 -33.26 
L 121.230907 -33.26 
L 121.916371 -33.26 
L 122.601835 -33.26 
L 123.287298 -33.26 
L 123.972762 -33.26 
L 124.658226 -33.26 
L 125.343689 -33.26 
L 126.029153 -33.26 
L 126.714617 -33.26 
L 127.40008 -33.26 
L 128.085544 -33.26 
L 128.771008 -33.26 
L 129.456472 -33.26 
L 130.141935 -33.26 
L 130.827399 -33.26 
L 131.512863 -33.26 
L 132.198326 -33.26 
L 132.88379 -33.26 
L 133.569254 -33.26 
L 134.254718 -33.26 
L 134.940181 -33.26 
L 135.625645 -33.26 
L 136.311109 -33.26 
L 136.996572 -33.26 
L 137.682036 -33.26 
L 138.3675 -33.26 
L 139.052963 -33.26 
L 139.738427 -33.26 
L 140.423891 -33.26 
L 141.109355 -33.26 
L 141.794818 -33.26 
L 142.480282 -33.26 
L 143.165746 -33.26 
L 143.851209 -33.26 
L 144.536673 -33.26 
L 145.222137 -33.26 
L 145.907601 -33.26 
L 146.593064 -33.26 
L 147.278528 -33.26 
L 147.963992 -33.26 
L 148.649455 -33.26 
L 149.334919 -33.26 
L 150.020383 -33.26 
L 150.705847 -33.26 
L 151.39131 -33.26 
L 152.076774 -33.26 
L 152.762238 -33.26 
L 153.447701 -33.26 
L 154.133165 -33.26 
L 154.818629 -33.26 
L 155.504092 -33.26 
L 156.189556 -33.26 
L 156.87502 -33.26 
L 157.560484 -33.26 
L 158.245947 -33.26 
L 158.931411 -33.26 
L 159.616875 -33.26 
L 160.302338 -33.26 
L 160.987802 -33.26 
L 161.673266 -33.26 
L 162.35873 -33.26 
L 163.044193 -33.26 
L 163.729657 -33.26 
L 164.415121 -33.26 
L 165.100584 -33.26 
L 165.786048 -33.26 
L 166.471512 -33.26 
L 167.156976 -33.26 
L 167.842439 -33.26 
L 168.527903 -33.26 
L 169.213367 -33.26 
L 169.89883 -33.26 
L 170.584294 -33.26 
L 171.269758 -33.26 
L 171.955221 -33.26 
L 172.640685 -33.26 
L 173.326149 -33.26 
L 174.011613 -33.26 
L 174.697076 -33.26 
L 175.38254 -33.26 
L 176.068004 -33.26 
L 176.753467 -33.26 
L 177.438931 -33.26 
L 178.124395 -33.26 
L 178.809859 -33.26 
L 179.495322 -33.26 
L 180.180786 -33.26 
L 180.86625 -33.26 
L 181.551713 -33.26 
L 182.237177 -33.26 
L 182.922641 -33.26 
L 183.608105 -33.26 
L 184.293568 -33.26 
L 184.979032 -33.26 
L 185.664496 -33.26 
L 186.349959 -33.26 
L 187.035423 -33.26 
L 187.720887 -33.26 
L 188.40635 -33.26 
L 189.091814 -33.26 
L 189.777278 -33.26 
L 189.777278 -33.265967 
L 189.777278 -33.265967 
L 189.091814 -33.274417 
L 188.40635 -33.291639 
L 187.720887 -33.32307 
L 187.035423 -33.374201 
L 186.349959 -33.447828 
L 185.664496 -33.540604 
L 184.979032 -33.640779 
L 184.293568 -33.729349 
L 183.608105 -33.785489 
L 182.922641 -33.794412 
L 182.237177 -33.753666 
L 181.551713 -33.674223 
L 180.86625 -33.575704 
L 180.180786 -33.47856 
L 179.495322 -33.397438 
L 178.809859 -33.338503 
L 178.124395 -33.300729 
L 177.438931 -33.279194 
L 176.753467 -33.268217 
L 176.068004 -33.263195 
L 175.38254 -33.261128 
L 174.697076 -33.260362 
L 174.011613 -33.260105 
L 173.326149 -33.260028 
L 172.640685 -33.260007 
L 171.955221 -33.260001 
L 171.269758 -33.26 
L 170.584294 -33.26 
L 169.89883 -33.26 
L 169.213367 -33.26 
L 168.527903 -33.26 
L 167.842439 -33.26 
L 167.156976 -33.26 
L 166.471512 -33.26 
L 165.786048 -33.26 
L 165.100584 -33.26 
L 164.415121 -33.26 
L 163.729657 -33.26 
L 163.044193 -33.26 
L 162.35873 -33.26 
L 161.673266 -33.26 
L 160.987802 -33.26 
L 160.302338 -33.26 
L 159.616875 -33.26 
L 158.931411 -33.26 
L 158.245947 -33.26 
L 157.560484 -33.26 
L 156.87502 -33.26 
L 156.189556 -33.26 
L 155.504092 -33.26 
L 154.818629 -33.26 
L 154.133165 -33.26 
L 153.447701 -33.26 
L 152.762238 -33.26 
L 152.076774 -33.26 
L 151.39131 -33.26 
L 150.705847 -33.26 
L 150.020383 -33.26 
L 149.334919 -33.26 
L 148.649455 -33.26 
L 147.963992 -33.26 
L 147.278528 -33.26 
L 146.593064 -33.26 
L 145.907601 -33.26 
L 145.222137 -33.26 
L 144.536673 -33.26 
L 143.851209 -33.26 
L 143.165746 -33.26 
L 142.480282 -33.26 
L 141.794818 -33.26 
L 141.109355 -33.26 
L 140.423891 -33.26 
L 139.738427 -33.26 
L 139.052963 -33.26 
L 138.3675 -33.26 
L 137.682036 -33.26 
L 136.996572 -33.26 
L 136.311109 -33.26 
L 135.625645 -33.26 
L 134.940181 -33.26 
L 134.254718 -33.26 
L 133.569254 -33.26 
L 132.88379 -33.260001 
L 132.198326 -33.260003 
L 131.512863 -33.260013 
L 130.827399 -33.260053 
L 130.141935 -33.260192 
L 129.456472 -33.260628 
L 128.771008 -33.261872 
L 128.085544 -33.265063 
L 127.40008 -33.27244 
L 126.714617 -33.287765 
L 126.029153 -33.316286 
L 125.343689 -33.363647 
L 124.658226 -33.433362 
L 123.972762 -33.523388 
L 123.287298 -33.623482 
L 122.601835 -33.715633 
L 121.916371 -33.778792 
L 121.230907 -33.796567 
L 120.545443 -33.764114 
L 119.85998 -33.690336 
L 119.174516 -33.594095 
L 118.489052 -33.496823 
L 117.803589 -33.41575 
L 117.118125 -33.360944 
L 116.432661 -33.336444 
L 115.747197 -33.34334 
L 115.061734 -33.381991 
L 114.37627 -33.451792 
L 113.690806 -33.548935 
L 113.005343 -33.664336 
L 112.319879 -33.784168 
L 111.634415 -33.893778 
L 110.948951 -33.983108 
L 110.263488 -34.050074 
L 109.578024 -34.099447 
L 108.89256 -34.137991 
L 108.207097 -34.169226 
L 107.521633 -34.190983 
L 106.836169 -34.196452 
L 106.150706 -34.177348 
L 105.465242 -34.12765 
L 104.779778 -34.047094 
L 104.094314 -33.943749 
L 103.408851 -33.834273 
L 102.723387 -33.74054 
L 102.037923 -33.682927 
L 101.35246 -33.672786 
L 100.666996 -33.707717 
L 99.981532 -33.772399 
L 99.296068 -33.845106 
L 98.610605 -33.906944 
L 97.925141 -33.948978 
L 97.239677 -33.973299 
L 96.554214 -33.987942 
L 95.86875 -33.999738 
L 95.183286 -34.010337 
L 94.497822 -34.017523 
L 93.812359 -34.019159 
L 93.126895 -34.015206 
L 92.441431 -34.005886 
L 91.755968 -33.988649 
L 91.070504 -33.958325 
L 90.38504 -33.912129 
L 89.699577 -33.85634 
L 89.014113 -33.809162 
L 88.328649 -33.796186 
L 87.643185 -33.839551 
L 86.957722 -33.945947 
L 86.272258 -34.100042 
L 85.586794 -34.267981 
L 84.901331 -34.410924 
L 84.215867 -34.502985 
L 83.530403 -34.544579 
L 82.844939 -34.564199 
L 82.159476 -34.608433 
L 81.474012 -34.726912 
L 80.788548 -34.960361 
L 80.103085 -35.335051 
L 79.417621 -35.860375 
L 78.732157 -36.524115 
L 78.046693 -37.284593 
L 77.36123 -38.066357 
L 76.675766 -38.769041 
L 75.990302 -39.293037 
L 75.304839 -39.573492 
L 74.619375 -39.605428 
L 73.933911 -39.445749 
L 73.248448 -39.191188 
L 72.562984 -38.94476 
L 71.87752 -38.787382 
L 71.192056 -38.76495 
L 70.506593 -38.891194 
L 69.821129 -39.159921 
L 69.135665 -39.558362 
L 68.450202 -40.074933 
L 67.764738 -40.698558 
L 67.079274 -41.41258 
L 66.39381 -42.191982 
L 65.708347 -43.013423 
L 65.022883 -43.880848 
L 64.337419 -44.85859 
L 63.651956 -46.097594 
L 62.966492 -47.844623 
L 62.281028 -50.437154 
L 61.595564 -54.300559 
L 60.910101 -59.971831 
L 60.224637 -68.169362 
L 59.539173 -79.900295 
L 58.85371 -96.53334 
L 58.168246 -119.677006 
L 57.482782 -150.660165 
L 56.797319 -189.532607 
L 56.111855 -233.852276 
L 55.426391 -277.959891 
L 54.740927 -313.581876 
L 54.055464 -332.098095 
L 53.37 -327.765847 
z
" style="stroke: #c44e52"/>
    </defs>
    <g clip-path="url(#pb79e0ddfa8)">
     <use xlink:href="#m8719c5d969" x="0" y="360" style="fill: #c44e52; fill-opacity: 0.25; stroke: #c44e52"/>
    </g>
   </g>
   <g id="patch_3">
    <path d="M 53.37 326.74 
L 53.37 12.96 
" style="fill: none; stroke: #ffffff; stroke-width: 1.25; stroke-linejoin: miter; stroke-linecap: square"/>
   </g>
   <g id="patch_4">
    <path d="M 53.37 326.74 
L 347.04 326.74 
" style="fill: none; stroke: #ffffff; stroke-width: 1.25; stroke-linejoin: miter; stroke-linecap: square"/>
   </g>
  </g>
 </g>
 <defs>
  <clipPath id="pb79e0ddfa8">
   <rect x="53.37" y="12.96" width="293.67" height="313.78"/>
  </clipPath>
 </defs>
</svg>
