<?xml version="1.0" encoding="utf-8" standalone="no"?>
<!DOCTYPE svg PUBLIC "-//W3C//DTD SVG 1.1//EN"
  "http://www.w3.org/Graphics/SVG/1.1/DTD/svg11.dtd">
<svg xmlns:xlink="http://www.w3.org/1999/xlink" width="360pt" height="360pt" viewBox="0 0 360 360" xmlns="http://www.w3.org/2000/svg" version="1.1">
 <metadata>
  <rdf:RDF xmlns:dc="http://purl.org/dc/elements/1.1/" xmlns:cc="http://creativecommons.org/ns#" xmlns:rdf="http://www.w3.org/1999/02/22-rdf-syntax-ns#">
   <cc:Work>
    <dc:type rdf:resource="http://purl.org/dc/dcmitype/StillImage"/>
    <dc:date>2023-03-18T11:43:38.062345</dc:date>
    <dc:format>image/svg+xml</dc:format>
    <dc:creator>
     <cc:Agent>
      <dc:title>Matplotlib v3.6.3, https://matplotlib.org/</dc:title>
     </cc:Agent>
    </dc:creator>
   </cc:Work>
  </rdf:RDF>
 </metadata>
 <defs>
  <style type="text/css">*{stroke-linejoin: round; stroke-linecap: butt}</style>
 </defs>
 <g id="figure_1">
  <g id="patch_1">
   <path d="M 0 360 
L 360 360 
L 360 0 
L 0 0 
z
" style="fill: #ffffff"/>
  </g>
  <g id="axes_1">
   <g id="patch_2">
    <path d="M 53.37 326.74 
L 347.04 326.74 
L 347.04 12.96 
L 53.37 12.96 
z
" style="fill: #eaeaf2"/>
   </g>
   <g id="matplotlib.axis_1">
    <g id="xtick_1">
     <g id="line2d_1">
      <path d="M 53.37 326.74 
L 53.37 12.96 
" clip-path="url(#p53ebaa803c)" style="fill: none; stroke: #ffffff; stroke-linecap: round"/>
     </g>
     <g id="text_1">
      <!-- 0.0 -->
      <g style="fill: #262626" transform="translate(44.623281 344.598281) scale(0.11 -0.11)">
       <defs>
        <path id="DejaVuSans-30" d="M 2034 4250 
Q 1547 4250 1301 3770 
Q 1056 3291 1056 2328 
Q 1056 1369 1301 889 
Q 1547 409 2034 409 
Q 2525 409 2770 889 
Q 3016 1369 3016 2328 
Q 3016 3291 2770 3770 
Q 2525 4250 2034 4250 
z
M 2034 4750 
Q 2819 4750 3233 4129 
Q 3647 3509 3647 2328 
Q 3647 1150 3233 529 
Q 2819 -91 2034 -91 
Q 1250 -91 836 529 
Q 422 1150 422 2328 
Q 422 3509 836 4129 
Q 1250 4750 2034 4750 
z
" transform="scale(0.015625)"/>
        <path id="DejaVuSans-2e" d="M 684 794 
L 1344 794 
L 1344 0 
L 684 0 
L 684 794 
z
" transform="scale(0.015625)"/>
       </defs>
       <use xlink:href="#DejaVuSans-30"/>
       <use xlink:href="#DejaVuSans-2e" x="63.623047"/>
       <use xlink:href="#DejaVuSans-30" x="95.410156"/>
      </g>
     </g>
    </g>
    <g id="xtick_2">
     <g id="line2d_2">
      <path d="M 112.104 326.74 
L 112.104 12.96 
" clip-path="url(#p53ebaa803c)" style="fill: none; stroke: #ffffff; stroke-linecap: round"/>
     </g>
     <g id="text_2">
      <!-- 0.2 -->
      <g style="fill: #262626" transform="translate(103.357281 344.598281) scale(0.11 -0.11)">
       <defs>
        <path id="DejaVuSans-32" d="M 1228 531 
L 3431 531 
L 3431 0 
L 469 0 
L 469 531 
Q 828 903 1448 1529 
Q 2069 2156 2228 2338 
Q 2531 2678 2651 2914 
Q 2772 3150 2772 3378 
Q 2772 3750 2511 3984 
Q 2250 4219 1831 4219 
Q 1534 4219 1204 4116 
Q 875 4013 500 3803 
L 500 4441 
Q 881 4594 1212 4672 
Q 1544 4750 1819 4750 
Q 2544 4750 2975 4387 
Q 3406 4025 3406 3419 
Q 3406 3131 3298 2873 
Q 3191 2616 2906 2266 
Q 2828 2175 2409 1742 
Q 1991 1309 1228 531 
z
" transform="scale(0.015625)"/>
       </defs>
       <use xlink:href="#DejaVuSans-30"/>
       <use xlink:href="#DejaVuSans-2e" x="63.623047"/>
       <use xlink:href="#DejaVuSans-32" x="95.410156"/>
      </g>
     </g>
    </g>
    <g id="xtick_3">
     <g id="line2d_3">
      <path d="M 170.838 326.74 
L 170.838 12.96 
" clip-path="url(#p53ebaa803c)" style="fill: none; stroke: #ffffff; stroke-linecap: round"/>
     </g>
     <g id="text_3">
      <!-- 0.4 -->
      <g style="fill: #262626" transform="translate(162.091281 344.598281) scale(0.11 -0.11)">
       <defs>
        <path id="DejaVuSans-34" d="M 2419 4116 
L 825 1625 
L 2419 1625 
L 2419 4116 
z
M 2253 4666 
L 3047 4666 
L 3047 1625 
L 3713 1625 
L 3713 1100 
L 3047 1100 
L 3047 0 
L 2419 0 
L 2419 1100 
L 313 1100 
L 313 1709 
L 2253 4666 
z
" transform="scale(0.015625)"/>
       </defs>
       <use xlink:href="#DejaVuSans-30"/>
       <use xlink:href="#DejaVuSans-2e" x="63.623047"/>
       <use xlink:href="#DejaVuSans-34" x="95.410156"/>
      </g>
     </g>
    </g>
    <g id="xtick_4">
     <g id="line2d_4">
      <path d="M 229.572 326.74 
L 229.572 12.96 
" clip-path="url(#p53ebaa803c)" style="fill: none; stroke: #ffffff; stroke-linecap: round"/>
     </g>
     <g id="text_4">
      <!-- 0.6 -->
      <g style="fill: #262626" transform="translate(220.825281 344.598281) scale(0.11 -0.11)">
       <defs>
        <path id="DejaVuSans-36" d="M 2113 2584 
Q 1688 2584 1439 2293 
Q 1191 2003 1191 1497 
Q 1191 994 1439 701 
Q 1688 409 2113 409 
Q 2538 409 2786 701 
Q 3034 994 3034 1497 
Q 3034 2003 2786 2293 
Q 2538 2584 2113 2584 
z
M 3366 4563 
L 3366 3988 
Q 3128 4100 2886 4159 
Q 2644 4219 2406 4219 
Q 1781 4219 1451 3797 
Q 1122 3375 1075 2522 
Q 1259 2794 1537 2939 
Q 1816 3084 2150 3084 
Q 2853 3084 3261 2657 
Q 3669 2231 3669 1497 
Q 3669 778 3244 343 
Q 2819 -91 2113 -91 
Q 1303 -91 875 529 
Q 447 1150 447 2328 
Q 447 3434 972 4092 
Q 1497 4750 2381 4750 
Q 2619 4750 2861 4703 
Q 3103 4656 3366 4563 
z
" transform="scale(0.015625)"/>
       </defs>
       <use xlink:href="#DejaVuSans-30"/>
       <use xlink:href="#DejaVuSans-2e" x="63.623047"/>
       <use xlink:href="#DejaVuSans-36" x="95.410156"/>
      </g>
     </g>
    </g>
    <g id="xtick_5">
     <g id="line2d_5">
      <path d="M 288.306 326.74 
L 288.306 12.96 
" clip-path="url(#p53ebaa803c)" style="fill: none; stroke: #ffffff; stroke-linecap: round"/>
     </g>
     <g id="text_5">
      <!-- 0.8 -->
      <g style="fill: #262626" transform="translate(279.559281 344.598281) scale(0.11 -0.11)">
       <defs>
        <path id="DejaVuSans-38" d="M 2034 2216 
Q 1584 2216 1326 1975 
Q 1069 1734 1069 1313 
Q 1069 891 1326 650 
Q 1584 409 2034 409 
Q 2484 409 2743 651 
Q 3003 894 3003 1313 
Q 3003 1734 2745 1975 
Q 2488 2216 2034 2216 
z
M 1403 2484 
Q 997 2584 770 2862 
Q 544 3141 544 3541 
Q 544 4100 942 4425 
Q 1341 4750 2034 4750 
Q 2731 4750 3128 4425 
Q 3525 4100 3525 3541 
Q 3525 3141 3298 2862 
Q 3072 2584 2669 2484 
Q 3125 2378 3379 2068 
Q 3634 1759 3634 1313 
Q 3634 634 3220 271 
Q 2806 -91 2034 -91 
Q 1263 -91 848 271 
Q 434 634 434 1313 
Q 434 1759 690 2068 
Q 947 2378 1403 2484 
z
M 1172 3481 
Q 1172 3119 1398 2916 
Q 1625 2713 2034 2713 
Q 2441 2713 2670 2916 
Q 2900 3119 2900 3481 
Q 2900 3844 2670 4047 
Q 2441 4250 2034 4250 
Q 1625 4250 1398 4047 
Q 1172 3844 1172 3481 
z
" transform="scale(0.015625)"/>
       </defs>
       <use xlink:href="#DejaVuSans-30"/>
       <use xlink:href="#DejaVuSans-2e" x="63.623047"/>
       <use xlink:href="#DejaVuSans-38" x="95.410156"/>
      </g>
     </g>
    </g>
    <g id="xtick_6">
     <g id="line2d_6">
      <path d="M 347.04 326.74 
L 347.04 12.96 
" clip-path="url(#p53ebaa803c)" style="fill: none; stroke: #ffffff; stroke-linecap: round"/>
     </g>
     <g id="text_6">
      <!-- 1.0 -->
      <g style="fill: #262626" transform="translate(338.293281 344.598281) scale(0.11 -0.11)">
       <defs>
        <path id="DejaVuSans-31" d="M 794 531 
L 1825 531 
L 1825 4091 
L 703 3866 
L 703 4441 
L 1819 4666 
L 2450 4666 
L 2450 531 
L 3481 531 
L 3481 0 
L 794 0 
L 794 531 
z
" transform="scale(0.015625)"/>
       </defs>
       <use xlink:href="#DejaVuSans-31"/>
       <use xlink:href="#DejaVuSans-2e" x="63.623047"/>
       <use xlink:href="#DejaVuSans-30" x="95.410156"/>
      </g>
     </g>
    </g>
    <g id="text_7">
     <!-- Probabilités [-] -->
     <g style="fill: #262626" transform="translate(156.470625 360.004063) scale(0.12 -0.12)">
      <defs>
       <path id="DejaVuSans-50" d="M 1259 4147 
L 1259 2394 
L 2053 2394 
Q 2494 2394 2734 2622 
Q 2975 2850 2975 3272 
Q 2975 3691 2734 3919 
Q 2494 4147 2053 4147 
L 1259 4147 
z
M 628 4666 
L 2053 4666 
Q 2838 4666 3239 4311 
Q 3641 3956 3641 3272 
Q 3641 2581 3239 2228 
Q 2838 1875 2053 1875 
L 1259 1875 
L 1259 0 
L 628 0 
L 628 4666 
z
" transform="scale(0.015625)"/>
       <path id="DejaVuSans-72" d="M 2631 2963 
Q 2534 3019 2420 3045 
Q 2306 3072 2169 3072 
Q 1681 3072 1420 2755 
Q 1159 2438 1159 1844 
L 1159 0 
L 581 0 
L 581 3500 
L 1159 3500 
L 1159 2956 
Q 1341 3275 1631 3429 
Q 1922 3584 2338 3584 
Q 2397 3584 2469 3576 
Q 2541 3569 2628 3553 
L 2631 2963 
z
" transform="scale(0.015625)"/>
       <path id="DejaVuSans-6f" d="M 1959 3097 
Q 1497 3097 1228 2736 
Q 959 2375 959 1747 
Q 959 1119 1226 758 
Q 1494 397 1959 397 
Q 2419 397 2687 759 
Q 2956 1122 2956 1747 
Q 2956 2369 2687 2733 
Q 2419 3097 1959 3097 
z
M 1959 3584 
Q 2709 3584 3137 3096 
Q 3566 2609 3566 1747 
Q 3566 888 3137 398 
Q 2709 -91 1959 -91 
Q 1206 -91 779 398 
Q 353 888 353 1747 
Q 353 2609 779 3096 
Q 1206 3584 1959 3584 
z
" transform="scale(0.015625)"/>
       <path id="DejaVuSans-62" d="M 3116 1747 
Q 3116 2381 2855 2742 
Q 2594 3103 2138 3103 
Q 1681 3103 1420 2742 
Q 1159 2381 1159 1747 
Q 1159 1113 1420 752 
Q 1681 391 2138 391 
Q 2594 391 2855 752 
Q 3116 1113 3116 1747 
z
M 1159 2969 
Q 1341 3281 1617 3432 
Q 1894 3584 2278 3584 
Q 2916 3584 3314 3078 
Q 3713 2572 3713 1747 
Q 3713 922 3314 415 
Q 2916 -91 2278 -91 
Q 1894 -91 1617 61 
Q 1341 213 1159 525 
L 1159 0 
L 581 0 
L 581 4863 
L 1159 4863 
L 1159 2969 
z
" transform="scale(0.015625)"/>
       <path id="DejaVuSans-61" d="M 2194 1759 
Q 1497 1759 1228 1600 
Q 959 1441 959 1056 
Q 959 750 1161 570 
Q 1363 391 1709 391 
Q 2188 391 2477 730 
Q 2766 1069 2766 1631 
L 2766 1759 
L 2194 1759 
z
M 3341 1997 
L 3341 0 
L 2766 0 
L 2766 531 
Q 2569 213 2275 61 
Q 1981 -91 1556 -91 
Q 1019 -91 701 211 
Q 384 513 384 1019 
Q 384 1609 779 1909 
Q 1175 2209 1959 2209 
L 2766 2209 
L 2766 2266 
Q 2766 2663 2505 2880 
Q 2244 3097 1772 3097 
Q 1472 3097 1187 3025 
Q 903 2953 641 2809 
L 641 3341 
Q 956 3463 1253 3523 
Q 1550 3584 1831 3584 
Q 2591 3584 2966 3190 
Q 3341 2797 3341 1997 
z
" transform="scale(0.015625)"/>
       <path id="DejaVuSans-69" d="M 603 3500 
L 1178 3500 
L 1178 0 
L 603 0 
L 603 3500 
z
M 603 4863 
L 1178 4863 
L 1178 4134 
L 603 4134 
L 603 4863 
z
" transform="scale(0.015625)"/>
       <path id="DejaVuSans-6c" d="M 603 4863 
L 1178 4863 
L 1178 0 
L 603 0 
L 603 4863 
z
" transform="scale(0.015625)"/>
       <path id="DejaVuSans-74" d="M 1172 4494 
L 1172 3500 
L 2356 3500 
L 2356 3053 
L 1172 3053 
L 1172 1153 
Q 1172 725 1289 603 
Q 1406 481 1766 481 
L 2356 481 
L 2356 0 
L 1766 0 
Q 1100 0 847 248 
Q 594 497 594 1153 
L 594 3053 
L 172 3053 
L 172 3500 
L 594 3500 
L 594 4494 
L 1172 4494 
z
" transform="scale(0.015625)"/>
       <path id="DejaVuSans-e9" d="M 3597 1894 
L 3597 1613 
L 953 1613 
Q 991 1019 1311 708 
Q 1631 397 2203 397 
Q 2534 397 2845 478 
Q 3156 559 3463 722 
L 3463 178 
Q 3153 47 2828 -22 
Q 2503 -91 2169 -91 
Q 1331 -91 842 396 
Q 353 884 353 1716 
Q 353 2575 817 3079 
Q 1281 3584 2069 3584 
Q 2775 3584 3186 3129 
Q 3597 2675 3597 1894 
z
M 3022 2063 
Q 3016 2534 2758 2815 
Q 2500 3097 2075 3097 
Q 1594 3097 1305 2825 
Q 1016 2553 972 2059 
L 3022 2063 
z
M 2466 5119 
L 3088 5119 
L 2070 3944 
L 1591 3944 
L 2466 5119 
z
" transform="scale(0.015625)"/>
       <path id="DejaVuSans-73" d="M 2834 3397 
L 2834 2853 
Q 2591 2978 2328 3040 
Q 2066 3103 1784 3103 
Q 1356 3103 1142 2972 
Q 928 2841 928 2578 
Q 928 2378 1081 2264 
Q 1234 2150 1697 2047 
L 1894 2003 
Q 2506 1872 2764 1633 
Q 3022 1394 3022 966 
Q 3022 478 2636 193 
Q 2250 -91 1575 -91 
Q 1294 -91 989 -36 
Q 684 19 347 128 
L 347 722 
Q 666 556 975 473 
Q 1284 391 1588 391 
Q 1994 391 2212 530 
Q 2431 669 2431 922 
Q 2431 1156 2273 1281 
Q 2116 1406 1581 1522 
L 1381 1569 
Q 847 1681 609 1914 
Q 372 2147 372 2553 
Q 372 3047 722 3315 
Q 1072 3584 1716 3584 
Q 2034 3584 2315 3537 
Q 2597 3491 2834 3397 
z
" transform="scale(0.015625)"/>
       <path id="DejaVuSans-20" transform="scale(0.015625)"/>
       <path id="DejaVuSans-5b" d="M 550 4863 
L 1875 4863 
L 1875 4416 
L 1125 4416 
L 1125 -397 
L 1875 -397 
L 1875 -844 
L 550 -844 
L 550 4863 
z
" transform="scale(0.015625)"/>
       <path id="DejaVuSans-2d" d="M 313 2009 
L 1997 2009 
L 1997 1497 
L 313 1497 
L 313 2009 
z
" transform="scale(0.015625)"/>
       <path id="DejaVuSans-5d" d="M 1947 4863 
L 1947 -844 
L 622 -844 
L 622 -397 
L 1369 -397 
L 1369 4416 
L 622 4416 
L 622 4863 
L 1947 4863 
z
" transform="scale(0.015625)"/>
      </defs>
      <use xlink:href="#DejaVuSans-50"/>
      <use xlink:href="#DejaVuSans-72" x="58.552734"/>
      <use xlink:href="#DejaVuSans-6f" x="97.416016"/>
      <use xlink:href="#DejaVuSans-62" x="158.597656"/>
      <use xlink:href="#DejaVuSans-61" x="222.074219"/>
      <use xlink:href="#DejaVuSans-62" x="283.353516"/>
      <use xlink:href="#DejaVuSans-69" x="346.830078"/>
      <use xlink:href="#DejaVuSans-6c" x="374.613281"/>
      <use xlink:href="#DejaVuSans-69" x="402.396484"/>
      <use xlink:href="#DejaVuSans-74" x="430.179688"/>
      <use xlink:href="#DejaVuSans-e9" x="469.388672"/>
      <use xlink:href="#DejaVuSans-73" x="530.912109"/>
      <use xlink:href="#DejaVuSans-20" x="583.011719"/>
      <use xlink:href="#DejaVuSans-5b" x="614.798828"/>
      <use xlink:href="#DejaVuSans-2d" x="653.8125"/>
      <use xlink:href="#DejaVuSans-5d" x="689.896484"/>
     </g>
    </g>
   </g>
   <g id="matplotlib.axis_2">
    <g id="ytick_1">
     <g id="line2d_7">
      <path d="M 53.37 326.74 
L 347.04 326.74 
" clip-path="url(#p53ebaa803c)" style="fill: none; stroke: #ffffff; stroke-linecap: round"/>
     </g>
     <g id="text_8">
      <!-- 0 -->
      <g style="fill: #262626" transform="translate(36.87125 330.919141) scale(0.11 -0.11)">
       <use xlink:href="#DejaVuSans-30"/>
      </g>
     </g>
    </g>
    <g id="ytick_2">
     <g id="line2d_8">
      <path d="M 53.37 288.0822 
L 347.04 288.0822 
" clip-path="url(#p53ebaa803c)" style="fill: none; stroke: #ffffff; stroke-linecap: round"/>
     </g>
     <g id="text_9">
      <!-- 2 -->
      <g style="fill: #262626" transform="translate(36.87125 292.261341) scale(0.11 -0.11)">
       <use xlink:href="#DejaVuSans-32"/>
      </g>
     </g>
    </g>
    <g id="ytick_3">
     <g id="line2d_9">
      <path d="M 53.37 249.4244 
L 347.04 249.4244 
" clip-path="url(#p53ebaa803c)" style="fill: none; stroke: #ffffff; stroke-linecap: round"/>
     </g>
     <g id="text_10">
      <!-- 4 -->
      <g style="fill: #262626" transform="translate(36.87125 253.603541) scale(0.11 -0.11)">
       <use xlink:href="#DejaVuSans-34"/>
      </g>
     </g>
    </g>
    <g id="ytick_4">
     <g id="line2d_10">
      <path d="M 53.37 210.766601 
L 347.04 210.766601 
" clip-path="url(#p53ebaa803c)" style="fill: none; stroke: #ffffff; stroke-linecap: round"/>
     </g>
     <g id="text_11">
      <!-- 6 -->
      <g style="fill: #262626" transform="translate(36.87125 214.945741) scale(0.11 -0.11)">
       <use xlink:href="#DejaVuSans-36"/>
      </g>
     </g>
    </g>
    <g id="ytick_5">
     <g id="line2d_11">
      <path d="M 53.37 172.108801 
L 347.04 172.108801 
" clip-path="url(#p53ebaa803c)" style="fill: none; stroke: #ffffff; stroke-linecap: round"/>
     </g>
     <g id="text_12">
      <!-- 8 -->
      <g style="fill: #262626" transform="translate(36.87125 176.287942) scale(0.11 -0.11)">
       <use xlink:href="#DejaVuSans-38"/>
      </g>
     </g>
    </g>
    <g id="ytick_6">
     <g id="line2d_12">
      <path d="M 53.37 133.451001 
L 347.04 133.451001 
" clip-path="url(#p53ebaa803c)" style="fill: none; stroke: #ffffff; stroke-linecap: round"/>
     </g>
     <g id="text_13">
      <!-- 10 -->
      <g style="fill: #262626" transform="translate(29.8725 137.630142) scale(0.11 -0.11)">
       <use xlink:href="#DejaVuSans-31"/>
       <use xlink:href="#DejaVuSans-30" x="63.623047"/>
      </g>
     </g>
    </g>
    <g id="ytick_7">
     <g id="line2d_13">
      <path d="M 53.37 94.793201 
L 347.04 94.793201 
" clip-path="url(#p53ebaa803c)" style="fill: none; stroke: #ffffff; stroke-linecap: round"/>
     </g>
     <g id="text_14">
      <!-- 12 -->
      <g style="fill: #262626" transform="translate(29.8725 98.972342) scale(0.11 -0.11)">
       <use xlink:href="#DejaVuSans-31"/>
       <use xlink:href="#DejaVuSans-32" x="63.623047"/>
      </g>
     </g>
    </g>
    <g id="ytick_8">
     <g id="line2d_14">
      <path d="M 53.37 56.135402 
L 347.04 56.135402 
" clip-path="url(#p53ebaa803c)" style="fill: none; stroke: #ffffff; stroke-linecap: round"/>
     </g>
     <g id="text_15">
      <!-- 14 -->
      <g style="fill: #262626" transform="translate(29.8725 60.314542) scale(0.11 -0.11)">
       <use xlink:href="#DejaVuSans-31"/>
       <use xlink:href="#DejaVuSans-34" x="63.623047"/>
      </g>
     </g>
    </g>
    <g id="ytick_9">
     <g id="line2d_15">
      <path d="M 53.37 17.477602 
L 347.04 17.477602 
" clip-path="url(#p53ebaa803c)" style="fill: none; stroke: #ffffff; stroke-linecap: round"/>
     </g>
     <g id="text_16">
      <!-- 16 -->
      <g style="fill: #262626" transform="translate(29.8725 21.656743) scale(0.11 -0.11)">
       <use xlink:href="#DejaVuSans-31"/>
       <use xlink:href="#DejaVuSans-36" x="63.623047"/>
      </g>
     </g>
    </g>
    <g id="text_17">
     <!-- Densité [-] -->
     <g style="fill: #262626" transform="translate(23.376875 201.554375) rotate(-90) scale(0.12 -0.12)">
      <defs>
       <path id="DejaVuSans-44" d="M 1259 4147 
L 1259 519 
L 2022 519 
Q 2988 519 3436 956 
Q 3884 1394 3884 2338 
Q 3884 3275 3436 3711 
Q 2988 4147 2022 4147 
L 1259 4147 
z
M 628 4666 
L 1925 4666 
Q 3281 4666 3915 4102 
Q 4550 3538 4550 2338 
Q 4550 1131 3912 565 
Q 3275 0 1925 0 
L 628 0 
L 628 4666 
z
" transform="scale(0.015625)"/>
       <path id="DejaVuSans-65" d="M 3597 1894 
L 3597 1613 
L 953 1613 
Q 991 1019 1311 708 
Q 1631 397 2203 397 
Q 2534 397 2845 478 
Q 3156 559 3463 722 
L 3463 178 
Q 3153 47 2828 -22 
Q 2503 -91 2169 -91 
Q 1331 -91 842 396 
Q 353 884 353 1716 
Q 353 2575 817 3079 
Q 1281 3584 2069 3584 
Q 2775 3584 3186 3129 
Q 3597 2675 3597 1894 
z
M 3022 2063 
Q 3016 2534 2758 2815 
Q 2500 3097 2075 3097 
Q 1594 3097 1305 2825 
Q 1016 2553 972 2059 
L 3022 2063 
z
" transform="scale(0.015625)"/>
       <path id="DejaVuSans-6e" d="M 3513 2113 
L 3513 0 
L 2938 0 
L 2938 2094 
Q 2938 2591 2744 2837 
Q 2550 3084 2163 3084 
Q 1697 3084 1428 2787 
Q 1159 2491 1159 1978 
L 1159 0 
L 581 0 
L 581 3500 
L 1159 3500 
L 1159 2956 
Q 1366 3272 1645 3428 
Q 1925 3584 2291 3584 
Q 2894 3584 3203 3211 
Q 3513 2838 3513 2113 
z
" transform="scale(0.015625)"/>
      </defs>
      <use xlink:href="#DejaVuSans-44"/>
      <use xlink:href="#DejaVuSans-65" x="77.001953"/>
      <use xlink:href="#DejaVuSans-6e" x="138.525391"/>
      <use xlink:href="#DejaVuSans-73" x="201.904297"/>
      <use xlink:href="#DejaVuSans-69" x="254.003906"/>
      <use xlink:href="#DejaVuSans-74" x="281.787109"/>
      <use xlink:href="#DejaVuSans-e9" x="320.996094"/>
      <use xlink:href="#DejaVuSans-20" x="382.519531"/>
      <use xlink:href="#DejaVuSans-5b" x="414.306641"/>
      <use xlink:href="#DejaVuSans-2d" x="453.320312"/>
      <use xlink:href="#DejaVuSans-5d" x="489.404297"/>
     </g>
    </g>
   </g>
   <g id="PolyCollection_1">
    <defs>
     <path id="m64507dceab" d="M 53.37 -328.61318 
L 53.37 -33.26 
L 54.035987 -33.26 
L 54.701973 -33.26 
L 55.36796 -33.26 
L 56.033947 -33.26 
L 56.699934 -33.26 
L 57.36592 -33.26 
L 58.031907 -33.26 
L 58.697894 -33.26 
L 59.363881 -33.26 
L 60.029867 -33.26 
L 60.695854 -33.26 
L 61.361841 -33.26 
L 62.027827 -33.26 
L 62.693814 -33.26 
L 63.359801 -33.26 
L 64.025788 -33.26 
L 64.691774 -33.26 
L 65.357761 -33.26 
L 66.023748 -33.26 
L 66.689734 -33.26 
L 67.355721 -33.26 
L 68.021708 -33.26 
L 68.687695 -33.26 
L 69.353681 -33.26 
L 70.019668 -33.26 
L 70.685655 -33.26 
L 71.351642 -33.26 
L 72.017628 -33.26 
L 72.683615 -33.26 
L 73.349602 -33.26 
L 74.015588 -33.26 
L 74.681575 -33.26 
L 75.347562 -33.26 
L 76.013549 -33.26 
L 76.679535 -33.26 
L 77.345522 -33.26 
L 78.011509 -33.26 
L 78.677495 -33.26 
L 79.343482 -33.26 
L 80.009469 -33.26 
L 80.675456 -33.26 
L 81.341442 -33.26 
L 82.007429 -33.26 
L 82.673416 -33.26 
L 83.339403 -33.26 
L 84.005389 -33.26 
L 84.671376 -33.26 
L 85.337363 -33.26 
L 86.003349 -33.26 
L 86.669336 -33.26 
L 87.335323 -33.26 
L 88.00131 -33.26 
L 88.667296 -33.26 
L 89.333283 -33.26 
L 89.99927 -33.26 
L 90.665256 -33.26 
L 91.331243 -33.26 
L 91.99723 -33.26 
L 92.663217 -33.26 
L 93.329203 -33.26 
L 93.99519 -33.26 
L 94.661177 -33.26 
L 95.327164 -33.26 
L 95.99315 -33.26 
L 96.659137 -33.26 
L 97.325124 -33.26 
L 97.99111 -33.26 
L 98.657097 -33.26 
L 99.323084 -33.26 
L 99.989071 -33.26 
L 100.655057 -33.26 
L 101.321044 -33.26 
L 101.987031 -33.26 
L 102.653017 -33.26 
L 103.319004 -33.26 
L 103.984991 -33.26 
L 104.650978 -33.26 
L 105.316964 -33.26 
L 105.982951 -33.26 
L 106.648938 -33.26 
L 107.314925 -33.26 
L 107.980911 -33.26 
L 108.646898 -33.26 
L 109.312885 -33.26 
L 109.978871 -33.26 
L 110.644858 -33.26 
L 111.310845 -33.26 
L 111.976832 -33.26 
L 112.642818 -33.26 
L 113.308805 -33.26 
L 113.974792 -33.26 
L 114.640779 -33.26 
L 115.306765 -33.26 
L 115.972752 -33.26 
L 116.638739 -33.26 
L 117.304725 -33.26 
L 117.970712 -33.26 
L 118.636699 -33.26 
L 119.302686 -33.26 
L 119.968672 -33.26 
L 120.634659 -33.26 
L 121.300646 -33.26 
L 121.966632 -33.26 
L 122.632619 -33.26 
L 123.298606 -33.26 
L 123.964593 -33.26 
L 124.630579 -33.26 
L 125.296566 -33.26 
L 125.962553 -33.26 
L 126.62854 -33.26 
L 127.294526 -33.26 
L 127.960513 -33.26 
L 128.6265 -33.26 
L 129.292486 -33.26 
L 129.958473 -33.26 
L 130.62446 -33.26 
L 131.290447 -33.26 
L 131.956433 -33.26 
L 132.62242 -33.26 
L 133.288407 -33.26 
L 133.954393 -33.26 
L 134.62038 -33.26 
L 135.286367 -33.26 
L 135.952354 -33.26 
L 136.61834 -33.26 
L 137.284327 -33.26 
L 137.950314 -33.26 
L 138.616301 -33.26 
L 139.282287 -33.26 
L 139.948274 -33.26 
L 140.614261 -33.26 
L 141.280247 -33.26 
L 141.946234 -33.26 
L 142.612221 -33.26 
L 143.278208 -33.26 
L 143.944194 -33.26 
L 144.610181 -33.26 
L 145.276168 -33.26 
L 145.942154 -33.26 
L 146.608141 -33.26 
L 147.274128 -33.26 
L 147.940115 -33.26 
L 148.606101 -33.26 
L 149.272088 -33.26 
L 149.938075 -33.26 
L 150.604062 -33.26 
L 151.270048 -33.26 
L 151.936035 -33.26 
L 152.602022 -33.26 
L 153.268008 -33.26 
L 153.933995 -33.26 
L 154.599982 -33.26 
L 155.265969 -33.26 
L 155.931955 -33.26 
L 156.597942 -33.26 
L 157.263929 -33.26 
L 157.929915 -33.26 
L 158.595902 -33.26 
L 159.261889 -33.26 
L 159.927876 -33.26 
L 160.593862 -33.26 
L 161.259849 -33.26 
L 161.925836 -33.26 
L 162.591823 -33.26 
L 163.257809 -33.26 
L 163.923796 -33.26 
L 164.589783 -33.26 
L 165.255769 -33.26 
L 165.921756 -33.26 
L 166.587743 -33.26 
L 167.25373 -33.26 
L 167.919716 -33.26 
L 168.585703 -33.26 
L 169.25169 -33.26 
L 169.917677 -33.26 
L 170.583663 -33.26 
L 171.24965 -33.26 
L 171.915637 -33.26 
L 172.581623 -33.26 
L 173.24761 -33.26 
L 173.913597 -33.26 
L 174.579584 -33.26 
L 175.24557 -33.26 
L 175.911557 -33.26 
L 176.577544 -33.26 
L 177.24353 -33.26 
L 177.909517 -33.26 
L 178.575504 -33.26 
L 179.241491 -33.26 
L 179.907477 -33.26 
L 180.573464 -33.26 
L 181.239451 -33.26 
L 181.905438 -33.26 
L 182.571424 -33.26 
L 183.237411 -33.26 
L 183.903398 -33.26 
L 184.569384 -33.26 
L 185.235371 -33.26 
L 185.901358 -33.26 
L 185.901358 -33.267961 
L 185.901358 -33.267961 
L 185.235371 -33.271858 
L 184.569384 -33.277368 
L 183.903398 -33.285014 
L 183.237411 -33.29543 
L 182.571424 -33.309354 
L 181.905438 -33.327621 
L 181.239451 -33.351132 
L 180.573464 -33.380819 
L 179.907477 -33.417584 
L 179.241491 -33.462233 
L 178.575504 -33.515393 
L 177.909517 -33.577425 
L 177.24353 -33.648347 
L 176.577544 -33.72777 
L 175.911557 -33.81485 
L 175.24557 -33.908293 
L 174.579584 -34.00639 
L 173.913597 -34.107104 
L 173.24761 -34.208202 
L 172.581623 -34.307426 
L 171.915637 -34.40268 
L 171.24965 -34.492224 
L 170.583663 -34.574845 
L 169.917677 -34.649982 
L 169.25169 -34.717788 
L 168.585703 -34.779105 
L 167.919716 -34.835357 
L 167.25373 -34.888369 
L 166.587743 -34.940108 
L 165.921756 -34.992414 
L 165.255769 -35.046709 
L 164.589783 -35.103771 
L 163.923796 -35.163568 
L 163.257809 -35.225211 
L 162.591823 -35.287017 
L 161.925836 -35.346701 
L 161.259849 -35.40166 
L 160.593862 -35.449324 
L 159.927876 -35.487522 
L 159.261889 -35.514811 
L 158.595902 -35.530725 
L 157.929915 -35.535891 
L 157.263929 -35.532004 
L 156.597942 -35.521645 
L 155.931955 -35.507979 
L 155.265969 -35.49436 
L 154.599982 -35.483897 
L 153.933995 -35.479061 
L 153.268008 -35.481374 
L 152.602022 -35.491228 
L 151.936035 -35.50788 
L 151.270048 -35.52961 
L 150.604062 -35.554032 
L 149.938075 -35.578506 
L 149.272088 -35.600609 
L 148.606101 -35.618572 
L 147.940115 -35.631646 
L 147.274128 -35.640314 
L 146.608141 -35.646342 
L 145.942154 -35.652631 
L 145.276168 -35.662912 
L 144.610181 -35.681301 
L 143.944194 -35.71179 
L 143.278208 -35.757724 
L 142.612221 -35.821352 
L 141.946234 -35.90349 
L 141.280247 -36.003356 
L 140.614261 -36.118585 
L 139.948274 -36.245427 
L 139.282287 -36.379096 
L 138.616301 -36.514232 
L 137.950314 -36.645405 
L 137.284327 -36.767612 
L 136.61834 -36.876702 
L 135.952354 -36.969691 
L 135.286367 -37.044923 
L 134.62038 -37.102094 
L 133.954393 -37.142127 
L 133.288407 -37.166948 
L 132.62242 -37.179201 
L 131.956433 -37.181942 
L 131.290447 -37.178371 
L 130.62446 -37.171629 
L 129.958473 -37.164686 
L 129.292486 -37.160309 
L 128.6265 -37.161109 
L 127.960513 -37.169626 
L 127.294526 -37.18842 
L 126.62854 -37.220121 
L 125.962553 -37.267424 
L 125.296566 -37.333002 
L 124.630579 -37.419356 
L 123.964593 -37.528602 
L 123.298606 -37.662259 
L 122.632619 -37.821056 
L 121.966632 -38.004809 
L 121.300646 -38.212394 
L 120.634659 -38.441829 
L 119.968672 -38.690456 
L 119.302686 -38.955191 
L 118.636699 -39.232816 
L 117.970712 -39.520248 
L 117.304725 -39.814768 
L 116.638739 -40.114151 
L 115.972752 -40.416706 
L 115.306765 -40.721217 
L 114.640779 -41.026804 
L 113.974792 -41.332747 
L 113.308805 -41.638299 
L 112.642818 -41.94251 
L 111.976832 -42.244112 
L 111.310845 -42.541448 
L 110.644858 -42.832451 
L 109.978871 -43.114676 
L 109.312885 -43.385341 
L 108.646898 -43.641402 
L 107.980911 -43.879621 
L 107.314925 -44.096656 
L 106.648938 -44.289182 
L 105.982951 -44.454046 
L 105.316964 -44.588492 
L 104.650978 -44.690434 
L 103.984991 -44.758785 
L 103.319004 -44.793793 
L 102.653017 -44.797333 
L 101.987031 -44.773109 
L 101.321044 -44.726693 
L 100.655057 -44.665363 
L 99.989071 -44.597737 
L 99.323084 -44.533213 
L 98.657097 -44.481285 
L 97.99111 -44.450828 
L 97.325124 -44.449458 
L 96.659137 -44.483083 
L 95.99315 -44.555728 
L 95.327164 -44.669685 
L 94.661177 -44.825981 
L 93.99519 -45.025114 
L 93.329203 -45.267935 
L 92.663217 -45.556555 
L 91.99723 -45.895115 
L 91.331243 -46.290293 
L 90.665256 -46.751444 
L 89.99927 -47.290323 
L 89.333283 -47.920408 
L 88.667296 -48.655892 
L 88.00131 -49.510443 
L 87.335323 -50.495895 
L 86.669336 -51.621003 
L 86.003349 -52.890414 
L 85.337363 -54.303953 
L 84.671376 -55.856307 
L 84.005389 -57.537116 
L 83.339403 -59.331458 
L 82.673416 -61.220666 
L 82.007429 -63.183369 
L 81.341442 -65.196661 
L 80.675456 -67.237269 
L 80.009469 -69.282623 
L 79.343482 -71.311759 
L 78.677495 -73.305999 
L 78.011509 -75.249418 
L 77.345522 -77.129156 
L 76.679535 -78.93563 
L 76.013549 -80.662771 
L 75.347562 -82.308378 
L 74.681575 -83.87468 
L 74.015588 -85.369185 
L 73.349602 -86.805817 
L 72.683615 -88.206328 
L 72.017628 -89.601925 
L 71.351642 -91.03502 
L 70.685655 -92.560979 
L 70.019668 -94.249753 
L 69.353681 -96.187227 
L 68.687695 -98.47614 
L 68.021708 -101.23633 
L 67.355721 -104.604051 
L 66.689734 -108.729981 
L 66.023748 -113.775522 
L 65.357761 -119.906912 
L 64.691774 -127.286727 
L 64.025788 -136.0625 
L 63.359801 -146.35241 
L 62.693814 -158.228467 
L 62.027827 -171.698087 
L 61.361841 -186.685556 
L 60.695854 -203.015449 
L 60.029867 -220.400425 
L 59.363881 -238.435997 
L 58.697894 -256.604618 
L 58.031907 -274.290736 
L 57.36592 -290.807446 
L 56.699934 -305.43393 
L 56.033947 -317.461366 
L 55.36796 -326.243556 
L 54.701973 -331.247435 
L 54.035987 -332.098095 
L 53.37 -328.61318 
z
" style="stroke: #c44e52"/>
    </defs>
    <g clip-path="url(#p53ebaa803c)">
     <use xlink:href="#m64507dceab" x="0" y="360" style="fill: #c44e52; fill-opacity: 0.25; stroke: #c44e52"/>
    </g>
   </g>
   <g id="patch_3">
    <path d="M 53.37 326.74 
L 53.37 12.96 
" style="fill: none; stroke: #ffffff; stroke-width: 1.25; stroke-linejoin: miter; stroke-linecap: square"/>
   </g>
   <g id="patch_4">
    <path d="M 53.37 326.74 
L 347.04 326.74 
" style="fill: none; stroke: #ffffff; stroke-width: 1.25; stroke-linejoin: miter; stroke-linecap: square"/>
   </g>
  </g>
 </g>
 <defs>
  <clipPath id="p53ebaa803c">
   <rect x="53.37" y="12.96" width="293.67" height="313.78"/>
  </clipPath>
 </defs>
</svg>
