<?xml version="1.0" encoding="utf-8" standalone="no"?>
<!DOCTYPE svg PUBLIC "-//W3C//DTD SVG 1.1//EN"
  "http://www.w3.org/Graphics/SVG/1.1/DTD/svg11.dtd">
<svg xmlns:xlink="http://www.w3.org/1999/xlink" width="360pt" height="360pt" viewBox="0 0 360 360" xmlns="http://www.w3.org/2000/svg" version="1.1">
 <metadata>
  <rdf:RDF xmlns:dc="http://purl.org/dc/elements/1.1/" xmlns:cc="http://creativecommons.org/ns#" xmlns:rdf="http://www.w3.org/1999/02/22-rdf-syntax-ns#">
   <cc:Work>
    <dc:type rdf:resource="http://purl.org/dc/dcmitype/StillImage"/>
    <dc:date>2023-03-18T11:43:37.750901</dc:date>
    <dc:format>image/svg+xml</dc:format>
    <dc:creator>
     <cc:Agent>
      <dc:title>Matplotlib v3.6.3, https://matplotlib.org/</dc:title>
     </cc:Agent>
    </dc:creator>
   </cc:Work>
  </rdf:RDF>
 </metadata>
 <defs>
  <style type="text/css">*{stroke-linejoin: round; stroke-linecap: butt}</style>
 </defs>
 <g id="figure_1">
  <g id="patch_1">
   <path d="M 0 360 
L 360 360 
L 360 0 
L 0 0 
z
" style="fill: #ffffff"/>
  </g>
  <g id="axes_1">
   <g id="patch_2">
    <path d="M 56.88 326.74 
L 347.04 326.74 
L 347.04 12.96 
L 56.88 12.96 
z
" style="fill: #eaeaf2"/>
   </g>
   <g id="matplotlib.axis_1">
    <g id="xtick_1">
     <g id="line2d_1">
      <path d="M 56.88 326.74 
L 56.88 12.96 
" clip-path="url(#p4d0dad2424)" style="fill: none; stroke: #ffffff; stroke-linecap: round"/>
     </g>
     <g id="text_1">
      <!-- 0.0 -->
      <g style="fill: #262626" transform="translate(48.133281 344.598281) scale(0.11 -0.11)">
       <defs>
        <path id="DejaVuSans-30" d="M 2034 4250 
Q 1547 4250 1301 3770 
Q 1056 3291 1056 2328 
Q 1056 1369 1301 889 
Q 1547 409 2034 409 
Q 2525 409 2770 889 
Q 3016 1369 3016 2328 
Q 3016 3291 2770 3770 
Q 2525 4250 2034 4250 
z
M 2034 4750 
Q 2819 4750 3233 4129 
Q 3647 3509 3647 2328 
Q 3647 1150 3233 529 
Q 2819 -91 2034 -91 
Q 1250 -91 836 529 
Q 422 1150 422 2328 
Q 422 3509 836 4129 
Q 1250 4750 2034 4750 
z
" transform="scale(0.015625)"/>
        <path id="DejaVuSans-2e" d="M 684 794 
L 1344 794 
L 1344 0 
L 684 0 
L 684 794 
z
" transform="scale(0.015625)"/>
       </defs>
       <use xlink:href="#DejaVuSans-30"/>
       <use xlink:href="#DejaVuSans-2e" x="63.623047"/>
       <use xlink:href="#DejaVuSans-30" x="95.410156"/>
      </g>
     </g>
    </g>
    <g id="xtick_2">
     <g id="line2d_2">
      <path d="M 114.912 326.74 
L 114.912 12.96 
" clip-path="url(#p4d0dad2424)" style="fill: none; stroke: #ffffff; stroke-linecap: round"/>
     </g>
     <g id="text_2">
      <!-- 0.2 -->
      <g style="fill: #262626" transform="translate(106.165281 344.598281) scale(0.11 -0.11)">
       <defs>
        <path id="DejaVuSans-32" d="M 1228 531 
L 3431 531 
L 3431 0 
L 469 0 
L 469 531 
Q 828 903 1448 1529 
Q 2069 2156 2228 2338 
Q 2531 2678 2651 2914 
Q 2772 3150 2772 3378 
Q 2772 3750 2511 3984 
Q 2250 4219 1831 4219 
Q 1534 4219 1204 4116 
Q 875 4013 500 3803 
L 500 4441 
Q 881 4594 1212 4672 
Q 1544 4750 1819 4750 
Q 2544 4750 2975 4387 
Q 3406 4025 3406 3419 
Q 3406 3131 3298 2873 
Q 3191 2616 2906 2266 
Q 2828 2175 2409 1742 
Q 1991 1309 1228 531 
z
" transform="scale(0.015625)"/>
       </defs>
       <use xlink:href="#DejaVuSans-30"/>
       <use xlink:href="#DejaVuSans-2e" x="63.623047"/>
       <use xlink:href="#DejaVuSans-32" x="95.410156"/>
      </g>
     </g>
    </g>
    <g id="xtick_3">
     <g id="line2d_3">
      <path d="M 172.944 326.74 
L 172.944 12.96 
" clip-path="url(#p4d0dad2424)" style="fill: none; stroke: #ffffff; stroke-linecap: round"/>
     </g>
     <g id="text_3">
      <!-- 0.4 -->
      <g style="fill: #262626" transform="translate(164.197281 344.598281) scale(0.11 -0.11)">
       <defs>
        <path id="DejaVuSans-34" d="M 2419 4116 
L 825 1625 
L 2419 1625 
L 2419 4116 
z
M 2253 4666 
L 3047 4666 
L 3047 1625 
L 3713 1625 
L 3713 1100 
L 3047 1100 
L 3047 0 
L 2419 0 
L 2419 1100 
L 313 1100 
L 313 1709 
L 2253 4666 
z
" transform="scale(0.015625)"/>
       </defs>
       <use xlink:href="#DejaVuSans-30"/>
       <use xlink:href="#DejaVuSans-2e" x="63.623047"/>
       <use xlink:href="#DejaVuSans-34" x="95.410156"/>
      </g>
     </g>
    </g>
    <g id="xtick_4">
     <g id="line2d_4">
      <path d="M 230.976 326.74 
L 230.976 12.96 
" clip-path="url(#p4d0dad2424)" style="fill: none; stroke: #ffffff; stroke-linecap: round"/>
     </g>
     <g id="text_4">
      <!-- 0.6 -->
      <g style="fill: #262626" transform="translate(222.229281 344.598281) scale(0.11 -0.11)">
       <defs>
        <path id="DejaVuSans-36" d="M 2113 2584 
Q 1688 2584 1439 2293 
Q 1191 2003 1191 1497 
Q 1191 994 1439 701 
Q 1688 409 2113 409 
Q 2538 409 2786 701 
Q 3034 994 3034 1497 
Q 3034 2003 2786 2293 
Q 2538 2584 2113 2584 
z
M 3366 4563 
L 3366 3988 
Q 3128 4100 2886 4159 
Q 2644 4219 2406 4219 
Q 1781 4219 1451 3797 
Q 1122 3375 1075 2522 
Q 1259 2794 1537 2939 
Q 1816 3084 2150 3084 
Q 2853 3084 3261 2657 
Q 3669 2231 3669 1497 
Q 3669 778 3244 343 
Q 2819 -91 2113 -91 
Q 1303 -91 875 529 
Q 447 1150 447 2328 
Q 447 3434 972 4092 
Q 1497 4750 2381 4750 
Q 2619 4750 2861 4703 
Q 3103 4656 3366 4563 
z
" transform="scale(0.015625)"/>
       </defs>
       <use xlink:href="#DejaVuSans-30"/>
       <use xlink:href="#DejaVuSans-2e" x="63.623047"/>
       <use xlink:href="#DejaVuSans-36" x="95.410156"/>
      </g>
     </g>
    </g>
    <g id="xtick_5">
     <g id="line2d_5">
      <path d="M 289.008 326.74 
L 289.008 12.96 
" clip-path="url(#p4d0dad2424)" style="fill: none; stroke: #ffffff; stroke-linecap: round"/>
     </g>
     <g id="text_5">
      <!-- 0.8 -->
      <g style="fill: #262626" transform="translate(280.261281 344.598281) scale(0.11 -0.11)">
       <defs>
        <path id="DejaVuSans-38" d="M 2034 2216 
Q 1584 2216 1326 1975 
Q 1069 1734 1069 1313 
Q 1069 891 1326 650 
Q 1584 409 2034 409 
Q 2484 409 2743 651 
Q 3003 894 3003 1313 
Q 3003 1734 2745 1975 
Q 2488 2216 2034 2216 
z
M 1403 2484 
Q 997 2584 770 2862 
Q 544 3141 544 3541 
Q 544 4100 942 4425 
Q 1341 4750 2034 4750 
Q 2731 4750 3128 4425 
Q 3525 4100 3525 3541 
Q 3525 3141 3298 2862 
Q 3072 2584 2669 2484 
Q 3125 2378 3379 2068 
Q 3634 1759 3634 1313 
Q 3634 634 3220 271 
Q 2806 -91 2034 -91 
Q 1263 -91 848 271 
Q 434 634 434 1313 
Q 434 1759 690 2068 
Q 947 2378 1403 2484 
z
M 1172 3481 
Q 1172 3119 1398 2916 
Q 1625 2713 2034 2713 
Q 2441 2713 2670 2916 
Q 2900 3119 2900 3481 
Q 2900 3844 2670 4047 
Q 2441 4250 2034 4250 
Q 1625 4250 1398 4047 
Q 1172 3844 1172 3481 
z
" transform="scale(0.015625)"/>
       </defs>
       <use xlink:href="#DejaVuSans-30"/>
       <use xlink:href="#DejaVuSans-2e" x="63.623047"/>
       <use xlink:href="#DejaVuSans-38" x="95.410156"/>
      </g>
     </g>
    </g>
    <g id="xtick_6">
     <g id="line2d_6">
      <path d="M 347.04 326.74 
L 347.04 12.96 
" clip-path="url(#p4d0dad2424)" style="fill: none; stroke: #ffffff; stroke-linecap: round"/>
     </g>
     <g id="text_6">
      <!-- 1.0 -->
      <g style="fill: #262626" transform="translate(338.293281 344.598281) scale(0.11 -0.11)">
       <defs>
        <path id="DejaVuSans-31" d="M 794 531 
L 1825 531 
L 1825 4091 
L 703 3866 
L 703 4441 
L 1819 4666 
L 2450 4666 
L 2450 531 
L 3481 531 
L 3481 0 
L 794 0 
L 794 531 
z
" transform="scale(0.015625)"/>
       </defs>
       <use xlink:href="#DejaVuSans-31"/>
       <use xlink:href="#DejaVuSans-2e" x="63.623047"/>
       <use xlink:href="#DejaVuSans-30" x="95.410156"/>
      </g>
     </g>
    </g>
    <g id="text_7">
     <!-- Probabilités [-] -->
     <g style="fill: #262626" transform="translate(158.225625 360.004063) scale(0.12 -0.12)">
      <defs>
       <path id="DejaVuSans-50" d="M 1259 4147 
L 1259 2394 
L 2053 2394 
Q 2494 2394 2734 2622 
Q 2975 2850 2975 3272 
Q 2975 3691 2734 3919 
Q 2494 4147 2053 4147 
L 1259 4147 
z
M 628 4666 
L 2053 4666 
Q 2838 4666 3239 4311 
Q 3641 3956 3641 3272 
Q 3641 2581 3239 2228 
Q 2838 1875 2053 1875 
L 1259 1875 
L 1259 0 
L 628 0 
L 628 4666 
z
" transform="scale(0.015625)"/>
       <path id="DejaVuSans-72" d="M 2631 2963 
Q 2534 3019 2420 3045 
Q 2306 3072 2169 3072 
Q 1681 3072 1420 2755 
Q 1159 2438 1159 1844 
L 1159 0 
L 581 0 
L 581 3500 
L 1159 3500 
L 1159 2956 
Q 1341 3275 1631 3429 
Q 1922 3584 2338 3584 
Q 2397 3584 2469 3576 
Q 2541 3569 2628 3553 
L 2631 2963 
z
" transform="scale(0.015625)"/>
       <path id="DejaVuSans-6f" d="M 1959 3097 
Q 1497 3097 1228 2736 
Q 959 2375 959 1747 
Q 959 1119 1226 758 
Q 1494 397 1959 397 
Q 2419 397 2687 759 
Q 2956 1122 2956 1747 
Q 2956 2369 2687 2733 
Q 2419 3097 1959 3097 
z
M 1959 3584 
Q 2709 3584 3137 3096 
Q 3566 2609 3566 1747 
Q 3566 888 3137 398 
Q 2709 -91 1959 -91 
Q 1206 -91 779 398 
Q 353 888 353 1747 
Q 353 2609 779 3096 
Q 1206 3584 1959 3584 
z
" transform="scale(0.015625)"/>
       <path id="DejaVuSans-62" d="M 3116 1747 
Q 3116 2381 2855 2742 
Q 2594 3103 2138 3103 
Q 1681 3103 1420 2742 
Q 1159 2381 1159 1747 
Q 1159 1113 1420 752 
Q 1681 391 2138 391 
Q 2594 391 2855 752 
Q 3116 1113 3116 1747 
z
M 1159 2969 
Q 1341 3281 1617 3432 
Q 1894 3584 2278 3584 
Q 2916 3584 3314 3078 
Q 3713 2572 3713 1747 
Q 3713 922 3314 415 
Q 2916 -91 2278 -91 
Q 1894 -91 1617 61 
Q 1341 213 1159 525 
L 1159 0 
L 581 0 
L 581 4863 
L 1159 4863 
L 1159 2969 
z
" transform="scale(0.015625)"/>
       <path id="DejaVuSans-61" d="M 2194 1759 
Q 1497 1759 1228 1600 
Q 959 1441 959 1056 
Q 959 750 1161 570 
Q 1363 391 1709 391 
Q 2188 391 2477 730 
Q 2766 1069 2766 1631 
L 2766 1759 
L 2194 1759 
z
M 3341 1997 
L 3341 0 
L 2766 0 
L 2766 531 
Q 2569 213 2275 61 
Q 1981 -91 1556 -91 
Q 1019 -91 701 211 
Q 384 513 384 1019 
Q 384 1609 779 1909 
Q 1175 2209 1959 2209 
L 2766 2209 
L 2766 2266 
Q 2766 2663 2505 2880 
Q 2244 3097 1772 3097 
Q 1472 3097 1187 3025 
Q 903 2953 641 2809 
L 641 3341 
Q 956 3463 1253 3523 
Q 1550 3584 1831 3584 
Q 2591 3584 2966 3190 
Q 3341 2797 3341 1997 
z
" transform="scale(0.015625)"/>
       <path id="DejaVuSans-69" d="M 603 3500 
L 1178 3500 
L 1178 0 
L 603 0 
L 603 3500 
z
M 603 4863 
L 1178 4863 
L 1178 4134 
L 603 4134 
L 603 4863 
z
" transform="scale(0.015625)"/>
       <path id="DejaVuSans-6c" d="M 603 4863 
L 1178 4863 
L 1178 0 
L 603 0 
L 603 4863 
z
" transform="scale(0.015625)"/>
       <path id="DejaVuSans-74" d="M 1172 4494 
L 1172 3500 
L 2356 3500 
L 2356 3053 
L 1172 3053 
L 1172 1153 
Q 1172 725 1289 603 
Q 1406 481 1766 481 
L 2356 481 
L 2356 0 
L 1766 0 
Q 1100 0 847 248 
Q 594 497 594 1153 
L 594 3053 
L 172 3053 
L 172 3500 
L 594 3500 
L 594 4494 
L 1172 4494 
z
" transform="scale(0.015625)"/>
       <path id="DejaVuSans-e9" d="M 3597 1894 
L 3597 1613 
L 953 1613 
Q 991 1019 1311 708 
Q 1631 397 2203 397 
Q 2534 397 2845 478 
Q 3156 559 3463 722 
L 3463 178 
Q 3153 47 2828 -22 
Q 2503 -91 2169 -91 
Q 1331 -91 842 396 
Q 353 884 353 1716 
Q 353 2575 817 3079 
Q 1281 3584 2069 3584 
Q 2775 3584 3186 3129 
Q 3597 2675 3597 1894 
z
M 3022 2063 
Q 3016 2534 2758 2815 
Q 2500 3097 2075 3097 
Q 1594 3097 1305 2825 
Q 1016 2553 972 2059 
L 3022 2063 
z
M 2466 5119 
L 3088 5119 
L 2070 3944 
L 1591 3944 
L 2466 5119 
z
" transform="scale(0.015625)"/>
       <path id="DejaVuSans-73" d="M 2834 3397 
L 2834 2853 
Q 2591 2978 2328 3040 
Q 2066 3103 1784 3103 
Q 1356 3103 1142 2972 
Q 928 2841 928 2578 
Q 928 2378 1081 2264 
Q 1234 2150 1697 2047 
L 1894 2003 
Q 2506 1872 2764 1633 
Q 3022 1394 3022 966 
Q 3022 478 2636 193 
Q 2250 -91 1575 -91 
Q 1294 -91 989 -36 
Q 684 19 347 128 
L 347 722 
Q 666 556 975 473 
Q 1284 391 1588 391 
Q 1994 391 2212 530 
Q 2431 669 2431 922 
Q 2431 1156 2273 1281 
Q 2116 1406 1581 1522 
L 1381 1569 
Q 847 1681 609 1914 
Q 372 2147 372 2553 
Q 372 3047 722 3315 
Q 1072 3584 1716 3584 
Q 2034 3584 2315 3537 
Q 2597 3491 2834 3397 
z
" transform="scale(0.015625)"/>
       <path id="DejaVuSans-20" transform="scale(0.015625)"/>
       <path id="DejaVuSans-5b" d="M 550 4863 
L 1875 4863 
L 1875 4416 
L 1125 4416 
L 1125 -397 
L 1875 -397 
L 1875 -844 
L 550 -844 
L 550 4863 
z
" transform="scale(0.015625)"/>
       <path id="DejaVuSans-2d" d="M 313 2009 
L 1997 2009 
L 1997 1497 
L 313 1497 
L 313 2009 
z
" transform="scale(0.015625)"/>
       <path id="DejaVuSans-5d" d="M 1947 4863 
L 1947 -844 
L 622 -844 
L 622 -397 
L 1369 -397 
L 1369 4416 
L 622 4416 
L 622 4863 
L 1947 4863 
z
" transform="scale(0.015625)"/>
      </defs>
      <use xlink:href="#DejaVuSans-50"/>
      <use xlink:href="#DejaVuSans-72" x="58.552734"/>
      <use xlink:href="#DejaVuSans-6f" x="97.416016"/>
      <use xlink:href="#DejaVuSans-62" x="158.597656"/>
      <use xlink:href="#DejaVuSans-61" x="222.074219"/>
      <use xlink:href="#DejaVuSans-62" x="283.353516"/>
      <use xlink:href="#DejaVuSans-69" x="346.830078"/>
      <use xlink:href="#DejaVuSans-6c" x="374.613281"/>
      <use xlink:href="#DejaVuSans-69" x="402.396484"/>
      <use xlink:href="#DejaVuSans-74" x="430.179688"/>
      <use xlink:href="#DejaVuSans-e9" x="469.388672"/>
      <use xlink:href="#DejaVuSans-73" x="530.912109"/>
      <use xlink:href="#DejaVuSans-20" x="583.011719"/>
      <use xlink:href="#DejaVuSans-5b" x="614.798828"/>
      <use xlink:href="#DejaVuSans-2d" x="653.8125"/>
      <use xlink:href="#DejaVuSans-5d" x="689.896484"/>
     </g>
    </g>
   </g>
   <g id="matplotlib.axis_2">
    <g id="ytick_1">
     <g id="line2d_7">
      <path d="M 56.88 326.74 
L 347.04 326.74 
" clip-path="url(#p4d0dad2424)" style="fill: none; stroke: #ffffff; stroke-linecap: round"/>
     </g>
     <g id="text_8">
      <!-- 0.0 -->
      <g style="fill: #262626" transform="translate(29.886563 330.919141) scale(0.11 -0.11)">
       <use xlink:href="#DejaVuSans-30"/>
       <use xlink:href="#DejaVuSans-2e" x="63.623047"/>
       <use xlink:href="#DejaVuSans-30" x="95.410156"/>
      </g>
     </g>
    </g>
    <g id="ytick_2">
     <g id="line2d_8">
      <path d="M 56.88 286.791359 
L 347.04 286.791359 
" clip-path="url(#p4d0dad2424)" style="fill: none; stroke: #ffffff; stroke-linecap: round"/>
     </g>
     <g id="text_9">
      <!-- 0.5 -->
      <g style="fill: #262626" transform="translate(29.886563 290.9705) scale(0.11 -0.11)">
       <defs>
        <path id="DejaVuSans-35" d="M 691 4666 
L 3169 4666 
L 3169 4134 
L 1269 4134 
L 1269 2991 
Q 1406 3038 1543 3061 
Q 1681 3084 1819 3084 
Q 2600 3084 3056 2656 
Q 3513 2228 3513 1497 
Q 3513 744 3044 326 
Q 2575 -91 1722 -91 
Q 1428 -91 1123 -41 
Q 819 9 494 109 
L 494 744 
Q 775 591 1075 516 
Q 1375 441 1709 441 
Q 2250 441 2565 725 
Q 2881 1009 2881 1497 
Q 2881 1984 2565 2268 
Q 2250 2553 1709 2553 
Q 1456 2553 1204 2497 
Q 953 2441 691 2322 
L 691 4666 
z
" transform="scale(0.015625)"/>
       </defs>
       <use xlink:href="#DejaVuSans-30"/>
       <use xlink:href="#DejaVuSans-2e" x="63.623047"/>
       <use xlink:href="#DejaVuSans-35" x="95.410156"/>
      </g>
     </g>
    </g>
    <g id="ytick_3">
     <g id="line2d_9">
      <path d="M 56.88 246.842718 
L 347.04 246.842718 
" clip-path="url(#p4d0dad2424)" style="fill: none; stroke: #ffffff; stroke-linecap: round"/>
     </g>
     <g id="text_10">
      <!-- 1.0 -->
      <g style="fill: #262626" transform="translate(29.886563 251.021859) scale(0.11 -0.11)">
       <use xlink:href="#DejaVuSans-31"/>
       <use xlink:href="#DejaVuSans-2e" x="63.623047"/>
       <use xlink:href="#DejaVuSans-30" x="95.410156"/>
      </g>
     </g>
    </g>
    <g id="ytick_4">
     <g id="line2d_10">
      <path d="M 56.88 206.894077 
L 347.04 206.894077 
" clip-path="url(#p4d0dad2424)" style="fill: none; stroke: #ffffff; stroke-linecap: round"/>
     </g>
     <g id="text_11">
      <!-- 1.5 -->
      <g style="fill: #262626" transform="translate(29.886563 211.073218) scale(0.11 -0.11)">
       <use xlink:href="#DejaVuSans-31"/>
       <use xlink:href="#DejaVuSans-2e" x="63.623047"/>
       <use xlink:href="#DejaVuSans-35" x="95.410156"/>
      </g>
     </g>
    </g>
    <g id="ytick_5">
     <g id="line2d_11">
      <path d="M 56.88 166.945436 
L 347.04 166.945436 
" clip-path="url(#p4d0dad2424)" style="fill: none; stroke: #ffffff; stroke-linecap: round"/>
     </g>
     <g id="text_12">
      <!-- 2.0 -->
      <g style="fill: #262626" transform="translate(29.886563 171.124577) scale(0.11 -0.11)">
       <use xlink:href="#DejaVuSans-32"/>
       <use xlink:href="#DejaVuSans-2e" x="63.623047"/>
       <use xlink:href="#DejaVuSans-30" x="95.410156"/>
      </g>
     </g>
    </g>
    <g id="ytick_6">
     <g id="line2d_12">
      <path d="M 56.88 126.996795 
L 347.04 126.996795 
" clip-path="url(#p4d0dad2424)" style="fill: none; stroke: #ffffff; stroke-linecap: round"/>
     </g>
     <g id="text_13">
      <!-- 2.5 -->
      <g style="fill: #262626" transform="translate(29.886563 131.175936) scale(0.11 -0.11)">
       <use xlink:href="#DejaVuSans-32"/>
       <use xlink:href="#DejaVuSans-2e" x="63.623047"/>
       <use xlink:href="#DejaVuSans-35" x="95.410156"/>
      </g>
     </g>
    </g>
    <g id="ytick_7">
     <g id="line2d_13">
      <path d="M 56.88 87.048154 
L 347.04 87.048154 
" clip-path="url(#p4d0dad2424)" style="fill: none; stroke: #ffffff; stroke-linecap: round"/>
     </g>
     <g id="text_14">
      <!-- 3.0 -->
      <g style="fill: #262626" transform="translate(29.886563 91.227295) scale(0.11 -0.11)">
       <defs>
        <path id="DejaVuSans-33" d="M 2597 2516 
Q 3050 2419 3304 2112 
Q 3559 1806 3559 1356 
Q 3559 666 3084 287 
Q 2609 -91 1734 -91 
Q 1441 -91 1130 -33 
Q 819 25 488 141 
L 488 750 
Q 750 597 1062 519 
Q 1375 441 1716 441 
Q 2309 441 2620 675 
Q 2931 909 2931 1356 
Q 2931 1769 2642 2001 
Q 2353 2234 1838 2234 
L 1294 2234 
L 1294 2753 
L 1863 2753 
Q 2328 2753 2575 2939 
Q 2822 3125 2822 3475 
Q 2822 3834 2567 4026 
Q 2313 4219 1838 4219 
Q 1578 4219 1281 4162 
Q 984 4106 628 3988 
L 628 4550 
Q 988 4650 1302 4700 
Q 1616 4750 1894 4750 
Q 2613 4750 3031 4423 
Q 3450 4097 3450 3541 
Q 3450 3153 3228 2886 
Q 3006 2619 2597 2516 
z
" transform="scale(0.015625)"/>
       </defs>
       <use xlink:href="#DejaVuSans-33"/>
       <use xlink:href="#DejaVuSans-2e" x="63.623047"/>
       <use xlink:href="#DejaVuSans-30" x="95.410156"/>
      </g>
     </g>
    </g>
    <g id="ytick_8">
     <g id="line2d_14">
      <path d="M 56.88 47.099513 
L 347.04 47.099513 
" clip-path="url(#p4d0dad2424)" style="fill: none; stroke: #ffffff; stroke-linecap: round"/>
     </g>
     <g id="text_15">
      <!-- 3.5 -->
      <g style="fill: #262626" transform="translate(29.886563 51.278654) scale(0.11 -0.11)">
       <use xlink:href="#DejaVuSans-33"/>
       <use xlink:href="#DejaVuSans-2e" x="63.623047"/>
       <use xlink:href="#DejaVuSans-35" x="95.410156"/>
      </g>
     </g>
    </g>
    <g id="text_16">
     <!-- Densité [-] -->
     <g style="fill: #262626" transform="translate(23.390937 201.554375) rotate(-90) scale(0.12 -0.12)">
      <defs>
       <path id="DejaVuSans-44" d="M 1259 4147 
L 1259 519 
L 2022 519 
Q 2988 519 3436 956 
Q 3884 1394 3884 2338 
Q 3884 3275 3436 3711 
Q 2988 4147 2022 4147 
L 1259 4147 
z
M 628 4666 
L 1925 4666 
Q 3281 4666 3915 4102 
Q 4550 3538 4550 2338 
Q 4550 1131 3912 565 
Q 3275 0 1925 0 
L 628 0 
L 628 4666 
z
" transform="scale(0.015625)"/>
       <path id="DejaVuSans-65" d="M 3597 1894 
L 3597 1613 
L 953 1613 
Q 991 1019 1311 708 
Q 1631 397 2203 397 
Q 2534 397 2845 478 
Q 3156 559 3463 722 
L 3463 178 
Q 3153 47 2828 -22 
Q 2503 -91 2169 -91 
Q 1331 -91 842 396 
Q 353 884 353 1716 
Q 353 2575 817 3079 
Q 1281 3584 2069 3584 
Q 2775 3584 3186 3129 
Q 3597 2675 3597 1894 
z
M 3022 2063 
Q 3016 2534 2758 2815 
Q 2500 3097 2075 3097 
Q 1594 3097 1305 2825 
Q 1016 2553 972 2059 
L 3022 2063 
z
" transform="scale(0.015625)"/>
       <path id="DejaVuSans-6e" d="M 3513 2113 
L 3513 0 
L 2938 0 
L 2938 2094 
Q 2938 2591 2744 2837 
Q 2550 3084 2163 3084 
Q 1697 3084 1428 2787 
Q 1159 2491 1159 1978 
L 1159 0 
L 581 0 
L 581 3500 
L 1159 3500 
L 1159 2956 
Q 1366 3272 1645 3428 
Q 1925 3584 2291 3584 
Q 2894 3584 3203 3211 
Q 3513 2838 3513 2113 
z
" transform="scale(0.015625)"/>
      </defs>
      <use xlink:href="#DejaVuSans-44"/>
      <use xlink:href="#DejaVuSans-65" x="77.001953"/>
      <use xlink:href="#DejaVuSans-6e" x="138.525391"/>
      <use xlink:href="#DejaVuSans-73" x="201.904297"/>
      <use xlink:href="#DejaVuSans-69" x="254.003906"/>
      <use xlink:href="#DejaVuSans-74" x="281.787109"/>
      <use xlink:href="#DejaVuSans-e9" x="320.996094"/>
      <use xlink:href="#DejaVuSans-20" x="382.519531"/>
      <use xlink:href="#DejaVuSans-5b" x="414.306641"/>
      <use xlink:href="#DejaVuSans-2d" x="453.320312"/>
      <use xlink:href="#DejaVuSans-5d" x="489.404297"/>
     </g>
    </g>
   </g>
   <g id="PolyCollection_1">
    <defs>
     <path id="mb0bc76899c" d="M 56.88 -244.670065 
L 56.88 -33.26 
L 57.950112 -33.26 
L 59.020224 -33.26 
L 60.090337 -33.26 
L 61.160449 -33.26 
L 62.230561 -33.26 
L 63.300673 -33.26 
L 64.370785 -33.26 
L 65.440898 -33.26 
L 66.51101 -33.26 
L 67.581122 -33.26 
L 68.651234 -33.26 
L 69.721346 -33.26 
L 70.791459 -33.26 
L 71.861571 -33.26 
L 72.931683 -33.26 
L 74.001795 -33.26 
L 75.071907 -33.26 
L 76.14202 -33.26 
L 77.212132 -33.26 
L 78.282244 -33.26 
L 79.352356 -33.26 
L 80.422468 -33.26 
L 81.492581 -33.26 
L 82.562693 -33.26 
L 83.632805 -33.26 
L 84.702917 -33.26 
L 85.773029 -33.26 
L 86.843142 -33.26 
L 87.913254 -33.26 
L 88.983366 -33.26 
L 90.053478 -33.26 
L 91.12359 -33.26 
L 92.193703 -33.26 
L 93.263815 -33.26 
L 94.333927 -33.26 
L 95.404039 -33.26 
L 96.474151 -33.26 
L 97.544264 -33.26 
L 98.614376 -33.26 
L 99.684488 -33.26 
L 100.7546 -33.26 
L 101.824712 -33.26 
L 102.894825 -33.26 
L 103.964937 -33.26 
L 105.035049 -33.26 
L 106.105161 -33.26 
L 107.175273 -33.26 
L 108.245386 -33.26 
L 109.315498 -33.26 
L 110.38561 -33.26 
L 111.455722 -33.26 
L 112.525834 -33.26 
L 113.595947 -33.26 
L 114.666059 -33.26 
L 115.736171 -33.26 
L 116.806283 -33.26 
L 117.876395 -33.26 
L 118.946508 -33.26 
L 120.01662 -33.26 
L 121.086732 -33.26 
L 122.156844 -33.26 
L 123.226956 -33.26 
L 124.297069 -33.26 
L 125.367181 -33.26 
L 126.437293 -33.26 
L 127.507405 -33.26 
L 128.577517 -33.26 
L 129.64763 -33.26 
L 130.717742 -33.26 
L 131.787854 -33.26 
L 132.857966 -33.26 
L 133.928078 -33.26 
L 134.998191 -33.26 
L 136.068303 -33.26 
L 137.138415 -33.26 
L 138.208527 -33.26 
L 139.278639 -33.26 
L 140.348752 -33.26 
L 141.418864 -33.26 
L 142.488976 -33.26 
L 143.559088 -33.26 
L 144.6292 -33.26 
L 145.699313 -33.26 
L 146.769425 -33.26 
L 147.839537 -33.26 
L 148.909649 -33.26 
L 149.979761 -33.26 
L 151.049874 -33.26 
L 152.119986 -33.26 
L 153.190098 -33.26 
L 154.26021 -33.26 
L 155.330322 -33.26 
L 156.400435 -33.26 
L 157.470547 -33.26 
L 158.540659 -33.26 
L 159.610771 -33.26 
L 160.680883 -33.26 
L 161.750996 -33.26 
L 162.821108 -33.26 
L 163.89122 -33.26 
L 164.961332 -33.26 
L 166.031444 -33.26 
L 167.101557 -33.26 
L 168.171669 -33.26 
L 169.241781 -33.26 
L 170.311893 -33.26 
L 171.382005 -33.26 
L 172.452118 -33.26 
L 173.52223 -33.26 
L 174.592342 -33.26 
L 175.662454 -33.26 
L 176.732566 -33.26 
L 177.802678 -33.26 
L 178.872791 -33.26 
L 179.942903 -33.26 
L 181.013015 -33.26 
L 182.083127 -33.26 
L 183.153239 -33.26 
L 184.223352 -33.26 
L 185.293464 -33.26 
L 186.363576 -33.26 
L 187.433688 -33.26 
L 188.5038 -33.26 
L 189.573913 -33.26 
L 190.644025 -33.26 
L 191.714137 -33.26 
L 192.784249 -33.26 
L 193.854361 -33.26 
L 194.924474 -33.26 
L 195.994586 -33.26 
L 197.064698 -33.26 
L 198.13481 -33.26 
L 199.204922 -33.26 
L 200.275035 -33.26 
L 201.345147 -33.26 
L 202.415259 -33.26 
L 203.485371 -33.26 
L 204.555483 -33.26 
L 205.625596 -33.26 
L 206.695708 -33.26 
L 207.76582 -33.26 
L 208.835932 -33.26 
L 209.906044 -33.26 
L 210.976157 -33.26 
L 212.046269 -33.26 
L 213.116381 -33.26 
L 214.186493 -33.26 
L 215.256605 -33.26 
L 216.326718 -33.26 
L 217.39683 -33.26 
L 218.466942 -33.26 
L 219.537054 -33.26 
L 220.607166 -33.26 
L 221.677279 -33.26 
L 222.747391 -33.26 
L 223.817503 -33.26 
L 224.887615 -33.26 
L 225.957727 -33.26 
L 227.02784 -33.26 
L 228.097952 -33.26 
L 229.168064 -33.26 
L 230.238176 -33.26 
L 231.308288 -33.26 
L 232.378401 -33.26 
L 233.448513 -33.26 
L 234.518625 -33.26 
L 235.588737 -33.26 
L 236.658849 -33.26 
L 237.728962 -33.26 
L 238.799074 -33.26 
L 239.869186 -33.26 
L 240.939298 -33.26 
L 242.00941 -33.26 
L 243.079523 -33.26 
L 244.149635 -33.26 
L 245.219747 -33.26 
L 246.289859 -33.26 
L 247.359971 -33.26 
L 248.430084 -33.26 
L 249.500196 -33.26 
L 250.570308 -33.26 
L 251.64042 -33.26 
L 252.710532 -33.26 
L 253.780645 -33.26 
L 254.850757 -33.26 
L 255.920869 -33.26 
L 256.990981 -33.26 
L 258.061093 -33.26 
L 259.131206 -33.26 
L 260.201318 -33.26 
L 261.27143 -33.26 
L 262.341542 -33.26 
L 263.411654 -33.26 
L 264.481767 -33.26 
L 265.551879 -33.26 
L 266.621991 -33.26 
L 267.692103 -33.26 
L 268.762215 -33.26 
L 269.832328 -33.26 
L 269.832328 -33.45027 
L 269.832328 -33.45027 
L 268.762215 -33.483075 
L 267.692103 -33.520791 
L 266.621991 -33.564014 
L 265.551879 -33.613393 
L 264.481767 -33.669622 
L 263.411654 -33.733446 
L 262.341542 -33.805657 
L 261.27143 -33.887094 
L 260.201318 -33.978637 
L 259.131206 -34.081203 
L 258.061093 -34.195743 
L 256.990981 -34.323232 
L 255.920869 -34.464666 
L 254.850757 -34.621046 
L 253.780645 -34.793373 
L 252.710532 -34.982632 
L 251.64042 -35.189785 
L 250.570308 -35.415747 
L 249.500196 -35.661383 
L 248.430084 -35.927481 
L 247.359971 -36.214742 
L 246.289859 -36.523763 
L 245.219747 -36.855017 
L 244.149635 -37.208839 
L 243.079523 -37.585409 
L 242.00941 -37.984739 
L 240.939298 -38.406657 
L 239.869186 -38.850798 
L 238.799074 -39.316594 
L 237.728962 -39.803265 
L 236.658849 -40.309821 
L 235.588737 -40.835056 
L 234.518625 -41.377555 
L 233.448513 -41.935702 
L 232.378401 -42.507687 
L 231.308288 -43.091528 
L 230.238176 -43.685086 
L 229.168064 -44.286091 
L 228.097952 -44.892173 
L 227.02784 -45.500886 
L 225.957727 -46.109753 
L 224.887615 -46.716295 
L 223.817503 -47.318078 
L 222.747391 -47.912749 
L 221.677279 -48.498086 
L 220.607166 -49.072032 
L 219.537054 -49.632744 
L 218.466942 -50.178633 
L 217.39683 -50.708396 
L 216.326718 -51.221058 
L 215.256605 -51.715997 
L 214.186493 -52.192974 
L 213.116381 -52.652148 
L 212.046269 -53.094093 
L 210.976157 -53.519803 
L 209.906044 -53.93069 
L 208.835932 -54.328578 
L 207.76582 -54.715689 
L 206.695708 -55.094612 
L 205.625596 -55.468281 
L 204.555483 -55.839931 
L 203.485371 -56.213059 
L 202.415259 -56.591369 
L 201.345147 -56.97872 
L 200.275035 -57.379066 
L 199.204922 -57.796395 
L 198.13481 -58.234662 
L 197.064698 -58.697726 
L 195.994586 -59.189283 
L 194.924474 -59.712803 
L 193.854361 -60.271471 
L 192.784249 -60.868121 
L 191.714137 -61.505192 
L 190.644025 -62.184673 
L 189.573913 -62.908065 
L 188.5038 -63.676342 
L 187.433688 -64.489925 
L 186.363576 -65.348664 
L 185.293464 -66.25182 
L 184.223352 -67.198069 
L 183.153239 -68.1855 
L 182.083127 -69.211632 
L 181.013015 -70.273431 
L 179.942903 -71.367342 
L 178.872791 -72.489318 
L 177.802678 -73.63487 
L 176.732566 -74.799109 
L 175.662454 -75.976798 
L 174.592342 -77.162416 
L 173.52223 -78.350214 
L 172.452118 -79.534283 
L 171.382005 -80.708622 
L 170.311893 -81.867206 
L 169.241781 -83.004062 
L 168.171669 -84.113335 
L 167.101557 -85.189365 
L 166.031444 -86.226759 
L 164.961332 -87.220461 
L 163.89122 -88.165823 
L 162.821108 -89.058674 
L 161.750996 -89.895385 
L 160.680883 -90.672933 
L 159.610771 -91.388965 
L 158.540659 -92.041848 
L 157.470547 -92.630731 
L 156.400435 -93.155587 
L 155.330322 -93.617258 
L 154.26021 -94.017496 
L 153.190098 -94.358994 
L 152.119986 -94.645412 
L 151.049874 -94.881396 
L 149.979761 -95.072588 
L 148.909649 -95.225634 
L 147.839537 -95.348176 
L 146.769425 -95.448835 
L 145.699313 -95.537198 
L 144.6292 -95.623773 
L 143.559088 -95.719956 
L 142.488976 -95.837976 
L 141.418864 -95.990827 
L 140.348752 -96.192205 
L 139.278639 -96.456417 
L 138.208527 -96.798291 
L 137.138415 -97.233079 
L 136.068303 -97.776337 
L 134.998191 -98.443815 
L 133.928078 -99.251327 
L 132.857966 -100.214617 
L 131.787854 -101.34922 
L 130.717742 -102.67032 
L 129.64763 -104.1926 
L 128.577517 -105.930095 
L 127.507405 -107.896035 
L 126.437293 -110.102698 
L 125.367181 -112.561258 
L 124.297069 -115.281637 
L 123.226956 -118.27236 
L 122.156844 -121.54042 
L 121.086732 -125.091146 
L 120.01662 -128.928077 
L 118.946508 -133.052856 
L 117.876395 -137.465123 
L 116.806283 -142.162433 
L 115.736171 -147.140178 
L 114.666059 -152.391532 
L 113.595947 -157.907412 
L 112.525834 -163.676453 
L 111.455722 -169.685009 
L 110.38561 -175.917169 
L 109.315498 -182.354799 
L 108.245386 -188.977598 
L 107.175273 -195.763187 
L 106.105161 -202.687213 
L 105.035049 -209.723471 
L 103.964937 -216.844062 
L 102.894825 -224.019555 
L 101.824712 -231.219179 
L 100.7546 -238.411031 
L 99.684488 -245.562295 
L 98.614376 -252.639484 
L 97.544264 -259.608688 
L 96.474151 -266.435828 
L 95.404039 -273.086924 
L 94.333927 -279.528361 
L 93.263815 -285.727153 
L 92.193703 -291.651211 
L 91.12359 -297.269595 
L 90.053478 -302.552761 
L 88.983366 -307.472797 
L 87.913254 -312.003637 
L 86.843142 -316.12126 
L 85.773029 -319.803873 
L 84.702917 -323.032057 
L 83.632805 -325.788906 
L 82.562693 -328.060127 
L 81.492581 -329.834122 
L 80.422468 -331.102039 
L 79.352356 -331.857799 
L 78.282244 -332.098095 
L 77.212132 -331.822373 
L 76.14202 -331.032779 
L 75.071907 -329.734095 
L 74.001795 -327.933651 
L 72.931683 -325.641216 
L 71.861571 -322.86888 
L 70.791459 -319.630918 
L 69.721346 -315.943647 
L 68.651234 -311.82527 
L 67.581122 -307.295718 
L 66.51101 -302.376482 
L 65.440898 -297.090448 
L 64.370785 -291.461726 
L 63.300673 -285.515479 
L 62.230561 -279.277758 
L 61.160449 -272.775332 
L 60.090337 -266.035527 
L 59.020224 -259.086062 
L 57.950112 -251.954894 
L 56.88 -244.670065 
z
" style="stroke: #55a868"/>
    </defs>
    <g clip-path="url(#p4d0dad2424)">
     <use xlink:href="#mb0bc76899c" x="0" y="360" style="fill: #55a868; fill-opacity: 0.25; stroke: #55a868"/>
    </g>
   </g>
   <g id="patch_3">
    <path d="M 56.88 326.74 
L 56.88 12.96 
" style="fill: none; stroke: #ffffff; stroke-width: 1.25; stroke-linejoin: miter; stroke-linecap: square"/>
   </g>
   <g id="patch_4">
    <path d="M 56.88 326.74 
L 347.04 326.74 
" style="fill: none; stroke: #ffffff; stroke-width: 1.25; stroke-linejoin: miter; stroke-linecap: square"/>
   </g>
  </g>
 </g>
 <defs>
  <clipPath id="p4d0dad2424">
   <rect x="56.88" y="12.96" width="290.16" height="313.78"/>
  </clipPath>
 </defs>
</svg>
