<?xml version="1.0" encoding="UTF-8" standalone="no"?>
<!-- Created with Inkscape (http://www.inkscape.org/) -->

<svg
   width="127mm"
   height="127.55971mm"
   viewBox="0 0 127 127.55971"
   version="1.1"
   id="svg5"
   xml:space="preserve"
   inkscape:version="1.2.2 (b0a8486541, 2022-12-01)"
   sodipodi:docname="text_tp.svg"
   xmlns:inkscape="http://www.inkscape.org/namespaces/inkscape"
   xmlns:sodipodi="http://sodipodi.sourceforge.net/DTD/sodipodi-0.dtd"
   xmlns:xlink="http://www.w3.org/1999/xlink"
   xmlns="http://www.w3.org/2000/svg"
   xmlns:svg="http://www.w3.org/2000/svg"><sodipodi:namedview
     id="namedview7"
     pagecolor="#ffffff"
     bordercolor="#000000"
     borderopacity="0.25"
     inkscape:showpageshadow="2"
     inkscape:pageopacity="0.0"
     inkscape:pagecheckerboard="0"
     inkscape:deskcolor="#d1d1d1"
     inkscape:document-units="mm"
     showgrid="false"
     inkscape:zoom="0.5852904"
     inkscape:cx="206.73498"
     inkscape:cy="322.06234"
     inkscape:window-width="1600"
     inkscape:window-height="833"
     inkscape:window-x="0"
     inkscape:window-y="31"
     inkscape:window-maximized="1"
     inkscape:current-layer="ytick_1" /><defs
     id="defs2"><style
       type="text/css"
       id="style258">*{stroke-linejoin: round; stroke-linecap: butt}</style><path
       id="DejaVuSans-30"
       d="m 2034,4250 q -487,0 -733,-480 -245,-479 -245,-1442 0,-959 245,-1439 246,-480 733,-480 491,0 736,480 246,480 246,1439 0,963 -246,1442 -245,480 -736,480 z m 0,500 q 785,0 1199,-621 414,-620 414,-1801 0,-1178 -414,-1799 -414,-620 -1199,-620 -784,0 -1198,620 -414,621 -414,1799 0,1181 414,1801 414,621 1198,621 z"
       transform="scale(0.015625)" /><path
       id="DejaVuSans-2e"
       d="m 684,794 h 660 V 0 H 684 Z"
       transform="scale(0.015625)" /><path
       id="DejaVuSans-32"
       d="M 1228,531 H 3431 V 0 H 469 v 531 q 359,372 979,998 621,627 780,809 303,340 423,576 121,236 121,464 0,372 -261,606 -261,235 -680,235 -297,0 -627,-103 -329,-103 -704,-313 v 638 q 381,153 712,231 332,78 607,78 725,0 1156,-363 431,-362 431,-968 0,-288 -108,-546 -107,-257 -392,-607 -78,-91 -497,-524 Q 1991,1309 1228,531 Z"
       transform="scale(0.015625)" /><path
       id="DejaVuSans-34"
       d="M 2419,4116 825,1625 h 1594 z m -166,550 h 794 V 1625 h 666 V 1100 H 3047 V 0 H 2419 V 1100 H 313 v 609 z"
       transform="scale(0.015625)" /><path
       id="DejaVuSans-36"
       d="m 2113,2584 q -425,0 -674,-291 -248,-290 -248,-796 0,-503 248,-796 249,-292 674,-292 425,0 673,292 248,293 248,796 0,506 -248,796 -248,291 -673,291 z m 1253,1979 v -575 q -238,112 -480,171 -242,60 -480,60 -625,0 -955,-422 -329,-422 -376,-1275 184,272 462,417 279,145 613,145 703,0 1111,-427 408,-426 408,-1160 0,-719 -425,-1154 -425,-434 -1131,-434 -810,0 -1238,620 -428,621 -428,1799 0,1106 525,1764 525,658 1409,658 238,0 480,-47 242,-47 505,-140 z"
       transform="scale(0.015625)" /><path
       id="DejaVuSans-38"
       d="m 2034,2216 q -450,0 -708,-241 -257,-241 -257,-662 0,-422 257,-663 258,-241 708,-241 450,0 709,242 260,243 260,662 0,421 -258,662 -257,241 -711,241 z m -631,268 q -406,100 -633,378 -226,279 -226,679 0,559 398,884 399,325 1092,325 697,0 1094,-325 397,-325 397,-884 0,-400 -227,-679 -226,-278 -629,-378 456,-106 710,-416 255,-309 255,-755 Q 3634,634 3220,271 2806,-91 2034,-91 1263,-91 848,271 434,634 434,1313 q 0,446 256,755 257,310 713,416 z m -231,997 q 0,-362 226,-565 227,-203 636,-203 407,0 636,203 230,203 230,565 0,363 -230,566 -229,203 -636,203 -409,0 -636,-203 -226,-203 -226,-566 z"
       transform="scale(0.015625)" /><path
       id="DejaVuSans-31"
       d="M 794,531 H 1825 V 4091 L 703,3866 v 575 l 1116,225 h 631 V 531 H 3481 V 0 H 794 Z"
       transform="scale(0.015625)" /><path
       id="DejaVuSans-50"
       d="M 1259,4147 V 2394 h 794 q 441,0 681,228 241,228 241,650 0,419 -241,647 -240,228 -681,228 z m -631,519 h 1425 q 785,0 1186,-355 402,-355 402,-1039 0,-691 -402,-1044 -401,-353 -1186,-353 H 1259 V 0 H 628 Z"
       transform="scale(0.015625)" /><path
       id="DejaVuSans-72"
       d="m 2631,2963 q -97,56 -211,82 -114,27 -251,27 -488,0 -749,-317 -261,-317 -261,-911 V 0 H 581 v 3500 h 578 v -544 q 182,319 472,473 291,155 707,155 59,0 131,-8 72,-7 159,-23 z"
       transform="scale(0.015625)" /><path
       id="DejaVuSans-6f"
       d="m 1959,3097 q -462,0 -731,-361 -269,-361 -269,-989 0,-628 267,-989 268,-361 733,-361 460,0 728,362 269,363 269,988 0,622 -269,986 -268,364 -728,364 z m 0,487 q 750,0 1178,-488 429,-487 429,-1349 Q 3566,888 3137,398 2709,-91 1959,-91 1206,-91 779,398 353,888 353,1747 q 0,862 426,1349 427,488 1180,488 z"
       transform="scale(0.015625)" /><path
       id="DejaVuSans-62"
       d="m 3116,1747 q 0,634 -261,995 -261,361 -717,361 -457,0 -718,-361 -261,-361 -261,-995 0,-634 261,-995 261,-361 718,-361 456,0 717,361 261,361 261,995 z M 1159,2969 q 182,312 458,463 277,152 661,152 638,0 1036,-506 399,-506 399,-1331 Q 3713,922 3314,415 2916,-91 2278,-91 1894,-91 1617,61 1341,213 1159,525 V 0 H 581 v 4863 h 578 z"
       transform="scale(0.015625)" /><path
       id="DejaVuSans-61"
       d="m 2194,1759 q -697,0 -966,-159 -269,-159 -269,-544 0,-306 202,-486 202,-179 548,-179 479,0 768,339 289,339 289,901 v 128 z m 1147,238 V 0 H 2766 V 531 Q 2569,213 2275,61 1981,-91 1556,-91 q -537,0 -855,302 -317,302 -317,808 0,590 395,890 396,300 1180,300 h 807 v 57 q 0,397 -261,614 -261,217 -733,217 -300,0 -585,-72 -284,-72 -546,-216 v 532 q 315,122 612,182 297,61 578,61 760,0 1135,-394 375,-393 375,-1193 z"
       transform="scale(0.015625)" /><path
       id="DejaVuSans-69"
       d="m 603,3500 h 575 V 0 H 603 Z m 0,1363 h 575 V 4134 H 603 Z"
       transform="scale(0.015625)" /><path
       id="DejaVuSans-6c"
       d="m 603,4863 h 575 V 0 H 603 Z"
       transform="scale(0.015625)" /><path
       id="DejaVuSans-74"
       d="M 1172,4494 V 3500 H 2356 V 3053 H 1172 V 1153 q 0,-428 117,-550 117,-122 477,-122 h 590 V 0 H 1766 Q 1100,0 847,248 594,497 594,1153 V 3053 H 172 v 447 h 422 v 994 z"
       transform="scale(0.015625)" /><path
       id="DejaVuSans-e9"
       d="M 3597,1894 V 1613 H 953 q 38,-594 358,-905 320,-311 892,-311 331,0 642,81 311,81 618,244 V 178 Q 3153,47 2828,-22 2503,-91 2169,-91 1331,-91 842,396 353,884 353,1716 q 0,859 464,1363 464,505 1252,505 706,0 1117,-455 411,-454 411,-1235 z m -575,169 q -6,471 -264,752 -258,282 -683,282 -481,0 -770,-272 -289,-272 -333,-766 z m -556,3056 h 622 L 2070,3944 h -479 z"
       transform="scale(0.015625)" /><path
       id="DejaVuSans-73"
       d="m 2834,3397 v -544 q -243,125 -506,187 -262,63 -544,63 -428,0 -642,-131 -214,-131 -214,-394 0,-200 153,-314 153,-114 616,-217 l 197,-44 q 612,-131 870,-370 258,-239 258,-667 0,-488 -386,-773 Q 2250,-91 1575,-91 1294,-91 989,-36 684,19 347,128 v 594 q 319,-166 628,-249 309,-82 613,-82 406,0 624,139 219,139 219,392 0,234 -158,359 -157,125 -692,241 l -200,47 q -534,112 -772,345 -237,233 -237,639 0,494 350,762 350,269 994,269 318,0 599,-47 282,-46 519,-140 z"
       transform="scale(0.015625)" /><path
       id="DejaVuSans-20"
       transform="scale(0.015625)"
       d="" /><path
       id="DejaVuSans-5b"
       d="M 550,4863 H 1875 V 4416 H 1125 V -397 h 750 V -844 H 550 Z"
       transform="scale(0.015625)" /><path
       id="DejaVuSans-2d"
       d="M 313,2009 H 1997 V 1497 H 313 Z"
       transform="scale(0.015625)" /><path
       id="DejaVuSans-5d"
       d="M 1947,4863 V -844 H 622 v 447 h 747 V 4416 H 622 v 447 z"
       transform="scale(0.015625)" /><path
       id="DejaVuSans-35"
       d="M 691,4666 H 3169 V 4134 H 1269 V 2991 q 137,47 274,70 138,23 276,23 781,0 1237,-428 457,-428 457,-1159 Q 3513,744 3044,326 2575,-91 1722,-91 1428,-91 1123,-41 819,9 494,109 v 635 q 281,-153 581,-228 300,-75 634,-75 541,0 856,284 316,284 316,772 0,487 -316,771 -315,285 -856,285 -253,0 -505,-56 -251,-56 -513,-175 z"
       transform="scale(0.015625)" /><path
       id="DejaVuSans-33"
       d="m 2597,2516 q 453,-97 707,-404 255,-306 255,-756 0,-690 -475,-1069 -475,-378 -1350,-378 -293,0 -604,58 -311,58 -642,174 v 609 q 262,-153 574,-231 313,-78 654,-78 593,0 904,234 311,234 311,681 0,413 -289,645 -289,233 -804,233 h -544 v 519 h 569 q 465,0 712,186 247,186 247,536 0,359 -255,551 -254,193 -729,193 -260,0 -557,-57 -297,-56 -653,-174 v 562 q 360,100 674,150 314,50 592,50 719,0 1137,-327 419,-326 419,-882 0,-388 -222,-655 -222,-267 -631,-370 z"
       transform="scale(0.015625)" /><path
       id="DejaVuSans-44"
       d="M 1259,4147 V 519 h 763 q 966,0 1414,437 448,438 448,1382 0,937 -448,1373 -448,436 -1414,436 z m -631,519 h 1297 q 1356,0 1990,-564 635,-564 635,-1764 Q 4550,1131 3912,565 3275,0 1925,0 H 628 Z"
       transform="scale(0.015625)" /><path
       id="DejaVuSans-65"
       d="M 3597,1894 V 1613 H 953 q 38,-594 358,-905 320,-311 892,-311 331,0 642,81 311,81 618,244 V 178 Q 3153,47 2828,-22 2503,-91 2169,-91 1331,-91 842,396 353,884 353,1716 q 0,859 464,1363 464,505 1252,505 706,0 1117,-455 411,-454 411,-1235 z m -575,169 q -6,471 -264,752 -258,282 -683,282 -481,0 -770,-272 -289,-272 -333,-766 z"
       transform="scale(0.015625)" /><path
       id="DejaVuSans-6e"
       d="M 3513,2113 V 0 h -575 v 2094 q 0,497 -194,743 -194,247 -581,247 -466,0 -735,-297 -269,-296 -269,-809 V 0 H 581 v 3500 h 578 v -544 q 207,316 486,472 280,156 646,156 603,0 912,-373 310,-373 310,-1098 z"
       transform="scale(0.015625)" /><path
       id="m8719c5d969"
       d="M 53.37,-327.76585 V -33.26 h 0.685464 0.685463 0.685464 0.685464 0.685464 0.685463 0.685464 0.685464 0.685463 0.685464 0.685464 0.685463 0.685464 0.685464 0.685464 0.685463 0.685464 0.685464 0.685463 0.685464 0.685464 0.685464 0.685463 0.685464 0.685464 0.685463 0.685464 0.685464 0.685464 0.685463 0.685464 0.685464 0.685463 0.685464 0.685464 0.685463 0.685464 0.685464 0.685464 0.685463 0.685464 0.685464 0.685463 0.685464 0.685464 0.685464 0.685463 0.685464 0.685464 0.685463 0.685464 0.685464 0.685464 0.685463 0.685464 0.685464 0.685463 0.685464 0.685464 0.685463 0.685464 0.685464 0.685464 0.685463 0.685464 0.685464 0.685463 0.685464 0.685468 0.68546 0.68546 0.68547 0.68546 0.68546 0.68547 0.68546 0.68547 0.68546 0.68546 0.68547 0.68546 0.68546 0.68547 0.68546 0.68547 0.68546 0.68546 0.68547 0.68546 0.68546 0.68547 0.68546 0.68547 0.68546 0.68546 0.68547 0.68546 0.68546 0.68547 0.68546 0.68546 0.68547 0.68546 0.68547 0.68546 0.68546 0.68547 0.68546 0.68546 0.68547 0.68546 0.68546 0.68547 0.68546 0.68547 0.68546 0.68546 0.68547 0.68546 0.68546 0.68547 0.68546 0.68547 0.68546 0.68546 0.68547 0.68546 0.68546 0.68547 0.68546 0.68547 0.68546 0.68546 0.68547 0.68546 0.68546 0.68547 0.68546 0.68546 0.68547 0.68546 0.68547 0.68546 0.68546 0.68547 0.68546 0.68546 0.68547 0.68546 0.68547 0.68546 0.68546 0.68547 0.68546 0.68546 0.68547 0.68546 0.68547 0.68546 0.68546 0.68547 0.68546 0.68546 0.68547 0.68546 0.68547 0.68546 0.68546 0.68547 0.68546 0.68546 0.68547 0.68546 0.68546 0.68547 0.68546 0.68547 0.68546 0.68546 0.68547 0.68546 0.68546 0.68547 0.68546 0.68547 0.68546 0.68546 0.68547 0.68546 0.68546 0.68547 0.68546 0.68547 0.68546 0.68546 0.68547 0.68546 0.68546 0.68547 v -0.006 0 l -0.68547,-0.0084 -0.68546,-0.01722 -0.68546,-0.03143 -0.68547,-0.05113 -0.68546,-0.07363 -0.68546,-0.09278 -0.68547,-0.100175 -0.68546,-0.08857 -0.68547,-0.05614 -0.68546,-0.0089 -0.68546,0.04075 -0.68547,0.07944 -0.68546,0.09852 -0.68546,0.09714 -0.68547,0.08112 -0.68546,0.05893 -0.68547,0.03777 -0.68546,0.02154 -0.68546,0.01098 -0.68547,0.005 -0.68546,0.0021 -0.68546,7.66e-4 -0.68547,2.57e-4 -0.68546,7.7e-5 -0.68547,2.1e-5 -0.68546,6e-6 -0.68546,1e-6 h -0.68547 -0.68546 -0.68546 -0.68547 -0.68546 -0.68546 -0.68547 -0.68546 -0.68547 -0.68546 -0.68546 -0.68547 -0.68546 -0.68546 -0.68547 -0.68546 -0.68547 -0.68546 -0.68546 -0.68547 -0.68546 -0.68546 -0.68547 -0.68546 -0.68547 -0.68546 -0.68546 -0.68547 -0.68546 -0.68546 -0.68547 -0.68546 -0.68547 -0.68546 -0.68546 -0.68547 -0.68546 -0.68546 -0.68547 -0.68546 -0.68546 -0.68547 -0.68546 -0.68547 -0.68546 -0.68546 -0.68547 -0.68546 -0.68546 -0.68547 -0.68546 -0.68547 -0.68546 -0.68546 -0.68547 l -0.68546,-1e-6 -0.68546,-2e-6 -0.68547,-1e-5 -0.68546,-4e-5 -0.68547,-1.39e-4 -0.68546,-4.36e-4 -0.68546,-0.0012 -0.68547,-0.0032 -0.68546,-0.0074 -0.68546,-0.01532 -0.68547,-0.02852 -0.68546,-0.04736 -0.68546,-0.06972 -0.68547,-0.09003 -0.68546,-0.100094 -0.68547,-0.09215 -0.68546,-0.06316 -0.68546,-0.01778 -0.68547,0.03245 -0.68546,0.07378 -0.68546,0.09624 -0.68547,0.09727 -0.68546,0.08107 -0.68546,0.05481 -0.68547,0.0245 -0.68546,-0.0069 -0.68547,-0.03865 -0.68546,-0.0698 -0.68546,-0.09714 -0.68547,-0.115401 -0.68546,-0.119832 -0.68546,-0.10961 -0.68547,-0.08933 -0.68546,-0.06697 -0.68547,-0.04937 -0.68546,-0.03854 -0.68546,-0.03124 -0.68547,-0.02176 -0.68546,-0.0055 -0.68546,0.0191 -0.68547,0.0497 -0.68546,0.08056 -0.68547,0.103345 -0.68546,0.109476 -0.68546,0.09373 -0.68547,0.05761 -0.68546,0.01014 -0.68546,-0.03493 -0.685468,-0.06468 -0.685464,-0.07271 -0.685463,-0.06184 -0.685464,-0.04203 -0.685464,-0.02432 -0.685463,-0.01464 -0.685464,-0.0118 -0.685464,-0.0106 -0.685464,-0.0072 -0.685463,-0.0016 -0.685464,0.004 -0.685464,0.0093 -0.685463,0.01724 -0.685464,0.03032 -0.685464,0.0462 -0.685463,0.05579 -0.685464,0.04718 -0.685464,0.01298 -0.685464,-0.04337 -0.685463,-0.106396 -0.685464,-0.154095 -0.685464,-0.167939 -0.685463,-0.142943 -0.685464,-0.09206 -0.685464,-0.04159 -0.685464,-0.01962 -0.685463,-0.04423 -0.685464,-0.118479 -0.685464,-0.233449 -0.685463,-0.37469 -0.685464,-0.525324 -0.685464,-0.66374 -0.685464,-0.760478 -0.685463,-0.781764 -0.685464,-0.702684 -0.685464,-0.523996 -0.685463,-0.280455 -0.685464,-0.03194 -0.685464,0.159679 -0.685463,0.254561 -0.685464,0.246428 -0.685464,0.157378 -0.685464,0.02243 -0.685463,-0.126244 -0.685464,-0.268727 -0.685464,-0.398441 -0.685463,-0.516571 -0.685464,-0.623625 -0.685464,-0.714022 -0.685464,-0.779402 -0.685463,-0.821441 -0.685464,-0.867425 -0.685464,-0.977742 -0.685463,-1.239004 -0.685464,-1.747029 -0.685464,-2.592531 -0.685464,-3.863405 -0.685463,-5.671272 -0.685464,-8.197531 -0.685464,-11.730933 -0.685463,-16.633045 -0.685464,-23.14367 -0.685464,-30.98315 -0.685463,-38.87245 -0.685464,-44.31967 -0.685464,-44.10761 -0.685464,-35.62199 -0.685463,-18.51621 z"
       style="stroke:#c44e52" /><clipPath
       id="pb79e0ddfa8"><rect
         x="53.369999"
         y="12.96"
         width="293.67001"
         height="313.78"
         id="rect565" /></clipPath><style
       type="text/css"
       id="style826">*{stroke-linejoin: round; stroke-linecap: butt}</style><path
       id="DejaVuSans-30-9"
       d="m 2034,4250 q -487,0 -733,-480 -245,-479 -245,-1442 0,-959 245,-1439 246,-480 733,-480 491,0 736,480 246,480 246,1439 0,963 -246,1442 -245,480 -736,480 z m 0,500 q 785,0 1199,-621 414,-620 414,-1801 0,-1178 -414,-1799 -414,-620 -1199,-620 -784,0 -1198,620 -414,621 -414,1799 0,1181 414,1801 414,621 1198,621 z"
       transform="scale(0.015625)" /><path
       id="DejaVuSans-2e-1"
       d="m 684,794 h 660 V 0 H 684 Z"
       transform="scale(0.015625)" /><path
       id="DejaVuSans-32-9"
       d="M 1228,531 H 3431 V 0 H 469 v 531 q 359,372 979,998 621,627 780,809 303,340 423,576 121,236 121,464 0,372 -261,606 -261,235 -680,235 -297,0 -627,-103 -329,-103 -704,-313 v 638 q 381,153 712,231 332,78 607,78 725,0 1156,-363 431,-362 431,-968 0,-288 -108,-546 -107,-257 -392,-607 -78,-91 -497,-524 Q 1991,1309 1228,531 Z"
       transform="scale(0.015625)" /><path
       id="DejaVuSans-34-6"
       d="M 2419,4116 825,1625 h 1594 z m -166,550 h 794 V 1625 h 666 V 1100 H 3047 V 0 H 2419 V 1100 H 313 v 609 z"
       transform="scale(0.015625)" /><path
       id="DejaVuSans-36-8"
       d="m 2113,2584 q -425,0 -674,-291 -248,-290 -248,-796 0,-503 248,-796 249,-292 674,-292 425,0 673,292 248,293 248,796 0,506 -248,796 -248,291 -673,291 z m 1253,1979 v -575 q -238,112 -480,171 -242,60 -480,60 -625,0 -955,-422 -329,-422 -376,-1275 184,272 462,417 279,145 613,145 703,0 1111,-427 408,-426 408,-1160 0,-719 -425,-1154 -425,-434 -1131,-434 -810,0 -1238,620 -428,621 -428,1799 0,1106 525,1764 525,658 1409,658 238,0 480,-47 242,-47 505,-140 z"
       transform="scale(0.015625)" /><path
       id="DejaVuSans-38-0"
       d="m 2034,2216 q -450,0 -708,-241 -257,-241 -257,-662 0,-422 257,-663 258,-241 708,-241 450,0 709,242 260,243 260,662 0,421 -258,662 -257,241 -711,241 z m -631,268 q -406,100 -633,378 -226,279 -226,679 0,559 398,884 399,325 1092,325 697,0 1094,-325 397,-325 397,-884 0,-400 -227,-679 -226,-278 -629,-378 456,-106 710,-416 255,-309 255,-755 Q 3634,634 3220,271 2806,-91 2034,-91 1263,-91 848,271 434,634 434,1313 q 0,446 256,755 257,310 713,416 z m -231,997 q 0,-362 226,-565 227,-203 636,-203 407,0 636,203 230,203 230,565 0,363 -230,566 -229,203 -636,203 -409,0 -636,-203 -226,-203 -226,-566 z"
       transform="scale(0.015625)" /><path
       id="DejaVuSans-31-5"
       d="M 794,531 H 1825 V 4091 L 703,3866 v 575 l 1116,225 h 631 V 531 H 3481 V 0 H 794 Z"
       transform="scale(0.015625)" /><path
       id="DejaVuSans-50-2"
       d="M 1259,4147 V 2394 h 794 q 441,0 681,228 241,228 241,650 0,419 -241,647 -240,228 -681,228 z m -631,519 h 1425 q 785,0 1186,-355 402,-355 402,-1039 0,-691 -402,-1044 -401,-353 -1186,-353 H 1259 V 0 H 628 Z"
       transform="scale(0.015625)" /><path
       id="DejaVuSans-72-2"
       d="m 2631,2963 q -97,56 -211,82 -114,27 -251,27 -488,0 -749,-317 -261,-317 -261,-911 V 0 H 581 v 3500 h 578 v -544 q 182,319 472,473 291,155 707,155 59,0 131,-8 72,-7 159,-23 z"
       transform="scale(0.015625)" /><path
       id="DejaVuSans-6f-8"
       d="m 1959,3097 q -462,0 -731,-361 -269,-361 -269,-989 0,-628 267,-989 268,-361 733,-361 460,0 728,362 269,363 269,988 0,622 -269,986 -268,364 -728,364 z m 0,487 q 750,0 1178,-488 429,-487 429,-1349 Q 3566,888 3137,398 2709,-91 1959,-91 1206,-91 779,398 353,888 353,1747 q 0,862 426,1349 427,488 1180,488 z"
       transform="scale(0.015625)" /><path
       id="DejaVuSans-62-9"
       d="m 3116,1747 q 0,634 -261,995 -261,361 -717,361 -457,0 -718,-361 -261,-361 -261,-995 0,-634 261,-995 261,-361 718,-361 456,0 717,361 261,361 261,995 z M 1159,2969 q 182,312 458,463 277,152 661,152 638,0 1036,-506 399,-506 399,-1331 Q 3713,922 3314,415 2916,-91 2278,-91 1894,-91 1617,61 1341,213 1159,525 V 0 H 581 v 4863 h 578 z"
       transform="scale(0.015625)" /><path
       id="DejaVuSans-61-7"
       d="m 2194,1759 q -697,0 -966,-159 -269,-159 -269,-544 0,-306 202,-486 202,-179 548,-179 479,0 768,339 289,339 289,901 v 128 z m 1147,238 V 0 H 2766 V 531 Q 2569,213 2275,61 1981,-91 1556,-91 q -537,0 -855,302 -317,302 -317,808 0,590 395,890 396,300 1180,300 h 807 v 57 q 0,397 -261,614 -261,217 -733,217 -300,0 -585,-72 -284,-72 -546,-216 v 532 q 315,122 612,182 297,61 578,61 760,0 1135,-394 375,-393 375,-1193 z"
       transform="scale(0.015625)" /><path
       id="DejaVuSans-69-3"
       d="m 603,3500 h 575 V 0 H 603 Z m 0,1363 h 575 V 4134 H 603 Z"
       transform="scale(0.015625)" /><path
       id="DejaVuSans-6c-6"
       d="m 603,4863 h 575 V 0 H 603 Z"
       transform="scale(0.015625)" /><path
       id="DejaVuSans-74-1"
       d="M 1172,4494 V 3500 H 2356 V 3053 H 1172 V 1153 q 0,-428 117,-550 117,-122 477,-122 h 590 V 0 H 1766 Q 1100,0 847,248 594,497 594,1153 V 3053 H 172 v 447 h 422 v 994 z"
       transform="scale(0.015625)" /><path
       id="DejaVuSans-e9-2"
       d="M 3597,1894 V 1613 H 953 q 38,-594 358,-905 320,-311 892,-311 331,0 642,81 311,81 618,244 V 178 Q 3153,47 2828,-22 2503,-91 2169,-91 1331,-91 842,396 353,884 353,1716 q 0,859 464,1363 464,505 1252,505 706,0 1117,-455 411,-454 411,-1235 z m -575,169 q -6,471 -264,752 -258,282 -683,282 -481,0 -770,-272 -289,-272 -333,-766 z m -556,3056 h 622 L 2070,3944 h -479 z"
       transform="scale(0.015625)" /><path
       id="DejaVuSans-73-9"
       d="m 2834,3397 v -544 q -243,125 -506,187 -262,63 -544,63 -428,0 -642,-131 -214,-131 -214,-394 0,-200 153,-314 153,-114 616,-217 l 197,-44 q 612,-131 870,-370 258,-239 258,-667 0,-488 -386,-773 Q 2250,-91 1575,-91 1294,-91 989,-36 684,19 347,128 v 594 q 319,-166 628,-249 309,-82 613,-82 406,0 624,139 219,139 219,392 0,234 -158,359 -157,125 -692,241 l -200,47 q -534,112 -772,345 -237,233 -237,639 0,494 350,762 350,269 994,269 318,0 599,-47 282,-46 519,-140 z"
       transform="scale(0.015625)" /><path
       id="DejaVuSans-20-3"
       transform="scale(0.015625)"
       d="" /><path
       id="DejaVuSans-5b-1"
       d="M 550,4863 H 1875 V 4416 H 1125 V -397 h 750 V -844 H 550 Z"
       transform="scale(0.015625)" /><path
       id="DejaVuSans-2d-9"
       d="M 313,2009 H 1997 V 1497 H 313 Z"
       transform="scale(0.015625)" /><path
       id="DejaVuSans-5d-4"
       d="M 1947,4863 V -844 H 622 v 447 h 747 V 4416 H 622 v 447 z"
       transform="scale(0.015625)" /><path
       id="DejaVuSans-35-1"
       d="M 691,4666 H 3169 V 4134 H 1269 V 2991 q 137,47 274,70 138,23 276,23 781,0 1237,-428 457,-428 457,-1159 Q 3513,744 3044,326 2575,-91 1722,-91 1428,-91 1123,-41 819,9 494,109 v 635 q 281,-153 581,-228 300,-75 634,-75 541,0 856,284 316,284 316,772 0,487 -316,771 -315,285 -856,285 -253,0 -505,-56 -251,-56 -513,-175 z"
       transform="scale(0.015625)" /><path
       id="DejaVuSans-44-6"
       d="M 1259,4147 V 519 h 763 q 966,0 1414,437 448,438 448,1382 0,937 -448,1373 -448,436 -1414,436 z m -631,519 h 1297 q 1356,0 1990,-564 635,-564 635,-1764 Q 4550,1131 3912,565 3275,0 1925,0 H 628 Z"
       transform="scale(0.015625)" /><path
       id="DejaVuSans-65-9"
       d="M 3597,1894 V 1613 H 953 q 38,-594 358,-905 320,-311 892,-311 331,0 642,81 311,81 618,244 V 178 Q 3153,47 2828,-22 2503,-91 2169,-91 1331,-91 842,396 353,884 353,1716 q 0,859 464,1363 464,505 1252,505 706,0 1117,-455 411,-454 411,-1235 z m -575,169 q -6,471 -264,752 -258,282 -683,282 -481,0 -770,-272 -289,-272 -333,-766 z"
       transform="scale(0.015625)" /><path
       id="DejaVuSans-6e-3"
       d="M 3513,2113 V 0 h -575 v 2094 q 0,497 -194,743 -194,247 -581,247 -466,0 -735,-297 -269,-296 -269,-809 V 0 H 581 v 3500 h 578 v -544 q 207,316 486,472 280,156 646,156 603,0 912,-373 310,-373 310,-1098 z"
       transform="scale(0.015625)" /><path
       id="md961f70128"
       d="M 99.158609,-33.512684 V -33.26 h 1.245631 1.24564 1.24563 1.24564 1.24564 1.24563 1.24564 1.24563 1.24564 1.24563 1.24564 1.24563 1.24564 1.24563 1.24564 1.24563 1.24564 1.24563 1.24564 1.24563 1.24564 1.24563 1.24564 1.24563 1.24564 1.24563 1.24564 1.24563 1.24564 1.24563 1.24564 1.24563 1.24564 1.24563 1.24564 1.24563 1.24564 1.24563 1.24564 1.24563 1.24564 1.24564 1.24563 1.24563 1.24564 1.24564 1.24563 1.24563 1.24564 1.24564 1.24563 1.24564 1.24563 1.24564 1.24563 1.24564 1.24563 1.24564 1.24563 1.24564 1.24563 1.24564 1.24563 1.24564 1.24563 1.24564 1.24563 1.24564 1.24563 1.24564 1.24563 1.24564 1.24563 1.24564 1.24563 1.24564 1.24563 1.24564 1.24563 1.24564 1.24563 1.24564 1.24563 1.24564 1.24563 1.24564 1.24563 1.24564 1.24564 1.24563 1.24564 1.24563 1.24564 1.24563 1.24564 1.24563 1.24564 1.24563 1.24564 1.24563 1.24564 1.24563 1.24564 1.24563 1.24564 1.24563 1.24564 1.24563 1.24564 1.24563 1.24564 1.24563 1.24564 1.24563 1.24564 1.24563 1.24564 1.24563 1.24564 1.24563 1.24564 1.24563 1.24564 1.24563 1.24564 1.24563 1.24564 1.24564 1.24563 1.24564 1.24563 1.24564 1.24563 1.24564 1.24563 1.24564 1.24563 1.24564 1.24563 1.24564 1.24563 1.24564 1.24563 1.24564 1.24563 1.24564 1.24563 1.24564 1.24563 1.24564 1.24563 1.24564 1.24563 1.24564 1.24563 1.24564 1.24563 1.24564 1.24563 1.24564 1.24564 1.24563 1.24563 1.24564 1.24564 1.24563 1.24564 1.24563 1.24564 1.24563 1.24564 1.24563 1.24564 1.24563 1.24564 1.24563 1.24564 1.24563 1.24564 1.24563 1.24564 1.24563 1.24564 1.24563 1.24564 1.24563 1.24564 1.24563 1.24564 1.24563 1.24564 1.24563 1.24564 1.24563 1.24564 1.24563 1.24564 1.24564 1.24563 v -128.59489 0 l -1.24563,-7.05061 -1.24564,-7.13763 -1.24564,-7.20272 -1.24563,-7.24506 -1.24564,-7.26409 -1.24563,-7.25943 -1.24564,-7.23087 -1.24563,-7.17847 -1.24564,-7.10242 -1.24563,-7.00318 -1.24564,-6.88133 -1.24563,-6.73769 -1.24564,-6.5732 -1.24563,-6.38897 -1.24564,-6.18623 -1.24563,-5.96633 -1.24564,-5.7307 -1.24563,-5.48085 -1.24564,-5.21833 -1.24563,-4.9447 -1.24564,-4.66158 -1.24563,-4.37049 -1.24564,-4.07301 -1.24563,-3.7706 -1.24564,-3.46471 -1.24563,-3.15671 -1.24564,-2.84786 -1.24563,-2.53937 -1.24564,-2.23234 -1.24563,-1.9278 -1.24564,-1.62666 -1.24563,-1.32976 -1.24564,-1.03785 -1.24563,-0.75161 -1.24564,-0.47162 -1.24564,-0.19842 -1.24563,0.0675 -1.24563,0.32579 -1.24564,0.57603 -1.24564,0.81789 -1.24563,1.05111 -1.24564,1.27542 -1.24563,1.49059 -1.24564,1.69641 -1.24563,1.89272 -1.24564,2.07934 -1.24563,2.25617 -1.24564,2.4231 -1.24563,2.58003 -1.24564,2.72695 -1.24563,2.86386 -1.24564,2.99075 -1.24563,3.10773 -1.24564,3.21489 -1.24563,3.31239 -1.24564,3.40043 -1.24563,3.47925 -1.24564,3.54914 -1.24563,3.61044 -1.24564,3.66349 -1.24563,3.70872 -1.24564,3.74655 -1.24563,3.77745 -1.24564,3.80187 -1.24563,3.82032 -1.24564,3.83327 -1.24563,3.84122 -1.24564,3.84463 -1.24563,3.84395 -1.24564,3.8396 -1.24563,3.83196 -1.24564,3.82139 -1.24564,3.80818 -1.24563,3.79257 -1.24564,3.77475 -1.24563,3.75488 -1.24564,3.733 -1.24563,3.70917 -1.24564,3.68334 -1.24563,3.65543 -1.24564,3.62533 -1.24563,3.59286 -1.24564,3.55783 -1.24563,3.52002 -1.24564,3.47921 -1.24563,3.43514 -1.24564,3.3876 -1.24563,3.33635 -1.24564,3.28121 -1.24563,3.22202 -1.24564,3.15866 -1.24563,3.09105 -1.24564,3.01922 -1.24563,2.94319 -1.24564,2.8631 -1.24563,2.77915 -1.24564,2.69161 -1.24563,2.60081 -1.24564,2.50718 -1.24563,2.4112 -1.24564,2.31341 -1.24563,2.2144 -1.24564,2.11482 -1.24563,2.01538 -1.24564,1.91676 -1.24563,1.81969 -1.24564,1.72494 -1.24563,1.63321 -1.24564,1.54519 -1.24563,1.46159 -1.24564,1.38303 -1.24564,1.31009 -1.24563,1.24329 -1.24564,1.18309 -1.24563,1.12985 -1.24564,1.08385 -1.24563,1.0453 -1.24564,1.0143 -1.24563,0.99088 -1.24564,0.97496 -1.24563,0.96637 -1.24564,0.96489 -1.24563,0.97016 -1.24564,0.98183 -1.24563,0.99939 -1.24564,1.02236 -1.24563,1.05014 -1.24564,1.08216 -1.24563,1.11775 -1.24564,1.15628 -1.24563,1.197058 -1.24564,1.239429 -1.24563,1.282728 -1.24564,1.326304 -1.24563,1.369532 -1.24564,1.411812 -1.24563,1.452579 -1.24564,1.491309 -1.24563,1.527519 -1.24564,1.560772 -1.24563,1.590681 -1.24564,1.616907 -1.24563,1.639166 -1.24564,1.657223 -1.24563,1.670893 -1.24564,1.680043 -1.24563,1.68459 -1.24564,1.684494 -1.24563,1.679765 -1.24564,1.670452 -1.24564,1.656646 -1.24563,1.638473 -1.24563,1.616094 -1.24564,1.589703 -1.24564,1.559519 -1.24563,1.525784 -1.24563,1.488766 -1.24564,1.448745 -1.24564,1.40602 -1.24563,1.360896 -1.24564,1.31369 -1.24563,1.264722 -1.24564,1.214309 -1.24563,1.162773 -1.24564,1.110425 -1.24563,1.057574 -1.24564,1.004512 -1.24563,0.951527 -1.24564,0.898883 -1.24563,0.846837 -1.24564,0.795619 -1.24563,0.745447 -1.24564,0.696514 -1.24563,0.648995 -1.24564,0.603039 -1.24563,0.558778 -1.24564,0.51632 -1.24563,0.475752 -1.24564,0.437137 -1.24563,0.400526 -1.24564,0.365942 -1.24563,0.333396 -1.24564,0.30288 -1.24563,0.274374 -1.24564,0.247839 -1.24563,0.22323 -1.24564,0.200485 -1.24563,0.17954 -1.24564,0.16032 -1.24563,0.142742 -1.24564,0.126726 -1.24563,0.112178 -1.24564,0.09901 -1.24563,0.08714 -1.24564,0.07647 -1.24564,0.0669 -1.24563,0.05837 -1.24564,0.05077 z"
       style="stroke:#55a868" /><clipPath
       id="p50c9cfd83f"><rect
         x="56.790001"
         y="12.96"
         width="290.25"
         height="313.78"
         id="rect1113" /></clipPath></defs><g
     inkscape:label="Calque 1"
     inkscape:groupmode="layer"
     id="layer1"
     transform="translate(-92.642271,-77.141955)"><g
       id="figure_1"
       transform="matrix(0.35277778,0,0,0.35277778,92.642271,77.141955)"><g
         id="patch_1"><path
           d="M 0,360 H 360 V 0 H 0 Z"
           style="fill:#ffffff"
           id="path262" /></g><g
         id="axes_1"><g
           id="patch_2"><path
             d="M 53.37,326.74 H 347.04 V 12.96 H 53.37 Z"
             style="fill:#eaeaf2"
             id="path265" /></g><g
           id="matplotlib.axis_1"><g
             id="xtick_1"><g
               id="line2d_1"><path
                 d="M 53.37,326.74 V 12.96"
                 clip-path="url(#pb79e0ddfa8)"
                 style="fill:none;stroke:#ffffff;stroke-linecap:round"
                 id="path268" /></g><g
               id="text_1"><!-- 0.0 --><g
                 style="fill:#262626"
                 transform="matrix(0.11,0,0,-0.11,44.623281,344.59828)"
                 id="g281"><defs
                   id="defs273"><path
                     id="path610"
                     d="m 2034,4250 q -487,0 -733,-480 -245,-479 -245,-1442 0,-959 245,-1439 246,-480 733,-480 491,0 736,480 246,480 246,1439 0,963 -246,1442 -245,480 -736,480 z m 0,500 q 785,0 1199,-621 414,-620 414,-1801 0,-1178 -414,-1799 -414,-620 -1199,-620 -784,0 -1198,620 -414,621 -414,1799 0,1181 414,1801 414,621 1198,621 z"
                     transform="scale(0.015625)" /><path
                     id="path612"
                     d="m 684,794 h 660 V 0 H 684 Z"
                     transform="scale(0.015625)" /></defs><use
                   xlink:href="#DejaVuSans-30"
                   id="use275" /><use
                   xlink:href="#DejaVuSans-2e"
                   x="63.623047"
                   id="use277" /><use
                   xlink:href="#DejaVuSans-30"
                   x="95.410156"
                   id="use279" /></g></g></g><g
             id="xtick_2"><g
               id="line2d_2"><path
                 d="M 112.104,326.74 V 12.96"
                 clip-path="url(#pb79e0ddfa8)"
                 style="fill:none;stroke:#ffffff;stroke-linecap:round"
                 id="path285" /></g><g
               id="text_2"><!-- 0.2 --><g
                 style="fill:#262626"
                 transform="matrix(0.11,0,0,-0.11,103.35728,344.59828)"
                 id="g297"><defs
                   id="defs289"><path
                     id="path623"
                     d="M 1228,531 H 3431 V 0 H 469 v 531 q 359,372 979,998 621,627 780,809 303,340 423,576 121,236 121,464 0,372 -261,606 -261,235 -680,235 -297,0 -627,-103 -329,-103 -704,-313 v 638 q 381,153 712,231 332,78 607,78 725,0 1156,-363 431,-362 431,-968 0,-288 -108,-546 -107,-257 -392,-607 -78,-91 -497,-524 Q 1991,1309 1228,531 Z"
                     transform="scale(0.015625)" /></defs><use
                   xlink:href="#DejaVuSans-30"
                   id="use291" /><use
                   xlink:href="#DejaVuSans-2e"
                   x="63.623047"
                   id="use293" /><use
                   xlink:href="#DejaVuSans-32"
                   x="95.410156"
                   id="use295" /></g></g></g><g
             id="xtick_3"><g
               id="line2d_3"><path
                 d="M 170.838,326.74 V 12.96"
                 clip-path="url(#pb79e0ddfa8)"
                 style="fill:none;stroke:#ffffff;stroke-linecap:round"
                 id="path301" /></g><g
               id="text_3"><!-- 0.4 --><g
                 style="fill:#262626"
                 transform="matrix(0.11,0,0,-0.11,162.09128,344.59828)"
                 id="g313"><defs
                   id="defs305"><path
                     id="path634"
                     d="M 2419,4116 825,1625 h 1594 z m -166,550 h 794 V 1625 h 666 V 1100 H 3047 V 0 H 2419 V 1100 H 313 v 609 z"
                     transform="scale(0.015625)" /></defs><use
                   xlink:href="#DejaVuSans-30"
                   id="use307" /><use
                   xlink:href="#DejaVuSans-2e"
                   x="63.623047"
                   id="use309" /><use
                   xlink:href="#DejaVuSans-34"
                   x="95.410156"
                   id="use311" /></g></g></g><g
             id="xtick_4"><g
               id="line2d_4"><path
                 d="M 229.572,326.74 V 12.96"
                 clip-path="url(#pb79e0ddfa8)"
                 style="fill:none;stroke:#ffffff;stroke-linecap:round"
                 id="path317" /></g><g
               id="text_4"><!-- 0.6 --><g
                 style="fill:#262626"
                 transform="matrix(0.11,0,0,-0.11,220.82528,344.59828)"
                 id="g329"><defs
                   id="defs321"><path
                     id="path645"
                     d="m 2113,2584 q -425,0 -674,-291 -248,-290 -248,-796 0,-503 248,-796 249,-292 674,-292 425,0 673,292 248,293 248,796 0,506 -248,796 -248,291 -673,291 z m 1253,1979 v -575 q -238,112 -480,171 -242,60 -480,60 -625,0 -955,-422 -329,-422 -376,-1275 184,272 462,417 279,145 613,145 703,0 1111,-427 408,-426 408,-1160 0,-719 -425,-1154 -425,-434 -1131,-434 -810,0 -1238,620 -428,621 -428,1799 0,1106 525,1764 525,658 1409,658 238,0 480,-47 242,-47 505,-140 z"
                     transform="scale(0.015625)" /></defs><use
                   xlink:href="#DejaVuSans-30"
                   id="use323" /><use
                   xlink:href="#DejaVuSans-2e"
                   x="63.623047"
                   id="use325" /><use
                   xlink:href="#DejaVuSans-36"
                   x="95.410156"
                   id="use327" /></g></g></g><g
             id="xtick_5"><g
               id="line2d_5"><path
                 d="M 288.306,326.74 V 12.96"
                 clip-path="url(#pb79e0ddfa8)"
                 style="fill:none;stroke:#ffffff;stroke-linecap:round"
                 id="path333" /></g><g
               id="text_5"><!-- 0.8 --><g
                 style="fill:#262626"
                 transform="matrix(0.11,0,0,-0.11,279.55928,344.59828)"
                 id="g345"><defs
                   id="defs337"><path
                     id="path656"
                     d="m 2034,2216 q -450,0 -708,-241 -257,-241 -257,-662 0,-422 257,-663 258,-241 708,-241 450,0 709,242 260,243 260,662 0,421 -258,662 -257,241 -711,241 z m -631,268 q -406,100 -633,378 -226,279 -226,679 0,559 398,884 399,325 1092,325 697,0 1094,-325 397,-325 397,-884 0,-400 -227,-679 -226,-278 -629,-378 456,-106 710,-416 255,-309 255,-755 Q 3634,634 3220,271 2806,-91 2034,-91 1263,-91 848,271 434,634 434,1313 q 0,446 256,755 257,310 713,416 z m -231,997 q 0,-362 226,-565 227,-203 636,-203 407,0 636,203 230,203 230,565 0,363 -230,566 -229,203 -636,203 -409,0 -636,-203 -226,-203 -226,-566 z"
                     transform="scale(0.015625)" /></defs><use
                   xlink:href="#DejaVuSans-30"
                   id="use339" /><use
                   xlink:href="#DejaVuSans-2e"
                   x="63.623047"
                   id="use341" /><use
                   xlink:href="#DejaVuSans-38"
                   x="95.410156"
                   id="use343" /></g></g></g><g
             id="xtick_6"><g
               id="line2d_6"><path
                 d="M 347.04,326.74 V 12.96"
                 clip-path="url(#pb79e0ddfa8)"
                 style="fill:none;stroke:#ffffff;stroke-linecap:round"
                 id="path349" /></g><g
               id="text_6"><!-- 1.0 --><g
                 style="fill:#262626"
                 transform="matrix(0.11,0,0,-0.11,338.29328,344.59828)"
                 id="g361"><defs
                   id="defs353"><path
                     id="path667"
                     d="M 794,531 H 1825 V 4091 L 703,3866 v 575 l 1116,225 h 631 V 531 H 3481 V 0 H 794 Z"
                     transform="scale(0.015625)" /></defs><use
                   xlink:href="#DejaVuSans-31"
                   id="use355" /><use
                   xlink:href="#DejaVuSans-2e"
                   x="63.623047"
                   id="use357" /><use
                   xlink:href="#DejaVuSans-30"
                   x="95.410156"
                   id="use359" /></g></g></g><g
             id="text_7"><!-- Probabilités [-] --><g
               style="fill:#262626"
               transform="matrix(0.12,0,0,-0.12,156.47062,360.00406)"
               id="g413"><defs
                 id="defs379"><path
                   id="path676"
                   d="M 1259,4147 V 2394 h 794 q 441,0 681,228 241,228 241,650 0,419 -241,647 -240,228 -681,228 z m -631,519 h 1425 q 785,0 1186,-355 402,-355 402,-1039 0,-691 -402,-1044 -401,-353 -1186,-353 H 1259 V 0 H 628 Z"
                   transform="scale(0.015625)" /><path
                   id="path678"
                   d="m 2631,2963 q -97,56 -211,82 -114,27 -251,27 -488,0 -749,-317 -261,-317 -261,-911 V 0 H 581 v 3500 h 578 v -544 q 182,319 472,473 291,155 707,155 59,0 131,-8 72,-7 159,-23 z"
                   transform="scale(0.015625)" /><path
                   id="path680"
                   d="m 1959,3097 q -462,0 -731,-361 -269,-361 -269,-989 0,-628 267,-989 268,-361 733,-361 460,0 728,362 269,363 269,988 0,622 -269,986 -268,364 -728,364 z m 0,487 q 750,0 1178,-488 429,-487 429,-1349 Q 3566,888 3137,398 2709,-91 1959,-91 1206,-91 779,398 353,888 353,1747 q 0,862 426,1349 427,488 1180,488 z"
                   transform="scale(0.015625)" /><path
                   id="path682"
                   d="m 3116,1747 q 0,634 -261,995 -261,361 -717,361 -457,0 -718,-361 -261,-361 -261,-995 0,-634 261,-995 261,-361 718,-361 456,0 717,361 261,361 261,995 z M 1159,2969 q 182,312 458,463 277,152 661,152 638,0 1036,-506 399,-506 399,-1331 Q 3713,922 3314,415 2916,-91 2278,-91 1894,-91 1617,61 1341,213 1159,525 V 0 H 581 v 4863 h 578 z"
                   transform="scale(0.015625)" /><path
                   id="path684"
                   d="m 2194,1759 q -697,0 -966,-159 -269,-159 -269,-544 0,-306 202,-486 202,-179 548,-179 479,0 768,339 289,339 289,901 v 128 z m 1147,238 V 0 H 2766 V 531 Q 2569,213 2275,61 1981,-91 1556,-91 q -537,0 -855,302 -317,302 -317,808 0,590 395,890 396,300 1180,300 h 807 v 57 q 0,397 -261,614 -261,217 -733,217 -300,0 -585,-72 -284,-72 -546,-216 v 532 q 315,122 612,182 297,61 578,61 760,0 1135,-394 375,-393 375,-1193 z"
                   transform="scale(0.015625)" /><path
                   id="path686"
                   d="m 603,3500 h 575 V 0 H 603 Z m 0,1363 h 575 V 4134 H 603 Z"
                   transform="scale(0.015625)" /><path
                   id="path688"
                   d="m 603,4863 h 575 V 0 H 603 Z"
                   transform="scale(0.015625)" /><path
                   id="path690"
                   d="M 1172,4494 V 3500 H 2356 V 3053 H 1172 V 1153 q 0,-428 117,-550 117,-122 477,-122 h 590 V 0 H 1766 Q 1100,0 847,248 594,497 594,1153 V 3053 H 172 v 447 h 422 v 994 z"
                   transform="scale(0.015625)" /><path
                   id="path692"
                   d="M 3597,1894 V 1613 H 953 q 38,-594 358,-905 320,-311 892,-311 331,0 642,81 311,81 618,244 V 178 Q 3153,47 2828,-22 2503,-91 2169,-91 1331,-91 842,396 353,884 353,1716 q 0,859 464,1363 464,505 1252,505 706,0 1117,-455 411,-454 411,-1235 z m -575,169 q -6,471 -264,752 -258,282 -683,282 -481,0 -770,-272 -289,-272 -333,-766 z m -556,3056 h 622 L 2070,3944 h -479 z"
                   transform="scale(0.015625)" /><path
                   id="path694"
                   d="m 2834,3397 v -544 q -243,125 -506,187 -262,63 -544,63 -428,0 -642,-131 -214,-131 -214,-394 0,-200 153,-314 153,-114 616,-217 l 197,-44 q 612,-131 870,-370 258,-239 258,-667 0,-488 -386,-773 Q 2250,-91 1575,-91 1294,-91 989,-36 684,19 347,128 v 594 q 319,-166 628,-249 309,-82 613,-82 406,0 624,139 219,139 219,392 0,234 -158,359 -157,125 -692,241 l -200,47 q -534,112 -772,345 -237,233 -237,639 0,494 350,762 350,269 994,269 318,0 599,-47 282,-46 519,-140 z"
                   transform="scale(0.015625)" /><path
                   id="path696"
                   transform="scale(0.015625)"
                   d="" /><path
                   id="path698"
                   d="M 550,4863 H 1875 V 4416 H 1125 V -397 h 750 V -844 H 550 Z"
                   transform="scale(0.015625)" /><path
                   id="path700"
                   d="M 313,2009 H 1997 V 1497 H 313 Z"
                   transform="scale(0.015625)" /><path
                   id="path702"
                   d="M 1947,4863 V -844 H 622 v 447 h 747 V 4416 H 622 v 447 z"
                   transform="scale(0.015625)" /></defs><use
                 xlink:href="#DejaVuSans-50"
                 id="use381" /><use
                 xlink:href="#DejaVuSans-72"
                 x="58.552734"
                 id="use383" /><use
                 xlink:href="#DejaVuSans-6f"
                 x="97.416016"
                 id="use385" /><use
                 xlink:href="#DejaVuSans-62"
                 x="158.59766"
                 id="use387" /><use
                 xlink:href="#DejaVuSans-61"
                 x="222.07422"
                 id="use389" /><use
                 xlink:href="#DejaVuSans-62"
                 x="283.35352"
                 id="use391" /><use
                 xlink:href="#DejaVuSans-69"
                 x="346.83008"
                 id="use393" /><use
                 xlink:href="#DejaVuSans-6c"
                 x="374.61328"
                 id="use395" /><use
                 xlink:href="#DejaVuSans-69"
                 x="402.39648"
                 id="use397" /><use
                 xlink:href="#DejaVuSans-74"
                 x="430.17969"
                 id="use399" /><use
                 xlink:href="#DejaVuSans-e9"
                 x="469.38867"
                 id="use401" /><use
                 xlink:href="#DejaVuSans-73"
                 x="530.91211"
                 id="use403" /><use
                 xlink:href="#DejaVuSans-20"
                 x="583.01172"
                 id="use405" /><use
                 xlink:href="#DejaVuSans-5b"
                 x="614.79883"
                 id="use407" /><use
                 xlink:href="#DejaVuSans-2d"
                 x="653.8125"
                 id="use409" /><use
                 xlink:href="#DejaVuSans-5d"
                 x="689.89648"
                 id="use411" /></g></g></g><g
           id="matplotlib.axis_2"><g
             id="ytick_1"><g
               id="line2d_7"><path
                 d="M 53.37,326.74 H 347.04"
                 clip-path="url(#pb79e0ddfa8)"
                 style="fill:none;stroke:#ffffff;stroke-linecap:round"
                 id="path417" /></g></g><g
             id="ytick_2"><g
               id="line2d_8"><path
                 d="M 53.37,291.16566 H 347.04"
                 clip-path="url(#pb79e0ddfa8)"
                 style="fill:none;stroke:#ffffff;stroke-linecap:round"
                 id="path426" /></g></g><g
             id="ytick_3"><g
               id="line2d_9"><path
                 d="M 53.37,255.59131 H 347.04"
                 clip-path="url(#pb79e0ddfa8)"
                 style="fill:none;stroke:#ffffff;stroke-linecap:round"
                 id="path438" /></g></g><g
             id="ytick_4"><g
               id="line2d_10"><path
                 d="M 53.37,220.01697 H 347.04"
                 clip-path="url(#pb79e0ddfa8)"
                 style="fill:none;stroke:#ffffff;stroke-linecap:round"
                 id="path449" /></g><g
               id="text_11"><!-- 15 --></g></g><g
             id="ytick_5"><g
               id="line2d_11"><path
                 d="M 53.37,184.44262 H 347.04"
                 clip-path="url(#pb79e0ddfa8)"
                 style="fill:none;stroke:#ffffff;stroke-linecap:round"
                 id="path460" /></g></g><g
             id="ytick_6"><g
               id="line2d_12"><path
                 d="M 53.37,148.86828 H 347.04"
                 clip-path="url(#pb79e0ddfa8)"
                 style="fill:none;stroke:#ffffff;stroke-linecap:round"
                 id="path471" /></g></g><g
             id="ytick_7"><g
               id="line2d_13"><path
                 d="M 53.37,113.29393 H 347.04"
                 clip-path="url(#pb79e0ddfa8)"
                 style="fill:none;stroke:#ffffff;stroke-linecap:round"
                 id="path482" /></g></g><g
             id="ytick_8"><g
               id="line2d_14"><path
                 d="M 53.37,77.719587 H 347.04"
                 clip-path="url(#pb79e0ddfa8)"
                 style="fill:none;stroke:#ffffff;stroke-linecap:round"
                 id="path496" /></g></g><g
             id="ytick_9"><g
               id="line2d_15"><path
                 d="M 53.37,42.145242 H 347.04"
                 clip-path="url(#pb79e0ddfa8)"
                 style="fill:none;stroke:#ffffff;stroke-linecap:round"
                 id="path507" /></g></g><g
             id="text_17"><!-- Densité [-] --><g
               style="fill:#262626"
               transform="matrix(0,-0.12,-0.12,0,23.376875,201.55437)"
               id="g545"><defs
                 id="defs521"><path
                   id="path791"
                   d="M 1259,4147 V 519 h 763 q 966,0 1414,437 448,438 448,1382 0,937 -448,1373 -448,436 -1414,436 z m -631,519 h 1297 q 1356,0 1990,-564 635,-564 635,-1764 Q 4550,1131 3912,565 3275,0 1925,0 H 628 Z"
                   transform="scale(0.015625)" /><path
                   id="path793"
                   d="M 3597,1894 V 1613 H 953 q 38,-594 358,-905 320,-311 892,-311 331,0 642,81 311,81 618,244 V 178 Q 3153,47 2828,-22 2503,-91 2169,-91 1331,-91 842,396 353,884 353,1716 q 0,859 464,1363 464,505 1252,505 706,0 1117,-455 411,-454 411,-1235 z m -575,169 q -6,471 -264,752 -258,282 -683,282 -481,0 -770,-272 -289,-272 -333,-766 z"
                   transform="scale(0.015625)" /><path
                   id="path795"
                   d="M 3513,2113 V 0 h -575 v 2094 q 0,497 -194,743 -194,247 -581,247 -466,0 -735,-297 -269,-296 -269,-809 V 0 H 581 v 3500 h 578 v -544 q 207,316 486,472 280,156 646,156 603,0 912,-373 310,-373 310,-1098 z"
                   transform="scale(0.015625)" /></defs><use
                 xlink:href="#DejaVuSans-44"
                 id="use523" /><use
                 xlink:href="#DejaVuSans-65"
                 x="77.001953"
                 id="use525" /><use
                 xlink:href="#DejaVuSans-6e"
                 x="138.52539"
                 id="use527" /><use
                 xlink:href="#DejaVuSans-73"
                 x="201.9043"
                 id="use529" /><use
                 xlink:href="#DejaVuSans-69"
                 x="254.00391"
                 id="use531" /><use
                 xlink:href="#DejaVuSans-74"
                 x="281.78711"
                 id="use533" /><use
                 xlink:href="#DejaVuSans-e9"
                 x="320.99609"
                 id="use535" /><use
                 xlink:href="#DejaVuSans-20"
                 x="382.51953"
                 id="use537" /><use
                 xlink:href="#DejaVuSans-5b"
                 x="414.30664"
                 id="use539" /><use
                 xlink:href="#DejaVuSans-2d"
                 x="453.32031"
                 id="use541" /><use
                 xlink:href="#DejaVuSans-5d"
                 x="489.4043"
                 id="use543" /></g></g></g><g
           id="PolyCollection_1"><defs
             id="defs550"><path
               id="path812"
               d="M 53.37,-327.76585 V -33.26 h 0.685464 0.685463 0.685464 0.685464 0.685464 0.685463 0.685464 0.685464 0.685463 0.685464 0.685464 0.685463 0.685464 0.685464 0.685464 0.685463 0.685464 0.685464 0.685463 0.685464 0.685464 0.685464 0.685463 0.685464 0.685464 0.685463 0.685464 0.685464 0.685464 0.685463 0.685464 0.685464 0.685463 0.685464 0.685464 0.685463 0.685464 0.685464 0.685464 0.685463 0.685464 0.685464 0.685463 0.685464 0.685464 0.685464 0.685463 0.685464 0.685464 0.685463 0.685464 0.685464 0.685464 0.685463 0.685464 0.685464 0.685463 0.685464 0.685464 0.685463 0.685464 0.685464 0.685464 0.685463 0.685464 0.685464 0.685463 0.685464 0.685468 0.68546 0.68546 0.68547 0.68546 0.68546 0.68547 0.68546 0.68547 0.68546 0.68546 0.68547 0.68546 0.68546 0.68547 0.68546 0.68547 0.68546 0.68546 0.68547 0.68546 0.68546 0.68547 0.68546 0.68547 0.68546 0.68546 0.68547 0.68546 0.68546 0.68547 0.68546 0.68546 0.68547 0.68546 0.68547 0.68546 0.68546 0.68547 0.68546 0.68546 0.68547 0.68546 0.68546 0.68547 0.68546 0.68547 0.68546 0.68546 0.68547 0.68546 0.68546 0.68547 0.68546 0.68547 0.68546 0.68546 0.68547 0.68546 0.68546 0.68547 0.68546 0.68547 0.68546 0.68546 0.68547 0.68546 0.68546 0.68547 0.68546 0.68546 0.68547 0.68546 0.68547 0.68546 0.68546 0.68547 0.68546 0.68546 0.68547 0.68546 0.68547 0.68546 0.68546 0.68547 0.68546 0.68546 0.68547 0.68546 0.68547 0.68546 0.68546 0.68547 0.68546 0.68546 0.68547 0.68546 0.68547 0.68546 0.68546 0.68547 0.68546 0.68546 0.68547 0.68546 0.68546 0.68547 0.68546 0.68547 0.68546 0.68546 0.68547 0.68546 0.68546 0.68547 0.68546 0.68547 0.68546 0.68546 0.68547 0.68546 0.68546 0.68547 0.68546 0.68547 0.68546 0.68546 0.68547 0.68546 0.68546 0.68547 v -0.006 0 l -0.68547,-0.0084 -0.68546,-0.01722 -0.68546,-0.03143 -0.68547,-0.05113 -0.68546,-0.07363 -0.68546,-0.09278 -0.68547,-0.100175 -0.68546,-0.08857 -0.68547,-0.05614 -0.68546,-0.0089 -0.68546,0.04075 -0.68547,0.07944 -0.68546,0.09852 -0.68546,0.09714 -0.68547,0.08112 -0.68546,0.05893 -0.68547,0.03777 -0.68546,0.02154 -0.68546,0.01098 -0.68547,0.005 -0.68546,0.0021 -0.68546,7.66e-4 -0.68547,2.57e-4 -0.68546,7.7e-5 -0.68547,2.1e-5 -0.68546,6e-6 -0.68546,10e-7 h -0.68547 -0.68546 -0.68546 -0.68547 -0.68546 -0.68546 -0.68547 -0.68546 -0.68547 -0.68546 -0.68546 -0.68547 -0.68546 -0.68546 -0.68547 -0.68546 -0.68547 -0.68546 -0.68546 -0.68547 -0.68546 -0.68546 -0.68547 -0.68546 -0.68547 -0.68546 -0.68546 -0.68547 -0.68546 -0.68546 -0.68547 -0.68546 -0.68547 -0.68546 -0.68546 -0.68547 -0.68546 -0.68546 -0.68547 -0.68546 -0.68546 -0.68547 -0.68546 -0.68547 -0.68546 -0.68546 -0.68547 -0.68546 -0.68546 -0.68547 -0.68546 -0.68547 -0.68546 -0.68546 -0.68547 l -0.68546,-10e-7 -0.68546,-2e-6 -0.68547,-1e-5 -0.68546,-4e-5 -0.68547,-1.39e-4 -0.68546,-4.36e-4 -0.68546,-0.0012 -0.68547,-0.0032 -0.68546,-0.0074 -0.68546,-0.01532 -0.68547,-0.02852 -0.68546,-0.04736 -0.68546,-0.06972 -0.68547,-0.09003 -0.68546,-0.100094 -0.68547,-0.09215 -0.68546,-0.06316 -0.68546,-0.01778 -0.68547,0.03245 -0.68546,0.07378 -0.68546,0.09624 -0.68547,0.09727 -0.68546,0.08107 -0.68546,0.05481 -0.68547,0.0245 -0.68546,-0.0069 -0.68547,-0.03865 -0.68546,-0.0698 -0.68546,-0.09714 -0.68547,-0.115401 -0.68546,-0.119832 -0.68546,-0.10961 -0.68547,-0.08933 -0.68546,-0.06697 -0.68547,-0.04937 -0.68546,-0.03854 -0.68546,-0.03124 -0.68547,-0.02176 -0.68546,-0.0055 -0.68546,0.0191 -0.68547,0.0497 -0.68546,0.08056 -0.68547,0.103345 -0.68546,0.109476 -0.68546,0.09373 -0.68547,0.05761 -0.68546,0.01014 -0.68546,-0.03493 -0.685468,-0.06468 -0.685464,-0.07271 -0.685463,-0.06184 -0.685464,-0.04203 -0.685464,-0.02432 -0.685463,-0.01464 -0.685464,-0.0118 -0.685464,-0.0106 -0.685464,-0.0072 -0.685463,-0.0016 -0.685464,0.004 -0.685464,0.0093 -0.685463,0.01724 -0.685464,0.03032 -0.685464,0.0462 -0.685463,0.05579 -0.685464,0.04718 -0.685464,0.01298 -0.685464,-0.04337 -0.685463,-0.106396 -0.685464,-0.154095 -0.685464,-0.167939 -0.685463,-0.142943 -0.685464,-0.09206 -0.685464,-0.04159 -0.685464,-0.01962 -0.685463,-0.04423 -0.685464,-0.118479 -0.685464,-0.233449 -0.685463,-0.37469 -0.685464,-0.525324 -0.685464,-0.66374 -0.685464,-0.760478 -0.685463,-0.781764 -0.685464,-0.702684 -0.685464,-0.523996 -0.685463,-0.280455 -0.685464,-0.03194 -0.685464,0.159679 -0.685463,0.254561 -0.685464,0.246428 -0.685464,0.157378 -0.685464,0.02243 -0.685463,-0.126244 -0.685464,-0.268727 -0.685464,-0.398441 -0.685463,-0.516571 -0.685464,-0.623625 -0.685464,-0.714022 -0.685464,-0.779402 -0.685463,-0.821441 -0.685464,-0.867425 -0.685464,-0.977742 -0.685463,-1.239004 -0.685464,-1.747029 -0.685464,-2.592531 -0.685464,-3.863405 -0.685463,-5.671272 -0.685464,-8.197531 -0.685464,-11.730933 -0.685463,-16.633045 -0.685464,-23.143673 -0.685464,-30.98315 -0.685463,-38.87245 -0.685464,-44.31967 -0.685464,-44.10761 -0.685464,-35.62199 -0.685463,-18.51621 z"
               style="stroke:#c44e52" /></defs><g
             clip-path="url(#pb79e0ddfa8)"
             id="g554"><use
               xlink:href="#m8719c5d969"
               x="0"
               y="360"
               style="fill:#c44e52;fill-opacity:0.25;stroke:#c44e52"
               id="use552" /></g></g><g
           id="patch_3"><path
             d="M 53.37,326.74 V 12.96"
             style="fill:none;stroke:#ffffff;stroke-width:1.25;stroke-linecap:square;stroke-linejoin:miter"
             id="path557" /></g><g
           id="patch_4"><path
             d="M 53.37,326.74 H 347.04"
             style="fill:none;stroke:#ffffff;stroke-width:1.25;stroke-linecap:square;stroke-linejoin:miter"
             id="path560" /></g></g></g><g
       id="figure_1-3"
       transform="matrix(0.35277778,0,0,0.35277778,92.642271,77.141955)"><g
         id="patch_1-6" /><g
         id="axes_1-7"><g
           id="patch_2-5" /><g
           id="matplotlib.axis_2-7"><g
             id="ytick_1-8"><g
               id="line2d_7-4"><path
                 d="M 56.79,326.74 H 347.04"
                 clip-path="url(#p50c9cfd83f)"
                 style="fill:none;stroke:#ffffff;stroke-linecap:round"
                 id="path985" /></g></g><g
             id="text_14-5"><!-- Densité [-] --><g
               style="fill:#262626"
               transform="matrix(0,-0.12,-0.12,0,23.300937,201.55437)"
               id="g1093"><defs
                 id="defs1069"><path
                   id="path1322"
                   d="M 1259,4147 V 519 h 763 q 966,0 1414,437 448,438 448,1382 0,937 -448,1373 -448,436 -1414,436 z m -631,519 h 1297 q 1356,0 1990,-564 635,-564 635,-1764 Q 4550,1131 3912,565 3275,0 1925,0 H 628 Z"
                   transform="scale(0.015625)" /><path
                   id="path1324"
                   d="M 3597,1894 V 1613 H 953 q 38,-594 358,-905 320,-311 892,-311 331,0 642,81 311,81 618,244 V 178 Q 3153,47 2828,-22 2503,-91 2169,-91 1331,-91 842,396 353,884 353,1716 q 0,859 464,1363 464,505 1252,505 706,0 1117,-455 411,-454 411,-1235 z m -575,169 q -6,471 -264,752 -258,282 -683,282 -481,0 -770,-272 -289,-272 -333,-766 z"
                   transform="scale(0.015625)" /><path
                   id="path1326"
                   d="M 3513,2113 V 0 h -575 v 2094 q 0,497 -194,743 -194,247 -581,247 -466,0 -735,-297 -269,-296 -269,-809 V 0 H 581 v 3500 h 578 v -544 q 207,316 486,472 280,156 646,156 603,0 912,-373 310,-373 310,-1098 z"
                   transform="scale(0.015625)" /></defs><use
                 xlink:href="#DejaVuSans-44-6"
                 id="use1071" /><use
                 xlink:href="#DejaVuSans-65-9"
                 x="77.001953"
                 id="use1073" /><use
                 xlink:href="#DejaVuSans-6e-3"
                 x="138.52539"
                 id="use1075" /><use
                 xlink:href="#DejaVuSans-73-9"
                 x="201.9043"
                 id="use1077" /><use
                 xlink:href="#DejaVuSans-69-3"
                 x="254.00391"
                 id="use1079" /><use
                 xlink:href="#DejaVuSans-74-1"
                 x="281.78711"
                 id="use1081" /><use
                 xlink:href="#DejaVuSans-e9-2"
                 x="320.99609"
                 id="use1083" /><use
                 xlink:href="#DejaVuSans-20-3"
                 x="382.51953"
                 id="use1085" /><use
                 xlink:href="#DejaVuSans-5b-1"
                 x="414.30664"
                 id="use1087" /><use
                 xlink:href="#DejaVuSans-2d-9"
                 x="453.32031"
                 id="use1089" /><use
                 xlink:href="#DejaVuSans-5d-4"
                 x="489.4043"
                 id="use1091" /></g></g></g><g
           id="PolyCollection_1-7"><defs
             id="defs1098"><path
               id="path1343"
               d="M 99.158609,-33.512684 V -33.26 h 1.245631 1.24564 1.24563 1.24564 1.24564 1.24563 1.24564 1.24563 1.24564 1.24563 1.24564 1.24563 1.24564 1.24563 1.24564 1.24563 1.24564 1.24563 1.24564 1.24563 1.24564 1.24563 1.24564 1.24563 1.24564 1.24563 1.24564 1.24563 1.24564 1.24563 1.24564 1.24563 1.24564 1.24563 1.24564 1.24563 1.24564 1.24563 1.24564 1.24563 1.24564 1.24564 1.24563 1.24563 1.24564 1.24564 1.24563 1.24563 1.24564 1.24564 1.24563 1.24564 1.24563 1.24564 1.24563 1.24564 1.24563 1.24564 1.24563 1.24564 1.24563 1.24564 1.24563 1.24564 1.24563 1.24564 1.24563 1.24564 1.24563 1.24564 1.24563 1.24564 1.24563 1.24564 1.24563 1.24564 1.24563 1.24564 1.24563 1.24564 1.24563 1.24564 1.24563 1.24564 1.24563 1.24564 1.24563 1.24564 1.24564 1.24563 1.24564 1.24563 1.24564 1.24563 1.24564 1.24563 1.24564 1.24563 1.24564 1.24563 1.24564 1.24563 1.24564 1.24563 1.24564 1.24563 1.24564 1.24563 1.24564 1.24563 1.24564 1.24563 1.24564 1.24563 1.24564 1.24563 1.24564 1.24563 1.24564 1.24563 1.24564 1.24563 1.24564 1.24563 1.24564 1.24563 1.24564 1.24564 1.24563 1.24564 1.24563 1.24564 1.24563 1.24564 1.24563 1.24564 1.24563 1.24564 1.24563 1.24564 1.24563 1.24564 1.24563 1.24564 1.24563 1.24564 1.24563 1.24564 1.24563 1.24564 1.24563 1.24564 1.24563 1.24564 1.24563 1.24564 1.24563 1.24564 1.24563 1.24564 1.24564 1.24563 1.24563 1.24564 1.24564 1.24563 1.24564 1.24563 1.24564 1.24563 1.24564 1.24563 1.24564 1.24563 1.24564 1.24563 1.24564 1.24563 1.24564 1.24563 1.24564 1.24563 1.24564 1.24563 1.24564 1.24563 1.24564 1.24563 1.24564 1.24563 1.24564 1.24563 1.24564 1.24563 1.24564 1.24563 1.24564 1.24564 1.24563 v -128.59489 0 l -1.24563,-7.05061 -1.24564,-7.13763 -1.24564,-7.20272 -1.24563,-7.24506 -1.24564,-7.26409 -1.24563,-7.25943 -1.24564,-7.23087 -1.24563,-7.17847 -1.24564,-7.10242 -1.24563,-7.00318 -1.24564,-6.88133 -1.24563,-6.73769 -1.24564,-6.5732 -1.24563,-6.38897 -1.24564,-6.18623 -1.24563,-5.96633 -1.24564,-5.7307 -1.24563,-5.48085 -1.24564,-5.21833 -1.24563,-4.9447 -1.24564,-4.66158 -1.24563,-4.37049 -1.24564,-4.07301 -1.24563,-3.7706 -1.24564,-3.46471 -1.24563,-3.15671 -1.24564,-2.84786 -1.24563,-2.53937 -1.24564,-2.23234 -1.24563,-1.9278 -1.24564,-1.62666 -1.24563,-1.32976 -1.24564,-1.03785 -1.24563,-0.75161 -1.24564,-0.47162 -1.24564,-0.19842 -1.24563,0.0675 -1.24563,0.32579 -1.24564,0.57603 -1.24564,0.81789 -1.24563,1.05111 -1.24564,1.27542 -1.24563,1.49059 -1.24564,1.69641 -1.24563,1.89272 -1.24564,2.07934 -1.24563,2.25617 -1.24564,2.4231 -1.24563,2.58003 -1.24564,2.72695 -1.24563,2.86386 -1.24564,2.99075 -1.24563,3.10773 -1.24564,3.21489 -1.24563,3.31239 -1.24564,3.40043 -1.24563,3.47925 -1.24564,3.54914 -1.24563,3.61044 -1.24564,3.66349 -1.24563,3.70872 -1.24564,3.74655 -1.24563,3.77745 -1.24564,3.80187 -1.24563,3.82032 -1.24564,3.83327 -1.24563,3.84122 -1.24564,3.84463 -1.24563,3.84395 -1.24564,3.8396 -1.24563,3.83196 -1.24564,3.82139 -1.24564,3.80818 -1.24563,3.79257 -1.24564,3.77475 -1.24563,3.75488 -1.24564,3.733 -1.24563,3.70917 -1.24564,3.68334 -1.24563,3.65543 -1.24564,3.62533 -1.24563,3.59286 -1.24564,3.55783 -1.24563,3.52002 -1.24564,3.47921 -1.24563,3.43514 -1.24564,3.3876 -1.24563,3.33635 -1.24564,3.28121 -1.24563,3.22202 -1.24564,3.15866 -1.24563,3.09105 -1.24564,3.01922 -1.24563,2.94319 -1.24564,2.8631 -1.24563,2.77915 -1.24564,2.69161 -1.24563,2.60081 -1.24564,2.50718 -1.24563,2.4112 -1.24564,2.31341 -1.24563,2.2144 -1.24564,2.11482 -1.24563,2.01538 -1.24564,1.91676 -1.24563,1.81969 -1.24564,1.72494 -1.24563,1.63321 -1.24564,1.54519 -1.24563,1.46159 -1.24564,1.38303 -1.24564,1.31009 -1.24563,1.24329 -1.24564,1.18309 -1.24563,1.12985 -1.24564,1.08385 -1.24563,1.0453 -1.24564,1.0143 -1.24563,0.99088 -1.24564,0.97496 -1.24563,0.96637 -1.24564,0.96489 -1.24563,0.97016 -1.24564,0.98183 -1.24563,0.99939 -1.24564,1.02236 -1.24563,1.05014 -1.24564,1.08216 -1.24563,1.11775 -1.24564,1.15628 -1.24563,1.197058 -1.24564,1.239429 -1.24563,1.282728 -1.24564,1.326304 -1.24563,1.369532 -1.24564,1.411812 -1.24563,1.452579 -1.24564,1.491309 -1.24563,1.527519 -1.24564,1.560772 -1.24563,1.590681 -1.24564,1.616907 -1.24563,1.639166 -1.24564,1.657223 -1.24563,1.670893 -1.24564,1.680043 -1.24563,1.68459 -1.24564,1.684494 -1.24563,1.679765 -1.24564,1.670452 -1.24564,1.656646 -1.24563,1.638473 -1.24563,1.616094 -1.24564,1.589703 -1.24564,1.559519 -1.24563,1.525784 -1.24563,1.488766 -1.24564,1.448745 -1.24564,1.40602 -1.24563,1.360896 -1.24564,1.31369 -1.24563,1.264722 -1.24564,1.214309 -1.24563,1.162773 -1.24564,1.110425 -1.24563,1.057574 -1.24564,1.004512 -1.24563,0.951527 -1.24564,0.898883 -1.24563,0.846837 -1.24564,0.795619 -1.24563,0.745447 -1.24564,0.696514 -1.24563,0.648995 -1.24564,0.603039 -1.24563,0.558778 -1.24564,0.51632 -1.24563,0.475752 -1.24564,0.437137 -1.24563,0.400526 -1.24564,0.365942 -1.24563,0.333396 -1.24564,0.30288 -1.24563,0.274374 -1.24564,0.247839 -1.24563,0.22323 -1.24564,0.200485 -1.24563,0.17954 -1.24564,0.16032 -1.24563,0.142742 -1.24564,0.126726 -1.24563,0.112178 -1.24564,0.09901 -1.24563,0.08714 -1.24564,0.07647 -1.24564,0.0669 -1.24563,0.05837 -1.24564,0.05077 z"
               style="stroke:#55a868" /></defs><g
             clip-path="url(#p50c9cfd83f)"
             id="g1102"><use
               xlink:href="#md961f70128"
               x="0"
               y="360"
               style="fill:#55a868;fill-opacity:0.25;stroke:#55a868"
               id="use1100" /></g></g><g
           id="patch_3-4"><path
             d="M 56.79,326.74 V 12.96"
             style="fill:none;stroke:#ffffff;stroke-width:1.25;stroke-linecap:square;stroke-linejoin:miter"
             id="path1105" /></g><g
           id="patch_4-5"><path
             d="M 56.79,326.74 H 347.04"
             style="fill:none;stroke:#ffffff;stroke-width:1.25;stroke-linecap:square;stroke-linejoin:miter"
             id="path1108" /></g></g></g></g></svg>
