<?xml version="1.0" encoding="utf-8" standalone="no"?>
<!DOCTYPE svg PUBLIC "-//W3C//DTD SVG 1.1//EN"
  "http://www.w3.org/Graphics/SVG/1.1/DTD/svg11.dtd">
<svg xmlns:xlink="http://www.w3.org/1999/xlink" width="360pt" height="360pt" viewBox="0 0 360 360" xmlns="http://www.w3.org/2000/svg" version="1.1">
 <metadata>
  <rdf:RDF xmlns:dc="http://purl.org/dc/elements/1.1/" xmlns:cc="http://creativecommons.org/ns#" xmlns:rdf="http://www.w3.org/1999/02/22-rdf-syntax-ns#">
   <cc:Work>
    <dc:type rdf:resource="http://purl.org/dc/dcmitype/StillImage"/>
    <dc:date>2023-03-19T07:21:51.723789</dc:date>
    <dc:format>image/svg+xml</dc:format>
    <dc:creator>
     <cc:Agent>
      <dc:title>Matplotlib v3.6.3, https://matplotlib.org/</dc:title>
     </cc:Agent>
    </dc:creator>
   </cc:Work>
  </rdf:RDF>
 </metadata>
 <defs>
  <style type="text/css">*{stroke-linejoin: round; stroke-linecap: butt}</style>
 </defs>
 <g id="figure_1">
  <g id="patch_1">
   <path d="M 0 360 
L 360 360 
L 360 0 
L 0 0 
z
" style="fill: #ffffff"/>
  </g>
  <g id="axes_1">
   <g id="patch_2">
    <path d="M 56.88 326.74 
L 347.04 326.74 
L 347.04 14.241036 
L 56.88 14.241036 
z
" style="fill: #eaeaf2"/>
   </g>
   <g id="matplotlib.axis_1">
    <g id="xtick_1">
     <g id="line2d_1">
      <path d="M 56.88 326.74 
L 56.88 14.241036 
" clip-path="url(#p75800d8875)" style="fill: none; stroke: #ffffff; stroke-linecap: round"/>
     </g>
     <g id="text_1">
      <!-- 0.0 -->
      <g style="fill: #262626" transform="translate(48.133281 344.598281) scale(0.11 -0.11)">
       <defs>
        <path id="DejaVuSans-30" d="M 2034 4250 
Q 1547 4250 1301 3770 
Q 1056 3291 1056 2328 
Q 1056 1369 1301 889 
Q 1547 409 2034 409 
Q 2525 409 2770 889 
Q 3016 1369 3016 2328 
Q 3016 3291 2770 3770 
Q 2525 4250 2034 4250 
z
M 2034 4750 
Q 2819 4750 3233 4129 
Q 3647 3509 3647 2328 
Q 3647 1150 3233 529 
Q 2819 -91 2034 -91 
Q 1250 -91 836 529 
Q 422 1150 422 2328 
Q 422 3509 836 4129 
Q 1250 4750 2034 4750 
z
" transform="scale(0.015625)"/>
        <path id="DejaVuSans-2e" d="M 684 794 
L 1344 794 
L 1344 0 
L 684 0 
L 684 794 
z
" transform="scale(0.015625)"/>
       </defs>
       <use xlink:href="#DejaVuSans-30"/>
       <use xlink:href="#DejaVuSans-2e" x="63.623047"/>
       <use xlink:href="#DejaVuSans-30" x="95.410156"/>
      </g>
     </g>
    </g>
    <g id="xtick_2">
     <g id="line2d_2">
      <path d="M 114.912 326.74 
L 114.912 14.241036 
" clip-path="url(#p75800d8875)" style="fill: none; stroke: #ffffff; stroke-linecap: round"/>
     </g>
     <g id="text_2">
      <!-- 0.2 -->
      <g style="fill: #262626" transform="translate(106.165281 344.598281) scale(0.11 -0.11)">
       <defs>
        <path id="DejaVuSans-32" d="M 1228 531 
L 3431 531 
L 3431 0 
L 469 0 
L 469 531 
Q 828 903 1448 1529 
Q 2069 2156 2228 2338 
Q 2531 2678 2651 2914 
Q 2772 3150 2772 3378 
Q 2772 3750 2511 3984 
Q 2250 4219 1831 4219 
Q 1534 4219 1204 4116 
Q 875 4013 500 3803 
L 500 4441 
Q 881 4594 1212 4672 
Q 1544 4750 1819 4750 
Q 2544 4750 2975 4387 
Q 3406 4025 3406 3419 
Q 3406 3131 3298 2873 
Q 3191 2616 2906 2266 
Q 2828 2175 2409 1742 
Q 1991 1309 1228 531 
z
" transform="scale(0.015625)"/>
       </defs>
       <use xlink:href="#DejaVuSans-30"/>
       <use xlink:href="#DejaVuSans-2e" x="63.623047"/>
       <use xlink:href="#DejaVuSans-32" x="95.410156"/>
      </g>
     </g>
    </g>
    <g id="xtick_3">
     <g id="line2d_3">
      <path d="M 172.944 326.74 
L 172.944 14.241036 
" clip-path="url(#p75800d8875)" style="fill: none; stroke: #ffffff; stroke-linecap: round"/>
     </g>
     <g id="text_3">
      <!-- 0.4 -->
      <g style="fill: #262626" transform="translate(164.197281 344.598281) scale(0.11 -0.11)">
       <defs>
        <path id="DejaVuSans-34" d="M 2419 4116 
L 825 1625 
L 2419 1625 
L 2419 4116 
z
M 2253 4666 
L 3047 4666 
L 3047 1625 
L 3713 1625 
L 3713 1100 
L 3047 1100 
L 3047 0 
L 2419 0 
L 2419 1100 
L 313 1100 
L 313 1709 
L 2253 4666 
z
" transform="scale(0.015625)"/>
       </defs>
       <use xlink:href="#DejaVuSans-30"/>
       <use xlink:href="#DejaVuSans-2e" x="63.623047"/>
       <use xlink:href="#DejaVuSans-34" x="95.410156"/>
      </g>
     </g>
    </g>
    <g id="xtick_4">
     <g id="line2d_4">
      <path d="M 230.976 326.74 
L 230.976 14.241036 
" clip-path="url(#p75800d8875)" style="fill: none; stroke: #ffffff; stroke-linecap: round"/>
     </g>
     <g id="text_4">
      <!-- 0.6 -->
      <g style="fill: #262626" transform="translate(222.229281 344.598281) scale(0.11 -0.11)">
       <defs>
        <path id="DejaVuSans-36" d="M 2113 2584 
Q 1688 2584 1439 2293 
Q 1191 2003 1191 1497 
Q 1191 994 1439 701 
Q 1688 409 2113 409 
Q 2538 409 2786 701 
Q 3034 994 3034 1497 
Q 3034 2003 2786 2293 
Q 2538 2584 2113 2584 
z
M 3366 4563 
L 3366 3988 
Q 3128 4100 2886 4159 
Q 2644 4219 2406 4219 
Q 1781 4219 1451 3797 
Q 1122 3375 1075 2522 
Q 1259 2794 1537 2939 
Q 1816 3084 2150 3084 
Q 2853 3084 3261 2657 
Q 3669 2231 3669 1497 
Q 3669 778 3244 343 
Q 2819 -91 2113 -91 
Q 1303 -91 875 529 
Q 447 1150 447 2328 
Q 447 3434 972 4092 
Q 1497 4750 2381 4750 
Q 2619 4750 2861 4703 
Q 3103 4656 3366 4563 
z
" transform="scale(0.015625)"/>
       </defs>
       <use xlink:href="#DejaVuSans-30"/>
       <use xlink:href="#DejaVuSans-2e" x="63.623047"/>
       <use xlink:href="#DejaVuSans-36" x="95.410156"/>
      </g>
     </g>
    </g>
    <g id="xtick_5">
     <g id="line2d_5">
      <path d="M 289.008 326.74 
L 289.008 14.241036 
" clip-path="url(#p75800d8875)" style="fill: none; stroke: #ffffff; stroke-linecap: round"/>
     </g>
     <g id="text_5">
      <!-- 0.8 -->
      <g style="fill: #262626" transform="translate(280.261281 344.598281) scale(0.11 -0.11)">
       <defs>
        <path id="DejaVuSans-38" d="M 2034 2216 
Q 1584 2216 1326 1975 
Q 1069 1734 1069 1313 
Q 1069 891 1326 650 
Q 1584 409 2034 409 
Q 2484 409 2743 651 
Q 3003 894 3003 1313 
Q 3003 1734 2745 1975 
Q 2488 2216 2034 2216 
z
M 1403 2484 
Q 997 2584 770 2862 
Q 544 3141 544 3541 
Q 544 4100 942 4425 
Q 1341 4750 2034 4750 
Q 2731 4750 3128 4425 
Q 3525 4100 3525 3541 
Q 3525 3141 3298 2862 
Q 3072 2584 2669 2484 
Q 3125 2378 3379 2068 
Q 3634 1759 3634 1313 
Q 3634 634 3220 271 
Q 2806 -91 2034 -91 
Q 1263 -91 848 271 
Q 434 634 434 1313 
Q 434 1759 690 2068 
Q 947 2378 1403 2484 
z
M 1172 3481 
Q 1172 3119 1398 2916 
Q 1625 2713 2034 2713 
Q 2441 2713 2670 2916 
Q 2900 3119 2900 3481 
Q 2900 3844 2670 4047 
Q 2441 4250 2034 4250 
Q 1625 4250 1398 4047 
Q 1172 3844 1172 3481 
z
" transform="scale(0.015625)"/>
       </defs>
       <use xlink:href="#DejaVuSans-30"/>
       <use xlink:href="#DejaVuSans-2e" x="63.623047"/>
       <use xlink:href="#DejaVuSans-38" x="95.410156"/>
      </g>
     </g>
    </g>
    <g id="xtick_6">
     <g id="line2d_6">
      <path d="M 347.04 326.74 
L 347.04 14.241036 
" clip-path="url(#p75800d8875)" style="fill: none; stroke: #ffffff; stroke-linecap: round"/>
     </g>
     <g id="text_6">
      <!-- 1.0 -->
      <g style="fill: #262626" transform="translate(338.293281 344.598281) scale(0.11 -0.11)">
       <defs>
        <path id="DejaVuSans-31" d="M 794 531 
L 1825 531 
L 1825 4091 
L 703 3866 
L 703 4441 
L 1819 4666 
L 2450 4666 
L 2450 531 
L 3481 531 
L 3481 0 
L 794 0 
L 794 531 
z
" transform="scale(0.015625)"/>
       </defs>
       <use xlink:href="#DejaVuSans-31"/>
       <use xlink:href="#DejaVuSans-2e" x="63.623047"/>
       <use xlink:href="#DejaVuSans-30" x="95.410156"/>
      </g>
     </g>
    </g>
    <g id="text_7">
     <!-- Probabilités [-] -->
     <g style="fill: #262626" transform="translate(158.225625 360.004063) scale(0.12 -0.12)">
      <defs>
       <path id="DejaVuSans-50" d="M 1259 4147 
L 1259 2394 
L 2053 2394 
Q 2494 2394 2734 2622 
Q 2975 2850 2975 3272 
Q 2975 3691 2734 3919 
Q 2494 4147 2053 4147 
L 1259 4147 
z
M 628 4666 
L 2053 4666 
Q 2838 4666 3239 4311 
Q 3641 3956 3641 3272 
Q 3641 2581 3239 2228 
Q 2838 1875 2053 1875 
L 1259 1875 
L 1259 0 
L 628 0 
L 628 4666 
z
" transform="scale(0.015625)"/>
       <path id="DejaVuSans-72" d="M 2631 2963 
Q 2534 3019 2420 3045 
Q 2306 3072 2169 3072 
Q 1681 3072 1420 2755 
Q 1159 2438 1159 1844 
L 1159 0 
L 581 0 
L 581 3500 
L 1159 3500 
L 1159 2956 
Q 1341 3275 1631 3429 
Q 1922 3584 2338 3584 
Q 2397 3584 2469 3576 
Q 2541 3569 2628 3553 
L 2631 2963 
z
" transform="scale(0.015625)"/>
       <path id="DejaVuSans-6f" d="M 1959 3097 
Q 1497 3097 1228 2736 
Q 959 2375 959 1747 
Q 959 1119 1226 758 
Q 1494 397 1959 397 
Q 2419 397 2687 759 
Q 2956 1122 2956 1747 
Q 2956 2369 2687 2733 
Q 2419 3097 1959 3097 
z
M 1959 3584 
Q 2709 3584 3137 3096 
Q 3566 2609 3566 1747 
Q 3566 888 3137 398 
Q 2709 -91 1959 -91 
Q 1206 -91 779 398 
Q 353 888 353 1747 
Q 353 2609 779 3096 
Q 1206 3584 1959 3584 
z
" transform="scale(0.015625)"/>
       <path id="DejaVuSans-62" d="M 3116 1747 
Q 3116 2381 2855 2742 
Q 2594 3103 2138 3103 
Q 1681 3103 1420 2742 
Q 1159 2381 1159 1747 
Q 1159 1113 1420 752 
Q 1681 391 2138 391 
Q 2594 391 2855 752 
Q 3116 1113 3116 1747 
z
M 1159 2969 
Q 1341 3281 1617 3432 
Q 1894 3584 2278 3584 
Q 2916 3584 3314 3078 
Q 3713 2572 3713 1747 
Q 3713 922 3314 415 
Q 2916 -91 2278 -91 
Q 1894 -91 1617 61 
Q 1341 213 1159 525 
L 1159 0 
L 581 0 
L 581 4863 
L 1159 4863 
L 1159 2969 
z
" transform="scale(0.015625)"/>
       <path id="DejaVuSans-61" d="M 2194 1759 
Q 1497 1759 1228 1600 
Q 959 1441 959 1056 
Q 959 750 1161 570 
Q 1363 391 1709 391 
Q 2188 391 2477 730 
Q 2766 1069 2766 1631 
L 2766 1759 
L 2194 1759 
z
M 3341 1997 
L 3341 0 
L 2766 0 
L 2766 531 
Q 2569 213 2275 61 
Q 1981 -91 1556 -91 
Q 1019 -91 701 211 
Q 384 513 384 1019 
Q 384 1609 779 1909 
Q 1175 2209 1959 2209 
L 2766 2209 
L 2766 2266 
Q 2766 2663 2505 2880 
Q 2244 3097 1772 3097 
Q 1472 3097 1187 3025 
Q 903 2953 641 2809 
L 641 3341 
Q 956 3463 1253 3523 
Q 1550 3584 1831 3584 
Q 2591 3584 2966 3190 
Q 3341 2797 3341 1997 
z
" transform="scale(0.015625)"/>
       <path id="DejaVuSans-69" d="M 603 3500 
L 1178 3500 
L 1178 0 
L 603 0 
L 603 3500 
z
M 603 4863 
L 1178 4863 
L 1178 4134 
L 603 4134 
L 603 4863 
z
" transform="scale(0.015625)"/>
       <path id="DejaVuSans-6c" d="M 603 4863 
L 1178 4863 
L 1178 0 
L 603 0 
L 603 4863 
z
" transform="scale(0.015625)"/>
       <path id="DejaVuSans-74" d="M 1172 4494 
L 1172 3500 
L 2356 3500 
L 2356 3053 
L 1172 3053 
L 1172 1153 
Q 1172 725 1289 603 
Q 1406 481 1766 481 
L 2356 481 
L 2356 0 
L 1766 0 
Q 1100 0 847 248 
Q 594 497 594 1153 
L 594 3053 
L 172 3053 
L 172 3500 
L 594 3500 
L 594 4494 
L 1172 4494 
z
" transform="scale(0.015625)"/>
       <path id="DejaVuSans-e9" d="M 3597 1894 
L 3597 1613 
L 953 1613 
Q 991 1019 1311 708 
Q 1631 397 2203 397 
Q 2534 397 2845 478 
Q 3156 559 3463 722 
L 3463 178 
Q 3153 47 2828 -22 
Q 2503 -91 2169 -91 
Q 1331 -91 842 396 
Q 353 884 353 1716 
Q 353 2575 817 3079 
Q 1281 3584 2069 3584 
Q 2775 3584 3186 3129 
Q 3597 2675 3597 1894 
z
M 3022 2063 
Q 3016 2534 2758 2815 
Q 2500 3097 2075 3097 
Q 1594 3097 1305 2825 
Q 1016 2553 972 2059 
L 3022 2063 
z
M 2466 5119 
L 3088 5119 
L 2070 3944 
L 1591 3944 
L 2466 5119 
z
" transform="scale(0.015625)"/>
       <path id="DejaVuSans-73" d="M 2834 3397 
L 2834 2853 
Q 2591 2978 2328 3040 
Q 2066 3103 1784 3103 
Q 1356 3103 1142 2972 
Q 928 2841 928 2578 
Q 928 2378 1081 2264 
Q 1234 2150 1697 2047 
L 1894 2003 
Q 2506 1872 2764 1633 
Q 3022 1394 3022 966 
Q 3022 478 2636 193 
Q 2250 -91 1575 -91 
Q 1294 -91 989 -36 
Q 684 19 347 128 
L 347 722 
Q 666 556 975 473 
Q 1284 391 1588 391 
Q 1994 391 2212 530 
Q 2431 669 2431 922 
Q 2431 1156 2273 1281 
Q 2116 1406 1581 1522 
L 1381 1569 
Q 847 1681 609 1914 
Q 372 2147 372 2553 
Q 372 3047 722 3315 
Q 1072 3584 1716 3584 
Q 2034 3584 2315 3537 
Q 2597 3491 2834 3397 
z
" transform="scale(0.015625)"/>
       <path id="DejaVuSans-20" transform="scale(0.015625)"/>
       <path id="DejaVuSans-5b" d="M 550 4863 
L 1875 4863 
L 1875 4416 
L 1125 4416 
L 1125 -397 
L 1875 -397 
L 1875 -844 
L 550 -844 
L 550 4863 
z
" transform="scale(0.015625)"/>
       <path id="DejaVuSans-2d" d="M 313 2009 
L 1997 2009 
L 1997 1497 
L 313 1497 
L 313 2009 
z
" transform="scale(0.015625)"/>
       <path id="DejaVuSans-5d" d="M 1947 4863 
L 1947 -844 
L 622 -844 
L 622 -397 
L 1369 -397 
L 1369 4416 
L 622 4416 
L 622 4863 
L 1947 4863 
z
" transform="scale(0.015625)"/>
      </defs>
      <use xlink:href="#DejaVuSans-50"/>
      <use xlink:href="#DejaVuSans-72" x="58.552734"/>
      <use xlink:href="#DejaVuSans-6f" x="97.416016"/>
      <use xlink:href="#DejaVuSans-62" x="158.597656"/>
      <use xlink:href="#DejaVuSans-61" x="222.074219"/>
      <use xlink:href="#DejaVuSans-62" x="283.353516"/>
      <use xlink:href="#DejaVuSans-69" x="346.830078"/>
      <use xlink:href="#DejaVuSans-6c" x="374.613281"/>
      <use xlink:href="#DejaVuSans-69" x="402.396484"/>
      <use xlink:href="#DejaVuSans-74" x="430.179688"/>
      <use xlink:href="#DejaVuSans-e9" x="469.388672"/>
      <use xlink:href="#DejaVuSans-73" x="530.912109"/>
      <use xlink:href="#DejaVuSans-20" x="583.011719"/>
      <use xlink:href="#DejaVuSans-5b" x="614.798828"/>
      <use xlink:href="#DejaVuSans-2d" x="653.8125"/>
      <use xlink:href="#DejaVuSans-5d" x="689.896484"/>
     </g>
    </g>
   </g>
   <g id="matplotlib.axis_2">
    <g id="ytick_1">
     <g id="line2d_7">
      <path d="M 56.88 326.74 
L 347.04 326.74 
" clip-path="url(#p75800d8875)" style="fill: none; stroke: #ffffff; stroke-linecap: round"/>
     </g>
     <g id="text_8">
      <!-- 0.0 -->
      <g style="fill: #262626" transform="translate(29.886563 330.919141) scale(0.11 -0.11)">
       <use xlink:href="#DejaVuSans-30"/>
       <use xlink:href="#DejaVuSans-2e" x="63.623047"/>
       <use xlink:href="#DejaVuSans-30" x="95.410156"/>
      </g>
     </g>
    </g>
    <g id="ytick_2">
     <g id="line2d_8">
      <path d="M 56.88 282.535692 
L 347.04 282.535692 
" clip-path="url(#p75800d8875)" style="fill: none; stroke: #ffffff; stroke-linecap: round"/>
     </g>
     <g id="text_9">
      <!-- 0.5 -->
      <g style="fill: #262626" transform="translate(29.886563 286.714833) scale(0.11 -0.11)">
       <defs>
        <path id="DejaVuSans-35" d="M 691 4666 
L 3169 4666 
L 3169 4134 
L 1269 4134 
L 1269 2991 
Q 1406 3038 1543 3061 
Q 1681 3084 1819 3084 
Q 2600 3084 3056 2656 
Q 3513 2228 3513 1497 
Q 3513 744 3044 326 
Q 2575 -91 1722 -91 
Q 1428 -91 1123 -41 
Q 819 9 494 109 
L 494 744 
Q 775 591 1075 516 
Q 1375 441 1709 441 
Q 2250 441 2565 725 
Q 2881 1009 2881 1497 
Q 2881 1984 2565 2268 
Q 2250 2553 1709 2553 
Q 1456 2553 1204 2497 
Q 953 2441 691 2322 
L 691 4666 
z
" transform="scale(0.015625)"/>
       </defs>
       <use xlink:href="#DejaVuSans-30"/>
       <use xlink:href="#DejaVuSans-2e" x="63.623047"/>
       <use xlink:href="#DejaVuSans-35" x="95.410156"/>
      </g>
     </g>
    </g>
    <g id="ytick_3">
     <g id="line2d_9">
      <path d="M 56.88 238.331384 
L 347.04 238.331384 
" clip-path="url(#p75800d8875)" style="fill: none; stroke: #ffffff; stroke-linecap: round"/>
     </g>
     <g id="text_10">
      <!-- 1.0 -->
      <g style="fill: #262626" transform="translate(29.886563 242.510524) scale(0.11 -0.11)">
       <use xlink:href="#DejaVuSans-31"/>
       <use xlink:href="#DejaVuSans-2e" x="63.623047"/>
       <use xlink:href="#DejaVuSans-30" x="95.410156"/>
      </g>
     </g>
    </g>
    <g id="ytick_4">
     <g id="line2d_10">
      <path d="M 56.88 194.127076 
L 347.04 194.127076 
" clip-path="url(#p75800d8875)" style="fill: none; stroke: #ffffff; stroke-linecap: round"/>
     </g>
     <g id="text_11">
      <!-- 1.5 -->
      <g style="fill: #262626" transform="translate(29.886563 198.306216) scale(0.11 -0.11)">
       <use xlink:href="#DejaVuSans-31"/>
       <use xlink:href="#DejaVuSans-2e" x="63.623047"/>
       <use xlink:href="#DejaVuSans-35" x="95.410156"/>
      </g>
     </g>
    </g>
    <g id="ytick_5">
     <g id="line2d_11">
      <path d="M 56.88 149.922768 
L 347.04 149.922768 
" clip-path="url(#p75800d8875)" style="fill: none; stroke: #ffffff; stroke-linecap: round"/>
     </g>
     <g id="text_12">
      <!-- 2.0 -->
      <g style="fill: #262626" transform="translate(29.886563 154.101908) scale(0.11 -0.11)">
       <use xlink:href="#DejaVuSans-32"/>
       <use xlink:href="#DejaVuSans-2e" x="63.623047"/>
       <use xlink:href="#DejaVuSans-30" x="95.410156"/>
      </g>
     </g>
    </g>
    <g id="ytick_6">
     <g id="line2d_12">
      <path d="M 56.88 105.718459 
L 347.04 105.718459 
" clip-path="url(#p75800d8875)" style="fill: none; stroke: #ffffff; stroke-linecap: round"/>
     </g>
     <g id="text_13">
      <!-- 2.5 -->
      <g style="fill: #262626" transform="translate(29.886563 109.8976) scale(0.11 -0.11)">
       <use xlink:href="#DejaVuSans-32"/>
       <use xlink:href="#DejaVuSans-2e" x="63.623047"/>
       <use xlink:href="#DejaVuSans-35" x="95.410156"/>
      </g>
     </g>
    </g>
    <g id="ytick_7">
     <g id="line2d_13">
      <path d="M 56.88 61.514151 
L 347.04 61.514151 
" clip-path="url(#p75800d8875)" style="fill: none; stroke: #ffffff; stroke-linecap: round"/>
     </g>
     <g id="text_14">
      <!-- 3.0 -->
      <g style="fill: #262626" transform="translate(29.886563 65.693292) scale(0.11 -0.11)">
       <defs>
        <path id="DejaVuSans-33" d="M 2597 2516 
Q 3050 2419 3304 2112 
Q 3559 1806 3559 1356 
Q 3559 666 3084 287 
Q 2609 -91 1734 -91 
Q 1441 -91 1130 -33 
Q 819 25 488 141 
L 488 750 
Q 750 597 1062 519 
Q 1375 441 1716 441 
Q 2309 441 2620 675 
Q 2931 909 2931 1356 
Q 2931 1769 2642 2001 
Q 2353 2234 1838 2234 
L 1294 2234 
L 1294 2753 
L 1863 2753 
Q 2328 2753 2575 2939 
Q 2822 3125 2822 3475 
Q 2822 3834 2567 4026 
Q 2313 4219 1838 4219 
Q 1578 4219 1281 4162 
Q 984 4106 628 3988 
L 628 4550 
Q 988 4650 1302 4700 
Q 1616 4750 1894 4750 
Q 2613 4750 3031 4423 
Q 3450 4097 3450 3541 
Q 3450 3153 3228 2886 
Q 3006 2619 2597 2516 
z
" transform="scale(0.015625)"/>
       </defs>
       <use xlink:href="#DejaVuSans-33"/>
       <use xlink:href="#DejaVuSans-2e" x="63.623047"/>
       <use xlink:href="#DejaVuSans-30" x="95.410156"/>
      </g>
     </g>
    </g>
    <g id="ytick_8">
     <g id="line2d_14">
      <path d="M 56.88 17.309843 
L 347.04 17.309843 
" clip-path="url(#p75800d8875)" style="fill: none; stroke: #ffffff; stroke-linecap: round"/>
     </g>
     <g id="text_15">
      <!-- 3.5 -->
      <g style="fill: #262626" transform="translate(29.886563 21.488984) scale(0.11 -0.11)">
       <use xlink:href="#DejaVuSans-33"/>
       <use xlink:href="#DejaVuSans-2e" x="63.623047"/>
       <use xlink:href="#DejaVuSans-35" x="95.410156"/>
      </g>
     </g>
    </g>
    <g id="text_16">
     <!-- Densité [-] -->
     <g style="fill: #262626" transform="translate(23.390937 202.194893) rotate(-90) scale(0.12 -0.12)">
      <defs>
       <path id="DejaVuSans-44" d="M 1259 4147 
L 1259 519 
L 2022 519 
Q 2988 519 3436 956 
Q 3884 1394 3884 2338 
Q 3884 3275 3436 3711 
Q 2988 4147 2022 4147 
L 1259 4147 
z
M 628 4666 
L 1925 4666 
Q 3281 4666 3915 4102 
Q 4550 3538 4550 2338 
Q 4550 1131 3912 565 
Q 3275 0 1925 0 
L 628 0 
L 628 4666 
z
" transform="scale(0.015625)"/>
       <path id="DejaVuSans-65" d="M 3597 1894 
L 3597 1613 
L 953 1613 
Q 991 1019 1311 708 
Q 1631 397 2203 397 
Q 2534 397 2845 478 
Q 3156 559 3463 722 
L 3463 178 
Q 3153 47 2828 -22 
Q 2503 -91 2169 -91 
Q 1331 -91 842 396 
Q 353 884 353 1716 
Q 353 2575 817 3079 
Q 1281 3584 2069 3584 
Q 2775 3584 3186 3129 
Q 3597 2675 3597 1894 
z
M 3022 2063 
Q 3016 2534 2758 2815 
Q 2500 3097 2075 3097 
Q 1594 3097 1305 2825 
Q 1016 2553 972 2059 
L 3022 2063 
z
" transform="scale(0.015625)"/>
       <path id="DejaVuSans-6e" d="M 3513 2113 
L 3513 0 
L 2938 0 
L 2938 2094 
Q 2938 2591 2744 2837 
Q 2550 3084 2163 3084 
Q 1697 3084 1428 2787 
Q 1159 2491 1159 1978 
L 1159 0 
L 581 0 
L 581 3500 
L 1159 3500 
L 1159 2956 
Q 1366 3272 1645 3428 
Q 1925 3584 2291 3584 
Q 2894 3584 3203 3211 
Q 3513 2838 3513 2113 
z
" transform="scale(0.015625)"/>
      </defs>
      <use xlink:href="#DejaVuSans-44"/>
      <use xlink:href="#DejaVuSans-65" x="77.001953"/>
      <use xlink:href="#DejaVuSans-6e" x="138.525391"/>
      <use xlink:href="#DejaVuSans-73" x="201.904297"/>
      <use xlink:href="#DejaVuSans-69" x="254.003906"/>
      <use xlink:href="#DejaVuSans-74" x="281.787109"/>
      <use xlink:href="#DejaVuSans-e9" x="320.996094"/>
      <use xlink:href="#DejaVuSans-20" x="382.519531"/>
      <use xlink:href="#DejaVuSans-5b" x="414.306641"/>
      <use xlink:href="#DejaVuSans-2d" x="453.320312"/>
      <use xlink:href="#DejaVuSans-5d" x="489.404297"/>
     </g>
    </g>
   </g>
   <g id="PolyCollection_1">
    <defs>
     <path id="mbbef990463" d="M 151.834422 -33.659642 
L 151.834422 -33.26 
L 152.815355 -33.26 
L 153.796288 -33.26 
L 154.77722 -33.26 
L 155.758153 -33.26 
L 156.739085 -33.26 
L 157.720018 -33.26 
L 158.70095 -33.26 
L 159.681883 -33.26 
L 160.662815 -33.26 
L 161.643748 -33.26 
L 162.624681 -33.26 
L 163.605613 -33.26 
L 164.586546 -33.26 
L 165.567478 -33.26 
L 166.548411 -33.26 
L 167.529343 -33.26 
L 168.510276 -33.26 
L 169.491208 -33.26 
L 170.472141 -33.26 
L 171.453073 -33.26 
L 172.434006 -33.26 
L 173.414939 -33.26 
L 174.395871 -33.26 
L 175.376804 -33.26 
L 176.357736 -33.26 
L 177.338669 -33.26 
L 178.319601 -33.26 
L 179.300534 -33.26 
L 180.281466 -33.26 
L 181.262399 -33.26 
L 182.243332 -33.26 
L 183.224264 -33.26 
L 184.205197 -33.26 
L 185.186129 -33.26 
L 186.167062 -33.26 
L 187.147994 -33.26 
L 188.128927 -33.26 
L 189.109859 -33.26 
L 190.090792 -33.26 
L 191.071724 -33.26 
L 192.052657 -33.26 
L 193.03359 -33.26 
L 194.014522 -33.26 
L 194.995455 -33.26 
L 195.976387 -33.26 
L 196.95732 -33.26 
L 197.938252 -33.26 
L 198.919185 -33.26 
L 199.900117 -33.26 
L 200.88105 -33.26 
L 201.861983 -33.26 
L 202.842915 -33.26 
L 203.823848 -33.26 
L 204.80478 -33.26 
L 205.785713 -33.26 
L 206.766645 -33.26 
L 207.747578 -33.26 
L 208.72851 -33.26 
L 209.709443 -33.26 
L 210.690376 -33.26 
L 211.671308 -33.26 
L 212.652241 -33.26 
L 213.633173 -33.26 
L 214.614106 -33.26 
L 215.595038 -33.26 
L 216.575971 -33.26 
L 217.556903 -33.26 
L 218.537836 -33.26 
L 219.518768 -33.26 
L 220.499701 -33.26 
L 221.480634 -33.26 
L 222.461566 -33.26 
L 223.442499 -33.26 
L 224.423431 -33.26 
L 225.404364 -33.26 
L 226.385296 -33.26 
L 227.366229 -33.26 
L 228.347161 -33.26 
L 229.328094 -33.26 
L 230.309027 -33.26 
L 231.289959 -33.26 
L 232.270892 -33.26 
L 233.251824 -33.26 
L 234.232757 -33.26 
L 235.213689 -33.26 
L 236.194622 -33.26 
L 237.175554 -33.26 
L 238.156487 -33.26 
L 239.137419 -33.26 
L 240.118352 -33.26 
L 241.099285 -33.26 
L 242.080217 -33.26 
L 243.06115 -33.26 
L 244.042082 -33.26 
L 245.023015 -33.26 
L 246.003947 -33.26 
L 246.98488 -33.26 
L 247.965812 -33.26 
L 248.946745 -33.26 
L 249.927678 -33.26 
L 250.90861 -33.26 
L 251.889543 -33.26 
L 252.870475 -33.26 
L 253.851408 -33.26 
L 254.83234 -33.26 
L 255.813273 -33.26 
L 256.794205 -33.26 
L 257.775138 -33.26 
L 258.75607 -33.26 
L 259.737003 -33.26 
L 260.717936 -33.26 
L 261.698868 -33.26 
L 262.679801 -33.26 
L 263.660733 -33.26 
L 264.641666 -33.26 
L 265.622598 -33.26 
L 266.603531 -33.26 
L 267.584463 -33.26 
L 268.565396 -33.26 
L 269.546329 -33.26 
L 270.527261 -33.26 
L 271.508194 -33.26 
L 272.489126 -33.26 
L 273.470059 -33.26 
L 274.450991 -33.26 
L 275.431924 -33.26 
L 276.412856 -33.26 
L 277.393789 -33.26 
L 278.374721 -33.26 
L 279.355654 -33.26 
L 280.336587 -33.26 
L 281.317519 -33.26 
L 282.298452 -33.26 
L 283.279384 -33.26 
L 284.260317 -33.26 
L 285.241249 -33.26 
L 286.222182 -33.26 
L 287.203114 -33.26 
L 288.184047 -33.26 
L 289.16498 -33.26 
L 290.145912 -33.26 
L 291.126845 -33.26 
L 292.107777 -33.26 
L 293.08871 -33.26 
L 294.069642 -33.26 
L 295.050575 -33.26 
L 296.031507 -33.26 
L 297.01244 -33.26 
L 297.993372 -33.26 
L 298.974305 -33.26 
L 299.955238 -33.26 
L 300.93617 -33.26 
L 301.917103 -33.26 
L 302.898035 -33.26 
L 303.878968 -33.26 
L 304.8599 -33.26 
L 305.840833 -33.26 
L 306.821765 -33.26 
L 307.802698 -33.26 
L 308.783631 -33.26 
L 309.764563 -33.26 
L 310.745496 -33.26 
L 311.726428 -33.26 
L 312.707361 -33.26 
L 313.688293 -33.26 
L 314.669226 -33.26 
L 315.650158 -33.26 
L 316.631091 -33.26 
L 317.612023 -33.26 
L 318.592956 -33.26 
L 319.573889 -33.26 
L 320.554821 -33.26 
L 321.535754 -33.26 
L 322.516686 -33.26 
L 323.497619 -33.26 
L 324.478551 -33.26 
L 325.459484 -33.26 
L 326.440416 -33.26 
L 327.421349 -33.26 
L 328.402282 -33.26 
L 329.383214 -33.26 
L 330.364147 -33.26 
L 331.345079 -33.26 
L 332.326012 -33.26 
L 333.306944 -33.26 
L 334.287877 -33.26 
L 335.268809 -33.26 
L 336.249742 -33.26 
L 337.230674 -33.26 
L 338.211607 -33.26 
L 339.19254 -33.26 
L 340.173472 -33.26 
L 341.154405 -33.26 
L 342.135337 -33.26 
L 343.11627 -33.26 
L 344.097202 -33.26 
L 345.078135 -33.26 
L 346.059067 -33.26 
L 347.04 -33.26 
L 347.04 -146.422335 
L 347.04 -146.422335 
L 346.059067 -151.772623 
L 345.078135 -157.114585 
L 344.097202 -162.430792 
L 343.11627 -167.704408 
L 342.135337 -172.919432 
L 341.154405 -178.060937 
L 340.173472 -183.115294 
L 339.19254 -188.070377 
L 338.211607 -192.91575 
L 337.230674 -197.642823 
L 336.249742 -202.244975 
L 335.268809 -206.71765 
L 334.287877 -211.058405 
L 333.306944 -215.266925 
L 332.326012 -219.34499 
L 331.345079 -223.296409 
L 330.364147 -227.126898 
L 329.383214 -230.843934 
L 328.402282 -234.456552 
L 327.421349 -237.975121 
L 326.440416 -241.41108 
L 325.459484 -244.776648 
L 324.478551 -248.084517 
L 323.497619 -251.34752 
L 322.516686 -254.578299 
L 321.535754 -257.788965 
L 320.554821 -260.99076 
L 319.573889 -264.193738 
L 318.592956 -267.406453 
L 317.612023 -270.635683 
L 316.631091 -273.886174 
L 315.650158 -277.160422 
L 314.669226 -280.458504 
L 313.688293 -283.777936 
L 312.707361 -287.113597 
L 311.726428 -290.457687 
L 310.745496 -293.799747 
L 309.764563 -297.126717 
L 308.783631 -300.423056 
L 307.802698 -303.670899 
L 306.821765 -306.850268 
L 305.840833 -309.939312 
L 304.8599 -312.914599 
L 303.878968 -315.751419 
L 302.898035 -318.424137 
L 301.917103 -320.906543 
L 300.93617 -323.172229 
L 299.955238 -325.194972 
L 298.974305 -326.94911 
L 297.993372 -328.40992 
L 297.01244 -329.55398 
L 296.031507 -330.359516 
L 295.050575 -330.806723 
L 294.069642 -330.878061 
L 293.08871 -330.558518 
L 292.107777 -329.835834 
L 291.126845 -328.700697 
L 290.145912 -327.146882 
L 289.16498 -325.171367 
L 288.184047 -322.774388 
L 287.203114 -319.959463 
L 286.222182 -316.73337 
L 285.241249 -313.106082 
L 284.260317 -309.090664 
L 283.279384 -304.703133 
L 282.298452 -299.962283 
L 281.317519 -294.889478 
L 280.336587 -289.508417 
L 279.355654 -283.844874 
L 278.374721 -277.926424 
L 277.393789 -271.78214 
L 276.412856 -265.442292 
L 275.431924 -258.938027 
L 274.450991 -252.301054 
L 273.470059 -245.563327 
L 272.489126 -238.756726 
L 271.508194 -231.912759 
L 270.527261 -225.06227 
L 269.546329 -218.235159 
L 268.565396 -211.460127 
L 267.584463 -204.764442 
L 266.603531 -198.173731 
L 265.622598 -191.711789 
L 264.641666 -185.400431 
L 263.660733 -179.25936 
L 262.679801 -173.306075 
L 261.698868 -167.555803 
L 260.717936 -162.021468 
L 259.737003 -156.71368 
L 258.75607 -151.640766 
L 257.775138 -146.808821 
L 256.794205 -142.22178 
L 255.813273 -137.881527 
L 254.83234 -133.78801 
L 253.851408 -129.93939 
L 252.870475 -126.332188 
L 251.889543 -122.961456 
L 250.90861 -119.820954 
L 249.927678 -116.90333 
L 248.946745 -114.200302 
L 247.965812 -111.702837 
L 246.98488 -109.401332 
L 246.003947 -107.285778 
L 245.023015 -105.345918 
L 244.042082 -103.571394 
L 243.06115 -101.951874 
L 242.080217 -100.477169 
L 241.099285 -99.137325 
L 240.118352 -97.922703 
L 239.137419 -96.824038 
L 238.156487 -95.832479 
L 237.175554 -94.939611 
L 236.194622 -94.137464 
L 235.213689 -93.418501 
L 234.232757 -92.775597 
L 233.251824 -92.202007 
L 232.270892 -91.691321 
L 231.289959 -91.237415 
L 230.309027 -90.834397 
L 229.328094 -90.476555 
L 228.347161 -90.158295 
L 227.366229 -89.874098 
L 226.385296 -89.618466 
L 225.404364 -89.385888 
L 224.423431 -89.170806 
L 223.442499 -88.967598 
L 222.461566 -88.770563 
L 221.480634 -88.573928 
L 220.499701 -88.371857 
L 219.518768 -88.158478 
L 218.537836 -87.927918 
L 217.556903 -87.674348 
L 216.575971 -87.392036 
L 215.595038 -87.075409 
L 214.614106 -86.719117 
L 213.633173 -86.318105 
L 212.652241 -85.867684 
L 211.671308 -85.363598 
L 210.690376 -84.802095 
L 209.709443 -84.179987 
L 208.72851 -83.494709 
L 207.747578 -82.744366 
L 206.766645 -81.927773 
L 205.785713 -81.04448 
L 204.80478 -80.094795 
L 203.823848 -79.079779 
L 202.842915 -78.001249 
L 201.861983 -76.861749 
L 200.88105 -75.66452 
L 199.900117 -74.413462 
L 198.919185 -73.113073 
L 197.938252 -71.768388 
L 196.95732 -70.384913 
L 195.976387 -68.968539 
L 194.995455 -67.52547 
L 194.014522 -66.062129 
L 193.03359 -64.585079 
L 192.052657 -63.100931 
L 191.071724 -61.616263 
L 190.090792 -60.13754 
L 189.109859 -58.671035 
L 188.128927 -57.22276 
L 187.147994 -55.798406 
L 186.167062 -54.403283 
L 185.186129 -53.042273 
L 184.205197 -51.719798 
L 183.224264 -50.439783 
L 182.243332 -49.205642 
L 181.262399 -48.020262 
L 180.281466 -46.886002 
L 179.300534 -45.804699 
L 178.319601 -44.777677 
L 177.338669 -43.805771 
L 176.357736 -42.889345 
L 175.376804 -42.028325 
L 174.395871 -41.222232 
L 173.414939 -40.470219 
L 172.434006 -39.771107 
L 171.453073 -39.123427 
L 170.472141 -38.52546 
L 169.491208 -37.975276 
L 168.510276 -37.470776 
L 167.529343 -37.009727 
L 166.548411 -36.5898 
L 165.567478 -36.208602 
L 164.586546 -35.863708 
L 163.605613 -35.55269 
L 162.624681 -35.273142 
L 161.643748 -35.0227 
L 160.662815 -34.799063 
L 159.681883 -34.600009 
L 158.70095 -34.423405 
L 157.720018 -34.267225 
L 156.739085 -34.129546 
L 155.758153 -34.008565 
L 154.77722 -33.902593 
L 153.796288 -33.810063 
L 152.815355 -33.729523 
L 151.834422 -33.659642 
z
" style="stroke: #55a868"/>
    </defs>
    <g clip-path="url(#p75800d8875)">
     <use xlink:href="#mbbef990463" x="0" y="360" style="fill: #55a868; fill-opacity: 0.25; stroke: #55a868"/>
    </g>
   </g>
   <g id="patch_3">
    <path d="M 56.88 326.74 
L 56.88 14.241036 
" style="fill: none; stroke: #ffffff; stroke-width: 1.25; stroke-linejoin: miter; stroke-linecap: square"/>
   </g>
   <g id="patch_4">
    <path d="M 56.88 326.74 
L 347.04 326.74 
" style="fill: none; stroke: #ffffff; stroke-width: 1.25; stroke-linejoin: miter; stroke-linecap: square"/>
   </g>
  </g>
 </g>
 <defs>
  <clipPath id="p75800d8875">
   <rect x="56.88" y="14.241036" width="290.16" height="312.498964"/>
  </clipPath>
 </defs>
</svg>
