<?xml version="1.0" encoding="utf-8" standalone="no"?>
<!DOCTYPE svg PUBLIC "-//W3C//DTD SVG 1.1//EN"
  "http://www.w3.org/Graphics/SVG/1.1/DTD/svg11.dtd">
<svg xmlns:xlink="http://www.w3.org/1999/xlink" width="360pt" height="360pt" viewBox="0 0 360 360" xmlns="http://www.w3.org/2000/svg" version="1.1">
 <metadata>
  <rdf:RDF xmlns:dc="http://purl.org/dc/elements/1.1/" xmlns:cc="http://creativecommons.org/ns#" xmlns:rdf="http://www.w3.org/1999/02/22-rdf-syntax-ns#">
   <cc:Work>
    <dc:type rdf:resource="http://purl.org/dc/dcmitype/StillImage"/>
    <dc:date>2023-03-19T07:21:52.027723</dc:date>
    <dc:format>image/svg+xml</dc:format>
    <dc:creator>
     <cc:Agent>
      <dc:title>Matplotlib v3.6.3, https://matplotlib.org/</dc:title>
     </cc:Agent>
    </dc:creator>
   </cc:Work>
  </rdf:RDF>
 </metadata>
 <defs>
  <style type="text/css">*{stroke-linejoin: round; stroke-linecap: butt}</style>
 </defs>
 <g id="figure_1">
  <g id="patch_1">
   <path d="M 0 360 
L 360 360 
L 360 0 
L 0 0 
z
" style="fill: #ffffff"/>
  </g>
  <g id="axes_1">
   <g id="patch_2">
    <path d="M 53.37 326.74 
L 347.04 326.74 
L 347.04 12.96 
L 53.37 12.96 
z
" style="fill: #eaeaf2"/>
   </g>
   <g id="matplotlib.axis_1">
    <g id="xtick_1">
     <g id="line2d_1">
      <path d="M 53.37 326.74 
L 53.37 12.96 
" clip-path="url(#p5222950fb2)" style="fill: none; stroke: #ffffff; stroke-linecap: round"/>
     </g>
     <g id="text_1">
      <!-- 0.0 -->
      <g style="fill: #262626" transform="translate(44.623281 344.598281) scale(0.11 -0.11)">
       <defs>
        <path id="DejaVuSans-30" d="M 2034 4250 
Q 1547 4250 1301 3770 
Q 1056 3291 1056 2328 
Q 1056 1369 1301 889 
Q 1547 409 2034 409 
Q 2525 409 2770 889 
Q 3016 1369 3016 2328 
Q 3016 3291 2770 3770 
Q 2525 4250 2034 4250 
z
M 2034 4750 
Q 2819 4750 3233 4129 
Q 3647 3509 3647 2328 
Q 3647 1150 3233 529 
Q 2819 -91 2034 -91 
Q 1250 -91 836 529 
Q 422 1150 422 2328 
Q 422 3509 836 4129 
Q 1250 4750 2034 4750 
z
" transform="scale(0.015625)"/>
        <path id="DejaVuSans-2e" d="M 684 794 
L 1344 794 
L 1344 0 
L 684 0 
L 684 794 
z
" transform="scale(0.015625)"/>
       </defs>
       <use xlink:href="#DejaVuSans-30"/>
       <use xlink:href="#DejaVuSans-2e" x="63.623047"/>
       <use xlink:href="#DejaVuSans-30" x="95.410156"/>
      </g>
     </g>
    </g>
    <g id="xtick_2">
     <g id="line2d_2">
      <path d="M 112.104 326.74 
L 112.104 12.96 
" clip-path="url(#p5222950fb2)" style="fill: none; stroke: #ffffff; stroke-linecap: round"/>
     </g>
     <g id="text_2">
      <!-- 0.2 -->
      <g style="fill: #262626" transform="translate(103.357281 344.598281) scale(0.11 -0.11)">
       <defs>
        <path id="DejaVuSans-32" d="M 1228 531 
L 3431 531 
L 3431 0 
L 469 0 
L 469 531 
Q 828 903 1448 1529 
Q 2069 2156 2228 2338 
Q 2531 2678 2651 2914 
Q 2772 3150 2772 3378 
Q 2772 3750 2511 3984 
Q 2250 4219 1831 4219 
Q 1534 4219 1204 4116 
Q 875 4013 500 3803 
L 500 4441 
Q 881 4594 1212 4672 
Q 1544 4750 1819 4750 
Q 2544 4750 2975 4387 
Q 3406 4025 3406 3419 
Q 3406 3131 3298 2873 
Q 3191 2616 2906 2266 
Q 2828 2175 2409 1742 
Q 1991 1309 1228 531 
z
" transform="scale(0.015625)"/>
       </defs>
       <use xlink:href="#DejaVuSans-30"/>
       <use xlink:href="#DejaVuSans-2e" x="63.623047"/>
       <use xlink:href="#DejaVuSans-32" x="95.410156"/>
      </g>
     </g>
    </g>
    <g id="xtick_3">
     <g id="line2d_3">
      <path d="M 170.838 326.74 
L 170.838 12.96 
" clip-path="url(#p5222950fb2)" style="fill: none; stroke: #ffffff; stroke-linecap: round"/>
     </g>
     <g id="text_3">
      <!-- 0.4 -->
      <g style="fill: #262626" transform="translate(162.091281 344.598281) scale(0.11 -0.11)">
       <defs>
        <path id="DejaVuSans-34" d="M 2419 4116 
L 825 1625 
L 2419 1625 
L 2419 4116 
z
M 2253 4666 
L 3047 4666 
L 3047 1625 
L 3713 1625 
L 3713 1100 
L 3047 1100 
L 3047 0 
L 2419 0 
L 2419 1100 
L 313 1100 
L 313 1709 
L 2253 4666 
z
" transform="scale(0.015625)"/>
       </defs>
       <use xlink:href="#DejaVuSans-30"/>
       <use xlink:href="#DejaVuSans-2e" x="63.623047"/>
       <use xlink:href="#DejaVuSans-34" x="95.410156"/>
      </g>
     </g>
    </g>
    <g id="xtick_4">
     <g id="line2d_4">
      <path d="M 229.572 326.74 
L 229.572 12.96 
" clip-path="url(#p5222950fb2)" style="fill: none; stroke: #ffffff; stroke-linecap: round"/>
     </g>
     <g id="text_4">
      <!-- 0.6 -->
      <g style="fill: #262626" transform="translate(220.825281 344.598281) scale(0.11 -0.11)">
       <defs>
        <path id="DejaVuSans-36" d="M 2113 2584 
Q 1688 2584 1439 2293 
Q 1191 2003 1191 1497 
Q 1191 994 1439 701 
Q 1688 409 2113 409 
Q 2538 409 2786 701 
Q 3034 994 3034 1497 
Q 3034 2003 2786 2293 
Q 2538 2584 2113 2584 
z
M 3366 4563 
L 3366 3988 
Q 3128 4100 2886 4159 
Q 2644 4219 2406 4219 
Q 1781 4219 1451 3797 
Q 1122 3375 1075 2522 
Q 1259 2794 1537 2939 
Q 1816 3084 2150 3084 
Q 2853 3084 3261 2657 
Q 3669 2231 3669 1497 
Q 3669 778 3244 343 
Q 2819 -91 2113 -91 
Q 1303 -91 875 529 
Q 447 1150 447 2328 
Q 447 3434 972 4092 
Q 1497 4750 2381 4750 
Q 2619 4750 2861 4703 
Q 3103 4656 3366 4563 
z
" transform="scale(0.015625)"/>
       </defs>
       <use xlink:href="#DejaVuSans-30"/>
       <use xlink:href="#DejaVuSans-2e" x="63.623047"/>
       <use xlink:href="#DejaVuSans-36" x="95.410156"/>
      </g>
     </g>
    </g>
    <g id="xtick_5">
     <g id="line2d_5">
      <path d="M 288.306 326.74 
L 288.306 12.96 
" clip-path="url(#p5222950fb2)" style="fill: none; stroke: #ffffff; stroke-linecap: round"/>
     </g>
     <g id="text_5">
      <!-- 0.8 -->
      <g style="fill: #262626" transform="translate(279.559281 344.598281) scale(0.11 -0.11)">
       <defs>
        <path id="DejaVuSans-38" d="M 2034 2216 
Q 1584 2216 1326 1975 
Q 1069 1734 1069 1313 
Q 1069 891 1326 650 
Q 1584 409 2034 409 
Q 2484 409 2743 651 
Q 3003 894 3003 1313 
Q 3003 1734 2745 1975 
Q 2488 2216 2034 2216 
z
M 1403 2484 
Q 997 2584 770 2862 
Q 544 3141 544 3541 
Q 544 4100 942 4425 
Q 1341 4750 2034 4750 
Q 2731 4750 3128 4425 
Q 3525 4100 3525 3541 
Q 3525 3141 3298 2862 
Q 3072 2584 2669 2484 
Q 3125 2378 3379 2068 
Q 3634 1759 3634 1313 
Q 3634 634 3220 271 
Q 2806 -91 2034 -91 
Q 1263 -91 848 271 
Q 434 634 434 1313 
Q 434 1759 690 2068 
Q 947 2378 1403 2484 
z
M 1172 3481 
Q 1172 3119 1398 2916 
Q 1625 2713 2034 2713 
Q 2441 2713 2670 2916 
Q 2900 3119 2900 3481 
Q 2900 3844 2670 4047 
Q 2441 4250 2034 4250 
Q 1625 4250 1398 4047 
Q 1172 3844 1172 3481 
z
" transform="scale(0.015625)"/>
       </defs>
       <use xlink:href="#DejaVuSans-30"/>
       <use xlink:href="#DejaVuSans-2e" x="63.623047"/>
       <use xlink:href="#DejaVuSans-38" x="95.410156"/>
      </g>
     </g>
    </g>
    <g id="xtick_6">
     <g id="line2d_6">
      <path d="M 347.04 326.74 
L 347.04 12.96 
" clip-path="url(#p5222950fb2)" style="fill: none; stroke: #ffffff; stroke-linecap: round"/>
     </g>
     <g id="text_6">
      <!-- 1.0 -->
      <g style="fill: #262626" transform="translate(338.293281 344.598281) scale(0.11 -0.11)">
       <defs>
        <path id="DejaVuSans-31" d="M 794 531 
L 1825 531 
L 1825 4091 
L 703 3866 
L 703 4441 
L 1819 4666 
L 2450 4666 
L 2450 531 
L 3481 531 
L 3481 0 
L 794 0 
L 794 531 
z
" transform="scale(0.015625)"/>
       </defs>
       <use xlink:href="#DejaVuSans-31"/>
       <use xlink:href="#DejaVuSans-2e" x="63.623047"/>
       <use xlink:href="#DejaVuSans-30" x="95.410156"/>
      </g>
     </g>
    </g>
    <g id="text_7">
     <!-- Probabilités [-] -->
     <g style="fill: #262626" transform="translate(156.470625 360.004063) scale(0.12 -0.12)">
      <defs>
       <path id="DejaVuSans-50" d="M 1259 4147 
L 1259 2394 
L 2053 2394 
Q 2494 2394 2734 2622 
Q 2975 2850 2975 3272 
Q 2975 3691 2734 3919 
Q 2494 4147 2053 4147 
L 1259 4147 
z
M 628 4666 
L 2053 4666 
Q 2838 4666 3239 4311 
Q 3641 3956 3641 3272 
Q 3641 2581 3239 2228 
Q 2838 1875 2053 1875 
L 1259 1875 
L 1259 0 
L 628 0 
L 628 4666 
z
" transform="scale(0.015625)"/>
       <path id="DejaVuSans-72" d="M 2631 2963 
Q 2534 3019 2420 3045 
Q 2306 3072 2169 3072 
Q 1681 3072 1420 2755 
Q 1159 2438 1159 1844 
L 1159 0 
L 581 0 
L 581 3500 
L 1159 3500 
L 1159 2956 
Q 1341 3275 1631 3429 
Q 1922 3584 2338 3584 
Q 2397 3584 2469 3576 
Q 2541 3569 2628 3553 
L 2631 2963 
z
" transform="scale(0.015625)"/>
       <path id="DejaVuSans-6f" d="M 1959 3097 
Q 1497 3097 1228 2736 
Q 959 2375 959 1747 
Q 959 1119 1226 758 
Q 1494 397 1959 397 
Q 2419 397 2687 759 
Q 2956 1122 2956 1747 
Q 2956 2369 2687 2733 
Q 2419 3097 1959 3097 
z
M 1959 3584 
Q 2709 3584 3137 3096 
Q 3566 2609 3566 1747 
Q 3566 888 3137 398 
Q 2709 -91 1959 -91 
Q 1206 -91 779 398 
Q 353 888 353 1747 
Q 353 2609 779 3096 
Q 1206 3584 1959 3584 
z
" transform="scale(0.015625)"/>
       <path id="DejaVuSans-62" d="M 3116 1747 
Q 3116 2381 2855 2742 
Q 2594 3103 2138 3103 
Q 1681 3103 1420 2742 
Q 1159 2381 1159 1747 
Q 1159 1113 1420 752 
Q 1681 391 2138 391 
Q 2594 391 2855 752 
Q 3116 1113 3116 1747 
z
M 1159 2969 
Q 1341 3281 1617 3432 
Q 1894 3584 2278 3584 
Q 2916 3584 3314 3078 
Q 3713 2572 3713 1747 
Q 3713 922 3314 415 
Q 2916 -91 2278 -91 
Q 1894 -91 1617 61 
Q 1341 213 1159 525 
L 1159 0 
L 581 0 
L 581 4863 
L 1159 4863 
L 1159 2969 
z
" transform="scale(0.015625)"/>
       <path id="DejaVuSans-61" d="M 2194 1759 
Q 1497 1759 1228 1600 
Q 959 1441 959 1056 
Q 959 750 1161 570 
Q 1363 391 1709 391 
Q 2188 391 2477 730 
Q 2766 1069 2766 1631 
L 2766 1759 
L 2194 1759 
z
M 3341 1997 
L 3341 0 
L 2766 0 
L 2766 531 
Q 2569 213 2275 61 
Q 1981 -91 1556 -91 
Q 1019 -91 701 211 
Q 384 513 384 1019 
Q 384 1609 779 1909 
Q 1175 2209 1959 2209 
L 2766 2209 
L 2766 2266 
Q 2766 2663 2505 2880 
Q 2244 3097 1772 3097 
Q 1472 3097 1187 3025 
Q 903 2953 641 2809 
L 641 3341 
Q 956 3463 1253 3523 
Q 1550 3584 1831 3584 
Q 2591 3584 2966 3190 
Q 3341 2797 3341 1997 
z
" transform="scale(0.015625)"/>
       <path id="DejaVuSans-69" d="M 603 3500 
L 1178 3500 
L 1178 0 
L 603 0 
L 603 3500 
z
M 603 4863 
L 1178 4863 
L 1178 4134 
L 603 4134 
L 603 4863 
z
" transform="scale(0.015625)"/>
       <path id="DejaVuSans-6c" d="M 603 4863 
L 1178 4863 
L 1178 0 
L 603 0 
L 603 4863 
z
" transform="scale(0.015625)"/>
       <path id="DejaVuSans-74" d="M 1172 4494 
L 1172 3500 
L 2356 3500 
L 2356 3053 
L 1172 3053 
L 1172 1153 
Q 1172 725 1289 603 
Q 1406 481 1766 481 
L 2356 481 
L 2356 0 
L 1766 0 
Q 1100 0 847 248 
Q 594 497 594 1153 
L 594 3053 
L 172 3053 
L 172 3500 
L 594 3500 
L 594 4494 
L 1172 4494 
z
" transform="scale(0.015625)"/>
       <path id="DejaVuSans-e9" d="M 3597 1894 
L 3597 1613 
L 953 1613 
Q 991 1019 1311 708 
Q 1631 397 2203 397 
Q 2534 397 2845 478 
Q 3156 559 3463 722 
L 3463 178 
Q 3153 47 2828 -22 
Q 2503 -91 2169 -91 
Q 1331 -91 842 396 
Q 353 884 353 1716 
Q 353 2575 817 3079 
Q 1281 3584 2069 3584 
Q 2775 3584 3186 3129 
Q 3597 2675 3597 1894 
z
M 3022 2063 
Q 3016 2534 2758 2815 
Q 2500 3097 2075 3097 
Q 1594 3097 1305 2825 
Q 1016 2553 972 2059 
L 3022 2063 
z
M 2466 5119 
L 3088 5119 
L 2070 3944 
L 1591 3944 
L 2466 5119 
z
" transform="scale(0.015625)"/>
       <path id="DejaVuSans-73" d="M 2834 3397 
L 2834 2853 
Q 2591 2978 2328 3040 
Q 2066 3103 1784 3103 
Q 1356 3103 1142 2972 
Q 928 2841 928 2578 
Q 928 2378 1081 2264 
Q 1234 2150 1697 2047 
L 1894 2003 
Q 2506 1872 2764 1633 
Q 3022 1394 3022 966 
Q 3022 478 2636 193 
Q 2250 -91 1575 -91 
Q 1294 -91 989 -36 
Q 684 19 347 128 
L 347 722 
Q 666 556 975 473 
Q 1284 391 1588 391 
Q 1994 391 2212 530 
Q 2431 669 2431 922 
Q 2431 1156 2273 1281 
Q 2116 1406 1581 1522 
L 1381 1569 
Q 847 1681 609 1914 
Q 372 2147 372 2553 
Q 372 3047 722 3315 
Q 1072 3584 1716 3584 
Q 2034 3584 2315 3537 
Q 2597 3491 2834 3397 
z
" transform="scale(0.015625)"/>
       <path id="DejaVuSans-20" transform="scale(0.015625)"/>
       <path id="DejaVuSans-5b" d="M 550 4863 
L 1875 4863 
L 1875 4416 
L 1125 4416 
L 1125 -397 
L 1875 -397 
L 1875 -844 
L 550 -844 
L 550 4863 
z
" transform="scale(0.015625)"/>
       <path id="DejaVuSans-2d" d="M 313 2009 
L 1997 2009 
L 1997 1497 
L 313 1497 
L 313 2009 
z
" transform="scale(0.015625)"/>
       <path id="DejaVuSans-5d" d="M 1947 4863 
L 1947 -844 
L 622 -844 
L 622 -397 
L 1369 -397 
L 1369 4416 
L 622 4416 
L 622 4863 
L 1947 4863 
z
" transform="scale(0.015625)"/>
      </defs>
      <use xlink:href="#DejaVuSans-50"/>
      <use xlink:href="#DejaVuSans-72" x="58.552734"/>
      <use xlink:href="#DejaVuSans-6f" x="97.416016"/>
      <use xlink:href="#DejaVuSans-62" x="158.597656"/>
      <use xlink:href="#DejaVuSans-61" x="222.074219"/>
      <use xlink:href="#DejaVuSans-62" x="283.353516"/>
      <use xlink:href="#DejaVuSans-69" x="346.830078"/>
      <use xlink:href="#DejaVuSans-6c" x="374.613281"/>
      <use xlink:href="#DejaVuSans-69" x="402.396484"/>
      <use xlink:href="#DejaVuSans-74" x="430.179688"/>
      <use xlink:href="#DejaVuSans-e9" x="469.388672"/>
      <use xlink:href="#DejaVuSans-73" x="530.912109"/>
      <use xlink:href="#DejaVuSans-20" x="583.011719"/>
      <use xlink:href="#DejaVuSans-5b" x="614.798828"/>
      <use xlink:href="#DejaVuSans-2d" x="653.8125"/>
      <use xlink:href="#DejaVuSans-5d" x="689.896484"/>
     </g>
    </g>
   </g>
   <g id="matplotlib.axis_2">
    <g id="ytick_1">
     <g id="line2d_7">
      <path d="M 53.37 326.74 
L 347.04 326.74 
" clip-path="url(#p5222950fb2)" style="fill: none; stroke: #ffffff; stroke-linecap: round"/>
     </g>
     <g id="text_8">
      <!-- 0 -->
      <g style="fill: #262626" transform="translate(36.87125 330.919141) scale(0.11 -0.11)">
       <use xlink:href="#DejaVuSans-30"/>
      </g>
     </g>
    </g>
    <g id="ytick_2">
     <g id="line2d_8">
      <path d="M 53.37 276.636879 
L 347.04 276.636879 
" clip-path="url(#p5222950fb2)" style="fill: none; stroke: #ffffff; stroke-linecap: round"/>
     </g>
     <g id="text_9">
      <!-- 10 -->
      <g style="fill: #262626" transform="translate(29.8725 280.81602) scale(0.11 -0.11)">
       <use xlink:href="#DejaVuSans-31"/>
       <use xlink:href="#DejaVuSans-30" x="63.623047"/>
      </g>
     </g>
    </g>
    <g id="ytick_3">
     <g id="line2d_9">
      <path d="M 53.37 226.533758 
L 347.04 226.533758 
" clip-path="url(#p5222950fb2)" style="fill: none; stroke: #ffffff; stroke-linecap: round"/>
     </g>
     <g id="text_10">
      <!-- 20 -->
      <g style="fill: #262626" transform="translate(29.8725 230.712899) scale(0.11 -0.11)">
       <use xlink:href="#DejaVuSans-32"/>
       <use xlink:href="#DejaVuSans-30" x="63.623047"/>
      </g>
     </g>
    </g>
    <g id="ytick_4">
     <g id="line2d_10">
      <path d="M 53.37 176.430637 
L 347.04 176.430637 
" clip-path="url(#p5222950fb2)" style="fill: none; stroke: #ffffff; stroke-linecap: round"/>
     </g>
     <g id="text_11">
      <!-- 30 -->
      <g style="fill: #262626" transform="translate(29.8725 180.609778) scale(0.11 -0.11)">
       <defs>
        <path id="DejaVuSans-33" d="M 2597 2516 
Q 3050 2419 3304 2112 
Q 3559 1806 3559 1356 
Q 3559 666 3084 287 
Q 2609 -91 1734 -91 
Q 1441 -91 1130 -33 
Q 819 25 488 141 
L 488 750 
Q 750 597 1062 519 
Q 1375 441 1716 441 
Q 2309 441 2620 675 
Q 2931 909 2931 1356 
Q 2931 1769 2642 2001 
Q 2353 2234 1838 2234 
L 1294 2234 
L 1294 2753 
L 1863 2753 
Q 2328 2753 2575 2939 
Q 2822 3125 2822 3475 
Q 2822 3834 2567 4026 
Q 2313 4219 1838 4219 
Q 1578 4219 1281 4162 
Q 984 4106 628 3988 
L 628 4550 
Q 988 4650 1302 4700 
Q 1616 4750 1894 4750 
Q 2613 4750 3031 4423 
Q 3450 4097 3450 3541 
Q 3450 3153 3228 2886 
Q 3006 2619 2597 2516 
z
" transform="scale(0.015625)"/>
       </defs>
       <use xlink:href="#DejaVuSans-33"/>
       <use xlink:href="#DejaVuSans-30" x="63.623047"/>
      </g>
     </g>
    </g>
    <g id="ytick_5">
     <g id="line2d_11">
      <path d="M 53.37 126.327516 
L 347.04 126.327516 
" clip-path="url(#p5222950fb2)" style="fill: none; stroke: #ffffff; stroke-linecap: round"/>
     </g>
     <g id="text_12">
      <!-- 40 -->
      <g style="fill: #262626" transform="translate(29.8725 130.506657) scale(0.11 -0.11)">
       <use xlink:href="#DejaVuSans-34"/>
       <use xlink:href="#DejaVuSans-30" x="63.623047"/>
      </g>
     </g>
    </g>
    <g id="ytick_6">
     <g id="line2d_12">
      <path d="M 53.37 76.224395 
L 347.04 76.224395 
" clip-path="url(#p5222950fb2)" style="fill: none; stroke: #ffffff; stroke-linecap: round"/>
     </g>
     <g id="text_13">
      <!-- 50 -->
      <g style="fill: #262626" transform="translate(29.8725 80.403536) scale(0.11 -0.11)">
       <defs>
        <path id="DejaVuSans-35" d="M 691 4666 
L 3169 4666 
L 3169 4134 
L 1269 4134 
L 1269 2991 
Q 1406 3038 1543 3061 
Q 1681 3084 1819 3084 
Q 2600 3084 3056 2656 
Q 3513 2228 3513 1497 
Q 3513 744 3044 326 
Q 2575 -91 1722 -91 
Q 1428 -91 1123 -41 
Q 819 9 494 109 
L 494 744 
Q 775 591 1075 516 
Q 1375 441 1709 441 
Q 2250 441 2565 725 
Q 2881 1009 2881 1497 
Q 2881 1984 2565 2268 
Q 2250 2553 1709 2553 
Q 1456 2553 1204 2497 
Q 953 2441 691 2322 
L 691 4666 
z
" transform="scale(0.015625)"/>
       </defs>
       <use xlink:href="#DejaVuSans-35"/>
       <use xlink:href="#DejaVuSans-30" x="63.623047"/>
      </g>
     </g>
    </g>
    <g id="ytick_7">
     <g id="line2d_13">
      <path d="M 53.37 26.121275 
L 347.04 26.121275 
" clip-path="url(#p5222950fb2)" style="fill: none; stroke: #ffffff; stroke-linecap: round"/>
     </g>
     <g id="text_14">
      <!-- 60 -->
      <g style="fill: #262626" transform="translate(29.8725 30.300415) scale(0.11 -0.11)">
       <use xlink:href="#DejaVuSans-36"/>
       <use xlink:href="#DejaVuSans-30" x="63.623047"/>
      </g>
     </g>
    </g>
    <g id="text_15">
     <!-- Densité [-] -->
     <g style="fill: #262626" transform="translate(23.376875 201.554375) rotate(-90) scale(0.12 -0.12)">
      <defs>
       <path id="DejaVuSans-44" d="M 1259 4147 
L 1259 519 
L 2022 519 
Q 2988 519 3436 956 
Q 3884 1394 3884 2338 
Q 3884 3275 3436 3711 
Q 2988 4147 2022 4147 
L 1259 4147 
z
M 628 4666 
L 1925 4666 
Q 3281 4666 3915 4102 
Q 4550 3538 4550 2338 
Q 4550 1131 3912 565 
Q 3275 0 1925 0 
L 628 0 
L 628 4666 
z
" transform="scale(0.015625)"/>
       <path id="DejaVuSans-65" d="M 3597 1894 
L 3597 1613 
L 953 1613 
Q 991 1019 1311 708 
Q 1631 397 2203 397 
Q 2534 397 2845 478 
Q 3156 559 3463 722 
L 3463 178 
Q 3153 47 2828 -22 
Q 2503 -91 2169 -91 
Q 1331 -91 842 396 
Q 353 884 353 1716 
Q 353 2575 817 3079 
Q 1281 3584 2069 3584 
Q 2775 3584 3186 3129 
Q 3597 2675 3597 1894 
z
M 3022 2063 
Q 3016 2534 2758 2815 
Q 2500 3097 2075 3097 
Q 1594 3097 1305 2825 
Q 1016 2553 972 2059 
L 3022 2063 
z
" transform="scale(0.015625)"/>
       <path id="DejaVuSans-6e" d="M 3513 2113 
L 3513 0 
L 2938 0 
L 2938 2094 
Q 2938 2591 2744 2837 
Q 2550 3084 2163 3084 
Q 1697 3084 1428 2787 
Q 1159 2491 1159 1978 
L 1159 0 
L 581 0 
L 581 3500 
L 1159 3500 
L 1159 2956 
Q 1366 3272 1645 3428 
Q 1925 3584 2291 3584 
Q 2894 3584 3203 3211 
Q 3513 2838 3513 2113 
z
" transform="scale(0.015625)"/>
      </defs>
      <use xlink:href="#DejaVuSans-44"/>
      <use xlink:href="#DejaVuSans-65" x="77.001953"/>
      <use xlink:href="#DejaVuSans-6e" x="138.525391"/>
      <use xlink:href="#DejaVuSans-73" x="201.904297"/>
      <use xlink:href="#DejaVuSans-69" x="254.003906"/>
      <use xlink:href="#DejaVuSans-74" x="281.787109"/>
      <use xlink:href="#DejaVuSans-e9" x="320.996094"/>
      <use xlink:href="#DejaVuSans-20" x="382.519531"/>
      <use xlink:href="#DejaVuSans-5b" x="414.306641"/>
      <use xlink:href="#DejaVuSans-2d" x="453.320312"/>
      <use xlink:href="#DejaVuSans-5d" x="489.404297"/>
     </g>
    </g>
   </g>
   <g id="PolyCollection_1">
    <defs>
     <path id="m2bdbe4f738" d="M 53.37 -327.381738 
L 53.37 -33.26 
L 53.700683 -33.26 
L 54.031366 -33.26 
L 54.36205 -33.26 
L 54.692733 -33.26 
L 55.023416 -33.26 
L 55.354099 -33.26 
L 55.684782 -33.26 
L 56.015466 -33.26 
L 56.346149 -33.26 
L 56.676832 -33.26 
L 57.007515 -33.26 
L 57.338198 -33.26 
L 57.668882 -33.26 
L 57.999565 -33.26 
L 58.330248 -33.26 
L 58.660931 -33.26 
L 58.991614 -33.26 
L 59.322298 -33.26 
L 59.652981 -33.26 
L 59.983664 -33.26 
L 60.314347 -33.26 
L 60.64503 -33.26 
L 60.975714 -33.26 
L 61.306397 -33.26 
L 61.63708 -33.26 
L 61.967763 -33.26 
L 62.298446 -33.26 
L 62.62913 -33.26 
L 62.959813 -33.26 
L 63.290496 -33.26 
L 63.621179 -33.26 
L 63.951862 -33.26 
L 64.282545 -33.26 
L 64.613229 -33.26 
L 64.943912 -33.26 
L 65.274595 -33.26 
L 65.605278 -33.26 
L 65.935961 -33.26 
L 66.266645 -33.26 
L 66.597328 -33.26 
L 66.928011 -33.26 
L 67.258694 -33.26 
L 67.589377 -33.26 
L 67.920061 -33.26 
L 68.250744 -33.26 
L 68.581427 -33.26 
L 68.91211 -33.26 
L 69.242793 -33.26 
L 69.573477 -33.26 
L 69.90416 -33.26 
L 70.234843 -33.26 
L 70.565526 -33.26 
L 70.896209 -33.26 
L 71.226893 -33.26 
L 71.557576 -33.26 
L 71.888259 -33.26 
L 72.218942 -33.26 
L 72.549625 -33.26 
L 72.880309 -33.26 
L 73.210992 -33.26 
L 73.541675 -33.26 
L 73.872358 -33.26 
L 74.203041 -33.26 
L 74.533725 -33.26 
L 74.864408 -33.26 
L 75.195091 -33.26 
L 75.525774 -33.26 
L 75.856457 -33.26 
L 76.187141 -33.26 
L 76.517824 -33.26 
L 76.848507 -33.26 
L 77.17919 -33.26 
L 77.509873 -33.26 
L 77.840557 -33.26 
L 78.17124 -33.26 
L 78.501923 -33.26 
L 78.832606 -33.26 
L 79.163289 -33.26 
L 79.493973 -33.26 
L 79.824656 -33.26 
L 80.155339 -33.26 
L 80.486022 -33.26 
L 80.816705 -33.26 
L 81.147389 -33.26 
L 81.478072 -33.26 
L 81.808755 -33.26 
L 82.139438 -33.26 
L 82.470121 -33.26 
L 82.800804 -33.26 
L 83.131488 -33.26 
L 83.462171 -33.26 
L 83.792854 -33.26 
L 84.123537 -33.26 
L 84.45422 -33.26 
L 84.784904 -33.26 
L 85.115587 -33.26 
L 85.44627 -33.26 
L 85.776953 -33.26 
L 86.107636 -33.26 
L 86.43832 -33.26 
L 86.769003 -33.26 
L 87.099686 -33.26 
L 87.430369 -33.26 
L 87.761052 -33.26 
L 88.091736 -33.26 
L 88.422419 -33.26 
L 88.753102 -33.26 
L 89.083785 -33.26 
L 89.414468 -33.26 
L 89.745152 -33.26 
L 90.075835 -33.26 
L 90.406518 -33.26 
L 90.737201 -33.26 
L 91.067884 -33.26 
L 91.398568 -33.26 
L 91.729251 -33.26 
L 92.059934 -33.26 
L 92.390617 -33.26 
L 92.7213 -33.26 
L 93.051984 -33.26 
L 93.382667 -33.26 
L 93.71335 -33.26 
L 94.044033 -33.26 
L 94.374716 -33.26 
L 94.7054 -33.26 
L 95.036083 -33.26 
L 95.366766 -33.26 
L 95.697449 -33.26 
L 96.028132 -33.26 
L 96.358816 -33.26 
L 96.689499 -33.26 
L 97.020182 -33.26 
L 97.350865 -33.26 
L 97.681548 -33.26 
L 98.012232 -33.26 
L 98.342915 -33.26 
L 98.673598 -33.26 
L 99.004281 -33.26 
L 99.334964 -33.26 
L 99.665648 -33.26 
L 99.996331 -33.26 
L 100.327014 -33.26 
L 100.657697 -33.26 
L 100.98838 -33.26 
L 101.319063 -33.26 
L 101.649747 -33.26 
L 101.98043 -33.26 
L 102.311113 -33.26 
L 102.641796 -33.26 
L 102.972479 -33.26 
L 103.303163 -33.26 
L 103.633846 -33.26 
L 103.964529 -33.26 
L 104.295212 -33.26 
L 104.625895 -33.26 
L 104.956579 -33.26 
L 105.287262 -33.26 
L 105.617945 -33.26 
L 105.948628 -33.26 
L 106.279311 -33.26 
L 106.609995 -33.26 
L 106.940678 -33.26 
L 107.271361 -33.26 
L 107.602044 -33.26 
L 107.932727 -33.26 
L 108.263411 -33.26 
L 108.594094 -33.26 
L 108.924777 -33.26 
L 109.25546 -33.26 
L 109.586143 -33.26 
L 109.916827 -33.26 
L 110.24751 -33.26 
L 110.578193 -33.26 
L 110.908876 -33.26 
L 111.239559 -33.26 
L 111.570243 -33.26 
L 111.900926 -33.26 
L 112.231609 -33.26 
L 112.562292 -33.26 
L 112.892975 -33.26 
L 113.223659 -33.26 
L 113.554342 -33.26 
L 113.885025 -33.26 
L 114.215708 -33.26 
L 114.546391 -33.26 
L 114.877075 -33.26 
L 115.207758 -33.26 
L 115.538441 -33.26 
L 115.869124 -33.26 
L 116.199807 -33.26 
L 116.530491 -33.26 
L 116.861174 -33.26 
L 117.191857 -33.26 
L 117.52254 -33.26 
L 117.853223 -33.26 
L 118.183907 -33.26 
L 118.51459 -33.26 
L 118.845273 -33.26 
L 119.175956 -33.26 
L 119.175956 -33.266118 
L 119.175956 -33.266118 
L 118.845273 -33.271484 
L 118.51459 -33.280557 
L 118.183907 -33.295094 
L 117.853223 -33.317135 
L 117.52254 -33.348708 
L 117.191857 -33.391348 
L 116.861174 -33.445473 
L 116.530491 -33.509768 
L 116.199807 -33.580767 
L 115.869124 -33.652863 
L 115.538441 -33.718871 
L 115.207758 -33.771137 
L 114.877075 -33.802977 
L 114.546391 -33.810078 
L 114.215708 -33.791452 
L 113.885025 -33.749668 
L 113.554342 -33.690266 
L 113.223659 -33.620554 
L 112.892975 -33.548138 
L 112.562292 -33.479598 
L 112.231609 -33.419608 
L 111.900926 -33.370632 
L 111.570243 -33.333131 
L 111.239559 -33.306102 
L 110.908876 -33.287717 
L 110.578193 -33.275892 
L 110.24751 -33.268691 
L 109.916827 -33.264538 
L 109.586143 -33.262273 
L 109.25546 -33.261121 
L 108.924777 -33.260614 
L 108.594094 -33.260519 
L 108.263411 -33.260789 
L 107.932727 -33.261556 
L 107.602044 -33.263152 
L 107.271361 -33.266179 
L 106.940678 -33.271583 
L 106.609995 -33.280718 
L 106.279311 -33.295345 
L 105.948628 -33.317505 
L 105.617945 -33.349223 
L 105.287262 -33.392024 
L 104.956579 -33.446304 
L 104.625895 -33.510721 
L 104.295212 -33.581779 
L 103.964529 -33.653842 
L 103.633846 -33.719711 
L 103.303163 -33.771734 
L 102.972479 -33.803253 
L 102.641796 -33.809993 
L 102.311113 -33.791019 
L 101.98043 -33.748946 
L 101.649747 -33.689348 
L 101.319063 -33.619546 
L 100.98838 -33.547143 
L 100.657697 -33.478696 
L 100.327014 -33.418848 
L 99.996331 -33.370033 
L 99.665648 -33.332691 
L 99.334964 -33.305805 
L 99.004281 -33.287548 
L 98.673598 -33.275855 
L 98.342915 -33.268836 
L 98.012232 -33.265002 
L 97.681548 -33.263362 
L 97.350865 -33.263434 
L 97.020182 -33.265242 
L 96.689499 -33.26931 
L 96.358816 -33.276679 
L 96.028132 -33.28888 
L 95.697449 -33.307839 
L 95.366766 -33.33564 
L 95.036083 -33.374107 
L 94.7054 -33.424242 
L 94.374716 -33.48562 
L 94.044033 -33.555923 
L 93.71335 -33.630844 
L 93.382667 -33.704523 
L 93.051984 -33.770545 
L 92.7213 -33.823328 
L 92.390617 -33.859519 
L 92.059934 -33.87895 
L 91.729251 -33.884772 
L 91.398568 -33.882631 
L 91.067884 -33.879109 
L 90.737201 -33.879899 
L 90.406518 -33.888348 
L 90.075835 -33.904874 
L 89.745152 -33.927452 
L 89.414468 -33.952972 
L 89.083785 -33.978946 
L 88.753102 -34.004915 
L 88.422419 -34.033014 
L 88.091736 -34.06749 
L 87.761052 -34.113342 
L 87.430369 -34.174532 
L 87.099686 -34.252334 
L 86.769003 -34.344279 
L 86.43832 -34.443951 
L 86.107636 -34.541632 
L 85.776953 -34.625647 
L 85.44627 -34.68417 
L 85.115587 -34.707216 
L 84.784904 -34.688502 
L 84.45422 -34.626875 
L 84.123537 -34.526965 
L 83.792854 -34.39886 
L 83.462171 -34.256789 
L 83.131488 -34.117012 
L 82.800804 -33.995348 
L 82.470121 -33.904838 
L 82.139438 -33.85398 
L 81.808755 -33.845814 
L 81.478072 -33.877946 
L 81.147389 -33.943426 
L 80.816705 -34.032276 
L 80.486022 -34.133421 
L 80.155339 -34.236707 
L 79.824656 -34.334687 
L 79.493973 -34.423861 
L 79.163289 -34.505124 
L 78.832606 -34.583283 
L 78.501923 -34.66573 
L 78.17124 -34.760575 
L 77.840557 -34.874725 
L 77.509873 -35.012488 
L 77.17919 -35.175166 
L 76.848507 -35.361795 
L 76.517824 -35.570778 
L 76.187141 -35.801717 
L 75.856457 -36.056596 
L 75.525774 -36.33953 
L 75.195091 -36.654825 
L 74.864408 -37.003741 
L 74.533725 -37.381009 
L 74.203041 -37.772488 
L 73.872358 -38.155153 
L 73.541675 -38.499919 
L 73.210992 -38.776861 
L 72.880309 -38.961448 
L 72.549625 -39.040009 
L 72.218942 -39.012807 
L 71.888259 -38.893896 
L 71.557576 -38.707953 
L 71.226893 -38.485204 
L 70.896209 -38.255954 
L 70.565526 -38.04612 
L 70.234843 -37.874588 
L 69.90416 -37.752517 
L 69.573477 -37.684216 
L 69.242793 -37.668982 
L 68.91211 -37.703317 
L 68.581427 -37.783152 
L 68.250744 -37.905779 
L 67.920061 -38.071247 
L 67.589377 -38.282876 
L 67.258694 -38.546552 
L 66.928011 -38.868613 
L 66.597328 -39.252584 
L 66.266645 -39.695534 
L 65.935961 -40.185352 
L 65.605278 -40.70024 
L 65.274595 -41.211268 
L 64.943912 -41.687775 
L 64.613229 -42.104212 
L 64.282545 -42.446284 
L 63.951862 -42.714317 
L 63.621179 -42.922841 
L 63.290496 -43.097024 
L 62.959813 -43.267957 
L 62.62913 -43.46927 
L 62.298446 -43.736692 
L 61.967763 -44.110379 
L 61.63708 -44.637964 
L 61.306397 -45.375372 
L 60.975714 -46.3831 
L 60.64503 -47.717822 
L 60.314347 -49.422007 
L 59.983664 -51.516505 
L 59.652981 -54.001778 
L 59.322298 -56.872013 
L 58.991614 -60.14319 
L 58.660931 -63.892099 
L 58.330248 -68.299436 
L 57.999565 -73.687333 
L 57.668882 -80.540002 
L 57.338198 -89.495451 
L 57.007515 -101.296213 
L 56.676832 -116.688769 
L 56.346149 -136.267191 
L 56.015466 -160.269358 
L 55.684782 -188.354675 
L 55.354099 -219.416454 
L 55.023416 -251.499876 
L 54.692733 -281.894305 
L 54.36205 -307.436819 
L 54.031366 -325.003968 
L 53.700683 -332.098095 
L 53.37 -327.381738 
z
" style="stroke: #c44e52"/>
    </defs>
    <g clip-path="url(#p5222950fb2)">
     <use xlink:href="#m2bdbe4f738" x="0" y="360" style="fill: #c44e52; fill-opacity: 0.25; stroke: #c44e52"/>
    </g>
   </g>
   <g id="patch_3">
    <path d="M 53.37 326.74 
L 53.37 12.96 
" style="fill: none; stroke: #ffffff; stroke-width: 1.25; stroke-linejoin: miter; stroke-linecap: square"/>
   </g>
   <g id="patch_4">
    <path d="M 53.37 326.74 
L 347.04 326.74 
" style="fill: none; stroke: #ffffff; stroke-width: 1.25; stroke-linejoin: miter; stroke-linecap: square"/>
   </g>
  </g>
 </g>
 <defs>
  <clipPath id="p5222950fb2">
   <rect x="53.37" y="12.96" width="293.67" height="313.78"/>
  </clipPath>
 </defs>
</svg>
