<svg viewBox="0 0 852 400" xmlns="http://www.w3.org/2000/svg"><g><g><g><g><g><line x1="40" y1="377" x2="35" y2="377" style="visibility: inherit;" fill="rgb(0, 0, 0)" stroke="rgb(204, 204, 204)" stroke-width="1px"></line><line x1="40" y1="339.3" x2="35" y2="339.3" style="visibility: inherit;" fill="rgb(0, 0, 0)" stroke="rgb(204, 204, 204)" stroke-width="1px"></line><line x1="40" y1="301.6" x2="35" y2="301.6" style="visibility: inherit;" fill="rgb(0, 0, 0)" stroke="rgb(204, 204, 204)" stroke-width="1px"></line><line x1="40" y1="263.9" x2="35" y2="263.9" style="visibility: inherit;" fill="rgb(0, 0, 0)" stroke="rgb(204, 204, 204)" stroke-width="1px"></line><line x1="40" y1="226.2" x2="35" y2="226.2" style="visibility: inherit;" fill="rgb(0, 0, 0)" stroke="rgb(204, 204, 204)" stroke-width="1px"></line><line x1="40" y1="188.5" x2="35" y2="188.5" style="visibility: inherit;" fill="rgb(0, 0, 0)" stroke="rgb(204, 204, 204)" stroke-width="1px"></line><line x1="40" y1="150.8" x2="35" y2="150.8" style="visibility: inherit;" fill="rgb(0, 0, 0)" stroke="rgb(204, 204, 204)" stroke-width="1px"></line><line x1="40" y1="113.10000000000002" x2="35" y2="113.10000000000002" style="visibility: inherit;" fill="rgb(0, 0, 0)" stroke="rgb(204, 204, 204)" stroke-width="1px"></line><line x1="40" y1="75.39999999999998" x2="35" y2="75.39999999999998" style="visibility: inherit;" fill="rgb(0, 0, 0)" stroke="rgb(204, 204, 204)" stroke-width="1px"></line><line x1="40" y1="37.69999999999999" x2="35" y2="37.69999999999999" style="visibility: inherit;" fill="rgb(0, 0, 0)" stroke="rgb(204, 204, 204)" stroke-width="1px"></line><line x1="40" y1="0" x2="35" y2="0" style="visibility: inherit;" fill="rgb(0, 0, 0)" stroke="rgb(204, 204, 204)" stroke-width="1px"></line></g><g transform="translate(30, 0)"><text x="0" y="377" dx="0em" dy="0.3em" style="text-anchor: end; visibility: hidden; font-family: Roboto, sans-serif; font-size: 12px; font-weight: 200;" fill="rgb(255, 255, 255)" stroke="none" stroke-width="1px">0</text><text x="0" y="339.3" dx="0em" dy="0.3em" style="text-anchor: end; visibility: inherit; font-family: Roboto, sans-serif; font-size: 12px; font-weight: 200;" fill="rgb(255, 255, 255)" stroke="none" stroke-width="1px">0.5</text><text x="0" y="301.6" dx="0em" dy="0.3em" style="text-anchor: end; visibility: inherit; font-family: Roboto, sans-serif; font-size: 12px; font-weight: 200;" fill="rgb(255, 255, 255)" stroke="none" stroke-width="1px">1</text><text x="0" y="263.9" dx="0em" dy="0.3em" style="text-anchor: end; visibility: inherit; font-family: Roboto, sans-serif; font-size: 12px; font-weight: 200;" fill="rgb(255, 255, 255)" stroke="none" stroke-width="1px">1.5</text><text x="0" y="226.2" dx="0em" dy="0.3em" style="text-anchor: end; visibility: inherit; font-family: Roboto, sans-serif; font-size: 12px; font-weight: 200;" fill="rgb(255, 255, 255)" stroke="none" stroke-width="1px">2</text><text x="0" y="188.5" dx="0em" dy="0.3em" style="text-anchor: end; visibility: inherit; font-family: Roboto, sans-serif; font-size: 12px; font-weight: 200;" fill="rgb(255, 255, 255)" stroke="none" stroke-width="1px">2.5</text><text x="0" y="150.8" dx="0em" dy="0.3em" style="text-anchor: end; visibility: inherit; font-family: Roboto, sans-serif; font-size: 12px; font-weight: 200;" fill="rgb(255, 255, 255)" stroke="none" stroke-width="1px">3</text><text x="0" y="113.10000000000002" dx="0em" dy="0.3em" style="text-anchor: end; visibility: inherit; font-family: Roboto, sans-serif; font-size: 12px; font-weight: 200;" fill="rgb(255, 255, 255)" stroke="none" stroke-width="1px">3.5</text><text x="0" y="75.39999999999998" dx="0em" dy="0.3em" style="text-anchor: end; visibility: inherit; font-family: Roboto, sans-serif; font-size: 12px; font-weight: 200;" fill="rgb(255, 255, 255)" stroke="none" stroke-width="1px">4</text><text x="0" y="37.69999999999999" dx="0em" dy="0.3em" style="text-anchor: end; visibility: inherit; font-family: Roboto, sans-serif; font-size: 12px; font-weight: 200;" fill="rgb(255, 255, 255)" stroke="none" stroke-width="1px">4.5</text><text x="0" y="0" dx="0em" dy="0.3em" style="text-anchor: end; visibility: hidden; font-family: Roboto, sans-serif; font-size: 12px; font-weight: 200;" fill="rgb(255, 255, 255)" stroke="none" stroke-width="1px">5</text></g><line x1="40" y1="0" x2="40" y2="377" fill="rgb(0, 0, 0)" stroke="rgb(204, 204, 204)" stroke-width="1px"></line></g></g><g transform="translate(40, 0)" clip-path="url(#clip_0)"><clipPath id="clip_0"><rect width="812" height="377"></rect></clipPath><g><g><g><line x1="0" y1="0" x2="0" y2="377" fill="rgb(0, 0, 0)" stroke="rgb(189, 189, 189)" stroke-width="1px" opacity="0.25"></line><line x1="101.5" y1="0" x2="101.5" y2="377" fill="rgb(0, 0, 0)" stroke="rgb(189, 189, 189)" stroke-width="1px" opacity="0.25"></line><line x1="203" y1="0" x2="203" y2="377" fill="rgb(0, 0, 0)" stroke="rgb(189, 189, 189)" stroke-width="1px" opacity="0.25"></line><line x1="304.5" y1="0" x2="304.5" y2="377" fill="rgb(0, 0, 0)" stroke="rgb(189, 189, 189)" stroke-width="1px" opacity="0.25"></line><line x1="406" y1="0" x2="406" y2="377" fill="rgb(0, 0, 0)" stroke="rgb(189, 189, 189)" stroke-width="1px" opacity="0.25"></line><line x1="507.5" y1="0" x2="507.5" y2="377" fill="rgb(0, 0, 0)" stroke="rgb(189, 189, 189)" stroke-width="1px" opacity="0.25"></line><line x1="609" y1="0" x2="609" y2="377" fill="rgb(0, 0, 0)" stroke="rgb(189, 189, 189)" stroke-width="1px" opacity="0.25"></line><line x1="710.5" y1="0" x2="710.5" y2="377" fill="rgb(0, 0, 0)" stroke="rgb(189, 189, 189)" stroke-width="1px" opacity="0.25"></line><line x1="812" y1="0" x2="812" y2="377" fill="rgb(0, 0, 0)" stroke="rgb(189, 189, 189)" stroke-width="1px" opacity="0.25"></line></g><g><line x1="0" y1="377" x2="812" y2="377" fill="rgb(0, 0, 0)" stroke="rgb(189, 189, 189)" stroke-width="1px" opacity="0.25"></line><line x1="0" y1="339.3" x2="812" y2="339.3" fill="rgb(0, 0, 0)" stroke="rgb(189, 189, 189)" stroke-width="1px" opacity="0.25"></line><line x1="0" y1="301.6" x2="812" y2="301.6" fill="rgb(0, 0, 0)" stroke="rgb(189, 189, 189)" stroke-width="1px" opacity="0.25"></line><line x1="0" y1="263.9" x2="812" y2="263.9" fill="rgb(0, 0, 0)" stroke="rgb(189, 189, 189)" stroke-width="1px" opacity="0.25"></line><line x1="0" y1="226.2" x2="812" y2="226.2" fill="rgb(0, 0, 0)" stroke="rgb(189, 189, 189)" stroke-width="1px" opacity="0.25"></line><line x1="0" y1="188.5" x2="812" y2="188.5" fill="rgb(0, 0, 0)" stroke="rgb(189, 189, 189)" stroke-width="1px" opacity="0.25"></line><line x1="0" y1="150.8" x2="812" y2="150.8" fill="rgb(0, 0, 0)" stroke="rgb(189, 189, 189)" stroke-width="1px" opacity="0.25"></line><line x1="0" y1="113.10000000000002" x2="812" y2="113.10000000000002" fill="rgb(0, 0, 0)" stroke="rgb(189, 189, 189)" stroke-width="1px" opacity="0.25"></line><line x1="0" y1="75.39999999999998" x2="812" y2="75.39999999999998" fill="rgb(0, 0, 0)" stroke="rgb(189, 189, 189)" stroke-width="1px" opacity="0.25"></line><line x1="0" y1="37.69999999999999" x2="812" y2="37.69999999999999" fill="rgb(0, 0, 0)" stroke="rgb(189, 189, 189)" stroke-width="1px" opacity="0.25"></line><line x1="0" y1="0" x2="812" y2="0" fill="rgb(0, 0, 0)" stroke="rgb(189, 189, 189)" stroke-width="1px" opacity="0.25"></line></g></g></g><g><g><line x1="0" y1="377" x2="812" y2="377" fill="rgb(0, 0, 0)" stroke="rgb(153, 153, 153)" stroke-width="1.5px"></line></g></g><g><g><line x1="101.5" y1="0" x2="101.5" y2="377" fill="rgb(0, 0, 0)" stroke="rgb(153, 153, 153)" stroke-width="1.5px"></line></g></g><g><g><g><g><g><path stroke="rgb(204, 51, 17)" stroke-width="2px" d="M101.5,215.82695956230162L152.25,222.20651875138282L203,226.38268424637465L253.75,231.05364942866214L304.5,232.10720120153022L355.25,234.06540602614942L406,236.52979744217996L456.75,239.933948526047L507.5,241.95206556610384L558.25,245.1786328115972L609,246.38619478046903L659.75,246.98736989223673L710.5,248.4862214565457L761.25,249.03773861500912" style="fill: none;" fill="none"></path></g><g><path stroke="rgb(187, 187, 187)" stroke-width="2px" d="M101.5,121.93965868949887L152.25,143.46990834474565L203,156.9862565011394L253.75,167.15970529125016L304.5,175.46575907651624L355.25,182.77285796108103L406,189.08421206984056L456.75,195.29617393284045L507.5,200.69924064271854L558.25,205.91079451299035L609,211.21981964964834L659.75,215.8975248231922L710.5,220.43653523187155L761.25,224.66163750643244" style="fill: none;" fill="none"></path></g><g><path stroke="rgb(238, 51, 119)" stroke-width="2px" d="M101.5,144.82833576202393L152.25,151.42214423418045L203,155.4277678217207L253.75,158.04676071072328L304.5,161.19758828475523L355.25,161.94906983598986L406,165.3095739854987L456.75,168.32855002267465L507.5,167.31228422793194L558.25,169.3689654562925" style="fill: none;" fill="none"></path></g><g><path stroke="rgb(51, 187, 238)" stroke-width="2px" d="M101.5,27.943256855010986L152.25,41.55647361278534L203,50.1398678896379L253.75,55.55524166191332L304.5,59.57961430175701L355.25,63.98921043922772L406,67.15585341200249L456.75,69.96172539405853L507.5,71.87561208847232L558.25,74.17759504605552" style="fill: none;" fill="none"></path></g><g><path stroke="rgb(0, 119, 187)" stroke-width="2px" d="M101.5,215.78013010025023L152.25,220.1091251194477L203,221.84129952995144L253.75,224.2085775558563L304.5,224.0828556339911L355.25,223.82186752595848L406,222.5131699092099L456.75,218.15549486009064L507.5,212.0025051195938L101.5,209.08805957302158L152.25,216.40465010405808L203,220.3099418312812L253.75,227.5148846650023L304.5,228.4164851986888L355.25,226.89398439381813L406,227.78257088173507L456.75,222.9795951195736L507.5,216.31072361841854L101.5,213.20882770405117L152.25,219.1079542346141L203,219.7881010788225L253.75,222.52215502761874L304.5,222.93300533329332L355.25,224.94320023343835L406,221.66273025252667L456.75,224.24256810843085L507.5,225.48978480018786L558.25,225.32572451242697L101.5,215.40342360523056L152.25,217.54986509679756L203,219.11641266263126L253.75,219.28884837042708L304.5,224.6206891425085L355.25,222.5253172302493L406,224.07212371053498L456.75,219.8986904239665L507.5,214.0172357252448L558.25,209.72105724713623" style="fill: none;" fill="none"></path></g><g><path stroke="rgb(255, 112, 67)" stroke-width="2px" d="M101.5,111.18400087356565L152.25,153.51262130737302L203,184.98914080444646L253.75,213.6492227961912L304.5,240.34895641130348L355.25,264.7621619573117L406,285.54871416986344L456.75,304.51282012267967L507.5,319.2929645627835L101.5,234.68329820124023L152.25,212.74863392282748L203,214.40341712680237L253.75,227.30010278638088L304.5,246.00465345678754L355.25,267.3864950539551L406,286.64986484792206L456.75,304.2851779096405L507.5,319.30544201140987L101.5,235.9817866413695L152.25,214.36509831772585L203,215.19648064049375L253.75,228.4464689642356L304.5,247.60593439332598L355.25,268.5932232131057L406,288.5320393081488L456.75,309.1209356729285L507.5,324.2125576238126L558.25,334.75006169235684L101.5,244.9929397539053L152.25,218.7387240134918L203,217.13713958734706L253.75,228.4415074742739L304.5,247.35867189599858L355.25,267.76057852568096L406,286.47580099129L456.75,302.3511126488156L507.5,315.88138526049454L558.25,327.953585877942" style="fill: none;" fill="none"></path></g></g></g></g><g opacity="0.2"><g><g><g><path stroke="rgb(204, 51, 17)" stroke-width="2px" d="M101.5,215.82695956230162L152.25,226.03425426483153L203,230.3918031215668L253.75,236.54670448303222L304.5,233.48271839618684L355.25,236.7743082523346L406,240.0539165973663L456.75,244.89723348617554L507.5,244.92839620113375L558.25,249.9697091341019L609,248.18658523559571L659.75,247.88586099147795L710.5,250.7296047925949L761.25,249.86393387317656" style="fill: none;" fill="none"></path></g><g><path stroke="rgb(187, 187, 187)" stroke-width="2px" d="M101.5,121.93965868949891L152.25,156.38805813789367L203,169.96195073127745L253.75,179.1236810684204L304.5,186.31014289855955L355.25,192.8812062740326L406,198.10954942703245L456.75,204.35327396392825L507.5,208.66771454811095L558.25,213.64934463500975L609,219.13520488739016L659.75,222.8886267185211L710.5,227.23023018836977L761.25,230.99101350307467" style="fill: none;" fill="none"></path></g><g><path stroke="rgb(238, 51, 119)" stroke-width="2px" d="M101.5,144.82833576202393L152.25,155.37842931747434L203,159.2731664657593L253.75,161.1266963481903L304.5,165.31130876541135L355.25,162.9886393547058L406,170.11514868736265L456.75,172.73024606704712L507.5,165.8134895801544L558.25,172.42289738655091" style="fill: none;" fill="none"></path></g><g><path stroke="rgb(51, 187, 238)" stroke-width="2px" d="M101.5,27.943256855010986L152.25,49.72440366744996L203,58.37992639541625L253.75,61.923721218109115L304.5,64.83383522033694L355.25,70.08926935195922L406,71.68420352935789L456.75,74.05271368026735L507.5,74.69822320938113L558.25,77.59577145576475" style="fill: none;" fill="none"></path></g><g><path stroke="rgb(0, 119, 187)" stroke-width="2px" d="M101.5,215.78013010025023L152.25,222.70652213096616L203,223.50418696403506L253.75,226.99249651432035L304.5,223.91871309280396L355.25,223.46082701683042L406,220.6417113780975L456.75,211.8019628047943L507.5,202.9280404090881L101.5,204.76044759750368L152.25,227.31317496299744L203,226.14662699699403L253.75,238.29877352714539L304.5,229.76711966991422L355.25,224.61202282905577L406,229.11482391357424L456.75,215.77716393470763L507.5,206.30910959243772L101.5,208.55645637512208L152.25,227.95610482692717L203,220.80828404426575L253.75,226.62314598560334L304.5,223.54927268028257L355.25,227.95846877098086L406,216.74204859733584L456.75,228.11231389045713L507.5,227.3606066465378L558.25,225.07963433265684L101.5,200.51998138427734L152.25,220.76952614784238L203,221.46623349189758L253.75,219.5475018978119L304.5,232.61844966411593L355.25,219.3822595119476L406,226.39233336448672L456.75,213.63854060173037L507.5,205.19505376815795L558.25,203.2767895698547" style="fill: none;" fill="none"></path></g><g><path stroke="rgb(255, 112, 67)" stroke-width="2px" d="M101.5,111.18400087356565L152.25,178.90979356765746L203,215.20659952163697L253.75,247.35347921848296L304.5,275.20812861919404L355.25,298.5344139814377L406,315.27381641864775L456.75,332.16266865730285L507.5,341.0908067166805L101.5,109.04780440330507L152.25,180.04558329582215L203,216.87658667564392L253.75,246.6030213594437L304.5,274.02483530044555L355.25,299.43412389755247L406,315.53133351802825L456.75,330.7306848287582L507.5,341.8320245206356L101.5,111.0089971065521L152.25,181.94204168319703L203,216.44350852966306L253.75,248.32101545333865L304.5,276.3447542667389L355.25,300.073907828331L406,318.4401217341423L456.75,340.00419241786005L507.5,346.84995193481444L558.25,350.55630161762235L101.5,110.35733952522276L152.25,179.35741491317748L203,214.7347634792328L253.75,245.39805705547332L304.5,275.734416270256L355.25,298.3634370088577L406,314.5486338853836L456.75,326.16407972574234L507.5,336.17679396867754L558.25,346.0618866920471" style="fill: none;" fill="none"></path></g></g></g></g></g></g><g transform="translate(40, 377)" clip-path="url(#clip_1)"><clipPath id="clip_1"><rect width="812" height="23"></rect></clipPath><g><g><line x1="0" y1="0" x2="0" y2="5" style="visibility: inherit;" fill="rgb(0, 0, 0)" stroke="rgb(204, 204, 204)" stroke-width="1px"></line><line x1="101.5" y1="0" x2="101.5" y2="5" style="visibility: inherit;" fill="rgb(0, 0, 0)" stroke="rgb(204, 204, 204)" stroke-width="1px"></line><line x1="203" y1="0" x2="203" y2="5" style="visibility: inherit;" fill="rgb(0, 0, 0)" stroke="rgb(204, 204, 204)" stroke-width="1px"></line><line x1="304.5" y1="0" x2="304.5" y2="5" style="visibility: inherit;" fill="rgb(0, 0, 0)" stroke="rgb(204, 204, 204)" stroke-width="1px"></line><line x1="406" y1="0" x2="406" y2="5" style="visibility: inherit;" fill="rgb(0, 0, 0)" stroke="rgb(204, 204, 204)" stroke-width="1px"></line><line x1="507.5" y1="0" x2="507.5" y2="5" style="visibility: inherit;" fill="rgb(0, 0, 0)" stroke="rgb(204, 204, 204)" stroke-width="1px"></line><line x1="609" y1="0" x2="609" y2="5" style="visibility: inherit;" fill="rgb(0, 0, 0)" stroke="rgb(204, 204, 204)" stroke-width="1px"></line><line x1="710.5" y1="0" x2="710.5" y2="5" style="visibility: inherit;" fill="rgb(0, 0, 0)" stroke="rgb(204, 204, 204)" stroke-width="1px"></line><line x1="812" y1="0" x2="812" y2="5" style="visibility: inherit;" fill="rgb(0, 0, 0)" stroke="rgb(204, 204, 204)" stroke-width="1px"></line></g><g transform="translate(0, 8)"><text x="0" y="0" dx="0em" dy="0.95em" style="text-anchor: middle; visibility: hidden; font-family: Roboto, sans-serif; font-size: 12px; font-weight: 200;" fill="rgb(255, 255, 255)" stroke="none" stroke-width="1px">-2</text><text x="101.5" y="0" dx="0em" dy="0.95em" style="text-anchor: middle; visibility: inherit; font-family: Roboto, sans-serif; font-size: 12px; font-weight: 200;" fill="rgb(255, 255, 255)" stroke="none" stroke-width="1px">0</text><text x="203" y="0" dx="0em" dy="0.95em" style="text-anchor: middle; visibility: inherit; font-family: Roboto, sans-serif; font-size: 12px; font-weight: 200;" fill="rgb(255, 255, 255)" stroke="none" stroke-width="1px">2</text><text x="304.5" y="0" dx="0em" dy="0.95em" style="text-anchor: middle; visibility: inherit; font-family: Roboto, sans-serif; font-size: 12px; font-weight: 200;" fill="rgb(255, 255, 255)" stroke="none" stroke-width="1px">4</text><text x="406" y="0" dx="0em" dy="0.95em" style="text-anchor: middle; visibility: inherit; font-family: Roboto, sans-serif; font-size: 12px; font-weight: 200;" fill="rgb(255, 255, 255)" stroke="none" stroke-width="1px">6</text><text x="507.5" y="0" dx="0em" dy="0.95em" style="text-anchor: middle; visibility: inherit; font-family: Roboto, sans-serif; font-size: 12px; font-weight: 200;" fill="rgb(255, 255, 255)" stroke="none" stroke-width="1px">8</text><text x="609" y="0" dx="0em" dy="0.95em" style="text-anchor: middle; visibility: inherit; font-family: Roboto, sans-serif; font-size: 12px; font-weight: 200;" fill="rgb(255, 255, 255)" stroke="none" stroke-width="1px">10</text><text x="710.5" y="0" dx="0em" dy="0.95em" style="text-anchor: middle; visibility: inherit; font-family: Roboto, sans-serif; font-size: 12px; font-weight: 200;" fill="rgb(255, 255, 255)" stroke="none" stroke-width="1px">12</text><text x="812" y="0" dx="0em" dy="0.95em" style="text-anchor: middle; visibility: hidden; font-family: Roboto, sans-serif; font-size: 12px; font-weight: 200;" fill="rgb(255, 255, 255)" stroke="none" stroke-width="1px">14</text></g><line x1="0" y1="0" x2="812" y2="0" fill="rgb(0, 0, 0)" stroke="rgb(204, 204, 204)" stroke-width="1px"></line></g></g></g></g></svg>