<svg viewBox="0 0 852 400" xmlns="http://www.w3.org/2000/svg"><g><g><g><g><g><line x1="40" y1="377" x2="35" y2="377" style="visibility: inherit;" fill="rgb(0, 0, 0)" stroke="rgb(204, 204, 204)" stroke-width="1px"></line><line x1="40" y1="335.1111111111111" x2="35" y2="335.1111111111111" style="visibility: inherit;" fill="rgb(0, 0, 0)" stroke="rgb(204, 204, 204)" stroke-width="1px"></line><line x1="40" y1="293.22222222222223" x2="35" y2="293.22222222222223" style="visibility: inherit;" fill="rgb(0, 0, 0)" stroke="rgb(204, 204, 204)" stroke-width="1px"></line><line x1="40" y1="251.33333333333337" x2="35" y2="251.33333333333337" style="visibility: inherit;" fill="rgb(0, 0, 0)" stroke="rgb(204, 204, 204)" stroke-width="1px"></line><line x1="40" y1="209.44444444444446" x2="35" y2="209.44444444444446" style="visibility: inherit;" fill="rgb(0, 0, 0)" stroke="rgb(204, 204, 204)" stroke-width="1px"></line><line x1="40" y1="167.55555555555554" x2="35" y2="167.55555555555554" style="visibility: inherit;" fill="rgb(0, 0, 0)" stroke="rgb(204, 204, 204)" stroke-width="1px"></line><line x1="40" y1="125.66666666666669" x2="35" y2="125.66666666666669" style="visibility: inherit;" fill="rgb(0, 0, 0)" stroke="rgb(204, 204, 204)" stroke-width="1px"></line><line x1="40" y1="83.77777777777781" x2="35" y2="83.77777777777781" style="visibility: inherit;" fill="rgb(0, 0, 0)" stroke="rgb(204, 204, 204)" stroke-width="1px"></line><line x1="40" y1="41.888888888888864" x2="35" y2="41.888888888888864" style="visibility: inherit;" fill="rgb(0, 0, 0)" stroke="rgb(204, 204, 204)" stroke-width="1px"></line><line x1="40" y1="0" x2="35" y2="0" style="visibility: inherit;" fill="rgb(0, 0, 0)" stroke="rgb(204, 204, 204)" stroke-width="1px"></line></g><g transform="translate(30, 0)"><text x="0" y="377" dx="0em" dy="0.3em" style="text-anchor: end; visibility: hidden; font-family: Roboto, sans-serif; font-size: 12px; font-weight: 200;" fill="rgb(255, 255, 255)" stroke="none" stroke-width="1px">0</text><text x="0" y="335.1111111111111" dx="0em" dy="0.3em" style="text-anchor: end; visibility: inherit; font-family: Roboto, sans-serif; font-size: 12px; font-weight: 200;" fill="rgb(255, 255, 255)" stroke="none" stroke-width="1px">0.1</text><text x="0" y="293.22222222222223" dx="0em" dy="0.3em" style="text-anchor: end; visibility: inherit; font-family: Roboto, sans-serif; font-size: 12px; font-weight: 200;" fill="rgb(255, 255, 255)" stroke="none" stroke-width="1px">0.2</text><text x="0" y="251.33333333333337" dx="0em" dy="0.3em" style="text-anchor: end; visibility: inherit; font-family: Roboto, sans-serif; font-size: 12px; font-weight: 200;" fill="rgb(255, 255, 255)" stroke="none" stroke-width="1px">0.3</text><text x="0" y="209.44444444444446" dx="0em" dy="0.3em" style="text-anchor: end; visibility: inherit; font-family: Roboto, sans-serif; font-size: 12px; font-weight: 200;" fill="rgb(255, 255, 255)" stroke="none" stroke-width="1px">0.4</text><text x="0" y="167.55555555555554" dx="0em" dy="0.3em" style="text-anchor: end; visibility: inherit; font-family: Roboto, sans-serif; font-size: 12px; font-weight: 200;" fill="rgb(255, 255, 255)" stroke="none" stroke-width="1px">0.5</text><text x="0" y="125.66666666666669" dx="0em" dy="0.3em" style="text-anchor: end; visibility: inherit; font-family: Roboto, sans-serif; font-size: 12px; font-weight: 200;" fill="rgb(255, 255, 255)" stroke="none" stroke-width="1px">0.6</text><text x="0" y="83.77777777777781" dx="0em" dy="0.3em" style="text-anchor: end; visibility: inherit; font-family: Roboto, sans-serif; font-size: 12px; font-weight: 200;" fill="rgb(255, 255, 255)" stroke="none" stroke-width="1px">0.7</text><text x="0" y="41.888888888888864" dx="0em" dy="0.3em" style="text-anchor: end; visibility: inherit; font-family: Roboto, sans-serif; font-size: 12px; font-weight: 200;" fill="rgb(255, 255, 255)" stroke="none" stroke-width="1px">0.8</text><text x="0" y="0" dx="0em" dy="0.3em" style="text-anchor: end; visibility: hidden; font-family: Roboto, sans-serif; font-size: 12px; font-weight: 200;" fill="rgb(255, 255, 255)" stroke="none" stroke-width="1px">0.9</text></g><line x1="40" y1="0" x2="40" y2="377" fill="rgb(0, 0, 0)" stroke="rgb(204, 204, 204)" stroke-width="1px"></line></g></g><g transform="translate(40, 0)" clip-path="url(#clip_0)"><clipPath id="clip_0"><rect width="812" height="377"></rect></clipPath><g><g><g><line x1="0" y1="0" x2="0" y2="377" fill="rgb(0, 0, 0)" stroke="rgb(189, 189, 189)" stroke-width="1px" opacity="0.25"></line><line x1="101.5" y1="0" x2="101.5" y2="377" fill="rgb(0, 0, 0)" stroke="rgb(189, 189, 189)" stroke-width="1px" opacity="0.25"></line><line x1="203" y1="0" x2="203" y2="377" fill="rgb(0, 0, 0)" stroke="rgb(189, 189, 189)" stroke-width="1px" opacity="0.25"></line><line x1="304.5" y1="0" x2="304.5" y2="377" fill="rgb(0, 0, 0)" stroke="rgb(189, 189, 189)" stroke-width="1px" opacity="0.25"></line><line x1="406" y1="0" x2="406" y2="377" fill="rgb(0, 0, 0)" stroke="rgb(189, 189, 189)" stroke-width="1px" opacity="0.25"></line><line x1="507.5" y1="0" x2="507.5" y2="377" fill="rgb(0, 0, 0)" stroke="rgb(189, 189, 189)" stroke-width="1px" opacity="0.25"></line><line x1="609" y1="0" x2="609" y2="377" fill="rgb(0, 0, 0)" stroke="rgb(189, 189, 189)" stroke-width="1px" opacity="0.25"></line><line x1="710.5" y1="0" x2="710.5" y2="377" fill="rgb(0, 0, 0)" stroke="rgb(189, 189, 189)" stroke-width="1px" opacity="0.25"></line><line x1="812" y1="0" x2="812" y2="377" fill="rgb(0, 0, 0)" stroke="rgb(189, 189, 189)" stroke-width="1px" opacity="0.25"></line></g><g><line x1="0" y1="377" x2="812" y2="377" fill="rgb(0, 0, 0)" stroke="rgb(189, 189, 189)" stroke-width="1px" opacity="0.25"></line><line x1="0" y1="335.1111111111111" x2="812" y2="335.1111111111111" fill="rgb(0, 0, 0)" stroke="rgb(189, 189, 189)" stroke-width="1px" opacity="0.25"></line><line x1="0" y1="293.22222222222223" x2="812" y2="293.22222222222223" fill="rgb(0, 0, 0)" stroke="rgb(189, 189, 189)" stroke-width="1px" opacity="0.25"></line><line x1="0" y1="251.33333333333337" x2="812" y2="251.33333333333337" fill="rgb(0, 0, 0)" stroke="rgb(189, 189, 189)" stroke-width="1px" opacity="0.25"></line><line x1="0" y1="209.44444444444446" x2="812" y2="209.44444444444446" fill="rgb(0, 0, 0)" stroke="rgb(189, 189, 189)" stroke-width="1px" opacity="0.25"></line><line x1="0" y1="167.55555555555554" x2="812" y2="167.55555555555554" fill="rgb(0, 0, 0)" stroke="rgb(189, 189, 189)" stroke-width="1px" opacity="0.25"></line><line x1="0" y1="125.66666666666669" x2="812" y2="125.66666666666669" fill="rgb(0, 0, 0)" stroke="rgb(189, 189, 189)" stroke-width="1px" opacity="0.25"></line><line x1="0" y1="83.77777777777781" x2="812" y2="83.77777777777781" fill="rgb(0, 0, 0)" stroke="rgb(189, 189, 189)" stroke-width="1px" opacity="0.25"></line><line x1="0" y1="41.888888888888864" x2="812" y2="41.888888888888864" fill="rgb(0, 0, 0)" stroke="rgb(189, 189, 189)" stroke-width="1px" opacity="0.25"></line><line x1="0" y1="0" x2="812" y2="0" fill="rgb(0, 0, 0)" stroke="rgb(189, 189, 189)" stroke-width="1px" opacity="0.25"></line></g></g></g><g><g><line x1="0" y1="377" x2="812" y2="377" fill="rgb(0, 0, 0)" stroke="rgb(153, 153, 153)" stroke-width="1.5px"></line></g></g><g><g><line x1="101.5" y1="0" x2="101.5" y2="377" fill="rgb(0, 0, 0)" stroke="rgb(153, 153, 153)" stroke-width="1.5px"></line></g></g><g><g><g><g><g><path stroke="rgb(204, 51, 17)" stroke-width="2px" d="M101.5,232.79131070110532L152.25,216.05506337268486L203,208.25095317625943L253.75,200.0659088471698L304.5,197.263876211111L355.25,193.9493273063571L406,189.45729690676086L456.75,184.21696321405616L507.5,181.9738043632071L558.25,176.89748735729097L609,174.125552862157L659.75,172.26582731688563L710.5,169.70734452155483L761.25,168.27576361441933" style="fill: none;" fill="none"></path></g><g><path stroke="rgb(187, 187, 187)" stroke-width="2px" d="M101.5,263.44679387410486L152.25,239.6722311394082L203,223.79381475697298L253.75,211.5100056885261L304.5,202.68579693453765L355.25,195.02381513094988L406,187.71514534622025L456.75,181.9087143921146L507.5,176.82752972146753L558.25,171.91639019999246L609,167.0111534828645L659.75,162.35031228498156L710.5,158.6844761054583L761.25,155.17979570610856" style="fill: none;" fill="none"></path></g><g><path stroke="rgb(238, 51, 119)" stroke-width="2px" d="M101.5,324.8367175244623L152.25,321.03841872285636L203,315.8060722141917L253.75,314.0504362849226L304.5,311.09567553683576L355.25,310.56607250997433L406,309.09227346634964L456.75,305.8911863505458L507.5,305.4633399797942L558.25,303.4260867895225" style="fill: none;" fill="none"></path></g><g><path stroke="rgb(51, 187, 238)" stroke-width="2px" d="M101.5,335.2961400432719L152.25,328.7479976152794L203,324.573418741087L253.75,321.16356540908976L304.5,318.8927857869378L355.25,316.5347582397437L406,314.6287192149284L456.75,312.74262387578295L507.5,311.38384684547685L558.25,309.9536551030415" style="fill: none;" fill="none"></path></g><g><path stroke="rgb(0, 119, 187)" stroke-width="2px" d="M101.5,216.05847926934564L152.25,213.85379808147752L203,207.32975424376744L253.75,199.58823802037276L304.5,196.40455888596983L355.25,190.40541221224984L406,182.9982328828482L456.75,180.66215877453934L507.5,179.28588168189762L101.5,204.9086837155495L152.25,205.31346457474805L203,204.67159236922822L253.75,194.92730379214527L304.5,190.14795903965856L355.25,185.34172071208556L406,176.63743111521896L456.75,177.94338281262984L507.5,177.84484779794863L101.5,200.5394021054262L152.25,201.10307473236057L203,202.49953530402024L253.75,198.5752254850168L304.5,198.8663084734889L355.25,191.9859535519679L406,190.32700642123382L456.75,181.04203823824625L507.5,174.58919658411668L558.25,170.01199740511086L101.5,200.77680115772512L152.25,205.1257284135132L203,205.971343960968L253.75,203.30397704800265L304.5,193.94308887130288L355.25,190.4430452588122L406,181.81717021754068L456.75,179.64000923733477L507.5,177.62821467909927L558.25,178.36125490788177" style="fill: none;" fill="none"></path></g><g><path stroke="rgb(255, 112, 67)" stroke-width="2px" d="M101.5,263.9454866978857L152.25,224.29990968273742L203,196.593470627083L253.75,170.38356701973706L304.5,144.06568825531235L355.25,119.09999019415008L406,96.20890205611495L456.75,71.95636220249907L507.5,51.78665024423602L101.5,137.49926860065167L152.25,163.0951778698605L203,163.8057455505593L253.75,154.0619221446502L304.5,136.63632652180374L355.25,114.57280112554858L406,93.20109080777358L456.75,70.22432344585937L507.5,50.4193840646098L101.5,133.81696069447693L152.25,159.30521323814256L203,161.76183456524387L253.75,152.4181246242439L304.5,133.28172137523865L355.25,112.17334512818132L406,89.81560596463854L456.75,62.73850176552993L507.5,42.191723852028815L558.25,27.382586414292454L101.5,120.65145925377043L152.25,152.9597976725027L203,159.641666209136L253.75,150.74917905811822L304.5,135.026234916771L355.25,113.38555882673579L406,92.52786149137862L456.75,73.1654655909723L507.5,56.585862898116474L558.25,38.566325961169824" style="fill: none;" fill="none"></path></g></g></g></g><g opacity="0.2"><g><g><g><path stroke="rgb(204, 51, 17)" stroke-width="2px" d="M101.5,232.79131070110532L152.25,206.01331497563257L203,200.7590073876911L253.75,190.44029671616022L304.5,193.60554240147275L355.25,189.3641129334768L406,183.0336215628518L456.75,176.57650638288925L507.5,178.66558076937991L558.25,169.35974821779462L609,169.99279236131247L659.75,169.48635954327057L710.5,165.87797421879242L761.25,166.1311968697442" style="fill: none;" fill="none"></path></g><g><path stroke="rgb(187, 187, 187)" stroke-width="2px" d="M101.5,263.44679387410486L152.25,225.40749349859027L203,208.55053502983515L253.75,197.0642462240325L304.5,191.16490998533038L355.25,184.42453598313864L406,177.26363061534033L456.75,173.4428823192914L507.5,169.33376930157345L558.25,164.62392037444647L609,159.69778854317138L659.75,155.38441458013324L710.5,153.1976914273368L761.25,149.92964114083185" style="fill: none;" fill="none"></path></g><g><path stroke="rgb(238, 51, 119)" stroke-width="2px" d="M101.5,324.8367175244623L152.25,318.7594394418928L203,310.7830195658737L253.75,311.9858084321022L304.5,307.2379399041335L355.25,309.83344086673526L406,306.98471725318166L456.75,301.2239706052674L507.5,304.8323496878147L558.25,300.40100323160493" style="fill: none;" fill="none"></path></g><g><path stroke="rgb(51, 187, 238)" stroke-width="2px" d="M101.5,335.2961400432719L152.25,324.8191121584839L203,320.56582302186223L253.75,317.15357789066104L304.5,315.92805591225624L355.25,313.2727572520574L406,311.90305291281805L456.75,309.9926787647936L507.5,309.3799146546258L558.25,307.8299870457914" style="fill: none;" fill="none"></path></g><g><path stroke="rgb(0, 119, 187)" stroke-width="2px" d="M101.5,216.05847926934564L152.25,212.53098936875665L203,201.06667215956583L253.75,190.48421494166058L304.5,192.24794740809335L355.25,182.1064326696926L406,172.40584792693454L456.75,177.2561402983136L507.5,177.2561402983136L101.5,242.95555855168237L152.25,205.91696453094482L203,203.71227710114584L253.75,180.3426877193981L304.5,182.98830514483984L355.25,178.13801277346084L406,163.5871356593238L456.75,179.90175772375534L507.5,177.69707029395636L101.5,234.57777627971439L152.25,201.94853215085135L203,204.5941495762931L253.75,192.68888988759784L304.5,199.30292720927133L355.25,181.66550267404983L406,187.83859751621884L456.75,167.11462555991278L507.5,164.90995061397552L558.25,163.14620566368103L101.5,246.92397844791412L152.25,211.6491168936094L203,207.23976700173483L253.75,199.30292720927133L304.5,179.90175772375534L355.25,185.1929800907771L406,168.87835802634555L456.75,176.37426782316635L507.5,174.61052287287185L558.25,179.46081524425085" style="fill: none;" fill="none"></path></g><g><path stroke="rgb(255, 112, 67)" stroke-width="2px" d="M101.5,263.9454866978857L152.25,200.51256347364847L203,169.9952891336547L253.75,139.56072037749823L304.5,109.70506574047937L355.25,84.5634421242608L406,63.47427976131439L456.75,36.595926271544556L507.5,22.04024287064873L101.5,264.77251756853525L152.25,201.25688876046075L203,164.86773019366797L253.75,139.4780023097992L304.5,110.53207164340552L355.25,81.5034478770362L406,61.158598317040344L456.75,35.76889540089502L507.5,20.71700346469879L101.5,258.9006208578745L152.25,197.5352623263995L203,165.4466318289439L253.75,138.40286717149945L304.5,104.57749431663092L355.25,80.51103080643549L406,56.27915612856548L456.75,22.122960938347717L507.5,11.371609555350405L558.25,5.1689029932022095L101.5,260.55468259917365L152.25,201.42228744427365L203,169.6644667983055L253.75,137.41045010089874L304.5,111.44182058175403L355.25,80.92454624176025L406,61.24131638473937L456.75,44.12187223964269L507.5,31.7164591153463L558.25,11.537020723025018" style="fill: none;" fill="none"></path></g></g></g></g></g><g><g opacity="0.484235"><span fill="rgb(0, 0, 0)" stroke="none" stroke-width="1px">Alt + Scroll to Zoom</span></g></g></g><g transform="translate(40, 377)" clip-path="url(#clip_1)"><clipPath id="clip_1"><rect width="812" height="23"></rect></clipPath><g><g><line x1="0" y1="0" x2="0" y2="5" style="visibility: inherit;" fill="rgb(0, 0, 0)" stroke="rgb(204, 204, 204)" stroke-width="1px"></line><line x1="101.5" y1="0" x2="101.5" y2="5" style="visibility: inherit;" fill="rgb(0, 0, 0)" stroke="rgb(204, 204, 204)" stroke-width="1px"></line><line x1="203" y1="0" x2="203" y2="5" style="visibility: inherit;" fill="rgb(0, 0, 0)" stroke="rgb(204, 204, 204)" stroke-width="1px"></line><line x1="304.5" y1="0" x2="304.5" y2="5" style="visibility: inherit;" fill="rgb(0, 0, 0)" stroke="rgb(204, 204, 204)" stroke-width="1px"></line><line x1="406" y1="0" x2="406" y2="5" style="visibility: inherit;" fill="rgb(0, 0, 0)" stroke="rgb(204, 204, 204)" stroke-width="1px"></line><line x1="507.5" y1="0" x2="507.5" y2="5" style="visibility: inherit;" fill="rgb(0, 0, 0)" stroke="rgb(204, 204, 204)" stroke-width="1px"></line><line x1="609" y1="0" x2="609" y2="5" style="visibility: inherit;" fill="rgb(0, 0, 0)" stroke="rgb(204, 204, 204)" stroke-width="1px"></line><line x1="710.5" y1="0" x2="710.5" y2="5" style="visibility: inherit;" fill="rgb(0, 0, 0)" stroke="rgb(204, 204, 204)" stroke-width="1px"></line><line x1="812" y1="0" x2="812" y2="5" style="visibility: inherit;" fill="rgb(0, 0, 0)" stroke="rgb(204, 204, 204)" stroke-width="1px"></line></g><g transform="translate(0, 8)"><text x="0" y="0" dx="0em" dy="0.95em" style="text-anchor: middle; visibility: hidden; font-family: Roboto, sans-serif; font-size: 12px; font-weight: 200;" fill="rgb(255, 255, 255)" stroke="none" stroke-width="1px">-2</text><text x="101.5" y="0" dx="0em" dy="0.95em" style="text-anchor: middle; visibility: inherit; font-family: Roboto, sans-serif; font-size: 12px; font-weight: 200;" fill="rgb(255, 255, 255)" stroke="none" stroke-width="1px">0</text><text x="203" y="0" dx="0em" dy="0.95em" style="text-anchor: middle; visibility: inherit; font-family: Roboto, sans-serif; font-size: 12px; font-weight: 200;" fill="rgb(255, 255, 255)" stroke="none" stroke-width="1px">2</text><text x="304.5" y="0" dx="0em" dy="0.95em" style="text-anchor: middle; visibility: inherit; font-family: Roboto, sans-serif; font-size: 12px; font-weight: 200;" fill="rgb(255, 255, 255)" stroke="none" stroke-width="1px">4</text><text x="406" y="0" dx="0em" dy="0.95em" style="text-anchor: middle; visibility: inherit; font-family: Roboto, sans-serif; font-size: 12px; font-weight: 200;" fill="rgb(255, 255, 255)" stroke="none" stroke-width="1px">6</text><text x="507.5" y="0" dx="0em" dy="0.95em" style="text-anchor: middle; visibility: inherit; font-family: Roboto, sans-serif; font-size: 12px; font-weight: 200;" fill="rgb(255, 255, 255)" stroke="none" stroke-width="1px">8</text><text x="609" y="0" dx="0em" dy="0.95em" style="text-anchor: middle; visibility: inherit; font-family: Roboto, sans-serif; font-size: 12px; font-weight: 200;" fill="rgb(255, 255, 255)" stroke="none" stroke-width="1px">10</text><text x="710.5" y="0" dx="0em" dy="0.95em" style="text-anchor: middle; visibility: inherit; font-family: Roboto, sans-serif; font-size: 12px; font-weight: 200;" fill="rgb(255, 255, 255)" stroke="none" stroke-width="1px">12</text><text x="812" y="0" dx="0em" dy="0.95em" style="text-anchor: middle; visibility: hidden; font-family: Roboto, sans-serif; font-size: 12px; font-weight: 200;" fill="rgb(255, 255, 255)" stroke="none" stroke-width="1px">14</text></g><line x1="0" y1="0" x2="812" y2="0" fill="rgb(0, 0, 0)" stroke="rgb(204, 204, 204)" stroke-width="1px"></line></g></g></g></g></svg>