<?xml version="1.0" encoding="utf-8" standalone="no"?>
<!DOCTYPE svg PUBLIC "-//W3C//DTD SVG 1.1//EN"
  "http://www.w3.org/Graphics/SVG/1.1/DTD/svg11.dtd">
<svg xmlns:xlink="http://www.w3.org/1999/xlink" width="360pt" height="360pt" viewBox="0 0 360 360" xmlns="http://www.w3.org/2000/svg" version="1.1">
 <metadata>
  <rdf:RDF xmlns:dc="http://purl.org/dc/elements/1.1/" xmlns:cc="http://creativecommons.org/ns#" xmlns:rdf="http://www.w3.org/1999/02/22-rdf-syntax-ns#">
   <cc:Work>
    <dc:type rdf:resource="http://purl.org/dc/dcmitype/StillImage"/>
    <dc:date>2023-03-17T14:59:13.247535</dc:date>
    <dc:format>image/svg+xml</dc:format>
    <dc:creator>
     <cc:Agent>
      <dc:title>Matplotlib v3.6.3, https://matplotlib.org/</dc:title>
     </cc:Agent>
    </dc:creator>
   </cc:Work>
  </rdf:RDF>
 </metadata>
 <defs>
  <style type="text/css">*{stroke-linejoin: round; stroke-linecap: butt}</style>
 </defs>
 <g id="figure_1">
  <g id="patch_1">
   <path d="M 0 360 
L 360 360 
L 360 0 
L 0 0 
z
" style="fill: #ffffff"/>
  </g>
  <g id="axes_1">
   <g id="patch_2">
    <path d="M 46.44 326.74 
L 347.04 326.74 
L 347.04 13.365975 
L 46.44 13.365975 
z
" style="fill: #eaeaf2"/>
   </g>
   <g id="matplotlib.axis_1">
    <g id="xtick_1">
     <g id="line2d_1">
      <path d="M 46.44 326.74 
L 46.44 13.365975 
" clip-path="url(#p05118164ed)" style="fill: none; stroke: #ffffff; stroke-linecap: round"/>
     </g>
     <g id="text_1">
      <!-- 0.0 -->
      <g style="fill: #262626" transform="translate(37.693281 344.598281) scale(0.11 -0.11)">
       <defs>
        <path id="DejaVuSans-30" d="M 2034 4250 
Q 1547 4250 1301 3770 
Q 1056 3291 1056 2328 
Q 1056 1369 1301 889 
Q 1547 409 2034 409 
Q 2525 409 2770 889 
Q 3016 1369 3016 2328 
Q 3016 3291 2770 3770 
Q 2525 4250 2034 4250 
z
M 2034 4750 
Q 2819 4750 3233 4129 
Q 3647 3509 3647 2328 
Q 3647 1150 3233 529 
Q 2819 -91 2034 -91 
Q 1250 -91 836 529 
Q 422 1150 422 2328 
Q 422 3509 836 4129 
Q 1250 4750 2034 4750 
z
" transform="scale(0.015625)"/>
        <path id="DejaVuSans-2e" d="M 684 794 
L 1344 794 
L 1344 0 
L 684 0 
L 684 794 
z
" transform="scale(0.015625)"/>
       </defs>
       <use xlink:href="#DejaVuSans-30"/>
       <use xlink:href="#DejaVuSans-2e" x="63.623047"/>
       <use xlink:href="#DejaVuSans-30" x="95.410156"/>
      </g>
     </g>
    </g>
    <g id="xtick_2">
     <g id="line2d_2">
      <path d="M 106.56 326.74 
L 106.56 13.365975 
" clip-path="url(#p05118164ed)" style="fill: none; stroke: #ffffff; stroke-linecap: round"/>
     </g>
     <g id="text_2">
      <!-- 0.2 -->
      <g style="fill: #262626" transform="translate(97.813281 344.598281) scale(0.11 -0.11)">
       <defs>
        <path id="DejaVuSans-32" d="M 1228 531 
L 3431 531 
L 3431 0 
L 469 0 
L 469 531 
Q 828 903 1448 1529 
Q 2069 2156 2228 2338 
Q 2531 2678 2651 2914 
Q 2772 3150 2772 3378 
Q 2772 3750 2511 3984 
Q 2250 4219 1831 4219 
Q 1534 4219 1204 4116 
Q 875 4013 500 3803 
L 500 4441 
Q 881 4594 1212 4672 
Q 1544 4750 1819 4750 
Q 2544 4750 2975 4387 
Q 3406 4025 3406 3419 
Q 3406 3131 3298 2873 
Q 3191 2616 2906 2266 
Q 2828 2175 2409 1742 
Q 1991 1309 1228 531 
z
" transform="scale(0.015625)"/>
       </defs>
       <use xlink:href="#DejaVuSans-30"/>
       <use xlink:href="#DejaVuSans-2e" x="63.623047"/>
       <use xlink:href="#DejaVuSans-32" x="95.410156"/>
      </g>
     </g>
    </g>
    <g id="xtick_3">
     <g id="line2d_3">
      <path d="M 166.68 326.74 
L 166.68 13.365975 
" clip-path="url(#p05118164ed)" style="fill: none; stroke: #ffffff; stroke-linecap: round"/>
     </g>
     <g id="text_3">
      <!-- 0.4 -->
      <g style="fill: #262626" transform="translate(157.933281 344.598281) scale(0.11 -0.11)">
       <defs>
        <path id="DejaVuSans-34" d="M 2419 4116 
L 825 1625 
L 2419 1625 
L 2419 4116 
z
M 2253 4666 
L 3047 4666 
L 3047 1625 
L 3713 1625 
L 3713 1100 
L 3047 1100 
L 3047 0 
L 2419 0 
L 2419 1100 
L 313 1100 
L 313 1709 
L 2253 4666 
z
" transform="scale(0.015625)"/>
       </defs>
       <use xlink:href="#DejaVuSans-30"/>
       <use xlink:href="#DejaVuSans-2e" x="63.623047"/>
       <use xlink:href="#DejaVuSans-34" x="95.410156"/>
      </g>
     </g>
    </g>
    <g id="xtick_4">
     <g id="line2d_4">
      <path d="M 226.8 326.74 
L 226.8 13.365975 
" clip-path="url(#p05118164ed)" style="fill: none; stroke: #ffffff; stroke-linecap: round"/>
     </g>
     <g id="text_4">
      <!-- 0.6 -->
      <g style="fill: #262626" transform="translate(218.053281 344.598281) scale(0.11 -0.11)">
       <defs>
        <path id="DejaVuSans-36" d="M 2113 2584 
Q 1688 2584 1439 2293 
Q 1191 2003 1191 1497 
Q 1191 994 1439 701 
Q 1688 409 2113 409 
Q 2538 409 2786 701 
Q 3034 994 3034 1497 
Q 3034 2003 2786 2293 
Q 2538 2584 2113 2584 
z
M 3366 4563 
L 3366 3988 
Q 3128 4100 2886 4159 
Q 2644 4219 2406 4219 
Q 1781 4219 1451 3797 
Q 1122 3375 1075 2522 
Q 1259 2794 1537 2939 
Q 1816 3084 2150 3084 
Q 2853 3084 3261 2657 
Q 3669 2231 3669 1497 
Q 3669 778 3244 343 
Q 2819 -91 2113 -91 
Q 1303 -91 875 529 
Q 447 1150 447 2328 
Q 447 3434 972 4092 
Q 1497 4750 2381 4750 
Q 2619 4750 2861 4703 
Q 3103 4656 3366 4563 
z
" transform="scale(0.015625)"/>
       </defs>
       <use xlink:href="#DejaVuSans-30"/>
       <use xlink:href="#DejaVuSans-2e" x="63.623047"/>
       <use xlink:href="#DejaVuSans-36" x="95.410156"/>
      </g>
     </g>
    </g>
    <g id="xtick_5">
     <g id="line2d_5">
      <path d="M 286.92 326.74 
L 286.92 13.365975 
" clip-path="url(#p05118164ed)" style="fill: none; stroke: #ffffff; stroke-linecap: round"/>
     </g>
     <g id="text_5">
      <!-- 0.8 -->
      <g style="fill: #262626" transform="translate(278.173281 344.598281) scale(0.11 -0.11)">
       <defs>
        <path id="DejaVuSans-38" d="M 2034 2216 
Q 1584 2216 1326 1975 
Q 1069 1734 1069 1313 
Q 1069 891 1326 650 
Q 1584 409 2034 409 
Q 2484 409 2743 651 
Q 3003 894 3003 1313 
Q 3003 1734 2745 1975 
Q 2488 2216 2034 2216 
z
M 1403 2484 
Q 997 2584 770 2862 
Q 544 3141 544 3541 
Q 544 4100 942 4425 
Q 1341 4750 2034 4750 
Q 2731 4750 3128 4425 
Q 3525 4100 3525 3541 
Q 3525 3141 3298 2862 
Q 3072 2584 2669 2484 
Q 3125 2378 3379 2068 
Q 3634 1759 3634 1313 
Q 3634 634 3220 271 
Q 2806 -91 2034 -91 
Q 1263 -91 848 271 
Q 434 634 434 1313 
Q 434 1759 690 2068 
Q 947 2378 1403 2484 
z
M 1172 3481 
Q 1172 3119 1398 2916 
Q 1625 2713 2034 2713 
Q 2441 2713 2670 2916 
Q 2900 3119 2900 3481 
Q 2900 3844 2670 4047 
Q 2441 4250 2034 4250 
Q 1625 4250 1398 4047 
Q 1172 3844 1172 3481 
z
" transform="scale(0.015625)"/>
       </defs>
       <use xlink:href="#DejaVuSans-30"/>
       <use xlink:href="#DejaVuSans-2e" x="63.623047"/>
       <use xlink:href="#DejaVuSans-38" x="95.410156"/>
      </g>
     </g>
    </g>
    <g id="xtick_6">
     <g id="line2d_6">
      <path d="M 347.04 326.74 
L 347.04 13.365975 
" clip-path="url(#p05118164ed)" style="fill: none; stroke: #ffffff; stroke-linecap: round"/>
     </g>
     <g id="text_6">
      <!-- 1.0 -->
      <g style="fill: #262626" transform="translate(338.293281 344.598281) scale(0.11 -0.11)">
       <defs>
        <path id="DejaVuSans-31" d="M 794 531 
L 1825 531 
L 1825 4091 
L 703 3866 
L 703 4441 
L 1819 4666 
L 2450 4666 
L 2450 531 
L 3481 531 
L 3481 0 
L 794 0 
L 794 531 
z
" transform="scale(0.015625)"/>
       </defs>
       <use xlink:href="#DejaVuSans-31"/>
       <use xlink:href="#DejaVuSans-2e" x="63.623047"/>
       <use xlink:href="#DejaVuSans-30" x="95.410156"/>
      </g>
     </g>
    </g>
    <g id="text_7">
     <!-- Probabilités [-] -->
     <g style="fill: #262626" transform="translate(153.005625 360.004063) scale(0.12 -0.12)">
      <defs>
       <path id="DejaVuSans-50" d="M 1259 4147 
L 1259 2394 
L 2053 2394 
Q 2494 2394 2734 2622 
Q 2975 2850 2975 3272 
Q 2975 3691 2734 3919 
Q 2494 4147 2053 4147 
L 1259 4147 
z
M 628 4666 
L 2053 4666 
Q 2838 4666 3239 4311 
Q 3641 3956 3641 3272 
Q 3641 2581 3239 2228 
Q 2838 1875 2053 1875 
L 1259 1875 
L 1259 0 
L 628 0 
L 628 4666 
z
" transform="scale(0.015625)"/>
       <path id="DejaVuSans-72" d="M 2631 2963 
Q 2534 3019 2420 3045 
Q 2306 3072 2169 3072 
Q 1681 3072 1420 2755 
Q 1159 2438 1159 1844 
L 1159 0 
L 581 0 
L 581 3500 
L 1159 3500 
L 1159 2956 
Q 1341 3275 1631 3429 
Q 1922 3584 2338 3584 
Q 2397 3584 2469 3576 
Q 2541 3569 2628 3553 
L 2631 2963 
z
" transform="scale(0.015625)"/>
       <path id="DejaVuSans-6f" d="M 1959 3097 
Q 1497 3097 1228 2736 
Q 959 2375 959 1747 
Q 959 1119 1226 758 
Q 1494 397 1959 397 
Q 2419 397 2687 759 
Q 2956 1122 2956 1747 
Q 2956 2369 2687 2733 
Q 2419 3097 1959 3097 
z
M 1959 3584 
Q 2709 3584 3137 3096 
Q 3566 2609 3566 1747 
Q 3566 888 3137 398 
Q 2709 -91 1959 -91 
Q 1206 -91 779 398 
Q 353 888 353 1747 
Q 353 2609 779 3096 
Q 1206 3584 1959 3584 
z
" transform="scale(0.015625)"/>
       <path id="DejaVuSans-62" d="M 3116 1747 
Q 3116 2381 2855 2742 
Q 2594 3103 2138 3103 
Q 1681 3103 1420 2742 
Q 1159 2381 1159 1747 
Q 1159 1113 1420 752 
Q 1681 391 2138 391 
Q 2594 391 2855 752 
Q 3116 1113 3116 1747 
z
M 1159 2969 
Q 1341 3281 1617 3432 
Q 1894 3584 2278 3584 
Q 2916 3584 3314 3078 
Q 3713 2572 3713 1747 
Q 3713 922 3314 415 
Q 2916 -91 2278 -91 
Q 1894 -91 1617 61 
Q 1341 213 1159 525 
L 1159 0 
L 581 0 
L 581 4863 
L 1159 4863 
L 1159 2969 
z
" transform="scale(0.015625)"/>
       <path id="DejaVuSans-61" d="M 2194 1759 
Q 1497 1759 1228 1600 
Q 959 1441 959 1056 
Q 959 750 1161 570 
Q 1363 391 1709 391 
Q 2188 391 2477 730 
Q 2766 1069 2766 1631 
L 2766 1759 
L 2194 1759 
z
M 3341 1997 
L 3341 0 
L 2766 0 
L 2766 531 
Q 2569 213 2275 61 
Q 1981 -91 1556 -91 
Q 1019 -91 701 211 
Q 384 513 384 1019 
Q 384 1609 779 1909 
Q 1175 2209 1959 2209 
L 2766 2209 
L 2766 2266 
Q 2766 2663 2505 2880 
Q 2244 3097 1772 3097 
Q 1472 3097 1187 3025 
Q 903 2953 641 2809 
L 641 3341 
Q 956 3463 1253 3523 
Q 1550 3584 1831 3584 
Q 2591 3584 2966 3190 
Q 3341 2797 3341 1997 
z
" transform="scale(0.015625)"/>
       <path id="DejaVuSans-69" d="M 603 3500 
L 1178 3500 
L 1178 0 
L 603 0 
L 603 3500 
z
M 603 4863 
L 1178 4863 
L 1178 4134 
L 603 4134 
L 603 4863 
z
" transform="scale(0.015625)"/>
       <path id="DejaVuSans-6c" d="M 603 4863 
L 1178 4863 
L 1178 0 
L 603 0 
L 603 4863 
z
" transform="scale(0.015625)"/>
       <path id="DejaVuSans-74" d="M 1172 4494 
L 1172 3500 
L 2356 3500 
L 2356 3053 
L 1172 3053 
L 1172 1153 
Q 1172 725 1289 603 
Q 1406 481 1766 481 
L 2356 481 
L 2356 0 
L 1766 0 
Q 1100 0 847 248 
Q 594 497 594 1153 
L 594 3053 
L 172 3053 
L 172 3500 
L 594 3500 
L 594 4494 
L 1172 4494 
z
" transform="scale(0.015625)"/>
       <path id="DejaVuSans-e9" d="M 3597 1894 
L 3597 1613 
L 953 1613 
Q 991 1019 1311 708 
Q 1631 397 2203 397 
Q 2534 397 2845 478 
Q 3156 559 3463 722 
L 3463 178 
Q 3153 47 2828 -22 
Q 2503 -91 2169 -91 
Q 1331 -91 842 396 
Q 353 884 353 1716 
Q 353 2575 817 3079 
Q 1281 3584 2069 3584 
Q 2775 3584 3186 3129 
Q 3597 2675 3597 1894 
z
M 3022 2063 
Q 3016 2534 2758 2815 
Q 2500 3097 2075 3097 
Q 1594 3097 1305 2825 
Q 1016 2553 972 2059 
L 3022 2063 
z
M 2466 5119 
L 3088 5119 
L 2070 3944 
L 1591 3944 
L 2466 5119 
z
" transform="scale(0.015625)"/>
       <path id="DejaVuSans-73" d="M 2834 3397 
L 2834 2853 
Q 2591 2978 2328 3040 
Q 2066 3103 1784 3103 
Q 1356 3103 1142 2972 
Q 928 2841 928 2578 
Q 928 2378 1081 2264 
Q 1234 2150 1697 2047 
L 1894 2003 
Q 2506 1872 2764 1633 
Q 3022 1394 3022 966 
Q 3022 478 2636 193 
Q 2250 -91 1575 -91 
Q 1294 -91 989 -36 
Q 684 19 347 128 
L 347 722 
Q 666 556 975 473 
Q 1284 391 1588 391 
Q 1994 391 2212 530 
Q 2431 669 2431 922 
Q 2431 1156 2273 1281 
Q 2116 1406 1581 1522 
L 1381 1569 
Q 847 1681 609 1914 
Q 372 2147 372 2553 
Q 372 3047 722 3315 
Q 1072 3584 1716 3584 
Q 2034 3584 2315 3537 
Q 2597 3491 2834 3397 
z
" transform="scale(0.015625)"/>
       <path id="DejaVuSans-20" transform="scale(0.015625)"/>
       <path id="DejaVuSans-5b" d="M 550 4863 
L 1875 4863 
L 1875 4416 
L 1125 4416 
L 1125 -397 
L 1875 -397 
L 1875 -844 
L 550 -844 
L 550 4863 
z
" transform="scale(0.015625)"/>
       <path id="DejaVuSans-2d" d="M 313 2009 
L 1997 2009 
L 1997 1497 
L 313 1497 
L 313 2009 
z
" transform="scale(0.015625)"/>
       <path id="DejaVuSans-5d" d="M 1947 4863 
L 1947 -844 
L 622 -844 
L 622 -397 
L 1369 -397 
L 1369 4416 
L 622 4416 
L 622 4863 
L 1947 4863 
z
" transform="scale(0.015625)"/>
      </defs>
      <use xlink:href="#DejaVuSans-50"/>
      <use xlink:href="#DejaVuSans-72" x="58.552734"/>
      <use xlink:href="#DejaVuSans-6f" x="97.416016"/>
      <use xlink:href="#DejaVuSans-62" x="158.597656"/>
      <use xlink:href="#DejaVuSans-61" x="222.074219"/>
      <use xlink:href="#DejaVuSans-62" x="283.353516"/>
      <use xlink:href="#DejaVuSans-69" x="346.830078"/>
      <use xlink:href="#DejaVuSans-6c" x="374.613281"/>
      <use xlink:href="#DejaVuSans-69" x="402.396484"/>
      <use xlink:href="#DejaVuSans-74" x="430.179688"/>
      <use xlink:href="#DejaVuSans-e9" x="469.388672"/>
      <use xlink:href="#DejaVuSans-73" x="530.912109"/>
      <use xlink:href="#DejaVuSans-20" x="583.011719"/>
      <use xlink:href="#DejaVuSans-5b" x="614.798828"/>
      <use xlink:href="#DejaVuSans-2d" x="653.8125"/>
      <use xlink:href="#DejaVuSans-5d" x="689.896484"/>
     </g>
    </g>
   </g>
   <g id="matplotlib.axis_2">
    <g id="ytick_1">
     <g id="line2d_7">
      <path d="M 46.44 326.74 
L 347.04 326.74 
" clip-path="url(#p05118164ed)" style="fill: none; stroke: #ffffff; stroke-linecap: round"/>
     </g>
     <g id="text_8">
      <!-- 0 -->
      <g style="fill: #262626" transform="translate(29.94125 330.919141) scale(0.11 -0.11)">
       <use xlink:href="#DejaVuSans-30"/>
      </g>
     </g>
    </g>
    <g id="ytick_2">
     <g id="line2d_8">
      <path d="M 46.44 282.538501 
L 347.04 282.538501 
" clip-path="url(#p05118164ed)" style="fill: none; stroke: #ffffff; stroke-linecap: round"/>
     </g>
     <g id="text_9">
      <!-- 1 -->
      <g style="fill: #262626" transform="translate(29.94125 286.717641) scale(0.11 -0.11)">
       <use xlink:href="#DejaVuSans-31"/>
      </g>
     </g>
    </g>
    <g id="ytick_3">
     <g id="line2d_9">
      <path d="M 46.44 238.337001 
L 347.04 238.337001 
" clip-path="url(#p05118164ed)" style="fill: none; stroke: #ffffff; stroke-linecap: round"/>
     </g>
     <g id="text_10">
      <!-- 2 -->
      <g style="fill: #262626" transform="translate(29.94125 242.516142) scale(0.11 -0.11)">
       <use xlink:href="#DejaVuSans-32"/>
      </g>
     </g>
    </g>
    <g id="ytick_4">
     <g id="line2d_10">
      <path d="M 46.44 194.135502 
L 347.04 194.135502 
" clip-path="url(#p05118164ed)" style="fill: none; stroke: #ffffff; stroke-linecap: round"/>
     </g>
     <g id="text_11">
      <!-- 3 -->
      <g style="fill: #262626" transform="translate(29.94125 198.314642) scale(0.11 -0.11)">
       <defs>
        <path id="DejaVuSans-33" d="M 2597 2516 
Q 3050 2419 3304 2112 
Q 3559 1806 3559 1356 
Q 3559 666 3084 287 
Q 2609 -91 1734 -91 
Q 1441 -91 1130 -33 
Q 819 25 488 141 
L 488 750 
Q 750 597 1062 519 
Q 1375 441 1716 441 
Q 2309 441 2620 675 
Q 2931 909 2931 1356 
Q 2931 1769 2642 2001 
Q 2353 2234 1838 2234 
L 1294 2234 
L 1294 2753 
L 1863 2753 
Q 2328 2753 2575 2939 
Q 2822 3125 2822 3475 
Q 2822 3834 2567 4026 
Q 2313 4219 1838 4219 
Q 1578 4219 1281 4162 
Q 984 4106 628 3988 
L 628 4550 
Q 988 4650 1302 4700 
Q 1616 4750 1894 4750 
Q 2613 4750 3031 4423 
Q 3450 4097 3450 3541 
Q 3450 3153 3228 2886 
Q 3006 2619 2597 2516 
z
" transform="scale(0.015625)"/>
       </defs>
       <use xlink:href="#DejaVuSans-33"/>
      </g>
     </g>
    </g>
    <g id="ytick_5">
     <g id="line2d_11">
      <path d="M 46.44 149.934002 
L 347.04 149.934002 
" clip-path="url(#p05118164ed)" style="fill: none; stroke: #ffffff; stroke-linecap: round"/>
     </g>
     <g id="text_12">
      <!-- 4 -->
      <g style="fill: #262626" transform="translate(29.94125 154.113143) scale(0.11 -0.11)">
       <use xlink:href="#DejaVuSans-34"/>
      </g>
     </g>
    </g>
    <g id="ytick_6">
     <g id="line2d_12">
      <path d="M 46.44 105.732503 
L 347.04 105.732503 
" clip-path="url(#p05118164ed)" style="fill: none; stroke: #ffffff; stroke-linecap: round"/>
     </g>
     <g id="text_13">
      <!-- 5 -->
      <g style="fill: #262626" transform="translate(29.94125 109.911644) scale(0.11 -0.11)">
       <defs>
        <path id="DejaVuSans-35" d="M 691 4666 
L 3169 4666 
L 3169 4134 
L 1269 4134 
L 1269 2991 
Q 1406 3038 1543 3061 
Q 1681 3084 1819 3084 
Q 2600 3084 3056 2656 
Q 3513 2228 3513 1497 
Q 3513 744 3044 326 
Q 2575 -91 1722 -91 
Q 1428 -91 1123 -41 
Q 819 9 494 109 
L 494 744 
Q 775 591 1075 516 
Q 1375 441 1709 441 
Q 2250 441 2565 725 
Q 2881 1009 2881 1497 
Q 2881 1984 2565 2268 
Q 2250 2553 1709 2553 
Q 1456 2553 1204 2497 
Q 953 2441 691 2322 
L 691 4666 
z
" transform="scale(0.015625)"/>
       </defs>
       <use xlink:href="#DejaVuSans-35"/>
      </g>
     </g>
    </g>
    <g id="ytick_7">
     <g id="line2d_13">
      <path d="M 46.44 61.531004 
L 347.04 61.531004 
" clip-path="url(#p05118164ed)" style="fill: none; stroke: #ffffff; stroke-linecap: round"/>
     </g>
     <g id="text_14">
      <!-- 6 -->
      <g style="fill: #262626" transform="translate(29.94125 65.710144) scale(0.11 -0.11)">
       <use xlink:href="#DejaVuSans-36"/>
      </g>
     </g>
    </g>
    <g id="ytick_8">
     <g id="line2d_14">
      <path d="M 46.44 17.329504 
L 347.04 17.329504 
" clip-path="url(#p05118164ed)" style="fill: none; stroke: #ffffff; stroke-linecap: round"/>
     </g>
     <g id="text_15">
      <!-- 7 -->
      <g style="fill: #262626" transform="translate(29.94125 21.508645) scale(0.11 -0.11)">
       <defs>
        <path id="DejaVuSans-37" d="M 525 4666 
L 3525 4666 
L 3525 4397 
L 1831 0 
L 1172 0 
L 2766 4134 
L 525 4134 
L 525 4666 
z
" transform="scale(0.015625)"/>
       </defs>
       <use xlink:href="#DejaVuSans-37"/>
      </g>
     </g>
    </g>
    <g id="text_16">
     <!-- Densité [-] -->
     <g style="fill: #262626" transform="translate(23.445625 201.757363) rotate(-90) scale(0.12 -0.12)">
      <defs>
       <path id="DejaVuSans-44" d="M 1259 4147 
L 1259 519 
L 2022 519 
Q 2988 519 3436 956 
Q 3884 1394 3884 2338 
Q 3884 3275 3436 3711 
Q 2988 4147 2022 4147 
L 1259 4147 
z
M 628 4666 
L 1925 4666 
Q 3281 4666 3915 4102 
Q 4550 3538 4550 2338 
Q 4550 1131 3912 565 
Q 3275 0 1925 0 
L 628 0 
L 628 4666 
z
" transform="scale(0.015625)"/>
       <path id="DejaVuSans-65" d="M 3597 1894 
L 3597 1613 
L 953 1613 
Q 991 1019 1311 708 
Q 1631 397 2203 397 
Q 2534 397 2845 478 
Q 3156 559 3463 722 
L 3463 178 
Q 3153 47 2828 -22 
Q 2503 -91 2169 -91 
Q 1331 -91 842 396 
Q 353 884 353 1716 
Q 353 2575 817 3079 
Q 1281 3584 2069 3584 
Q 2775 3584 3186 3129 
Q 3597 2675 3597 1894 
z
M 3022 2063 
Q 3016 2534 2758 2815 
Q 2500 3097 2075 3097 
Q 1594 3097 1305 2825 
Q 1016 2553 972 2059 
L 3022 2063 
z
" transform="scale(0.015625)"/>
       <path id="DejaVuSans-6e" d="M 3513 2113 
L 3513 0 
L 2938 0 
L 2938 2094 
Q 2938 2591 2744 2837 
Q 2550 3084 2163 3084 
Q 1697 3084 1428 2787 
Q 1159 2491 1159 1978 
L 1159 0 
L 581 0 
L 581 3500 
L 1159 3500 
L 1159 2956 
Q 1366 3272 1645 3428 
Q 1925 3584 2291 3584 
Q 2894 3584 3203 3211 
Q 3513 2838 3513 2113 
z
" transform="scale(0.015625)"/>
      </defs>
      <use xlink:href="#DejaVuSans-44"/>
      <use xlink:href="#DejaVuSans-65" x="77.001953"/>
      <use xlink:href="#DejaVuSans-6e" x="138.525391"/>
      <use xlink:href="#DejaVuSans-73" x="201.904297"/>
      <use xlink:href="#DejaVuSans-69" x="254.003906"/>
      <use xlink:href="#DejaVuSans-74" x="281.787109"/>
      <use xlink:href="#DejaVuSans-e9" x="320.996094"/>
      <use xlink:href="#DejaVuSans-20" x="382.519531"/>
      <use xlink:href="#DejaVuSans-5b" x="414.306641"/>
      <use xlink:href="#DejaVuSans-2d" x="453.320312"/>
      <use xlink:href="#DejaVuSans-5d" x="489.404297"/>
     </g>
    </g>
   </g>
   <g id="PolyCollection_1">
    <defs>
     <path id="m94d624518b" d="M 46.44 -330.701244 
L 46.44 -33.26 
L 47.430986 -33.26 
L 48.421971 -33.26 
L 49.412957 -33.26 
L 50.403942 -33.26 
L 51.394928 -33.26 
L 52.385913 -33.26 
L 53.376899 -33.26 
L 54.367884 -33.26 
L 55.35887 -33.26 
L 56.349856 -33.26 
L 57.340841 -33.26 
L 58.331827 -33.26 
L 59.322812 -33.26 
L 60.313798 -33.26 
L 61.304783 -33.26 
L 62.295769 -33.26 
L 63.286755 -33.26 
L 64.27774 -33.26 
L 65.268726 -33.26 
L 66.259711 -33.26 
L 67.250697 -33.26 
L 68.241682 -33.26 
L 69.232668 -33.26 
L 70.223653 -33.26 
L 71.214639 -33.26 
L 72.205625 -33.26 
L 73.19661 -33.26 
L 74.187596 -33.26 
L 75.178581 -33.26 
L 76.169567 -33.26 
L 77.160552 -33.26 
L 78.151538 -33.26 
L 79.142524 -33.26 
L 80.133509 -33.26 
L 81.124495 -33.26 
L 82.11548 -33.26 
L 83.106466 -33.26 
L 84.097451 -33.26 
L 85.088437 -33.26 
L 86.079422 -33.26 
L 87.070408 -33.26 
L 88.061394 -33.26 
L 89.052379 -33.26 
L 90.043365 -33.26 
L 91.03435 -33.26 
L 92.025336 -33.26 
L 93.016321 -33.26 
L 94.007307 -33.26 
L 94.998292 -33.26 
L 95.989278 -33.26 
L 96.980264 -33.26 
L 97.971249 -33.26 
L 98.962235 -33.26 
L 99.95322 -33.26 
L 100.944206 -33.26 
L 101.935191 -33.26 
L 102.926177 -33.26 
L 103.917163 -33.26 
L 104.908148 -33.26 
L 105.899134 -33.26 
L 106.890119 -33.26 
L 107.881105 -33.26 
L 108.87209 -33.26 
L 109.863076 -33.26 
L 110.854061 -33.26 
L 111.845047 -33.26 
L 112.836033 -33.26 
L 113.827018 -33.26 
L 114.818004 -33.26 
L 115.808989 -33.26 
L 116.799975 -33.26 
L 117.79096 -33.26 
L 118.781946 -33.26 
L 119.772932 -33.26 
L 120.763917 -33.26 
L 121.754903 -33.26 
L 122.745888 -33.26 
L 123.736874 -33.26 
L 124.727859 -33.26 
L 125.718845 -33.26 
L 126.70983 -33.26 
L 127.700816 -33.26 
L 128.691802 -33.26 
L 129.682787 -33.26 
L 130.673773 -33.26 
L 131.664758 -33.26 
L 132.655744 -33.26 
L 133.646729 -33.26 
L 134.637715 -33.26 
L 135.628701 -33.26 
L 136.619686 -33.26 
L 137.610672 -33.26 
L 138.601657 -33.26 
L 139.592643 -33.26 
L 140.583628 -33.26 
L 141.574614 -33.26 
L 142.565599 -33.26 
L 143.556585 -33.26 
L 144.547571 -33.26 
L 145.538556 -33.26 
L 146.529542 -33.26 
L 147.520527 -33.26 
L 148.511513 -33.26 
L 149.502498 -33.26 
L 150.493484 -33.26 
L 151.484469 -33.26 
L 152.475455 -33.26 
L 153.466441 -33.26 
L 154.457426 -33.26 
L 155.448412 -33.26 
L 156.439397 -33.26 
L 157.430383 -33.26 
L 158.421368 -33.26 
L 159.412354 -33.26 
L 160.40334 -33.26 
L 161.394325 -33.26 
L 162.385311 -33.26 
L 163.376296 -33.26 
L 164.367282 -33.26 
L 165.358267 -33.26 
L 166.349253 -33.26 
L 167.340238 -33.26 
L 168.331224 -33.26 
L 169.32221 -33.26 
L 170.313195 -33.26 
L 171.304181 -33.26 
L 172.295166 -33.26 
L 173.286152 -33.26 
L 174.277137 -33.26 
L 175.268123 -33.26 
L 176.259109 -33.26 
L 177.250094 -33.26 
L 178.24108 -33.26 
L 179.232065 -33.26 
L 180.223051 -33.26 
L 181.214036 -33.26 
L 182.205022 -33.26 
L 183.196007 -33.26 
L 184.186993 -33.26 
L 185.177979 -33.26 
L 186.168964 -33.26 
L 187.15995 -33.26 
L 188.150935 -33.26 
L 189.141921 -33.26 
L 190.132906 -33.26 
L 191.123892 -33.26 
L 192.114877 -33.26 
L 193.105863 -33.26 
L 194.096849 -33.26 
L 195.087834 -33.26 
L 196.07882 -33.26 
L 197.069805 -33.26 
L 198.060791 -33.26 
L 199.051776 -33.26 
L 200.042762 -33.26 
L 201.033748 -33.26 
L 202.024733 -33.26 
L 203.015719 -33.26 
L 204.006704 -33.26 
L 204.99769 -33.26 
L 205.988675 -33.26 
L 206.979661 -33.26 
L 207.970646 -33.26 
L 208.961632 -33.26 
L 209.952618 -33.26 
L 210.943603 -33.26 
L 211.934589 -33.26 
L 212.925574 -33.26 
L 213.91656 -33.26 
L 214.907545 -33.26 
L 215.898531 -33.26 
L 216.889517 -33.26 
L 217.880502 -33.26 
L 218.871488 -33.26 
L 219.862473 -33.26 
L 220.853459 -33.26 
L 221.844444 -33.26 
L 222.83543 -33.26 
L 223.826415 -33.26 
L 224.817401 -33.26 
L 225.808387 -33.26 
L 226.799372 -33.26 
L 227.790358 -33.26 
L 228.781343 -33.26 
L 229.772329 -33.26 
L 230.763314 -33.26 
L 231.7543 -33.26 
L 232.745285 -33.26 
L 233.736271 -33.26 
L 234.727257 -33.26 
L 235.718242 -33.26 
L 236.709228 -33.26 
L 237.700213 -33.26 
L 238.691199 -33.26 
L 239.682184 -33.26 
L 240.67317 -33.26 
L 241.664156 -33.26 
L 242.655141 -33.26 
L 243.646127 -33.26 
L 243.646127 -33.398313 
L 243.646127 -33.398313 
L 242.655141 -33.426682 
L 241.664156 -33.460077 
L 240.67317 -33.499216 
L 239.682184 -33.544884 
L 238.691199 -33.597934 
L 237.700213 -33.659282 
L 236.709228 -33.729907 
L 235.718242 -33.810844 
L 234.727257 -33.903177 
L 233.736271 -34.008026 
L 232.745285 -34.126539 
L 231.7543 -34.25987 
L 230.763314 -34.409169 
L 229.772329 -34.575554 
L 228.781343 -34.760094 
L 227.790358 -34.963777 
L 226.799372 -35.187488 
L 225.808387 -35.431977 
L 224.817401 -35.69783 
L 223.826415 -35.985438 
L 222.83543 -36.294967 
L 221.844444 -36.626326 
L 220.853459 -36.979144 
L 219.862473 -37.352743 
L 218.871488 -37.746118 
L 217.880502 -38.157918 
L 216.889517 -38.58644 
L 215.898531 -39.02962 
L 214.907545 -39.485038 
L 213.91656 -39.949928 
L 212.925574 -40.421196 
L 211.934589 -40.895445 
L 210.943603 -41.369009 
L 209.952618 -41.837997 
L 208.961632 -42.298339 
L 207.970646 -42.745845 
L 206.979661 -43.176265 
L 205.988675 -43.585351 
L 204.99769 -43.968933 
L 204.006704 -44.322983 
L 203.015719 -44.643686 
L 202.024733 -44.927512 
L 201.033748 -45.171276 
L 200.042762 -45.372197 
L 199.051776 -45.527957 
L 198.060791 -45.636739 
L 197.069805 -45.697264 
L 196.07882 -45.708819 
L 195.087834 -45.671267 
L 194.096849 -45.585051 
L 193.105863 -45.451187 
L 192.114877 -45.271243 
L 191.123892 -45.047306 
L 190.132906 -44.781946 
L 189.141921 -44.478165 
L 188.150935 -44.139338 
L 187.15995 -43.769156 
L 186.168964 -43.371555 
L 185.177979 -42.950648 
L 184.186993 -42.510656 
L 183.196007 -42.055836 
L 182.205022 -41.590416 
L 181.214036 -41.118532 
L 180.223051 -40.644167 
L 179.232065 -40.171101 
L 178.24108 -39.702866 
L 177.250094 -39.242707 
L 176.259109 -38.793552 
L 175.268123 -38.357994 
L 174.277137 -37.938272 
L 173.286152 -37.536273 
L 172.295166 -37.153525 
L 171.304181 -36.791214 
L 170.313195 -36.450191 
L 169.32221 -36.130999 
L 168.331224 -35.833891 
L 167.340238 -35.558862 
L 166.349253 -35.305674 
L 165.358267 -35.073895 
L 164.367282 -34.862925 
L 163.376296 -34.672032 
L 162.385311 -34.500383 
L 161.394325 -34.347077 
L 160.40334 -34.211173 
L 159.412354 -34.091718 
L 158.421368 -33.987773 
L 157.430383 -33.898437 
L 156.439397 -33.822867 
L 155.448412 -33.760293 
L 154.457426 -33.710043 
L 153.466441 -33.671543 
L 152.475455 -33.644341 
L 151.484469 -33.628105 
L 150.493484 -33.622634 
L 149.502498 -33.627859 
L 148.511513 -33.643848 
L 147.520527 -33.670802 
L 146.529542 -33.709049 
L 145.538556 -33.759045 
L 144.547571 -33.821363 
L 143.556585 -33.896679 
L 142.565599 -33.985766 
L 141.574614 -34.089472 
L 140.583628 -34.208709 
L 139.592643 -34.344428 
L 138.601657 -34.497597 
L 137.610672 -34.669177 
L 136.619686 -34.860098 
L 135.628701 -35.071225 
L 134.637715 -35.303333 
L 133.646729 -35.557074 
L 132.655744 -35.832946 
L 131.664758 -36.131264 
L 130.673773 -36.45213 
L 129.682787 -36.795407 
L 128.691802 -37.160695 
L 127.700816 -37.547308 
L 126.70983 -37.954264 
L 125.718845 -38.380272 
L 124.727859 -38.823733 
L 123.736874 -39.28274 
L 122.745888 -39.755097 
L 121.754903 -40.238337 
L 120.763917 -40.729759 
L 119.772932 -41.22646 
L 118.781946 -41.725394 
L 117.79096 -42.223425 
L 116.799975 -42.717396 
L 115.808989 -43.204207 
L 114.818004 -43.680891 
L 113.827018 -44.144707 
L 112.836033 -44.593228 
L 111.845047 -45.024437 
L 110.854061 -45.436822 
L 109.863076 -45.829471 
L 108.87209 -46.202168 
L 107.881105 -46.555481 
L 106.890119 -46.890846 
L 105.899134 -47.210653 
L 104.908148 -47.518312 
L 103.917163 -47.818323 
L 102.926177 -48.116329 
L 101.935191 -48.419167 
L 100.944206 -48.734908 
L 99.95322 -49.072882 
L 98.962235 -49.443701 
L 97.971249 -49.859271 
L 96.980264 -50.33279 
L 95.989278 -50.878742 
L 94.998292 -51.512879 
L 94.007307 -52.252186 
L 93.016321 -53.114844 
L 92.025336 -54.120171 
L 91.03435 -55.288551 
L 90.043365 -56.641345 
L 89.052379 -58.200777 
L 88.061394 -59.989801 
L 87.070408 -62.03194 
L 86.079422 -64.35109 
L 85.088437 -66.971297 
L 84.097451 -69.916487 
L 83.106466 -73.210168 
L 82.11548 -76.875078 
L 81.124495 -80.932804 
L 80.133509 -85.403353 
L 79.142524 -90.304678 
L 78.151538 -95.652183 
L 77.160552 -101.458185 
L 76.169567 -107.731366 
L 75.178581 -114.476205 
L 74.187596 -121.692415 
L 73.19661 -129.374395 
L 72.205625 -137.510714 
L 71.214639 -146.083638 
L 70.223653 -155.068724 
L 69.232668 -164.434502 
L 68.241682 -174.142251 
L 67.250697 -184.145897 
L 66.259711 -194.392049 
L 65.268726 -204.820169 
L 64.27774 -215.362914 
L 63.286755 -225.946629 
L 62.295769 -236.492011 
L 61.304783 -246.914935 
L 60.313798 -257.127433 
L 59.322812 -267.03882 
L 58.331827 -276.556939 
L 57.340841 -285.589517 
L 56.349856 -294.045593 
L 55.35887 -301.836994 
L 54.367884 -308.879824 
L 53.376899 -315.095935 
L 52.385913 -320.414336 
L 51.394928 -324.772514 
L 50.403942 -328.117622 
L 49.412957 -330.407517 
L 48.421971 -331.611599 
L 47.430986 -331.711452 
L 46.44 -330.701244 
z
" style="stroke: #55a868"/>
    </defs>
    <g clip-path="url(#p05118164ed)">
     <use xlink:href="#m94d624518b" x="0" y="360" style="fill: #55a868; fill-opacity: 0.25; stroke: #55a868"/>
    </g>
   </g>
   <g id="patch_3">
    <path d="M 46.44 326.74 
L 46.44 13.365975 
" style="fill: none; stroke: #ffffff; stroke-width: 1.25; stroke-linejoin: miter; stroke-linecap: square"/>
   </g>
   <g id="patch_4">
    <path d="M 46.44 326.74 
L 347.04 326.74 
" style="fill: none; stroke: #ffffff; stroke-width: 1.25; stroke-linejoin: miter; stroke-linecap: square"/>
   </g>
  </g>
 </g>
 <defs>
  <clipPath id="p05118164ed">
   <rect x="46.44" y="13.365975" width="300.6" height="313.374025"/>
  </clipPath>
 </defs>
</svg>
