<?xml version="1.0" encoding="utf-8" standalone="no"?>
<!DOCTYPE svg PUBLIC "-//W3C//DTD SVG 1.1//EN"
  "http://www.w3.org/Graphics/SVG/1.1/DTD/svg11.dtd">
<svg xmlns:xlink="http://www.w3.org/1999/xlink" width="360pt" height="360pt" viewBox="0 0 360 360" xmlns="http://www.w3.org/2000/svg" version="1.1">
 <metadata>
  <rdf:RDF xmlns:dc="http://purl.org/dc/elements/1.1/" xmlns:cc="http://creativecommons.org/ns#" xmlns:rdf="http://www.w3.org/1999/02/22-rdf-syntax-ns#">
   <cc:Work>
    <dc:type rdf:resource="http://purl.org/dc/dcmitype/StillImage"/>
    <dc:date>2023-03-19T02:50:34.526069</dc:date>
    <dc:format>image/svg+xml</dc:format>
    <dc:creator>
     <cc:Agent>
      <dc:title>Matplotlib v3.6.3, https://matplotlib.org/</dc:title>
     </cc:Agent>
    </dc:creator>
   </cc:Work>
  </rdf:RDF>
 </metadata>
 <defs>
  <style type="text/css">*{stroke-linejoin: round; stroke-linecap: butt}</style>
 </defs>
 <g id="figure_1">
  <g id="patch_1">
   <path d="M 0 360 
L 360 360 
L 360 0 
L 0 0 
z
" style="fill: #ffffff"/>
  </g>
  <g id="axes_1">
   <g id="patch_2">
    <path d="M 53.28 326.74 
L 347.04 326.74 
L 347.04 12.96 
L 53.28 12.96 
z
" style="fill: #eaeaf2"/>
   </g>
   <g id="matplotlib.axis_1">
    <g id="xtick_1">
     <g id="line2d_1">
      <path d="M 53.28 326.74 
L 53.28 12.96 
" clip-path="url(#pf206a53687)" style="fill: none; stroke: #ffffff; stroke-linecap: round"/>
     </g>
     <g id="text_1">
      <!-- 0.0 -->
      <g style="fill: #262626" transform="translate(44.533281 344.598281) scale(0.11 -0.11)">
       <defs>
        <path id="DejaVuSans-30" d="M 2034 4250 
Q 1547 4250 1301 3770 
Q 1056 3291 1056 2328 
Q 1056 1369 1301 889 
Q 1547 409 2034 409 
Q 2525 409 2770 889 
Q 3016 1369 3016 2328 
Q 3016 3291 2770 3770 
Q 2525 4250 2034 4250 
z
M 2034 4750 
Q 2819 4750 3233 4129 
Q 3647 3509 3647 2328 
Q 3647 1150 3233 529 
Q 2819 -91 2034 -91 
Q 1250 -91 836 529 
Q 422 1150 422 2328 
Q 422 3509 836 4129 
Q 1250 4750 2034 4750 
z
" transform="scale(0.015625)"/>
        <path id="DejaVuSans-2e" d="M 684 794 
L 1344 794 
L 1344 0 
L 684 0 
L 684 794 
z
" transform="scale(0.015625)"/>
       </defs>
       <use xlink:href="#DejaVuSans-30"/>
       <use xlink:href="#DejaVuSans-2e" x="63.623047"/>
       <use xlink:href="#DejaVuSans-30" x="95.410156"/>
      </g>
     </g>
    </g>
    <g id="xtick_2">
     <g id="line2d_2">
      <path d="M 112.032 326.74 
L 112.032 12.96 
" clip-path="url(#pf206a53687)" style="fill: none; stroke: #ffffff; stroke-linecap: round"/>
     </g>
     <g id="text_2">
      <!-- 0.2 -->
      <g style="fill: #262626" transform="translate(103.285281 344.598281) scale(0.11 -0.11)">
       <defs>
        <path id="DejaVuSans-32" d="M 1228 531 
L 3431 531 
L 3431 0 
L 469 0 
L 469 531 
Q 828 903 1448 1529 
Q 2069 2156 2228 2338 
Q 2531 2678 2651 2914 
Q 2772 3150 2772 3378 
Q 2772 3750 2511 3984 
Q 2250 4219 1831 4219 
Q 1534 4219 1204 4116 
Q 875 4013 500 3803 
L 500 4441 
Q 881 4594 1212 4672 
Q 1544 4750 1819 4750 
Q 2544 4750 2975 4387 
Q 3406 4025 3406 3419 
Q 3406 3131 3298 2873 
Q 3191 2616 2906 2266 
Q 2828 2175 2409 1742 
Q 1991 1309 1228 531 
z
" transform="scale(0.015625)"/>
       </defs>
       <use xlink:href="#DejaVuSans-30"/>
       <use xlink:href="#DejaVuSans-2e" x="63.623047"/>
       <use xlink:href="#DejaVuSans-32" x="95.410156"/>
      </g>
     </g>
    </g>
    <g id="xtick_3">
     <g id="line2d_3">
      <path d="M 170.784 326.74 
L 170.784 12.96 
" clip-path="url(#pf206a53687)" style="fill: none; stroke: #ffffff; stroke-linecap: round"/>
     </g>
     <g id="text_3">
      <!-- 0.4 -->
      <g style="fill: #262626" transform="translate(162.037281 344.598281) scale(0.11 -0.11)">
       <defs>
        <path id="DejaVuSans-34" d="M 2419 4116 
L 825 1625 
L 2419 1625 
L 2419 4116 
z
M 2253 4666 
L 3047 4666 
L 3047 1625 
L 3713 1625 
L 3713 1100 
L 3047 1100 
L 3047 0 
L 2419 0 
L 2419 1100 
L 313 1100 
L 313 1709 
L 2253 4666 
z
" transform="scale(0.015625)"/>
       </defs>
       <use xlink:href="#DejaVuSans-30"/>
       <use xlink:href="#DejaVuSans-2e" x="63.623047"/>
       <use xlink:href="#DejaVuSans-34" x="95.410156"/>
      </g>
     </g>
    </g>
    <g id="xtick_4">
     <g id="line2d_4">
      <path d="M 229.536 326.74 
L 229.536 12.96 
" clip-path="url(#pf206a53687)" style="fill: none; stroke: #ffffff; stroke-linecap: round"/>
     </g>
     <g id="text_4">
      <!-- 0.6 -->
      <g style="fill: #262626" transform="translate(220.789281 344.598281) scale(0.11 -0.11)">
       <defs>
        <path id="DejaVuSans-36" d="M 2113 2584 
Q 1688 2584 1439 2293 
Q 1191 2003 1191 1497 
Q 1191 994 1439 701 
Q 1688 409 2113 409 
Q 2538 409 2786 701 
Q 3034 994 3034 1497 
Q 3034 2003 2786 2293 
Q 2538 2584 2113 2584 
z
M 3366 4563 
L 3366 3988 
Q 3128 4100 2886 4159 
Q 2644 4219 2406 4219 
Q 1781 4219 1451 3797 
Q 1122 3375 1075 2522 
Q 1259 2794 1537 2939 
Q 1816 3084 2150 3084 
Q 2853 3084 3261 2657 
Q 3669 2231 3669 1497 
Q 3669 778 3244 343 
Q 2819 -91 2113 -91 
Q 1303 -91 875 529 
Q 447 1150 447 2328 
Q 447 3434 972 4092 
Q 1497 4750 2381 4750 
Q 2619 4750 2861 4703 
Q 3103 4656 3366 4563 
z
" transform="scale(0.015625)"/>
       </defs>
       <use xlink:href="#DejaVuSans-30"/>
       <use xlink:href="#DejaVuSans-2e" x="63.623047"/>
       <use xlink:href="#DejaVuSans-36" x="95.410156"/>
      </g>
     </g>
    </g>
    <g id="xtick_5">
     <g id="line2d_5">
      <path d="M 288.288 326.74 
L 288.288 12.96 
" clip-path="url(#pf206a53687)" style="fill: none; stroke: #ffffff; stroke-linecap: round"/>
     </g>
     <g id="text_5">
      <!-- 0.8 -->
      <g style="fill: #262626" transform="translate(279.541281 344.598281) scale(0.11 -0.11)">
       <defs>
        <path id="DejaVuSans-38" d="M 2034 2216 
Q 1584 2216 1326 1975 
Q 1069 1734 1069 1313 
Q 1069 891 1326 650 
Q 1584 409 2034 409 
Q 2484 409 2743 651 
Q 3003 894 3003 1313 
Q 3003 1734 2745 1975 
Q 2488 2216 2034 2216 
z
M 1403 2484 
Q 997 2584 770 2862 
Q 544 3141 544 3541 
Q 544 4100 942 4425 
Q 1341 4750 2034 4750 
Q 2731 4750 3128 4425 
Q 3525 4100 3525 3541 
Q 3525 3141 3298 2862 
Q 3072 2584 2669 2484 
Q 3125 2378 3379 2068 
Q 3634 1759 3634 1313 
Q 3634 634 3220 271 
Q 2806 -91 2034 -91 
Q 1263 -91 848 271 
Q 434 634 434 1313 
Q 434 1759 690 2068 
Q 947 2378 1403 2484 
z
M 1172 3481 
Q 1172 3119 1398 2916 
Q 1625 2713 2034 2713 
Q 2441 2713 2670 2916 
Q 2900 3119 2900 3481 
Q 2900 3844 2670 4047 
Q 2441 4250 2034 4250 
Q 1625 4250 1398 4047 
Q 1172 3844 1172 3481 
z
" transform="scale(0.015625)"/>
       </defs>
       <use xlink:href="#DejaVuSans-30"/>
       <use xlink:href="#DejaVuSans-2e" x="63.623047"/>
       <use xlink:href="#DejaVuSans-38" x="95.410156"/>
      </g>
     </g>
    </g>
    <g id="xtick_6">
     <g id="line2d_6">
      <path d="M 347.04 326.74 
L 347.04 12.96 
" clip-path="url(#pf206a53687)" style="fill: none; stroke: #ffffff; stroke-linecap: round"/>
     </g>
     <g id="text_6">
      <!-- 1.0 -->
      <g style="fill: #262626" transform="translate(338.293281 344.598281) scale(0.11 -0.11)">
       <defs>
        <path id="DejaVuSans-31" d="M 794 531 
L 1825 531 
L 1825 4091 
L 703 3866 
L 703 4441 
L 1819 4666 
L 2450 4666 
L 2450 531 
L 3481 531 
L 3481 0 
L 794 0 
L 794 531 
z
" transform="scale(0.015625)"/>
       </defs>
       <use xlink:href="#DejaVuSans-31"/>
       <use xlink:href="#DejaVuSans-2e" x="63.623047"/>
       <use xlink:href="#DejaVuSans-30" x="95.410156"/>
      </g>
     </g>
    </g>
    <g id="text_7">
     <!-- Probabilités [-] -->
     <g style="fill: #262626" transform="translate(156.425625 360.004063) scale(0.12 -0.12)">
      <defs>
       <path id="DejaVuSans-50" d="M 1259 4147 
L 1259 2394 
L 2053 2394 
Q 2494 2394 2734 2622 
Q 2975 2850 2975 3272 
Q 2975 3691 2734 3919 
Q 2494 4147 2053 4147 
L 1259 4147 
z
M 628 4666 
L 2053 4666 
Q 2838 4666 3239 4311 
Q 3641 3956 3641 3272 
Q 3641 2581 3239 2228 
Q 2838 1875 2053 1875 
L 1259 1875 
L 1259 0 
L 628 0 
L 628 4666 
z
" transform="scale(0.015625)"/>
       <path id="DejaVuSans-72" d="M 2631 2963 
Q 2534 3019 2420 3045 
Q 2306 3072 2169 3072 
Q 1681 3072 1420 2755 
Q 1159 2438 1159 1844 
L 1159 0 
L 581 0 
L 581 3500 
L 1159 3500 
L 1159 2956 
Q 1341 3275 1631 3429 
Q 1922 3584 2338 3584 
Q 2397 3584 2469 3576 
Q 2541 3569 2628 3553 
L 2631 2963 
z
" transform="scale(0.015625)"/>
       <path id="DejaVuSans-6f" d="M 1959 3097 
Q 1497 3097 1228 2736 
Q 959 2375 959 1747 
Q 959 1119 1226 758 
Q 1494 397 1959 397 
Q 2419 397 2687 759 
Q 2956 1122 2956 1747 
Q 2956 2369 2687 2733 
Q 2419 3097 1959 3097 
z
M 1959 3584 
Q 2709 3584 3137 3096 
Q 3566 2609 3566 1747 
Q 3566 888 3137 398 
Q 2709 -91 1959 -91 
Q 1206 -91 779 398 
Q 353 888 353 1747 
Q 353 2609 779 3096 
Q 1206 3584 1959 3584 
z
" transform="scale(0.015625)"/>
       <path id="DejaVuSans-62" d="M 3116 1747 
Q 3116 2381 2855 2742 
Q 2594 3103 2138 3103 
Q 1681 3103 1420 2742 
Q 1159 2381 1159 1747 
Q 1159 1113 1420 752 
Q 1681 391 2138 391 
Q 2594 391 2855 752 
Q 3116 1113 3116 1747 
z
M 1159 2969 
Q 1341 3281 1617 3432 
Q 1894 3584 2278 3584 
Q 2916 3584 3314 3078 
Q 3713 2572 3713 1747 
Q 3713 922 3314 415 
Q 2916 -91 2278 -91 
Q 1894 -91 1617 61 
Q 1341 213 1159 525 
L 1159 0 
L 581 0 
L 581 4863 
L 1159 4863 
L 1159 2969 
z
" transform="scale(0.015625)"/>
       <path id="DejaVuSans-61" d="M 2194 1759 
Q 1497 1759 1228 1600 
Q 959 1441 959 1056 
Q 959 750 1161 570 
Q 1363 391 1709 391 
Q 2188 391 2477 730 
Q 2766 1069 2766 1631 
L 2766 1759 
L 2194 1759 
z
M 3341 1997 
L 3341 0 
L 2766 0 
L 2766 531 
Q 2569 213 2275 61 
Q 1981 -91 1556 -91 
Q 1019 -91 701 211 
Q 384 513 384 1019 
Q 384 1609 779 1909 
Q 1175 2209 1959 2209 
L 2766 2209 
L 2766 2266 
Q 2766 2663 2505 2880 
Q 2244 3097 1772 3097 
Q 1472 3097 1187 3025 
Q 903 2953 641 2809 
L 641 3341 
Q 956 3463 1253 3523 
Q 1550 3584 1831 3584 
Q 2591 3584 2966 3190 
Q 3341 2797 3341 1997 
z
" transform="scale(0.015625)"/>
       <path id="DejaVuSans-69" d="M 603 3500 
L 1178 3500 
L 1178 0 
L 603 0 
L 603 3500 
z
M 603 4863 
L 1178 4863 
L 1178 4134 
L 603 4134 
L 603 4863 
z
" transform="scale(0.015625)"/>
       <path id="DejaVuSans-6c" d="M 603 4863 
L 1178 4863 
L 1178 0 
L 603 0 
L 603 4863 
z
" transform="scale(0.015625)"/>
       <path id="DejaVuSans-74" d="M 1172 4494 
L 1172 3500 
L 2356 3500 
L 2356 3053 
L 1172 3053 
L 1172 1153 
Q 1172 725 1289 603 
Q 1406 481 1766 481 
L 2356 481 
L 2356 0 
L 1766 0 
Q 1100 0 847 248 
Q 594 497 594 1153 
L 594 3053 
L 172 3053 
L 172 3500 
L 594 3500 
L 594 4494 
L 1172 4494 
z
" transform="scale(0.015625)"/>
       <path id="DejaVuSans-e9" d="M 3597 1894 
L 3597 1613 
L 953 1613 
Q 991 1019 1311 708 
Q 1631 397 2203 397 
Q 2534 397 2845 478 
Q 3156 559 3463 722 
L 3463 178 
Q 3153 47 2828 -22 
Q 2503 -91 2169 -91 
Q 1331 -91 842 396 
Q 353 884 353 1716 
Q 353 2575 817 3079 
Q 1281 3584 2069 3584 
Q 2775 3584 3186 3129 
Q 3597 2675 3597 1894 
z
M 3022 2063 
Q 3016 2534 2758 2815 
Q 2500 3097 2075 3097 
Q 1594 3097 1305 2825 
Q 1016 2553 972 2059 
L 3022 2063 
z
M 2466 5119 
L 3088 5119 
L 2070 3944 
L 1591 3944 
L 2466 5119 
z
" transform="scale(0.015625)"/>
       <path id="DejaVuSans-73" d="M 2834 3397 
L 2834 2853 
Q 2591 2978 2328 3040 
Q 2066 3103 1784 3103 
Q 1356 3103 1142 2972 
Q 928 2841 928 2578 
Q 928 2378 1081 2264 
Q 1234 2150 1697 2047 
L 1894 2003 
Q 2506 1872 2764 1633 
Q 3022 1394 3022 966 
Q 3022 478 2636 193 
Q 2250 -91 1575 -91 
Q 1294 -91 989 -36 
Q 684 19 347 128 
L 347 722 
Q 666 556 975 473 
Q 1284 391 1588 391 
Q 1994 391 2212 530 
Q 2431 669 2431 922 
Q 2431 1156 2273 1281 
Q 2116 1406 1581 1522 
L 1381 1569 
Q 847 1681 609 1914 
Q 372 2147 372 2553 
Q 372 3047 722 3315 
Q 1072 3584 1716 3584 
Q 2034 3584 2315 3537 
Q 2597 3491 2834 3397 
z
" transform="scale(0.015625)"/>
       <path id="DejaVuSans-20" transform="scale(0.015625)"/>
       <path id="DejaVuSans-5b" d="M 550 4863 
L 1875 4863 
L 1875 4416 
L 1125 4416 
L 1125 -397 
L 1875 -397 
L 1875 -844 
L 550 -844 
L 550 4863 
z
" transform="scale(0.015625)"/>
       <path id="DejaVuSans-2d" d="M 313 2009 
L 1997 2009 
L 1997 1497 
L 313 1497 
L 313 2009 
z
" transform="scale(0.015625)"/>
       <path id="DejaVuSans-5d" d="M 1947 4863 
L 1947 -844 
L 622 -844 
L 622 -397 
L 1369 -397 
L 1369 4416 
L 622 4416 
L 622 4863 
L 1947 4863 
z
" transform="scale(0.015625)"/>
      </defs>
      <use xlink:href="#DejaVuSans-50"/>
      <use xlink:href="#DejaVuSans-72" x="58.552734"/>
      <use xlink:href="#DejaVuSans-6f" x="97.416016"/>
      <use xlink:href="#DejaVuSans-62" x="158.597656"/>
      <use xlink:href="#DejaVuSans-61" x="222.074219"/>
      <use xlink:href="#DejaVuSans-62" x="283.353516"/>
      <use xlink:href="#DejaVuSans-69" x="346.830078"/>
      <use xlink:href="#DejaVuSans-6c" x="374.613281"/>
      <use xlink:href="#DejaVuSans-69" x="402.396484"/>
      <use xlink:href="#DejaVuSans-74" x="430.179688"/>
      <use xlink:href="#DejaVuSans-e9" x="469.388672"/>
      <use xlink:href="#DejaVuSans-73" x="530.912109"/>
      <use xlink:href="#DejaVuSans-20" x="583.011719"/>
      <use xlink:href="#DejaVuSans-5b" x="614.798828"/>
      <use xlink:href="#DejaVuSans-2d" x="653.8125"/>
      <use xlink:href="#DejaVuSans-5d" x="689.896484"/>
     </g>
    </g>
   </g>
   <g id="matplotlib.axis_2">
    <g id="ytick_1">
     <g id="line2d_7">
      <path d="M 53.28 326.74 
L 347.04 326.74 
" clip-path="url(#pf206a53687)" style="fill: none; stroke: #ffffff; stroke-linecap: round"/>
     </g>
     <g id="text_8">
      <!-- 0 -->
      <g style="fill: #262626" transform="translate(36.78125 330.919141) scale(0.11 -0.11)">
       <use xlink:href="#DejaVuSans-30"/>
      </g>
     </g>
    </g>
    <g id="ytick_2">
     <g id="line2d_8">
      <path d="M 53.28 271.589728 
L 347.04 271.589728 
" clip-path="url(#pf206a53687)" style="fill: none; stroke: #ffffff; stroke-linecap: round"/>
     </g>
     <g id="text_9">
      <!-- 5 -->
      <g style="fill: #262626" transform="translate(36.78125 275.768868) scale(0.11 -0.11)">
       <defs>
        <path id="DejaVuSans-35" d="M 691 4666 
L 3169 4666 
L 3169 4134 
L 1269 4134 
L 1269 2991 
Q 1406 3038 1543 3061 
Q 1681 3084 1819 3084 
Q 2600 3084 3056 2656 
Q 3513 2228 3513 1497 
Q 3513 744 3044 326 
Q 2575 -91 1722 -91 
Q 1428 -91 1123 -41 
Q 819 9 494 109 
L 494 744 
Q 775 591 1075 516 
Q 1375 441 1709 441 
Q 2250 441 2565 725 
Q 2881 1009 2881 1497 
Q 2881 1984 2565 2268 
Q 2250 2553 1709 2553 
Q 1456 2553 1204 2497 
Q 953 2441 691 2322 
L 691 4666 
z
" transform="scale(0.015625)"/>
       </defs>
       <use xlink:href="#DejaVuSans-35"/>
      </g>
     </g>
    </g>
    <g id="ytick_3">
     <g id="line2d_9">
      <path d="M 53.28 216.439456 
L 347.04 216.439456 
" clip-path="url(#pf206a53687)" style="fill: none; stroke: #ffffff; stroke-linecap: round"/>
     </g>
     <g id="text_10">
      <!-- 10 -->
      <g style="fill: #262626" transform="translate(29.7825 220.618596) scale(0.11 -0.11)">
       <use xlink:href="#DejaVuSans-31"/>
       <use xlink:href="#DejaVuSans-30" x="63.623047"/>
      </g>
     </g>
    </g>
    <g id="ytick_4">
     <g id="line2d_10">
      <path d="M 53.28 161.289183 
L 347.04 161.289183 
" clip-path="url(#pf206a53687)" style="fill: none; stroke: #ffffff; stroke-linecap: round"/>
     </g>
     <g id="text_11">
      <!-- 15 -->
      <g style="fill: #262626" transform="translate(29.7825 165.468324) scale(0.11 -0.11)">
       <use xlink:href="#DejaVuSans-31"/>
       <use xlink:href="#DejaVuSans-35" x="63.623047"/>
      </g>
     </g>
    </g>
    <g id="ytick_5">
     <g id="line2d_11">
      <path d="M 53.28 106.138911 
L 347.04 106.138911 
" clip-path="url(#pf206a53687)" style="fill: none; stroke: #ffffff; stroke-linecap: round"/>
     </g>
     <g id="text_12">
      <!-- 20 -->
      <g style="fill: #262626" transform="translate(29.7825 110.318052) scale(0.11 -0.11)">
       <use xlink:href="#DejaVuSans-32"/>
       <use xlink:href="#DejaVuSans-30" x="63.623047"/>
      </g>
     </g>
    </g>
    <g id="ytick_6">
     <g id="line2d_12">
      <path d="M 53.28 50.988639 
L 347.04 50.988639 
" clip-path="url(#pf206a53687)" style="fill: none; stroke: #ffffff; stroke-linecap: round"/>
     </g>
     <g id="text_13">
      <!-- 25 -->
      <g style="fill: #262626" transform="translate(29.7825 55.16778) scale(0.11 -0.11)">
       <use xlink:href="#DejaVuSans-32"/>
       <use xlink:href="#DejaVuSans-35" x="63.623047"/>
      </g>
     </g>
    </g>
    <g id="text_14">
     <!-- Densité [-] -->
     <g style="fill: #262626" transform="translate(23.286875 201.554375) rotate(-90) scale(0.12 -0.12)">
      <defs>
       <path id="DejaVuSans-44" d="M 1259 4147 
L 1259 519 
L 2022 519 
Q 2988 519 3436 956 
Q 3884 1394 3884 2338 
Q 3884 3275 3436 3711 
Q 2988 4147 2022 4147 
L 1259 4147 
z
M 628 4666 
L 1925 4666 
Q 3281 4666 3915 4102 
Q 4550 3538 4550 2338 
Q 4550 1131 3912 565 
Q 3275 0 1925 0 
L 628 0 
L 628 4666 
z
" transform="scale(0.015625)"/>
       <path id="DejaVuSans-65" d="M 3597 1894 
L 3597 1613 
L 953 1613 
Q 991 1019 1311 708 
Q 1631 397 2203 397 
Q 2534 397 2845 478 
Q 3156 559 3463 722 
L 3463 178 
Q 3153 47 2828 -22 
Q 2503 -91 2169 -91 
Q 1331 -91 842 396 
Q 353 884 353 1716 
Q 353 2575 817 3079 
Q 1281 3584 2069 3584 
Q 2775 3584 3186 3129 
Q 3597 2675 3597 1894 
z
M 3022 2063 
Q 3016 2534 2758 2815 
Q 2500 3097 2075 3097 
Q 1594 3097 1305 2825 
Q 1016 2553 972 2059 
L 3022 2063 
z
" transform="scale(0.015625)"/>
       <path id="DejaVuSans-6e" d="M 3513 2113 
L 3513 0 
L 2938 0 
L 2938 2094 
Q 2938 2591 2744 2837 
Q 2550 3084 2163 3084 
Q 1697 3084 1428 2787 
Q 1159 2491 1159 1978 
L 1159 0 
L 581 0 
L 581 3500 
L 1159 3500 
L 1159 2956 
Q 1366 3272 1645 3428 
Q 1925 3584 2291 3584 
Q 2894 3584 3203 3211 
Q 3513 2838 3513 2113 
z
" transform="scale(0.015625)"/>
      </defs>
      <use xlink:href="#DejaVuSans-44"/>
      <use xlink:href="#DejaVuSans-65" x="77.001953"/>
      <use xlink:href="#DejaVuSans-6e" x="138.525391"/>
      <use xlink:href="#DejaVuSans-73" x="201.904297"/>
      <use xlink:href="#DejaVuSans-69" x="254.003906"/>
      <use xlink:href="#DejaVuSans-74" x="281.787109"/>
      <use xlink:href="#DejaVuSans-e9" x="320.996094"/>
      <use xlink:href="#DejaVuSans-20" x="382.519531"/>
      <use xlink:href="#DejaVuSans-5b" x="414.306641"/>
      <use xlink:href="#DejaVuSans-2d" x="453.320312"/>
      <use xlink:href="#DejaVuSans-5d" x="489.404297"/>
     </g>
    </g>
   </g>
   <g id="PolyCollection_1">
    <defs>
     <path id="ma43cb4389c" d="M 53.28 -315.210772 
L 53.28 -33.26 
L 53.729242 -33.26 
L 54.178484 -33.26 
L 54.627726 -33.26 
L 55.076968 -33.26 
L 55.52621 -33.26 
L 55.975452 -33.26 
L 56.424694 -33.26 
L 56.873936 -33.26 
L 57.323178 -33.26 
L 57.77242 -33.26 
L 58.221662 -33.26 
L 58.670904 -33.26 
L 59.120146 -33.26 
L 59.569388 -33.26 
L 60.01863 -33.26 
L 60.467872 -33.26 
L 60.917114 -33.26 
L 61.366356 -33.26 
L 61.815598 -33.26 
L 62.26484 -33.26 
L 62.714082 -33.26 
L 63.163324 -33.26 
L 63.612566 -33.26 
L 64.061808 -33.26 
L 64.51105 -33.26 
L 64.960292 -33.26 
L 65.409534 -33.26 
L 65.858776 -33.26 
L 66.308018 -33.26 
L 66.75726 -33.26 
L 67.206502 -33.26 
L 67.655744 -33.26 
L 68.104985 -33.26 
L 68.554227 -33.26 
L 69.003469 -33.26 
L 69.452711 -33.26 
L 69.901953 -33.26 
L 70.351195 -33.26 
L 70.800437 -33.26 
L 71.249679 -33.26 
L 71.698921 -33.26 
L 72.148163 -33.26 
L 72.597405 -33.26 
L 73.046647 -33.26 
L 73.495889 -33.26 
L 73.945131 -33.26 
L 74.394373 -33.26 
L 74.843615 -33.26 
L 75.292857 -33.26 
L 75.742099 -33.26 
L 76.191341 -33.26 
L 76.640583 -33.26 
L 77.089825 -33.26 
L 77.539067 -33.26 
L 77.988309 -33.26 
L 78.437551 -33.26 
L 78.886793 -33.26 
L 79.336035 -33.26 
L 79.785277 -33.26 
L 80.234519 -33.26 
L 80.683761 -33.26 
L 81.133003 -33.26 
L 81.582245 -33.26 
L 82.031487 -33.26 
L 82.480729 -33.26 
L 82.929971 -33.26 
L 83.379213 -33.26 
L 83.828455 -33.26 
L 84.277697 -33.26 
L 84.726939 -33.26 
L 85.176181 -33.26 
L 85.625423 -33.26 
L 86.074665 -33.26 
L 86.523907 -33.26 
L 86.973149 -33.26 
L 87.422391 -33.26 
L 87.871633 -33.26 
L 88.320875 -33.26 
L 88.770117 -33.26 
L 89.219359 -33.26 
L 89.668601 -33.26 
L 90.117843 -33.26 
L 90.567085 -33.26 
L 91.016327 -33.26 
L 91.465569 -33.26 
L 91.914811 -33.26 
L 92.364053 -33.26 
L 92.813295 -33.26 
L 93.262537 -33.26 
L 93.711779 -33.26 
L 94.161021 -33.26 
L 94.610263 -33.26 
L 95.059505 -33.26 
L 95.508747 -33.26 
L 95.957989 -33.26 
L 96.407231 -33.26 
L 96.856473 -33.26 
L 97.305715 -33.26 
L 97.754956 -33.26 
L 98.204198 -33.26 
L 98.65344 -33.26 
L 99.102682 -33.26 
L 99.551924 -33.26 
L 100.001166 -33.26 
L 100.450408 -33.26 
L 100.89965 -33.26 
L 101.348892 -33.26 
L 101.798134 -33.26 
L 102.247376 -33.26 
L 102.696618 -33.26 
L 103.14586 -33.26 
L 103.595102 -33.26 
L 104.044344 -33.26 
L 104.493586 -33.26 
L 104.942828 -33.26 
L 105.39207 -33.26 
L 105.841312 -33.26 
L 106.290554 -33.26 
L 106.739796 -33.26 
L 107.189038 -33.26 
L 107.63828 -33.26 
L 108.087522 -33.26 
L 108.536764 -33.26 
L 108.986006 -33.26 
L 109.435248 -33.26 
L 109.88449 -33.26 
L 110.333732 -33.26 
L 110.782974 -33.26 
L 111.232216 -33.26 
L 111.681458 -33.26 
L 112.1307 -33.26 
L 112.579942 -33.26 
L 113.029184 -33.26 
L 113.478426 -33.26 
L 113.927668 -33.26 
L 114.37691 -33.26 
L 114.826152 -33.26 
L 115.275394 -33.26 
L 115.724636 -33.26 
L 116.173878 -33.26 
L 116.62312 -33.26 
L 117.072362 -33.26 
L 117.521604 -33.26 
L 117.970846 -33.26 
L 118.420088 -33.26 
L 118.86933 -33.26 
L 119.318572 -33.26 
L 119.767814 -33.26 
L 120.217056 -33.26 
L 120.666298 -33.26 
L 121.11554 -33.26 
L 121.564782 -33.26 
L 122.014024 -33.26 
L 122.463266 -33.26 
L 122.912508 -33.26 
L 123.36175 -33.26 
L 123.810992 -33.26 
L 124.260234 -33.26 
L 124.709476 -33.26 
L 125.158718 -33.26 
L 125.60796 -33.26 
L 126.057202 -33.26 
L 126.506444 -33.26 
L 126.955685 -33.26 
L 127.404927 -33.26 
L 127.854169 -33.26 
L 128.303411 -33.26 
L 128.752653 -33.26 
L 129.201895 -33.26 
L 129.651137 -33.26 
L 130.100379 -33.26 
L 130.549621 -33.26 
L 130.998863 -33.26 
L 131.448105 -33.26 
L 131.897347 -33.26 
L 132.346589 -33.26 
L 132.795831 -33.26 
L 133.245073 -33.26 
L 133.694315 -33.26 
L 134.143557 -33.26 
L 134.592799 -33.26 
L 135.042041 -33.26 
L 135.491283 -33.26 
L 135.940525 -33.26 
L 136.389767 -33.26 
L 136.839009 -33.26 
L 137.288251 -33.26 
L 137.737493 -33.26 
L 138.186735 -33.26 
L 138.635977 -33.26 
L 139.085219 -33.26 
L 139.534461 -33.26 
L 139.983703 -33.26 
L 140.432945 -33.26 
L 140.882187 -33.26 
L 141.331429 -33.26 
L 141.780671 -33.26 
L 142.229913 -33.26 
L 142.679155 -33.26 
L 142.679155 -33.267623 
L 142.679155 -33.267623 
L 142.229913 -33.272421 
L 141.780671 -33.27968 
L 141.331429 -33.290319 
L 140.882187 -33.305419 
L 140.432945 -33.326159 
L 139.983703 -33.353704 
L 139.534461 -33.389051 
L 139.085219 -33.432819 
L 138.635977 -33.485035 
L 138.186735 -33.544928 
L 137.737493 -33.610791 
L 137.288251 -33.679942 
L 136.839009 -33.74883 
L 136.389767 -33.813292 
L 135.940525 -33.868946 
L 135.491283 -33.911676 
L 135.042041 -33.938131 
L 134.592799 -33.946161 
L 134.143557 -33.935106 
L 133.694315 -33.90589 
L 133.245073 -33.860899 
L 132.795831 -33.803667 
L 132.346589 -33.738438 
L 131.897347 -33.669672 
L 131.448105 -33.601589 
L 130.998863 -33.53782 
L 130.549621 -33.481198 
L 130.100379 -33.433712 
L 129.651137 -33.39659 
L 129.201895 -33.370474 
L 128.752653 -33.355627 
L 128.303411 -33.35213 
L 127.854169 -33.359999 
L 127.404927 -33.379226 
L 126.955685 -33.409712 
L 126.506444 -33.451125 
L 126.057202 -33.502715 
L 125.60796 -33.563122 
L 125.158718 -33.630269 
L 124.709476 -33.701356 
L 124.260234 -33.773011 
L 123.810992 -33.841609 
L 123.36175 -33.903713 
L 122.912508 -33.95659 
L 122.463266 -33.9987 
L 122.014024 -34.030059 
L 121.564782 -34.05238 
L 121.11554 -34.06894 
L 120.666298 -34.084153 
L 120.217056 -34.102897 
L 119.767814 -34.129702 
L 119.318572 -34.167906 
L 118.86933 -34.218959 
L 118.420088 -34.281973 
L 117.970846 -34.353626 
L 117.521604 -34.428453 
L 117.072362 -34.499478 
L 116.62312 -34.559114 
L 116.173878 -34.600178 
L 115.724636 -34.616875 
L 115.275394 -34.605595 
L 114.826152 -34.565417 
L 114.37691 -34.498251 
L 113.927668 -34.408626 
L 113.478426 -34.303181 
L 113.029184 -34.189962 
L 112.579942 -34.077643 
L 112.1307 -33.974778 
L 111.681458 -33.889172 
L 111.232216 -33.827418 
L 110.782974 -33.794586 
L 110.333732 -33.79406 
L 109.88449 -33.82746 
L 109.435248 -33.89461 
L 108.986006 -33.993552 
L 108.536764 -34.120573 
L 108.087522 -34.2703 
L 107.63828 -34.435897 
L 107.189038 -34.609388 
L 106.739796 -34.78216 
L 106.290554 -34.94561 
L 105.841312 -35.091925 
L 105.39207 -35.214883 
L 104.942828 -35.310599 
L 104.493586 -35.378081 
L 104.044344 -35.419502 
L 103.595102 -35.440114 
L 103.14586 -35.447792 
L 102.696618 -35.452244 
L 102.247376 -35.463981 
L 101.798134 -35.493182 
L 101.348892 -35.548582 
L 100.89965 -35.636538 
L 100.450408 -35.760359 
L 100.001166 -35.91997 
L 99.551924 -36.111917 
L 99.102682 -36.329708 
L 98.65344 -36.564406 
L 98.204198 -36.805429 
L 97.754956 -37.041445 
L 97.305715 -37.261282 
L 96.856473 -37.454756 
L 96.407231 -37.613359 
L 95.957989 -37.730742 
L 95.508747 -37.803001 
L 95.059505 -37.828777 
L 94.610263 -37.809212 
L 94.161021 -37.747835 
L 93.711779 -37.65042 
L 93.262537 -37.524843 
L 92.813295 -37.380933 
L 92.364053 -37.230286 
L 91.914811 -37.08599 
L 91.465569 -36.962223 
L 91.016327 -36.873698 
L 90.567085 -36.83497 
L 90.117843 -36.859642 
L 89.668601 -36.959521 
L 89.219359 -37.1438 
L 88.770117 -37.418303 
L 88.320875 -37.784857 
L 87.871633 -38.240826 
L 87.422391 -38.77886 
L 86.973149 -39.38692 
L 86.523907 -40.048634 
L 86.074665 -40.744054 
L 85.625423 -41.450821 
L 85.176181 -42.145726 
L 84.726939 -42.806551 
L 84.277697 -43.414003 
L 83.828455 -43.953503 
L 83.379213 -44.416575 
L 82.929971 -44.801599 
L 82.480729 -45.113798 
L 82.031487 -45.364438 
L 81.582245 -45.569374 
L 81.133003 -45.74715 
L 80.683761 -45.916955 
L 80.234519 -46.0967 
L 79.785277 -46.301435 
L 79.336035 -46.542225 
L 78.886793 -46.825504 
L 78.437551 -47.152866 
L 77.988309 -47.521244 
L 77.539067 -47.923423 
L 77.089825 -48.348909 
L 76.640583 -48.785185 
L 76.191341 -49.219369 
L 75.742099 -49.640234 
L 75.292857 -50.040421 
L 74.843615 -50.418579 
L 74.394373 -50.781053 
L 73.945131 -51.142756 
L 73.495889 -51.526927 
L 73.046647 -51.963661 
L 72.597405 -52.487317 
L 72.148163 -53.133144 
L 71.698921 -53.933618 
L 71.249679 -54.915068 
L 70.800437 -56.095093 
L 70.351195 -57.481142 
L 69.901953 -59.070415 
L 69.452711 -60.851018 
L 69.003469 -62.804143 
L 68.554227 -64.906958 
L 68.104985 -67.135849 
L 67.655744 -69.469716 
L 67.206502 -71.893086 
L 66.75726 -74.398826 
L 66.308018 -76.990304 
L 65.858776 -79.68282 
L 65.409534 -82.504163 
L 64.960292 -85.494208 
L 64.51105 -88.703629 
L 64.061808 -92.192008 
L 63.612566 -96.02589 
L 63.163324 -100.27752 
L 62.714082 -105.025052 
L 62.26484 -110.354736 
L 61.815598 -116.365082 
L 61.366356 -123.172108 
L 60.917114 -130.913794 
L 60.467872 -139.750977 
L 60.01863 -149.861376 
L 59.569388 -161.423687 
L 59.120146 -174.589797 
L 58.670904 -189.445325 
L 58.221662 -205.961632 
L 57.77242 -223.9457 
L 57.323178 -242.997152 
L 56.873936 -262.483266 
L 56.424694 -281.542374 
L 55.975452 -299.123041 
L 55.52621 -314.060938 
L 55.076968 -325.188199 
L 54.627726 -331.462618 
L 54.178484 -332.098095 
L 53.729242 -326.675019 
L 53.28 -315.210772 
z
" style="stroke: #c44e52"/>
    </defs>
    <g clip-path="url(#pf206a53687)">
     <use xlink:href="#ma43cb4389c" x="0" y="360" style="fill: #c44e52; fill-opacity: 0.25; stroke: #c44e52"/>
    </g>
   </g>
   <g id="patch_3">
    <path d="M 53.28 326.74 
L 53.28 12.96 
" style="fill: none; stroke: #ffffff; stroke-width: 1.25; stroke-linejoin: miter; stroke-linecap: square"/>
   </g>
   <g id="patch_4">
    <path d="M 53.28 326.74 
L 347.04 326.74 
" style="fill: none; stroke: #ffffff; stroke-width: 1.25; stroke-linejoin: miter; stroke-linecap: square"/>
   </g>
  </g>
 </g>
 <defs>
  <clipPath id="pf206a53687">
   <rect x="53.28" y="12.96" width="293.76" height="313.78"/>
  </clipPath>
 </defs>
</svg>
